<svg width="24" height="25" viewBox="0 0 24 25" fill="none" xmlns="http://www.w3.org/2000/svg">
<path d="M23.3246 12.5C23.3246 16.3694 20.1941 19.5 16.3246 19.5C14.6913 19.5 13.1941 18.9361 12.008 18.0028C13.6413 16.7194 14.6719 14.7361 14.6719 12.5C14.6719 10.2639 13.6219 8.28055 12.008 6.99722C13.1941 6.06389 14.6913 5.5 16.3246 5.5C20.1941 5.5 23.3246 8.64999 23.3246 12.5Z" fill="#F79E1B"/>
<path d="M12.008 6.99722C12.008 6.99722 12.008 6.99722 12.008 6.99722C13.6219 8.28055 14.6719 10.2639 14.6719 12.5C14.6719 14.7361 13.6413 16.7194 12.008 18.0028L11.9885 18.0028C10.3746 16.7389 9.32463 14.7361 9.32463 12.5C9.32463 10.2639 10.3746 8.28059 11.9885 6.99726C11.9885 6.99725 11.9885 6.99728 11.9885 6.99726L12.008 6.99722Z" fill="#FF5F00"/>
<path d="M9.32463 12.5C9.32463 10.2639 10.3746 8.28059 11.9885 6.99726C10.8024 6.06393 9.30519 5.50003 7.67186 5.50003C3.80242 5.50003 0.671875 8.63058 0.671875 12.5C0.671875 16.3695 3.80242 19.5 7.67186 19.5C9.30519 19.5 10.8023 18.9361 11.9885 18.0028C10.3746 16.7389 9.32463 14.7361 9.32463 12.5Z" fill="#EB001B"/>
</svg>
