<svg width="14" height="17" viewBox="0 0 14 17" fill="none" xmlns="http://www.w3.org/2000/svg">
<path fill-rule="evenodd" clip-rule="evenodd" d="M12.4171 4.56508C12.4025 4.65998 12.3855 4.75696 12.3665 4.85661C11.7134 8.22403 9.4785 9.38735 6.62433 9.38735H5.17106C4.82198 9.38735 4.52778 9.64175 4.47349 9.98749L3.5187 16.0684C3.48335 16.2955 3.65759 16.5 3.88568 16.5H6.46325C6.7684 16.5 7.02769 16.2774 7.07577 15.9752L7.10106 15.8437L7.58637 12.7515L7.61758 12.5819C7.66506 12.2786 7.92495 12.0559 8.2301 12.0559H8.61556C11.1128 12.0559 13.0678 11.0379 13.6392 8.092C13.8778 6.86141 13.7543 5.83384 13.1227 5.11117C12.9316 4.8933 12.6945 4.71241 12.4171 4.56508Z" fill="#298FC2"/>
<path fill-rule="evenodd" clip-rule="evenodd" d="M11.7335 4.29156C11.6337 4.2623 11.5308 4.23587 11.4251 4.21196C11.3189 4.18864 11.2102 4.168 11.0982 4.14988C10.7064 4.08631 10.277 4.05617 9.81715 4.05617H5.93482C5.83912 4.05617 5.7483 4.07785 5.6671 4.11706C5.48797 4.20349 5.355 4.37369 5.32275 4.58206L4.49679 9.83442L4.47313 9.98754C4.52741 9.6418 4.82161 9.38739 5.17069 9.38739H6.62396C9.47813 9.38739 11.713 8.22348 12.3662 4.85666C12.3857 4.75701 12.4021 4.66003 12.4168 4.56512C12.2515 4.47706 12.0726 4.40176 11.8798 4.3376C11.8322 4.32171 11.7831 4.30641 11.7335 4.29156Z" fill="#22284F"/>
<path fill-rule="evenodd" clip-rule="evenodd" d="M5.32275 4.58206C5.355 4.37369 5.48816 4.20351 5.66729 4.11766C5.74909 4.07831 5.83932 4.05663 5.93502 4.05663H9.81735C10.2772 4.05663 10.7066 4.08692 11.0984 4.15049C11.2104 4.16846 11.3191 4.18925 11.4253 4.21257C11.5309 4.23633 11.6339 4.26291 11.7337 4.29202C11.7833 4.30687 11.8324 4.32232 11.8805 4.33761C12.0732 4.40177 12.2523 4.47766 12.4175 4.56514C12.6119 3.32074 12.4159 2.47346 11.7459 1.70623C11.007 0.861484 9.67372 0.5 7.96752 0.5H3.01413C2.66565 0.5 2.36834 0.754405 2.3145 1.10074L0.251374 14.2314C0.210697 14.4911 0.410235 14.7255 0.671157 14.7255H3.72916L5.32275 4.58206Z" fill="#28356A"/>
</svg>
