<svg width="107" height="24" viewBox="0 0 107 24" fill="none" xmlns="http://www.w3.org/2000/svg">
<path fill-rule="evenodd" clip-rule="evenodd" d="M12.4466 14.0336L6.87119 8.45816C5.74269 7.32966 5.17285 5.95535 5.17285 4.35757V0L10.7483 5.57546C11.8768 6.70396 12.4466 8.07827 12.4466 9.67605C12.4466 8.07827 13.0165 6.70396 14.145 5.57546L19.7204 0V4.35757C19.7204 5.95535 19.1506 7.32966 18.0221 8.45816L12.4466 14.0336Z" fill="#E73E71"/>
<path fill-rule="evenodd" clip-rule="evenodd" d="M21.4413 9.96627L15.8658 15.5417C14.7373 16.6702 14.1675 18.0445 14.1675 19.6423V23.9999L17.6088 20.5585L23.1843 14.9831C24.3128 13.8546 24.8826 12.4803 24.8826 10.8825V6.5249L21.4413 9.96627Z" fill="#E73E71"/>
<path fill-rule="evenodd" clip-rule="evenodd" d="M3.44137 9.96627L9.01683 15.5417C10.1453 16.6702 10.7152 18.0445 10.7152 19.6423V23.9999L7.2738 20.5585L1.69834 14.9831C0.569837 13.8546 0 12.4803 0 10.8825V6.5249L3.44137 9.96627Z" fill="#E73E71"/>
<path d="M36.8125 20.5781V13.9102L30.8828 3.66797H34.1875L38.2773 11.0273H38.3594L42.4492 3.66797H45.7539L39.8242 13.9102V20.5781H36.8125Z" fill="#0F172A"/>
<path d="M50.2773 20.8242C46.5508 20.8242 44.3008 18.3516 44.3008 14.4023V14.3906C44.3008 10.4766 46.5859 7.89844 50.1367 7.89844C53.6875 7.89844 55.8906 10.3945 55.8906 14.1445V15.082H47.1953C47.2422 17.2617 48.4375 18.5508 50.3359 18.5508C51.7891 18.5508 52.7383 17.7773 53.0195 16.9453L53.043 16.8633H55.7734L55.7383 16.9922C55.3516 18.9023 53.5234 20.8242 50.2773 20.8242ZM50.1719 10.1836C48.625 10.1836 47.4648 11.2266 47.2305 13.1367H53.0547C52.8438 11.168 51.7188 10.1836 50.1719 10.1836Z" fill="#0F172A"/>
<path d="M62.6289 20.8242C59.3711 20.8242 57.5078 19.2773 57.25 16.9688L57.2383 16.8633H60.1094L60.1328 16.9688C60.3555 18.0352 61.1641 18.668 62.6406 18.668C64.0586 18.668 64.9141 18.0938 64.9141 17.1797V17.168C64.9141 16.418 64.4805 15.9961 63.1914 15.7031L61.1289 15.2461C58.75 14.7188 57.5547 13.5586 57.5547 11.7188V11.707C57.5547 9.43359 59.5352 7.89844 62.5352 7.89844C65.6289 7.89844 67.4336 9.59766 67.5391 11.7422L67.5508 11.8711H64.832L64.8203 11.7773C64.6914 10.7812 63.8945 10.0547 62.5352 10.0547C61.2461 10.0547 60.4375 10.6523 60.4375 11.5664V11.5781C60.4375 12.293 60.918 12.7617 62.207 13.0547L64.2812 13.5117C66.8477 14.0859 67.8438 15.0938 67.8438 16.8984V16.9102C67.8438 19.2539 65.6758 20.8242 62.6289 20.8242Z" fill="#0F172A"/>
<path d="M73.0117 20.5781L68.6172 8.15625H71.7227L74.6055 17.8711H74.6758L77.5469 8.15625H80.5938L76.2227 20.5781H73.0117Z" fill="#0F172A"/>
<path d="M83.4883 6.375C82.5742 6.375 81.8594 5.64844 81.8594 4.78125C81.8594 3.89062 82.5742 3.17578 83.4883 3.17578C84.4023 3.17578 85.1055 3.89062 85.1055 4.78125C85.1055 5.64844 84.4023 6.375 83.4883 6.375ZM82.0234 20.5781V8.15625H84.9414V20.5781H82.0234Z" fill="#0F172A"/>
<path d="M92.043 20.8242C89.4414 20.8242 88.2109 19.7695 88.2109 17.2148V10.4062H86.4531V8.15625H88.2109V5.00391H91.1758V8.15625H93.4844V10.4062H91.1758V16.9688C91.1758 18.1875 91.7148 18.5742 92.7812 18.5742C93.0625 18.5742 93.2852 18.5391 93.4844 18.5273V20.7188C93.1445 20.7656 92.6289 20.8242 92.043 20.8242Z" fill="#0F172A"/>
<path d="M100.715 20.8242C96.9883 20.8242 94.7383 18.3516 94.7383 14.4023V14.3906C94.7383 10.4766 97.0234 7.89844 100.574 7.89844C104.125 7.89844 106.328 10.3945 106.328 14.1445V15.082H97.6328C97.6797 17.2617 98.875 18.5508 100.773 18.5508C102.227 18.5508 103.176 17.7773 103.457 16.9453L103.48 16.8633H106.211L106.176 16.9922C105.789 18.9023 103.961 20.8242 100.715 20.8242ZM100.609 10.1836C99.0625 10.1836 97.9023 11.2266 97.668 13.1367H103.492C103.281 11.168 102.156 10.1836 100.609 10.1836Z" fill="#0F172A"/>
</svg>
