<svg width="25" height="24" viewBox="0 0 25 24" fill="none" xmlns="http://www.w3.org/2000/svg">
<g clip-path="url(#clip0_3391_343)">
<path d="M2.00026 1.63427C0.11426 3.59327 0.50026 5.67427 0.50026 11.9963C0.50026 17.2463 -0.41574 22.5093 4.37826 23.7483C5.87526 24.1333 19.1393 24.1333 20.6343 23.7463C22.6303 23.2313 24.2543 21.6123 24.4763 18.7893C24.5073 18.3953 24.5073 5.60427 24.4753 5.20227C24.2393 2.19527 22.3883 0.462267 19.9493 0.111267C19.3903 0.0302671 19.2783 0.0062671 16.4103 0.0012671C6.23726 0.0062671 4.00726 -0.446733 2.00026 1.63427Z" fill="url(#paint0_linear_3391_343)"/>
<path d="M12.4984 3.14039C8.86736 3.14039 5.41936 2.81739 4.10236 6.19739C3.55836 7.59339 3.63736 9.40639 3.63736 12.0024C3.63736 14.2804 3.56436 16.4214 4.10236 17.8064C5.41636 21.1884 8.89236 20.8644 12.4964 20.8644C15.9734 20.8644 19.5584 21.2264 20.8914 17.8064C21.4364 16.3964 21.3564 14.6104 21.3564 12.0024C21.3564 8.54039 21.5474 6.30539 19.8684 4.62739C18.1684 2.92739 15.8694 3.14039 12.4944 3.14039H12.4984ZM11.7044 4.73739C19.2784 4.72539 20.2424 3.88339 19.7104 15.5804C19.5214 19.7174 16.3714 19.2634 12.4994 19.2634C5.43936 19.2634 5.23636 19.0614 5.23636 11.9984C5.23636 4.85339 5.79636 4.74139 11.7044 4.73539V4.73739ZM17.2284 6.20839C16.6414 6.20839 16.1654 6.68439 16.1654 7.27139C16.1654 7.85839 16.6414 8.33439 17.2284 8.33439C17.8154 8.33439 18.2914 7.85839 18.2914 7.27139C18.2914 6.68439 17.8154 6.20839 17.2284 6.20839ZM12.4984 7.45139C9.98536 7.45139 7.94836 9.48939 7.94836 12.0024C7.94836 14.5154 9.98536 16.5524 12.4984 16.5524C15.0114 16.5524 17.0474 14.5154 17.0474 12.0024C17.0474 9.48939 15.0114 7.45139 12.4984 7.45139ZM12.4984 9.04839C16.4034 9.04839 16.4084 14.9564 12.4984 14.9564C8.59436 14.9564 8.58836 9.04839 12.4984 9.04839Z" fill="white"/>
</g>
<defs>
<linearGradient id="paint0_linear_3391_343" x1="2.04628" y1="22.4684" x2="24.3517" y2="3.16325" gradientUnits="userSpaceOnUse">
<stop stop-color="#FFDD55"/>
<stop offset="0.5" stop-color="#FF543E"/>
<stop offset="1" stop-color="#C837AB"/>
</linearGradient>
<clipPath id="clip0_3391_343">
<rect width="24" height="24" fill="white" transform="translate(0.5 0.00146484)"/>
</clipPath>
</defs>
</svg>
