<svg width="7" height="13" viewBox="0 0 7 13" fill="none" xmlns="http://www.w3.org/2000/svg">
<path d="M0.939983 12.28C0.813317 12.28 0.68665 12.2333 0.58665 12.1333C0.393317 11.94 0.393317 11.62 0.58665 11.4267L4.93332 7.08001C5.25332 6.76001 5.25332 6.24001 4.93332 5.92001L0.58665 1.57335C0.393317 1.38001 0.393317 1.06001 0.58665 0.86668C0.779984 0.673346 1.09998 0.673346 1.29332 0.86668L5.63998 5.21335C5.97998 5.55335 6.17332 6.01335 6.17332 6.50001C6.17332 6.98668 5.98665 7.44668 5.63998 7.78668L1.29332 12.1333C1.19332 12.2267 1.06665 12.28 0.939983 12.28Z" fill="#94A3B8"/>
</svg>
