<svg width="18" height="16" viewBox="0 0 18 16" fill="none" xmlns="http://www.w3.org/2000/svg">
<path d="M11.0667 6.96667V0H17.5V5.5C17.5 8.47778 17.1444 10.6333 16.4333 11.9667C15.5 13.7444 14.0222 15.0889 12 16L10.5333 13.6667C11.7556 13.1556 12.6556 12.3889 13.2333 11.3667C13.8111 10.3667 14.1333 8.9 14.2 6.96667H11.0667ZM0.733332 6.96667V0H7.16667V5.5C7.16667 8.47778 6.81111 10.6333 6.1 11.9667C5.16667 13.7444 3.68889 15.0889 1.66667 16L0.199999 13.6667C1.42222 13.1556 2.32222 12.3889 2.9 11.3667C3.47778 10.3667 3.8 8.9 3.86667 6.96667H0.733332Z" fill="#23AA26"/>
</svg>
