<svg width="12" height="12" viewBox="0 0 12 12" fill="none" xmlns="http://www.w3.org/2000/svg">
<path fill-rule="evenodd" clip-rule="evenodd" d="M3.38874 2.27262H3.2599C3.18377 2.26676 3.21598 2.19356 3.21598 2.19356C3.26576 2.07643 3.30382 2.03251 3.24233 1.98273C3.13106 1.89488 3.03736 1.79825 2.96122 1.69576C2.5747 1.17454 2.67133 0.527407 3.0315 0.27851C3.2394 0.135028 3.54393 0.135028 3.75184 0.27851C4.11201 0.527407 4.20571 1.17454 3.82211 1.69576C3.74598 1.79825 3.65521 1.89488 3.54101 1.98273C3.47659 2.03251 3.51758 2.0735 3.56736 2.19356C3.56736 2.19356 3.59957 2.26383 3.52344 2.27262H3.3946H3.38874Z" fill="#ECB015"/>
<path fill-rule="evenodd" clip-rule="evenodd" d="M9.07176 3.25096C9.07176 3.01671 9.15375 2.80295 9.2943 2.63897C9.47 2.42814 9.73353 2.29637 10.0293 2.29637C10.5564 2.29637 10.9868 2.72389 10.9868 3.25389H11.9853C11.9853 2.17338 11.1098 1.29785 10.0293 1.29785C9.33237 1.29785 8.7233 1.66095 8.37485 2.20852C8.35728 2.23781 8.33971 2.26709 8.32214 2.29637C8.16402 2.58041 8.07324 2.90544 8.07324 3.25389H9.07176V3.25096Z" fill="black"/>
<path fill-rule="evenodd" clip-rule="evenodd" d="M10.5505 7.3849C10.3397 9.18282 8.81412 10.5766 6.96056 10.5766C5.10701 10.5766 3.53456 9.14182 3.3618 7.30584L4.43645 7.1155L4.18755 5.71582L0.433594 6.38052L0.682491 7.78021L1.95626 7.55473C2.24908 10.0583 4.37789 11.9997 6.96056 11.9997C9.54324 11.9997 11.7657 9.9705 11.9824 7.3849C11.9941 7.24434 12 7.10379 12 6.96031C12 6.81683 11.9941 6.68213 11.9824 6.54743H10.5505C10.5652 6.68213 10.574 6.81975 10.574 6.96031C10.574 7.10086 10.5652 7.24434 10.5505 7.3849Z" fill="black"/>
<path fill-rule="evenodd" clip-rule="evenodd" d="M1.47585 3.21096C1.55491 3.2256 1.54027 3.27831 1.54905 3.40715C1.54905 3.40715 1.55491 3.48328 1.62518 3.454L1.67496 3.42765L2.48608 5.08794H2.50657L2.52414 5.07915L1.7101 3.41008L1.69253 3.41886L1.75988 3.38665C1.8243 3.34858 1.76867 3.2988 1.76867 3.2988C1.67496 3.21389 1.62226 3.19339 1.65739 3.12018C1.72181 2.99427 1.76574 2.86836 1.78916 2.7483C1.918 2.12167 1.56369 1.57995 1.13617 1.50674C1.01612 1.48625 0.893132 1.50089 0.770148 1.56238C0.12887 1.88155 0.421691 3.02063 1.47585 3.21096Z" fill="#3ABEEA"/>
<path fill-rule="evenodd" clip-rule="evenodd" d="M3.53756 3.21096C3.45849 3.2256 3.47313 3.27831 3.46435 3.40715C3.46435 3.40715 3.45849 3.48328 3.38822 3.454L3.33844 3.42765L2.52732 5.08794H2.50683L2.48926 5.07915L3.3033 3.41008L3.32087 3.41886L3.25352 3.38665C3.1891 3.34858 3.24473 3.2988 3.24473 3.2988C3.33844 3.21389 3.39114 3.19339 3.35601 3.12018C3.29159 2.99427 3.24766 2.86836 3.22424 2.7483C3.0954 2.12167 3.44971 1.57995 3.87723 1.50674C3.99728 1.48625 4.12027 1.50089 4.24325 1.56238C4.88453 1.88155 4.59171 3.02063 3.53756 3.21096Z" fill="#27B076"/>
<path opacity="0.21" fill-rule="evenodd" clip-rule="evenodd" d="M3.13357 1.02366C3.17164 0.99145 3.25362 1.02659 3.32097 1.10272C3.38539 1.17886 3.40882 1.2667 3.37075 1.29891C3.33269 1.33112 3.2507 1.29598 3.18335 1.21985C3.11893 1.14372 3.0955 1.05587 3.13357 1.02366Z" fill="white"/>
<path opacity="0.4" fill-rule="evenodd" clip-rule="evenodd" d="M3.27209 1.40407C3.28966 1.38943 3.32773 1.40407 3.35701 1.43921C3.38629 1.47435 3.398 1.51535 3.38044 1.52999C3.36287 1.54463 3.3248 1.52999 3.29552 1.49485C3.26624 1.45971 3.25745 1.41871 3.27209 1.40407Z" fill="white"/>
<path fill-rule="evenodd" clip-rule="evenodd" d="M2.44196 2.10172H2.31312C2.23699 2.09586 2.2692 2.02266 2.2692 2.02266C2.31898 1.90553 2.35704 1.86161 2.29555 1.81183C2.18428 1.72398 2.09058 1.62735 2.01444 1.52486C1.62792 1.00364 1.72455 0.356509 2.08472 0.107612C2.29262 -0.0358705 2.59716 -0.0358705 2.80506 0.107612C3.16523 0.356509 3.25893 1.00364 2.87534 1.52486C2.7992 1.62735 2.70843 1.72398 2.59423 1.81183C2.52981 1.86161 2.5708 1.9026 2.62058 2.02266C2.62058 2.02266 2.65279 2.09293 2.57666 2.10172H2.44782H2.44196Z" fill="#ECB015"/>
<path d="M2.54197 3.65723H2.50684V5.08912H2.54197V3.65723Z" fill="#ECB015"/>
<path fill-rule="evenodd" clip-rule="evenodd" d="M1.86227 3.18215C2.06139 3.34906 2.25758 3.49547 2.40692 3.60382C2.49184 3.66824 2.44206 3.72387 2.38056 3.882C2.38056 3.882 2.3425 3.9757 2.44206 3.98448H2.6441C2.74659 3.97863 2.7056 3.882 2.7056 3.882C2.64117 3.72387 2.5914 3.66824 2.67924 3.60382C2.82858 3.49547 3.02477 3.34906 3.22389 3.18215C3.52256 2.9274 3.85052 2.61994 4.02329 2.26563C4.4918 1.31396 3.59577 -0.00373244 2.54454 0.822021C1.49332 -0.00373244 0.594359 1.31396 1.06287 2.26563C1.23564 2.61701 1.56652 2.9274 1.8652 3.18215H1.86227Z" fill="#EA555C"/>
</svg>
