<svg width="125" height="174" viewBox="0 0 125 174" fill="none" xmlns="http://www.w3.org/2000/svg">
<mask id="mask0_2_520" style="mask-type:luminance" maskUnits="userSpaceOnUse" x="0" y="0" width="125" height="175">
<path d="M125 0H0V174.667H125V0Z" fill="white"/>
</mask>
<g mask="url(#mask0_2_520)">
<mask id="mask1_2_520" style="mask-type:luminance" maskUnits="userSpaceOnUse" x="0" y="0" width="125" height="175">
<path d="M0 0H124.985V174.371H0V0Z" fill="white"/>
</mask>
<g mask="url(#mask1_2_520)">
<path d="M-1.28716 100.397V95.6094L68.3377 -1.14029H71.7814L-1.28716 100.397ZM78.7326 -1.14029H75.2875L-1.28716 105.184V109.971L78.7326 -1.14029ZM64.8926 -1.14029H61.4475L-1.28716 86.0347V90.8221L64.8926 -1.14029ZM58.0024 -1.14029H54.5573L-1.28716 76.4619V81.2493L58.0024 -1.14029ZM85.6228 -1.14029H82.1777L-1.28716 114.842V119.629L85.6228 -1.14029ZM106.292 -1.14029H102.847L-1.28716 143.566V148.351L106.292 -1.14029ZM120.132 -1.14029H116.687L-1.28716 162.798V167.586L120.132 -1.14029ZM113.182 -1.14029H109.737L-1.28716 153.139V157.926L113.182 -1.14029ZM99.4019 -1.14029H95.9568L-1.28716 133.991V138.779L99.4019 -1.14029ZM16.6029 -1.14029H13.1578L-1.28716 18.9327V23.7181L16.6029 -1.14029ZM51.1122 -1.14029H47.6671L-1.28716 66.8872V71.6746L51.1122 -1.14029ZM124.967 -1.14029H123.577L-1.28716 172.371V174.303H0.767688L124.967 1.71516V-1.14029ZM23.4931 -1.14029H20.048L-1.28716 28.5055V33.2928L23.4931 -1.14029ZM2.76286 -1.14029H-0.682237L-1.28716 -0.301561V4.48579L2.76286 -1.14029ZM9.71273 -1.14029H6.26763L-1.28716 9.27314V14.0605L9.71273 -1.14029ZM-1.28716 62.0999L44.222 -1.14029H40.7783L-1.28716 57.2296V62.0999ZM30.3819 -1.14029H26.9369L-1.28716 38.0802V42.8675L30.3819 -1.14029ZM37.2721 -1.14029H33.827L-1.28716 47.6549V52.4422L37.2721 -1.14029ZM92.5117 -1.14029H89.0666L-1.28716 124.416V129.204L92.5117 -1.14029ZM124.967 116.774V111.986L80.1229 174.303H83.568L124.967 116.774ZM124.967 126.348V121.561L87.0117 174.303H90.4568L124.967 126.348ZM124.967 135.923V131.136L93.9019 174.303H97.347L124.967 135.923ZM124.967 107.199V102.414L73.1717 174.388H76.6168L124.967 107.199ZM104.237 174.303L124.967 145.496V140.71L100.792 174.303H104.237ZM124.967 169.516L121.522 174.303H124.967V169.516ZM124.967 164.73V159.943L114.632 174.303H118.077L124.967 164.73ZM124.967 155.155V150.368L107.742 174.303H111.187L124.967 155.155ZM124.967 97.5413V92.754L66.2828 174.303H69.7266L124.967 97.5413ZM124.967 11.2899V6.50251L4.21278 174.303H7.65788L124.967 11.2899ZM124.967 40.0121V35.2247L24.882 174.303H28.3271L124.967 40.0121ZM124.967 30.4374V25.65L17.9932 174.303H21.4383L124.967 30.4374ZM124.967 87.9666V83.1793L59.3926 174.303H62.8377L124.967 87.9666ZM124.967 49.5868V44.7994L31.7722 174.303H35.2173L124.967 49.5868ZM124.967 20.8627V16.0772L11.103 174.303H14.5481L124.967 20.8627ZM124.967 78.3938V73.6065L52.5024 174.303H55.9475L124.967 78.3938ZM124.967 59.2444V54.4571L38.7234 174.303H42.1672L124.967 59.2444ZM124.967 68.8191V64.0318L45.6123 174.303H49.0574L124.967 68.8191Z" fill="#D1F3FC"/>
</g>
</g>
</svg>
