<svg width="78" height="78" viewBox="0 0 78 78" fill="none" xmlns="http://www.w3.org/2000/svg">
<circle cx="39" cy="39" r="39" fill="url(#paint0_linear_481_11873)"/>
<path d="M54.5987 50.092H23.4006C23.4006 50.092 22.6355 40.1247 24.8882 37.0432C26.6415 34.631 35.8437 32.3252 35.8437 32.3252H42.1343C42.1343 32.3252 51.3365 34.631 53.0898 37.0432C55.3531 40.1247 54.5987 50.092 54.5987 50.092Z" fill="url(#paint1_linear_481_11873)"/>
<path d="M42.1449 28.1914V36.0653L38.9996 37.0854L35.8437 36.0653V28.1914H42.1449Z" fill="#F7BD89"/>
<path d="M35.8543 32.3262L33.3359 33.0275C33.6335 35.599 34.6004 38.2343 36.5344 39.8069L38.9996 37.0866C36.9169 35.769 36.3006 34.1857 35.8543 32.3262ZM42.1449 32.3262L44.6633 33.0381C44.3658 35.6096 43.3988 38.2236 41.4649 39.7963L38.9996 37.0866C41.0823 35.769 41.6986 34.1857 42.1449 32.3262ZM49.4344 50.0929H48.4249L48.9244 44.7693L49.4344 50.0929ZM29.5743 50.0929H28.5648L29.0749 44.7693L29.5743 50.0929Z" fill="url(#paint2_linear_481_11873)"/>
<path d="M45.9172 22.3471C45.9172 26.1619 42.8144 33.0688 38.9996 33.0688C35.1742 33.0688 32.0714 26.1619 32.0714 22.3471C32.0714 18.5218 35.1742 15.4189 38.9996 15.4189C42.825 15.4296 45.9172 18.5218 45.9172 22.3471Z" fill="#FFCC99"/>
<path d="M32.8046 26.0237C32.6984 23.3884 32.8365 20.9869 33.9204 19.5418C37.5651 20.9019 40.9123 20.3919 43.9726 18.0435C43.8238 19.3186 43.9726 20.3706 44.5889 21.0719C44.8014 21.3163 44.9183 21.6564 44.7802 21.9645C44.3233 22.9846 44.7058 24.5573 44.929 26.0343H45.9809C46.5654 21.5714 47.4792 16.6302 45.3434 16.0777C43.9301 12.7411 40.8804 11.4341 37.0338 12.2417C36.8425 12.2842 36.6619 12.3267 36.4812 12.3798C33.1978 13.3149 31.1151 16.5559 31.3382 19.9668C31.4657 21.922 31.7526 23.8135 32.1671 25.6518L32.8046 26.0237Z" fill="#3B4346"/>
<path d="M46.5335 25.7907C45.9809 26.7789 45.1096 27.3421 44.5889 27.0446C44.0682 26.7577 44.0895 25.7163 44.642 24.7281C45.1946 23.7505 46.0659 23.1767 46.5866 23.4742C47.1073 23.7717 47.0754 24.8131 46.5335 25.7907ZM31.4657 25.7907C32.0183 26.7789 32.8896 27.3421 33.4103 27.0446C33.931 26.7577 33.9097 25.7163 33.3572 24.7281C32.8046 23.7505 31.9333 23.1767 31.4126 23.4742C30.8919 23.7717 30.9238 24.8131 31.4657 25.7907Z" fill="#FFCC99"/>
<path opacity="0.2" d="M42.0918 12.5926C40.6679 11.9551 38.9465 11.8275 37.0231 12.2313C36.8319 12.2738 36.6512 12.3163 36.4706 12.3695C33.1871 13.3046 31.1044 16.5455 31.3276 19.9565C31.4126 21.1254 31.5401 22.273 31.7314 23.3993C31.6195 23.3997 31.5097 23.429 31.4126 23.4843C30.8919 23.7819 30.9131 24.8232 31.4657 25.7902C31.9226 26.6297 32.6133 27.161 33.134 27.1185C33.6653 28.4467 34.3666 29.7537 35.2061 30.7951H35.9287C39.329 30.7951 42.0811 28.0429 42.0811 24.6426V12.5926H42.0918Z" fill="white"/>
<path opacity="0.15" d="M50.497 35.2154V38.5519C50.497 41.1109 49.4805 43.565 47.6711 45.3744C45.8616 47.1839 43.4075 48.2004 40.8486 48.2004H23.3156C23.2199 45.1614 23.2624 39.2851 24.8988 37.0431C26.2058 35.2472 31.6464 33.5046 34.3348 32.7395C35.153 32.5057 35.7162 32.357 35.8331 32.3251L35.8543 32.3145C36.2262 34.1846 37.2782 35.7573 38.9996 37.0749C39.8603 36.4161 40.551 35.6935 41.0823 34.8966C41.6136 34.1103 41.9643 33.2389 42.1449 32.3145C42.1449 32.3145 42.1662 32.3251 42.1981 32.3251C42.3787 32.3676 42.91 32.5163 43.6751 32.7289C45.4284 33.2389 48.3187 34.1528 50.497 35.2154Z" fill="white"/>
<path opacity="0.15" d="M41.0823 34.9072C40.8485 36.0973 40.4447 37.2237 39.9028 38.2757C37.7457 42.473 33.3678 45.3526 28.3204 45.3526H23.2943C23.3474 42.3348 23.6874 38.7007 24.8988 37.0431C26.2058 35.2472 31.6464 33.5046 34.3348 32.7395C35.153 32.5057 35.7161 32.357 35.833 32.3251L35.8543 32.3145C36.2262 34.1846 37.2782 35.7573 38.9996 37.0749C39.8603 36.4267 40.551 35.7042 41.0823 34.9072Z" fill="white"/>
<path d="M36.3112 59.2619H5.12374C5.12374 59.2619 4.35867 49.2946 6.61139 46.2131C8.36469 43.801 17.5669 41.4951 17.5669 41.4951H23.8575C23.8575 41.4951 33.0597 43.801 34.813 46.2131C37.0657 49.2946 36.3112 59.2619 36.3112 59.2619Z" fill="#DBD7D9"/>
<path d="M23.8575 37.3623V45.2362L20.7121 46.2563L17.5668 45.2362V37.3623H23.8575Z" fill="#F7BD89"/>
<path d="M17.5669 41.4951L15.0485 42.1964C15.346 44.7679 16.313 47.4032 18.2469 48.9759L20.7228 46.2662C18.6295 44.9486 18.0132 43.3547 17.5669 41.4951Z" fill="#EBEBEB"/>
<path d="M23.8575 41.4951L26.3759 42.2071C26.0784 44.7786 25.1114 47.3926 23.1774 48.9652L20.7016 46.2556C22.7949 44.9486 23.4112 43.3547 23.8575 41.4951Z" fill="#EBEBEB"/>
<path d="M31.1469 59.2612H30.1375L30.6475 53.9375L31.1469 59.2612ZM11.2868 59.2612H10.2773L10.7874 53.9375L11.2868 59.2612Z" fill="#BFBBBE"/>
<path d="M27.6404 31.5171C27.6404 35.3318 24.5376 42.2388 20.7228 42.2388C16.8974 42.2388 13.7946 35.3318 13.7946 31.5171C13.7946 27.6917 16.8974 24.5889 20.7228 24.5889C24.5376 24.5995 27.6404 27.6917 27.6404 31.5171Z" fill="#FFCC99"/>
<path d="M14.5172 35.1946C14.4109 32.5593 14.5491 30.1578 15.6329 28.7127C19.2777 30.0728 22.6249 29.5628 25.6852 27.2144C25.5364 28.4895 25.6852 29.5415 26.3015 30.2428C26.514 30.4872 26.6309 30.8273 26.4927 31.1354C26.0358 32.1555 26.4184 33.7282 26.6415 35.2052H27.6935C28.2779 30.7423 29.1918 25.8011 27.0559 25.2486C25.6427 21.912 22.593 20.605 18.7463 21.4126C18.5551 21.4551 18.3744 21.4976 18.1938 21.5507C14.9103 22.4858 12.8276 25.7268 13.0508 29.1377C13.1783 31.0929 13.4652 32.9844 13.8796 34.8227L14.5172 35.1946Z" fill="#3B4346"/>
<path d="M28.246 34.9596C27.6935 35.9479 26.8221 36.511 26.3014 36.2135C25.7808 35.9266 25.802 34.8853 26.3546 33.897C26.9071 32.9194 27.7785 32.3456 28.2991 32.6432C28.8198 32.9407 28.7879 33.982 28.246 34.9596ZM13.1889 34.9596C13.7414 35.9479 14.6128 36.511 15.1335 36.2135C15.6541 35.9266 15.6329 34.8853 15.0803 33.897C14.5278 32.9194 13.6564 32.3456 13.1358 32.6432C12.6045 32.9407 12.6363 33.982 13.1889 34.9596Z" fill="#FFCC99"/>
<path opacity="0.2" d="M23.815 21.7635C22.3911 21.126 20.6697 20.9984 18.7463 21.4022C18.5551 21.4447 18.3744 21.4872 18.1938 21.5404C14.9103 22.4755 12.8276 25.7164 13.0508 29.1274C13.1358 30.2963 13.2633 31.4439 13.4546 32.5702C13.3427 32.5706 13.2329 32.5999 13.1358 32.6552C12.6151 32.9528 12.6364 33.9941 13.1889 34.9611C13.6458 35.8006 14.3365 36.3319 14.8572 36.2894C15.3885 37.6176 16.0898 38.9246 16.9293 39.966H17.6519C21.0522 39.966 23.8043 37.2138 23.8043 33.8135V21.7635H23.815Z" fill="white"/>
<path opacity="0.15" d="M32.2202 44.396V47.7326C32.2202 48.9997 31.9706 50.2543 31.4857 51.4249C31.0008 52.5955 30.2901 53.6592 29.3942 54.5551C28.4983 55.4511 27.4346 56.1618 26.264 56.6466C25.0934 57.1315 23.8388 57.3811 22.5717 57.3811H5.02808C4.93245 54.342 4.97495 48.4658 6.61136 46.2237C7.91837 44.4279 13.3589 42.6852 16.0473 41.9202C16.8655 41.6864 17.4287 41.5376 17.5456 41.5057L17.5668 41.4951C17.9387 43.3653 18.9907 44.938 20.7121 46.2556C21.5729 45.5968 22.2636 44.8742 22.7949 44.0773C23.3262 43.2909 23.6768 42.4196 23.8575 41.4951C23.8575 41.4951 23.8787 41.5057 23.9106 41.5057C24.0912 41.5482 24.6225 41.697 25.3876 41.9095C27.1409 42.409 30.0418 43.3228 32.2202 44.396Z" fill="white"/>
<path opacity="0.15" d="M22.7949 44.0781C22.5611 45.2682 22.1573 46.3946 21.6154 47.4466C19.4583 51.6439 15.0804 54.5235 10.033 54.5235H5.00687C5.06 51.5057 5.40003 47.8716 6.6114 46.214C7.91841 44.4181 13.359 42.6755 16.0473 41.9104C16.8656 41.6766 17.4287 41.5279 17.5456 41.496L17.5669 41.4854C17.9388 43.3555 18.9908 44.9282 20.7122 46.2458C21.5729 45.5976 22.2636 44.8751 22.7949 44.0781Z" fill="white"/>
<path d="M72.8755 59.2619H41.688C41.688 59.2619 40.9229 49.2946 43.1757 46.2131C44.929 43.801 54.1311 41.4951 54.1311 41.4951H60.4218C60.4218 41.4951 69.6239 43.801 71.3772 46.2131C73.6406 49.2946 72.8755 59.2619 72.8755 59.2619Z" fill="#54B8EA"/>
<path d="M60.4324 37.3623V45.2362L57.2871 46.2563L54.1312 45.2362V37.3623H60.4324Z" fill="#F7BD89"/>
<path d="M54.1418 41.4951L51.6234 42.1964C51.9209 44.7679 52.8879 47.4032 54.8218 48.9759L57.2977 46.2662C55.1937 44.9486 54.5881 43.3547 54.1418 41.4951Z" fill="#3AA7C9"/>
<path d="M60.4324 41.4951L62.9508 42.2071C62.6532 44.7786 61.6863 47.3926 59.7523 48.9652L57.2765 46.2556C59.3698 44.9486 59.9861 43.3547 60.4324 41.4951Z" fill="#3AA7C9"/>
<path d="M67.7219 59.2612H66.7124L67.2118 53.9375L67.7219 59.2612ZM47.8618 59.2612H46.8523L47.3517 53.9375L47.8618 59.2612Z" fill="#40AAD3"/>
<path d="M64.2046 31.5171C64.2046 35.3318 61.1018 42.2388 57.2871 42.2388C53.4617 42.2388 50.3589 35.3318 50.3589 31.5171C50.3589 27.6917 53.4617 24.5889 57.2871 24.5889C61.1125 24.5995 64.2046 27.6917 64.2046 31.5171Z" fill="#FFCC99"/>
<path d="M51.0921 35.1946C50.9858 32.5593 51.124 30.1578 52.2078 28.7127C55.8526 30.0728 59.1998 29.5628 62.2601 27.2144C62.1113 28.4895 62.2601 29.5415 62.8764 30.2428C63.0889 30.4872 63.2058 30.8273 63.0677 31.1354C62.6107 32.1555 62.9933 33.7282 63.2164 35.2052H64.2684C64.8528 30.7423 65.7667 25.8011 63.6308 25.2486C62.2176 21.912 59.1679 20.605 55.3213 21.4126C55.13 21.4551 54.9494 21.4976 54.7687 21.5507C51.4853 22.4858 49.4026 25.7268 49.6257 29.1377C49.7532 31.0929 50.0401 32.9844 50.4545 34.8227L51.0921 35.1946Z" fill="#3B4346"/>
<path d="M64.8103 34.9596C64.2578 35.9479 63.3864 36.511 62.8658 36.2135C62.3451 35.9266 62.3663 34.8853 62.9189 33.897C63.4714 32.9194 64.3428 32.3456 64.8635 32.6432C65.3948 32.9407 65.3629 33.982 64.8103 34.9596ZM49.7532 34.9596C50.3057 35.9479 51.1771 36.511 51.6978 36.2135C52.2184 35.9266 52.1972 34.8853 51.6446 33.897C51.0921 32.9194 50.2207 32.3456 49.7001 32.6432C49.1794 32.9407 49.2113 33.982 49.7532 34.9596Z" fill="#FFCC99"/>
<path opacity="0.2" d="M60.3792 21.7635C58.9553 21.126 57.2339 20.9984 55.3106 21.4022C55.1193 21.4447 54.9387 21.4872 54.7581 21.5404C51.4746 22.4755 49.3919 25.7164 49.615 29.1274C49.7001 30.2963 49.8276 31.4439 50.0188 32.5702C49.907 32.5706 49.7972 32.5999 49.7001 32.6552C49.1794 32.9528 49.2006 33.9941 49.7532 34.9611C50.2101 35.8006 50.9008 36.3319 51.4215 36.2894C51.9528 37.6176 52.6541 38.9246 53.4936 39.966H54.2161C57.6165 39.966 60.3686 37.2138 60.3686 33.8135V21.7635H60.3792Z" fill="white"/>
<path opacity="0.15" d="M68.7844 44.396V47.7326C68.7844 48.9997 68.5349 50.2543 68.05 51.4249C67.5651 52.5955 66.8544 53.6592 65.9585 54.5551C65.0625 55.4511 63.9989 56.1618 62.8283 56.6466C61.6577 57.1315 60.403 57.3811 59.136 57.3811H41.5924C41.4967 54.342 41.5392 48.4658 43.1756 46.2237C44.4826 44.4279 49.9232 42.6852 52.6116 41.9202C53.4298 41.6864 53.993 41.5376 54.1099 41.5057L54.1311 41.4951C54.503 43.3653 55.3637 45.0442 57.2764 46.2556C58.509 45.4374 58.9341 44.8955 59.4548 44.0985C59.9861 43.3122 60.2411 42.4196 60.4217 41.4951C60.4217 41.4951 60.443 41.5057 60.4749 41.5057C60.6555 41.5482 61.1868 41.697 61.9519 41.9095C63.7052 42.409 66.6061 43.3228 68.7844 44.396Z" fill="white"/>
<path opacity="0.15" d="M59.4654 44.0994C59.2316 45.2895 58.7322 46.4052 58.1903 47.4466C56.0332 51.6439 51.6553 54.5235 46.6079 54.5235H41.5818C41.6349 51.5057 41.9749 47.8716 43.1863 46.214C44.4933 44.4181 49.9338 42.6755 52.6222 41.9104C53.4404 41.6766 54.0036 41.5279 54.1205 41.496L54.1418 41.4854C54.5137 43.3555 55.3531 45.0451 57.2871 46.2458C58.3391 45.5976 58.9341 44.8963 59.4654 44.0994Z" fill="white"/>
<defs>
<linearGradient id="paint0_linear_481_11873" x1="39" y1="0" x2="39" y2="78" gradientUnits="userSpaceOnUse">
<stop stop-color="#F0F0F0"/>
<stop offset="1" stop-color="white" stop-opacity="0"/>
</linearGradient>
<linearGradient id="paint1_linear_481_11873" x1="38.9974" y1="32.3252" x2="38.9974" y2="50.092" gradientUnits="userSpaceOnUse">
<stop stop-color="#F15853"/>
<stop offset="1" stop-color="#F15853" stop-opacity="0"/>
</linearGradient>
<linearGradient id="paint2_linear_481_11873" x1="38.9996" y1="32.3262" x2="38.9996" y2="50.0929" gradientUnits="userSpaceOnUse">
<stop stop-color="#E04646"/>
<stop offset="1" stop-color="#E04646" stop-opacity="0"/>
</linearGradient>
</defs>
</svg>
