<svg width="78" height="78" viewBox="0 0 78 78" fill="none" xmlns="http://www.w3.org/2000/svg">
<circle cx="39" cy="39" r="39" fill="url(#paint0_linear_481_11872)"/>
<path d="M53.5484 33.6123V34.2914C53.5484 35.1235 53.6826 35.9502 53.9457 36.7396L55.4839 41.3542H58.3871V30.709H56.4516C54.8482 30.7091 53.5484 32.0088 53.5484 33.6123Z" fill="#5A4146"/>
<path d="M66.7989 35.6234L65.1613 41.355L57.4193 34.5809C56.3504 34.5809 55.4839 33.7143 55.4839 32.6454C55.4839 31.042 56.7837 29.7422 58.3871 29.7422H65.1612C66.2302 29.7422 67.0967 30.6088 67.0967 31.6777V33.4966C67.0967 34.2159 66.9965 34.9317 66.7989 35.6234Z" fill="#694B4B"/>
<path d="M57.4188 44.2588H63.2252V48.5419H57.4188V44.2588Z" fill="#E6AF78"/>
<path d="M57.4193 46.0354C58.3169 46.4001 59.2956 46.6054 60.3225 46.6054C61.3495 46.6054 62.3282 46.4001 63.2257 46.0354V44.2578H57.4193V46.0354Z" fill="#D29B6E"/>
<path d="M67.8943 47.9394L63.2255 46.6056L60.3225 48.532L57.4193 46.6055L52.7508 47.9394C52.1442 48.1127 51.6106 48.479 51.2306 48.9826C50.8507 49.4863 50.6452 50.1 50.6452 50.7309V57.8063C50.6452 58.0629 50.7472 58.3091 50.9286 58.4905C51.1101 58.672 51.3563 58.774 51.6129 58.774H69.0323C69.2889 58.774 69.5351 58.672 69.7166 58.4905C69.8981 58.3091 70 58.0629 70 57.8063V50.7309C70 50.1 69.7945 49.4863 69.4145 48.9826C69.0346 48.4789 68.5009 48.1127 67.8943 47.9394Z" fill="#D5DCED"/>
<path d="M61.2903 58.7739H59.3548L59.8387 48.541H60.8064L61.2903 58.7739Z" fill="#AFB9D2"/>
<path d="M60.3225 45.2251C57.1157 45.2251 54.5161 42.6254 54.5161 39.4187V38.2849C54.5161 37.7716 54.72 37.2793 55.083 36.9163L56.8378 35.1614C57.2095 34.7898 57.7176 34.5762 58.2428 34.5927C61.3363 34.6903 64.0745 35.353 65.5714 36.8149C65.9378 37.1728 66.1291 37.6734 66.1291 38.1855V39.4187C66.1291 42.6255 63.5294 45.2251 60.3225 45.2251Z" fill="#F0C087"/>
<path d="M57.4193 38.525C57.4193 37.4087 58.3568 36.5214 59.4709 36.5924C61.4246 36.7171 64.3236 37.0435 66.1021 37.899C66.0441 37.4907 65.8687 37.1053 65.5714 36.8149C64.0745 35.353 61.3363 34.6903 58.2428 34.5927L58.2427 34.5928C57.7176 34.5763 57.2093 34.7899 56.8378 35.1614L55.0831 36.9162C54.9033 37.0959 54.7607 37.3092 54.6635 37.5441C54.5662 37.7789 54.5161 38.0306 54.5161 38.2848V39.4186C54.5161 42.0666 56.2905 44.296 58.7138 44.9943C57.9072 43.9991 57.4194 42.7358 57.4194 41.3541L57.4193 38.525Z" fill="#E6AF78"/>
<path d="M66.1291 53.6143C66.1291 52.8442 66.4349 52.1058 66.9794 51.5614L69.4704 49.0703C69.8034 49.5462 70 50.1191 70 50.7307V57.8061C70 58.0627 69.898 58.3089 69.7166 58.4903C69.5351 58.6718 69.2889 58.7738 69.0323 58.7738H66.1291V53.6143Z" fill="#C7CFE2"/>
<path d="M60.8064 50.4765H59.8387C59.7103 50.4765 59.5873 50.4255 59.4966 50.3347C59.4058 50.244 59.3548 50.1209 59.3548 49.9926V48.541H61.2903V49.9926C61.2903 50.0562 61.2777 50.1191 61.2534 50.1778C61.2291 50.2365 61.1935 50.2898 61.1485 50.3348C61.1036 50.3797 61.0503 50.4153 60.9916 50.4397C60.9329 50.464 60.8699 50.4765 60.8064 50.4765Z" fill="#959CB5"/>
<path d="M60.3225 48.5321L58.6823 49.7849C58.6158 49.8357 58.5391 49.8715 58.4575 49.8899C58.3759 49.9083 58.2913 49.9089 58.2094 49.8915C58.1276 49.8742 58.0505 49.8394 57.9833 49.7894C57.9162 49.7395 57.8606 49.6757 57.8205 49.6023L56.3491 46.9152L56.9413 46.0118C56.9722 45.9647 57.0129 45.9249 57.0608 45.8952C57.1086 45.8655 57.1623 45.8466 57.2182 45.8398C57.2741 45.8329 57.3308 45.8384 57.3843 45.8558C57.4379 45.8731 57.487 45.9019 57.5283 45.9402L60.3225 48.5321ZM60.3225 48.5321L61.9628 49.785C62.0293 49.8358 62.106 49.8716 62.1876 49.89C62.2692 49.9084 62.3538 49.909 62.4356 49.8916C62.5175 49.8743 62.5946 49.8395 62.6617 49.7896C62.7289 49.7397 62.7844 49.6758 62.8246 49.6024L64.296 46.9153L63.7037 46.0119C63.6729 45.9648 63.6321 45.9251 63.5843 45.8953C63.5365 45.8656 63.4828 45.8467 63.4269 45.8399C63.371 45.8331 63.3143 45.8385 63.2607 45.8559C63.2072 45.8732 63.158 45.902 63.1168 45.9403L60.3225 48.5321Z" fill="#C7CFE2"/>
<path d="M27.3229 44.8211C26.4959 42.63 25.84 38.8632 25.6983 36.9021C25.4288 33.1701 22.6164 30.1279 18.8146 30.1279C15.0128 30.1279 12.2004 33.1702 11.9309 36.9021C11.7892 38.8631 11.1333 42.63 10.3063 44.8211C10.1241 45.3042 10.3345 45.8368 10.8101 46.0524C11.6963 46.454 13.5857 47.2408 15.8644 47.5473H21.7647C24.0327 47.2401 25.9354 46.4529 26.819 46.0524C27.2948 45.8368 27.5051 45.3042 27.3229 44.8211Z" fill="#5A4146"/>
<path d="M26.8191 46.0534C27.2946 45.8378 27.5051 45.3052 27.3228 44.8221C26.4959 42.6309 25.8399 38.8642 25.6983 36.903C25.4289 33.1711 22.6164 30.1289 18.8147 30.1289L18.786 30.129C15.8689 30.1409 14.838 34.1193 17.3492 35.6037C17.5 35.6929 17.5967 35.7357 17.5967 35.7357L19.7962 47.5482H21.7648C24.0328 47.2409 25.9355 46.4537 26.8191 46.0534Z" fill="#694B4B"/>
<path d="M25.8145 49.4904L22.6827 47.9247C22.3612 47.7639 22.0908 47.5168 21.9018 47.211C21.7129 46.9052 21.6128 46.5528 21.6128 46.1934L21.613 43.29H15.8064V46.1935C15.8064 46.5529 15.7063 46.9053 15.5173 47.211C15.3284 47.5168 15.058 47.7638 14.7365 47.9246L11.6048 49.4904C11.1225 49.7315 10.717 50.1021 10.4335 50.5607C10.1501 51.0193 9.99999 51.5478 10 52.087V57.8059C10 58.0626 10.102 58.3087 10.2834 58.4902C10.4649 58.6717 10.7111 58.7737 10.9677 58.7737H26.4516C26.7083 58.7737 26.9544 58.6717 27.1359 58.4902C27.3174 58.3087 27.4193 58.0626 27.4193 57.8059V52.0871C27.4193 51.5479 27.2692 51.0194 26.9857 50.5608C26.7023 50.1022 26.2967 49.7315 25.8145 49.4904Z" fill="#E6AF78"/>
<path d="M18.7097 47.161C19.7518 47.161 20.7498 46.9462 21.6648 46.5638C21.6408 46.4418 21.6128 46.3205 21.6128 46.1934L21.613 43.29H15.8064V46.1935C15.8064 46.3213 15.7784 46.4432 15.7541 46.5657C16.6697 46.9461 17.6673 47.161 18.7097 47.161Z" fill="#D29B6E"/>
<path d="M25.8145 49.4906L23.5834 48.3751C22.5489 49.9726 20.7546 51.0321 18.7097 51.0321C16.6648 51.0321 14.8704 49.9726 13.8359 48.375L11.6049 49.4906C11.1226 49.7317 10.7171 50.1023 10.4336 50.5609C10.1502 51.0195 10 51.548 10 52.0871V57.8061C10 58.0628 10.102 58.3089 10.2834 58.4904C10.4649 58.6719 10.7111 58.7739 10.9677 58.7739H26.4516C26.7083 58.7739 26.9544 58.6719 27.1359 58.4904C27.3174 58.3089 27.4193 58.0628 27.4193 57.8061V52.0873C27.4193 51.5481 27.2692 51.0196 26.9857 50.561C26.7023 50.1024 26.2967 49.7317 25.8145 49.4906Z" fill="#D5DCED"/>
<path d="M18.7097 45.2257C15.7575 45.2257 13.32 43.0226 12.9515 40.1708C12.898 39.7576 13.0967 39.3525 13.4686 39.1649C13.9142 38.9401 14.5616 38.5611 15.1816 38.008C15.8719 37.3921 16.2769 36.7425 16.5057 36.2657C16.7027 35.855 17.1555 35.6228 17.5968 35.7354C21.0041 36.6044 23.3239 38.3771 24.1655 39.1009C24.3914 39.2952 24.5216 39.5817 24.4984 39.8789C24.2639 42.8707 21.7619 45.2257 18.7097 45.2257Z" fill="#F0C087"/>
<path d="M24.1654 39.1009C23.3239 38.3771 21.004 36.6044 17.5967 35.7354C17.1554 35.6228 16.7025 35.855 16.5055 36.2657C16.3323 36.6268 16.0461 37.0869 15.6213 37.5566L15.6207 37.5599C15.4888 37.7093 15.3484 37.8591 15.1816 38.0081C14.5616 38.5614 13.9142 38.9402 13.4686 39.165C13.0967 39.3526 12.8982 39.7578 12.9515 40.171C13.2825 42.7322 15.2867 44.7708 17.8294 45.1596C16.6708 44.3714 15.8065 43.2874 15.8065 41.355V39.975C16.0264 39.8127 16.2477 39.6509 16.4702 39.4523C17.0052 38.9751 17.471 38.4256 17.8541 37.8196C20.4607 38.633 22.2279 39.9878 22.8979 40.5639C23.0813 40.7246 23.5364 41.1442 24.0689 41.6437C24.298 41.0924 24.4496 40.5008 24.4982 39.8791C24.5215 39.5818 24.3913 39.2953 24.1654 39.1009Z" fill="#E6AF78"/>
<path d="M10.5899 50.3428C10.2171 50.8375 10 51.4445 10 52.0872V57.8062C10 58.0629 10.102 58.309 10.2834 58.4905C10.4649 58.672 10.7111 58.7739 10.9677 58.7739H13.8709V53.8978C13.8709 53.3098 13.6036 52.7537 13.1445 52.3864L10.5899 50.3428Z" fill="#C7CFE2"/>
<path d="M53.9035 48.17L45.8064 45.2256L40 47.1612L34.1936 45.2257L26.0965 48.1702C25.3498 48.4417 24.7047 48.9365 24.2488 49.5873C23.7929 50.2381 23.5484 51.0134 23.5484 51.808V57.8064C23.5484 58.063 23.6504 58.3092 23.8318 58.4907C24.0133 58.6721 24.2595 58.7741 24.5161 58.7741H55.4839C55.7405 58.7741 55.9867 58.6721 56.1682 58.4907C56.3496 58.3092 56.4516 58.063 56.4516 57.8064V51.808C56.4516 51.0134 56.2071 50.238 55.7512 49.5872C55.2954 48.9363 54.6503 48.4416 53.9035 48.17Z" fill="url(#paint1_linear_481_11872)"/>
<path d="M38.9862 49.0967L38.0645 58.7739H41.9355L41.0138 49.0967H38.9862Z" fill="url(#paint2_linear_481_11872)"/>
<path d="M41.016 50.4262H38.984C38.895 50.4262 38.8069 50.4087 38.7247 50.3747C38.6425 50.3406 38.5678 50.2907 38.5049 50.2278C38.442 50.1649 38.3921 50.0902 38.3581 50.008C38.324 49.9258 38.3065 49.8377 38.3065 49.7487V47.1611H41.6934V49.7487C41.6934 49.8377 41.6759 49.9258 41.6418 50.008C41.6078 50.0902 41.5579 50.1649 41.495 50.2278C41.4321 50.2907 41.3574 50.3406 41.2752 50.3746C41.1931 50.4087 41.105 50.4262 41.016 50.4262Z" fill="url(#paint3_linear_481_11872)"/>
<path d="M55.4099 49.1699C56.0634 49.8713 56.4516 50.8054 56.4516 51.8073V57.8057C56.4516 58.0624 56.3497 58.3085 56.1682 58.49C55.9867 58.6715 55.7405 58.7734 55.4839 58.7734H50.6452V55.5381C50.6452 54.5114 51.053 53.5268 51.779 52.801L55.4099 49.1699Z" fill="url(#paint4_linear_481_11872)"/>
<path d="M50.6452 25.2681V17.1611C50.6452 16.0921 49.7786 15.2256 48.7097 15.2256H37.0968C32.8211 15.2256 29.3548 18.6918 29.3548 22.9676V25.2681C29.3548 26.3082 29.5225 27.3416 29.8514 28.3283L30.1736 29.2948C30.2723 29.5908 30.3225 29.9008 30.3225 30.2128V30.7095H49.6773V30.2128C49.6773 29.9007 49.7276 29.5908 49.8263 29.2948L50.1484 28.3283C50.4775 27.3416 50.6452 26.3082 50.6452 25.2681Z" fill="#5A4146"/>
<path d="M34.1936 19.157C34.1936 21.3282 35.9537 23.0884 38.125 23.0884H38.6693L38.9321 30.7093H49.6773V30.2127C49.6773 29.9006 49.7276 29.5907 49.8263 29.2946L50.1484 28.3282C50.4774 27.3414 50.6451 26.3081 50.6451 25.268V17.1611C50.6451 16.0921 49.7785 15.2256 48.7096 15.2256H38.125C35.9537 15.2256 34.1936 16.9857 34.1936 19.157Z" fill="#694B4B"/>
<path d="M34.1934 38.4521H45.8066V47.1615H34.1934V38.4521Z" fill="#E6AF78"/>
<path d="M34.1936 41.7235C35.9031 42.7139 37.8823 43.2898 40 43.2898C42.1177 43.2898 44.097 42.7139 45.8064 41.7235V38.4512H34.1935L34.1936 41.7235Z" fill="#D29B6E"/>
<path d="M40 47.1611L36.9135 50.2475C36.4987 50.6624 35.813 50.6156 35.4584 50.1483L32.2581 45.9314L33.0952 44.1674C33.3422 43.6468 33.9865 43.456 34.4771 43.7584L40 47.1611ZM40 47.1611L43.0865 50.2475C43.5013 50.6624 44.187 50.6156 44.5416 50.1483L47.7419 45.9314L46.9048 44.1674C46.6578 43.6468 46.0135 43.456 45.5229 43.7584L40 47.1611Z" fill="url(#paint5_linear_481_11872)"/>
<path d="M40 41.3545C34.6553 41.3545 30.3225 37.0217 30.3225 31.677V30.5432C30.3225 30.0299 30.5264 29.5376 30.8894 29.1746L31.6911 28.3729C31.8708 28.1932 32.0133 27.9798 32.1106 27.745C32.2079 27.5101 32.2579 27.2584 32.2579 27.0043V24.6844C32.2579 24.2363 32.5588 23.847 32.9949 23.744C35.2837 23.2034 42.406 21.9229 47.253 25.4877C47.5677 25.7192 47.7418 26.0995 47.7418 26.4902V27.0043C47.7418 27.5175 47.9457 28.0098 48.3086 28.3729L49.1103 29.1746C49.29 29.3543 49.4326 29.5677 49.5298 29.8025C49.6271 30.0373 49.6771 30.289 49.6771 30.5432V31.677C49.6775 37.0217 45.3447 41.3545 40 41.3545Z" fill="#F0C087"/>
<path d="M47.2531 25.4881C43.8441 22.9808 39.3159 22.8723 36.1291 23.2156C34.7848 23.3603 33.6741 23.584 32.9951 23.7443C32.5591 23.8473 32.2581 24.2366 32.2581 24.6847V27.0045C32.2581 27.5179 32.0542 28.0102 31.6912 28.3732L30.8895 29.1749C30.7097 29.3546 30.5672 29.568 30.4699 29.8029C30.3726 30.0377 30.3225 30.2894 30.3225 30.5436V31.6773C30.3225 36.6254 34.0386 40.699 38.8306 41.2773C37.1608 39.5384 36.1289 37.1819 36.1289 34.5805V27.507C36.1289 26.5262 36.8582 25.7066 37.8312 25.5846C40.1536 25.2934 44.4073 25.1183 47.7418 27.0047V26.4905C47.742 26.0998 47.5676 25.7194 47.2531 25.4881Z" fill="#E6AF78"/>
<path d="M24.5901 49.1699C23.9366 49.8713 23.5484 50.8054 23.5484 51.8073V57.8057C23.5484 58.0624 23.6504 58.3085 23.8318 58.49C24.0133 58.6715 24.2595 58.7734 24.5161 58.7734H29.3548V55.5381C29.3548 54.5114 28.947 53.5268 28.221 52.801L24.5901 49.1699Z" fill="url(#paint6_linear_481_11872)"/>
<defs>
<linearGradient id="paint0_linear_481_11872" x1="39" y1="0" x2="39" y2="78" gradientUnits="userSpaceOnUse">
<stop stop-color="#F0F0F0"/>
<stop offset="1" stop-color="white" stop-opacity="0"/>
</linearGradient>
<linearGradient id="paint1_linear_481_11872" x1="40" y1="45.2256" x2="40" y2="58.7741" gradientUnits="userSpaceOnUse">
<stop stop-color="#FD74A0"/>
<stop offset="1" stop-color="#FD74A0" stop-opacity="0"/>
</linearGradient>
<linearGradient id="paint2_linear_481_11872" x1="40" y1="49.0967" x2="40" y2="58.7739" gradientUnits="userSpaceOnUse">
<stop stop-color="#FD7AA2"/>
<stop offset="1" stop-color="#FD7AA2" stop-opacity="0"/>
</linearGradient>
<linearGradient id="paint3_linear_481_11872" x1="39.9999" y1="47.1611" x2="39.9999" y2="50.4262" gradientUnits="userSpaceOnUse">
<stop stop-color="#FD7FB6"/>
<stop offset="1" stop-color="#FD7FB6" stop-opacity="0"/>
</linearGradient>
<linearGradient id="paint4_linear_481_11872" x1="53.5484" y1="49.1699" x2="53.5484" y2="58.7734" gradientUnits="userSpaceOnUse">
<stop stop-color="#FF7393"/>
<stop offset="1" stop-color="#FF7393" stop-opacity="0"/>
</linearGradient>
<linearGradient id="paint5_linear_481_11872" x1="40" y1="43.6143" x2="40" y2="50.531" gradientUnits="userSpaceOnUse">
<stop stop-color="#FF7393"/>
<stop offset="1" stop-color="#FF7393" stop-opacity="0"/>
</linearGradient>
<linearGradient id="paint6_linear_481_11872" x1="26.4516" y1="49.1699" x2="26.4516" y2="58.7734" gradientUnits="userSpaceOnUse">
<stop stop-color="#FF7393"/>
<stop offset="1" stop-color="#FF7393" stop-opacity="0"/>
</linearGradient>
</defs>
</svg>
