<svg width="78" height="78" viewBox="0 0 78 78" fill="none" xmlns="http://www.w3.org/2000/svg">
<circle cx="39" cy="39" r="39" fill="url(#paint0_linear_481_11875)"/>
<path d="M64.7952 23.4806V55.931C64.7952 59.0353 62.2812 61.5494 59.1768 61.5494H33.2618L30.3999 54.5133L25.5036 56.5056L27.5539 61.5494H16.8231C13.7188 61.5494 11.2047 59.0354 11.2047 55.931V23.4806C11.2047 20.3763 13.7187 17.8623 16.8231 17.8623H59.1767C62.2811 17.8623 64.7952 20.3763 64.7952 23.4806Z" fill="url(#paint1_linear_481_11875)"/>
<path d="M64.7952 23.4806V28.0396H43.692L41.7104 23.1697C41.133 21.7689 39.5584 21.1127 38.1633 21.6834C36.7772 22.2474 36.1079 23.8339 36.6718 25.22L37.4203 27.0593L37.8208 28.0396H11.2047V23.4806C11.2047 20.3763 13.7187 17.8623 16.8231 17.8623H59.1767C62.2811 17.8623 64.7952 20.3763 64.7952 23.4806Z" fill="#9E989A"/>
<path d="M50.6786 40.579C50.2603 40.9799 49.7605 41.3054 49.1911 41.5378L45.6118 32.7406C46.1617 32.516 46.7493 32.3976 47.3433 32.392C49.2376 32.3688 51.0388 33.4961 51.7942 35.3554C52.5496 37.2147 52.0441 39.2774 50.6786 40.579Z" fill="url(#paint2_linear_481_11875)"/>
<path d="M21.5503 55.0475C21.5271 55.0533 21.5038 55.0591 21.4806 55.0707C20.9228 55.2509 20.3476 55.3438 19.7898 55.3496C17.4422 55.402 15.2227 54.0249 14.293 51.7471C13.3672 49.4696 13.9873 46.9336 15.7049 45.3265C16.1241 44.9307 16.6 44.5997 17.1169 44.3445L17.1807 44.3154L21.5503 55.0475Z" fill="url(#paint3_linear_481_11875)"/>
<path d="M48.087 53.2642C47.3984 53.0709 46.7025 52.9042 46.001 52.7645C42.259 51.9975 38.3137 51.9336 34.4729 52.3054C33.886 52.3578 33.2992 52.4275 32.7181 52.503C32.7427 52.206 32.6969 51.9074 32.5844 51.6314L27.4654 39.0458C27.3491 38.7611 27.1691 38.5286 26.954 38.3369C27.4189 37.9883 27.8837 37.6279 28.3428 37.262C31.3527 34.8448 34.1359 32.0383 36.28 28.8715C36.6835 28.2825 37.0634 27.6777 37.4188 27.0586L48.087 53.2642Z" fill="url(#paint4_linear_481_11875)"/>
<path d="M41.7101 23.1707L53.8723 53.0494C54.4373 54.4376 53.7692 56.0231 52.3729 56.5915C50.9847 57.1565 49.3991 56.4883 48.8341 55.1003L36.6719 25.2216C36.1069 23.8334 36.775 22.2479 38.1632 21.6828C39.5573 21.1154 41.1391 21.7679 41.7101 23.1707Z" fill="url(#paint5_linear_481_11875)"/>
<path d="M27.4666 39.0498L32.5884 51.6325C32.9721 52.5751 32.519 53.6502 31.5763 54.0339L24.3282 56.9843C23.3856 57.368 22.3104 56.9149 21.9267 55.9723L16.8048 43.3897C16.4211 42.4471 16.8742 41.3719 17.8169 40.9882L25.065 38.0378C26.0077 37.6542 27.0829 38.1072 27.4666 39.0498Z" fill="url(#paint6_linear_481_11875)"/>
<path d="M33.6072 69.4051C32.2776 69.9486 30.7197 69.3131 30.1616 67.9525L26.1581 58.121L25.5015 56.5056L30.3998 54.5127L31.0564 56.1223L35.0598 65.9594C35.6118 67.3075 34.961 68.8531 33.6072 69.4051Z" fill="url(#paint7_linear_481_11875)"/>
<path d="M24.7112 23.0366C24.7112 24.357 23.6366 25.4317 22.3161 25.4317C20.9956 25.4317 19.9279 24.357 19.9279 23.0366C19.9279 21.723 20.9955 20.6484 22.316 20.6484C23.6365 20.6484 24.7112 21.723 24.7112 23.0366Z" fill="url(#paint8_linear_481_11875)"/>
<path d="M56.072 23.0366C56.072 24.357 54.9974 25.4317 53.6769 25.4317C52.3564 25.4317 51.2888 24.357 51.2888 23.0366C51.2888 21.723 52.3564 20.6484 53.6769 20.6484C54.9974 20.6484 56.072 21.723 56.072 23.0366Z" fill="url(#paint9_linear_481_11875)"/>
<path d="M22.3198 23.6213C22.2434 23.6213 22.1679 23.6062 22.0974 23.577C22.0268 23.5478 21.9628 23.505 21.9088 23.4511C21.8549 23.3971 21.8121 23.333 21.7829 23.2625C21.7537 23.192 21.7386 23.1165 21.7386 23.0401V14.9815C21.7386 14.6606 21.9985 14.4004 22.3198 14.4004C22.641 14.4004 22.9009 14.6606 22.9009 14.9815V23.0402C22.9009 23.1166 22.8858 23.1921 22.8566 23.2626C22.8274 23.3331 22.7846 23.3972 22.7307 23.4511C22.6767 23.5051 22.6126 23.5479 22.5421 23.5771C22.4716 23.6062 22.3961 23.6213 22.3198 23.6213Z" fill="url(#paint10_linear_481_11875)"/>
<path d="M53.6802 23.6213C53.6039 23.6213 53.5283 23.6062 53.4578 23.577C53.3873 23.5478 53.3233 23.505 53.2693 23.4511C53.2153 23.3971 53.1725 23.333 53.1433 23.2625C53.1141 23.192 53.0991 23.1165 53.0991 23.0401V14.9815C53.0991 14.6606 53.359 14.4004 53.6802 14.4004C54.0015 14.4004 54.2613 14.6606 54.2613 14.9815V23.0402C54.2613 23.1944 54.2001 23.3421 54.0911 23.4511C53.9821 23.56 53.8343 23.6213 53.6802 23.6213Z" fill="url(#paint11_linear_481_11875)"/>
<defs>
<linearGradient id="paint0_linear_481_11875" x1="39" y1="0" x2="39" y2="78" gradientUnits="userSpaceOnUse">
<stop stop-color="#F0F0F0"/>
<stop offset="1" stop-color="white" stop-opacity="0"/>
</linearGradient>
<linearGradient id="paint1_linear_481_11875" x1="37.9999" y1="61.5494" x2="37.9999" y2="17.8623" gradientUnits="userSpaceOnUse">
<stop offset="0.017" stop-color="#CCCCCC"/>
<stop offset="1" stop-color="#F2F2F2"/>
</linearGradient>
<linearGradient id="paint2_linear_481_11875" x1="48.8785" y1="41.5378" x2="48.8785" y2="32.3916" gradientUnits="userSpaceOnUse">
<stop stop-color="#F9403E"/>
<stop offset="1" stop-color="#F77953"/>
</linearGradient>
<linearGradient id="paint3_linear_481_11875" x1="17.7073" y1="55.351" x2="17.7073" y2="44.3153" gradientUnits="userSpaceOnUse">
<stop stop-color="#F9403E"/>
<stop offset="1" stop-color="#F77953"/>
</linearGradient>
<linearGradient id="paint4_linear_481_11875" x1="37.5205" y1="53.2642" x2="37.5205" y2="27.0586" gradientUnits="userSpaceOnUse">
<stop stop-color="#F9403E"/>
<stop offset="1" stop-color="#F77953"/>
</linearGradient>
<linearGradient id="paint5_linear_481_11875" x1="45.272" y1="56.7923" x2="45.272" y2="21.4785" gradientUnits="userSpaceOnUse">
<stop stop-color="#F79808"/>
<stop offset="1" stop-color="#ECBD0B"/>
</linearGradient>
<linearGradient id="paint6_linear_481_11875" x1="24.6965" y1="57.1208" x2="24.6965" y2="37.9013" gradientUnits="userSpaceOnUse">
<stop stop-color="#F79808"/>
<stop offset="1" stop-color="#ECBD0B"/>
</linearGradient>
<linearGradient id="paint7_linear_481_11875" x1="30.3789" y1="69.599" x2="30.3789" y2="54.5127" gradientUnits="userSpaceOnUse">
<stop stop-color="#F79808"/>
<stop offset="1" stop-color="#ECBD0B"/>
</linearGradient>
<linearGradient id="paint8_linear_481_11875" x1="22.3196" y1="25.4317" x2="22.3196" y2="20.6484" gradientUnits="userSpaceOnUse">
<stop offset="0.017" stop-color="#CCCCCC"/>
<stop offset="1" stop-color="#F2F2F2"/>
</linearGradient>
<linearGradient id="paint9_linear_481_11875" x1="53.6803" y1="25.4317" x2="53.6803" y2="20.6484" gradientUnits="userSpaceOnUse">
<stop offset="0.017" stop-color="#CCCCCC"/>
<stop offset="1" stop-color="#F2F2F2"/>
</linearGradient>
<linearGradient id="paint10_linear_481_11875" x1="22.3198" y1="23.6213" x2="22.3198" y2="14.4004" gradientUnits="userSpaceOnUse">
<stop stop-color="#41262F"/>
<stop offset="1" stop-color="#543843"/>
</linearGradient>
<linearGradient id="paint11_linear_481_11875" x1="53.6802" y1="23.6213" x2="53.6802" y2="14.4004" gradientUnits="userSpaceOnUse">
<stop stop-color="#41262F"/>
<stop offset="1" stop-color="#543843"/>
</linearGradient>
</defs>
</svg>
