<svg width="78" height="78" viewBox="0 0 78 78" fill="none" xmlns="http://www.w3.org/2000/svg">
<circle cx="39" cy="39" r="39" fill="url(#paint0_linear_481_11874)"/>
<path d="M14.4662 41.7149L12.3782 29.6824C11.8302 28.7665 12.3474 27.5863 13.3909 27.3626C17.9865 26.3774 22.6124 25.6592 27.2527 25.21V38.4953C27.2527 40.5344 25.7343 42.2511 23.7113 42.5071C21.2116 42.8234 18.7222 43.2169 16.2467 43.687C15.1007 43.9047 14.1313 42.8323 14.4662 41.7149Z" fill="url(#paint1_linear_481_11874)"/>
<path d="M27.2528 31.3564V38.4948C27.2528 40.5332 25.7338 42.2505 23.7114 42.5065C21.2116 42.8227 18.7223 43.2164 16.2469 43.687C15.1009 43.9037 14.1309 42.8315 14.4657 41.7138L12.6686 31.3564H27.2528Z" fill="url(#paint2_linear_481_11874)"/>
<path d="M24.5009 39.0282L22.2018 36.7359L23.3351 35.6865H27.2526V38.4963C27.2526 40.5331 25.7378 42.252 23.7173 42.508L23.6684 42.5142C25.1608 42.0279 25.6124 40.1365 24.5009 39.0282Z" fill="url(#paint3_linear_481_11874)"/>
<path d="M24.5009 39.0282L22.2018 36.7359L23.3351 35.6865H27.2526V38.4963C27.2526 40.5331 25.7378 42.252 23.7173 42.508L23.6684 42.5142C25.1608 42.0279 25.6124 40.1365 24.5009 39.0282Z" fill="url(#paint4_linear_481_11874)"/>
<path d="M63.5335 41.7149L65.6215 29.6824C66.1694 28.7665 65.6523 27.5863 64.6088 27.3626C60.0132 26.3774 55.3873 25.6592 50.7469 25.21V38.4953C50.7469 40.5344 52.2654 42.2511 54.2884 42.5071C56.7881 42.8234 59.2775 43.2169 61.753 43.687C62.899 43.9047 63.8683 42.8323 63.5335 41.7149Z" fill="url(#paint5_linear_481_11874)"/>
<path d="M63.5335 41.7149L65.6215 29.6824C66.1694 28.7665 65.6523 27.5863 64.6088 27.3626C60.0132 26.3774 55.3873 25.6592 50.7469 25.21V38.4953C50.7469 40.5344 52.2654 42.2511 54.2884 42.5071C56.7881 42.8234 59.2775 43.2169 61.753 43.687C62.899 43.9047 63.8683 42.8323 63.5335 41.7149Z" fill="url(#paint6_linear_481_11874)"/>
<path d="M63.5341 41.7138C63.8689 42.8315 62.8989 43.9037 61.7529 43.687C59.2775 43.2164 56.7881 42.8227 54.2884 42.5065C52.266 42.2505 50.7469 40.5333 50.7469 38.4948V31.3564H65.3313L63.5341 41.7138Z" fill="url(#paint7_linear_481_11874)"/>
<path d="M53.4988 39.0282L55.7979 36.7359L54.6646 35.6865H50.7471V38.4963C50.7471 40.5331 52.2619 42.252 54.2824 42.508L54.3313 42.5142C52.8389 42.0279 52.3873 40.1365 53.4988 39.0282Z" fill="url(#paint8_linear_481_11874)"/>
<path d="M53.4988 39.0282L55.7979 36.7359L54.6646 35.6865H50.7471V38.4963C50.7471 40.5331 52.2619 42.252 54.2824 42.508L54.3313 42.5142C52.8389 42.0279 52.3873 40.1365 53.4988 39.0282Z" fill="url(#paint9_linear_481_11874)"/>
<path d="M21.5471 35.6515L19.7258 23.4953C19.5672 22.437 20.2628 21.4402 21.3101 21.2204C33.011 18.7651 44.9889 18.7651 56.6899 21.2204C57.7371 21.4402 58.4327 22.437 58.2741 23.4953L56.4527 35.6516C56.3091 36.6105 55.3935 37.2548 54.4424 37.0663C44.2161 35.0405 33.784 35.0405 23.5576 37.0662C22.6063 37.2547 21.6909 36.6105 21.5471 35.6515Z" fill="url(#paint10_linear_481_11874)"/>
<path d="M15.8126 63.994C14.8541 64.0779 14.0092 63.3689 13.9253 62.4104L10.8748 27.5434C10.7909 26.5849 11.4999 25.74 12.4584 25.6561C13.4169 25.5723 14.2618 26.2813 14.3456 27.2398L17.3961 62.1067C17.48 63.0652 16.771 63.9101 15.8126 63.994Z" fill="url(#paint11_linear_481_11874)"/>
<path d="M62.1872 63.9939C63.1456 64.0778 63.9906 63.3688 64.0744 62.4103L67.1248 27.5434C67.2087 26.5849 66.4997 25.74 65.5412 25.6561C64.5828 25.5723 63.7378 26.2813 63.654 27.2398L60.6035 62.1067C60.5197 63.065 61.2287 63.91 62.1872 63.9939Z" fill="url(#paint12_linear_481_11874)"/>
<path d="M44.4705 47.382C43.9044 46.2681 42.9756 45.3804 41.8372 44.8654C41.7111 44.8085 41.7111 44.6279 41.8372 44.571C42.9755 44.0558 43.9043 43.1682 44.4705 42.0544C44.5305 41.9363 44.6989 41.9363 44.759 42.0544C45.3251 43.1683 46.2539 44.056 47.3923 44.571C47.5184 44.6279 47.5184 44.8085 47.3923 44.8654C46.254 45.3806 45.3252 46.2682 44.759 47.382C44.6989 47.5002 44.5305 47.5002 44.4705 47.382Z" fill="url(#paint13_linear_481_11874)"/>
<path d="M32.9324 60.8231C31.7445 60.4358 30.46 60.4649 29.2909 60.9056C29.1614 60.9545 29.0337 60.8269 29.0827 60.6975C29.5234 59.5283 29.5525 58.2439 29.1653 57.056C29.1242 56.9299 29.2432 56.8109 29.3692 56.852C30.5571 57.2393 31.8416 57.2102 33.0107 56.7695C33.1402 56.7206 33.2679 56.8482 33.2189 56.9776C32.7782 58.1468 32.7491 59.4312 33.1364 60.6191C33.1775 60.7451 33.0583 60.8642 32.9324 60.8231Z" fill="url(#paint14_linear_481_11874)"/>
<path d="M19.6703 50.5753C19.1043 49.4615 18.1754 48.5738 17.0371 48.0588C16.9109 48.0018 16.9109 47.8213 17.0371 47.7644C18.1754 47.2492 19.1042 46.3616 19.6703 45.2478C19.7303 45.1296 19.8987 45.1296 19.9588 45.2478C20.5249 46.3616 21.4537 47.2493 22.5921 47.7644C22.7183 47.8213 22.7183 48.0018 22.5921 48.0588C21.4538 48.5739 20.525 49.4615 19.9588 50.5753C19.8987 50.6935 19.7303 50.6935 19.6703 50.5753Z" fill="url(#paint15_linear_481_11874)"/>
<path d="M60.0286 58.9822C58.9147 59.5483 58.0271 60.4771 57.512 61.6155C57.4551 61.7416 57.2745 61.7416 57.2176 61.6155C56.7025 60.4772 55.8148 59.5484 54.701 58.9822C54.5829 58.9222 54.5829 58.7538 54.701 58.6937C55.8149 58.1276 56.7026 57.1988 57.2176 56.0604C57.2745 55.9343 57.4551 55.9343 57.512 56.0604C58.0272 57.1987 58.9148 58.1275 60.0286 58.6937C60.1467 58.7538 60.1467 58.9222 60.0286 58.9822Z" fill="url(#paint16_linear_481_11874)"/>
<path d="M41.1863 15.4295C40.0724 15.9955 39.1848 16.9244 38.6697 18.0627C38.6128 18.1889 38.4322 18.1889 38.3753 18.0627C37.8602 16.9244 36.9725 15.9956 35.8587 15.4295C35.7406 15.3695 35.7406 15.2011 35.8587 15.141C36.9726 14.5749 37.8603 13.6461 38.3753 12.5077C38.4322 12.3815 38.6128 12.3815 38.6697 12.5077C39.1849 13.646 40.0725 14.5748 41.1863 15.141C41.3045 15.201 41.3045 15.3695 41.1863 15.4295Z" fill="url(#paint17_linear_481_11874)"/>
<path d="M19.1928 22.2189H17.3299C17.1886 22.2189 17.053 22.1627 16.9531 22.0628C16.8532 21.9629 16.797 21.8273 16.797 21.686V19.1411C16.797 18.0523 16.3731 17.0287 15.6032 16.2588C14.2801 14.9357 13.5515 13.1767 13.5515 11.3056V8.53286C13.5515 8.39153 13.6076 8.256 13.7075 8.15607C13.8075 8.05614 13.943 8 14.0843 8H15.9472C16.0171 8 16.0864 8.01378 16.1511 8.04056C16.2157 8.06734 16.2745 8.10659 16.3239 8.15607C16.3734 8.20555 16.4127 8.26429 16.4395 8.32894C16.4662 8.39359 16.48 8.46288 16.48 8.53286V11.3056C16.48 12.3944 16.904 13.418 17.6739 14.1878C18.9969 15.5109 19.7255 17.27 19.7255 19.141V21.6859C19.7255 21.7559 19.7118 21.8252 19.685 21.8898C19.6583 21.9545 19.619 22.0133 19.5696 22.0628C19.5201 22.1123 19.4614 22.1515 19.3967 22.1783C19.332 22.2051 19.2627 22.2189 19.1928 22.2189Z" fill="url(#paint18_linear_481_11874)"/>
<path d="M15.6031 16.2588C16.373 17.0287 16.7969 18.0523 16.7969 19.1411V21.686C16.7969 21.8273 16.8531 21.9629 16.953 22.0628C17.0529 22.1627 17.1885 22.2189 17.3298 22.2189H19.1927C19.2627 22.2189 19.332 22.2051 19.3967 22.1783C19.4613 22.1515 19.5201 22.1123 19.5695 22.0628C19.619 22.0133 19.6583 21.9546 19.685 21.8899C19.7118 21.8253 19.7256 21.756 19.7256 21.686C19.7256 20.8506 19.3937 20.0495 18.8031 19.4589L15.6031 16.2588Z" fill="url(#paint19_linear_481_11874)"/>
<path d="M15.6031 16.2588C16.373 17.0287 16.7969 18.0523 16.7969 19.1411V21.686C16.7969 21.8273 16.8531 21.9629 16.953 22.0628C17.0529 22.1627 17.1885 22.2189 17.3298 22.2189H19.1927C19.2627 22.2189 19.332 22.2051 19.3967 22.1783C19.4613 22.1515 19.5201 22.1123 19.5695 22.0628C19.619 22.0133 19.6583 21.9546 19.685 21.8899C19.7118 21.8253 19.7256 21.756 19.7256 21.686C19.7256 20.8506 19.3937 20.0495 18.8031 19.4589L15.6031 16.2588Z" fill="url(#paint20_linear_481_11874)"/>
<path d="M19.7257 21.686C19.7257 20.8506 19.3938 20.0495 18.8032 19.4589L15.6031 16.2588" fill="url(#paint21_linear_481_11874)"/>
<path d="M17.674 14.1878C16.9041 13.418 16.4801 12.3944 16.4801 11.3056V8.53286C16.4801 8.46288 16.4663 8.39359 16.4396 8.32894C16.4128 8.26429 16.3735 8.20555 16.3241 8.15607C16.2746 8.10659 16.2158 8.06734 16.1512 8.04056C16.0865 8.01378 16.0172 8 15.9473 8H14.0843C13.943 8 13.8075 8.05614 13.7075 8.15607C13.6076 8.256 13.5515 8.39153 13.5515 8.53286V8.98901C13.5514 9.33021 13.6186 9.66808 13.7492 9.98332C13.8798 10.2986 14.0712 10.585 14.3124 10.8263L17.674 14.1878Z" fill="url(#paint22_linear_481_11874)"/>
<path d="M66.1822 19.6632L64.4778 21.3676C64.3485 21.4969 64.1732 21.5695 63.9903 21.5695C63.8075 21.5695 63.6321 21.4969 63.5028 21.3676L61.1744 19.0392C60.1783 18.0431 58.8539 17.4945 57.4452 17.4945C55.0242 17.4945 52.7483 16.5518 51.0364 14.8399L48.4998 12.3032C48.3705 12.1739 48.2979 11.9985 48.2979 11.8157C48.2979 11.6328 48.3705 11.4575 48.4998 11.3282L50.2041 9.62378C50.3335 9.4945 50.5088 9.42188 50.6917 9.42188C50.8745 9.42188 51.0499 9.4945 51.1792 9.62378L53.7159 12.1605C54.712 13.1566 56.0364 13.7052 57.4451 13.7052C59.8661 13.7052 62.142 14.6479 63.8539 16.3598L66.1822 18.6881C66.2463 18.7522 66.2971 18.8282 66.3317 18.9118C66.3664 18.9955 66.3842 19.0851 66.3842 19.1757C66.3842 19.2662 66.3664 19.3559 66.3317 19.4395C66.2971 19.5232 66.2463 19.5992 66.1822 19.6632Z" fill="url(#paint23_linear_481_11874)"/>
<path d="M57.4451 17.4951C58.8539 17.4951 60.1782 18.0437 61.1743 19.0398L63.5026 21.3682C63.6319 21.4975 63.8073 21.5701 63.9902 21.5701C64.173 21.5701 64.3484 21.4975 64.4777 21.3682L66.1821 19.6638C66.3114 19.5345 66.384 19.3591 66.384 19.1763C66.384 18.9934 66.3114 18.8181 66.1821 18.6887C65.8037 18.3103 65.3544 18.0101 64.86 17.8053C64.3655 17.6005 63.8356 17.4951 63.3004 17.4951H57.4451Z" fill="url(#paint24_linear_481_11874)"/>
<path d="M57.4451 17.4951C58.8539 17.4951 60.1782 18.0437 61.1743 19.0398L63.5026 21.3682C63.6319 21.4975 63.8073 21.5701 63.9902 21.5701C64.173 21.5701 64.3484 21.4975 64.4777 21.3682L66.1821 19.6638C66.3114 19.5345 66.384 19.3591 66.384 19.1763C66.384 18.9934 66.3114 18.8181 66.1821 18.6887C65.8037 18.3103 65.3544 18.0101 64.86 17.8053C64.3655 17.6005 63.8356 17.4951 63.3004 17.4951H57.4451Z" fill="url(#paint25_linear_481_11874)"/>
<path d="M66.1822 18.6887C65.8038 18.3103 65.3545 18.0101 64.8601 17.8053C64.3656 17.6005 63.8357 17.4951 63.3005 17.4951H57.4451" fill="url(#paint26_linear_481_11874)"/>
<path d="M57.4451 13.7052C56.0364 13.7052 54.7119 13.1566 53.7159 12.1605L51.1792 9.62378C51.0499 9.4945 50.8745 9.42188 50.6917 9.42188C50.5088 9.42188 50.3335 9.4945 50.2041 9.62378L48.4998 11.3282C48.3705 11.4575 48.2979 11.6328 48.2979 11.8157C48.2979 11.9985 48.3705 12.1739 48.4998 12.3032L48.917 12.7205C49.2292 13.0326 49.5998 13.2803 50.0076 13.4492C50.4155 13.6181 50.8527 13.7051 51.2941 13.7051L57.4451 13.7052Z" fill="url(#paint27_linear_481_11874)"/>
<path d="M26.7207 50.4554L25.9244 49.6591C25.8579 49.5926 25.7789 49.5398 25.6919 49.5038C25.605 49.4678 25.5118 49.4492 25.4177 49.4492C25.3236 49.4492 25.2304 49.4678 25.1435 49.5038C25.0565 49.5398 24.9775 49.5926 24.911 49.6591L23.1447 51.4254C23.0782 51.4919 23.0254 51.5709 22.9894 51.6579C22.9534 51.7448 22.9348 51.838 22.9348 51.9321C22.9348 52.0262 22.9534 52.1194 22.9894 52.2063C23.0254 52.2933 23.0782 52.3723 23.1447 52.4388L23.8397 53.1337C26.2464 55.5404 30.1483 55.5404 32.555 53.1337L33.25 52.4388C33.3165 52.3723 33.3693 52.2933 33.4053 52.2063C33.4414 52.1194 33.4599 52.0262 33.4599 51.9321C33.4599 51.838 33.4414 51.7448 33.4053 51.6579C33.3693 51.5709 33.3165 51.4919 33.25 51.4254L31.4837 49.6591C31.4172 49.5926 31.3382 49.5398 31.2513 49.5038C31.1643 49.4678 31.0711 49.4492 30.977 49.4492C30.8829 49.4492 30.7897 49.4678 30.7028 49.5038C30.6158 49.5398 30.5369 49.5926 30.4703 49.6591L29.6741 50.4554C28.8585 51.271 27.5363 51.271 26.7207 50.4554Z" fill="url(#paint28_linear_481_11874)"/>
<path d="M32.555 53.1337L33.25 52.4388C33.3165 52.3723 33.3693 52.2933 33.4053 52.2063C33.4413 52.1194 33.4599 52.0262 33.4599 51.9321C33.4599 51.838 33.4413 51.7448 33.4053 51.6579C33.3693 51.5709 33.3165 51.4919 33.25 51.4254L31.4837 49.6591C31.4172 49.5926 31.3382 49.5398 31.2512 49.5038C31.1643 49.4678 31.0711 49.4492 30.977 49.4492C30.8829 49.4492 30.7897 49.4678 30.7028 49.5038C30.6158 49.5398 30.5368 49.5926 30.4703 49.6591L29.674 50.4554C28.8584 51.271 27.5362 51.271 26.7206 50.4554L29.3905 53.1253C30.2569 53.9917 31.6686 54.0135 32.5383 53.1503L32.555 53.1337Z" fill="url(#paint29_linear_481_11874)"/>
<path d="M39.7734 37.1361H40.8994C41.0895 37.136 41.2717 37.0605 41.4061 36.9261C41.5405 36.7918 41.616 36.6095 41.616 36.4195V33.9217C41.616 33.7316 41.5405 33.5494 41.4061 33.415C41.2717 33.2806 41.0895 33.2051 40.8994 33.2051H39.9167C36.5132 33.2051 33.754 35.9642 33.754 39.3678V40.3506C33.754 40.5406 33.8295 40.7228 33.9639 40.8572C34.0983 40.9916 34.2805 41.0671 34.4706 41.0671H36.9684C37.1584 41.0671 37.3406 40.9916 37.475 40.8572C37.6094 40.7228 37.6849 40.5406 37.6849 40.3506V39.2245C37.6849 38.071 38.62 37.1361 39.7734 37.1361Z" fill="url(#paint30_linear_481_11874)"/>
<path d="M33.754 39.3674V40.3501C33.754 40.5402 33.8295 40.7224 33.9639 40.8568C34.0983 40.9912 34.2805 41.0667 34.4705 41.0667H36.9683C37.1584 41.0667 37.3406 40.9912 37.475 40.8568C37.6094 40.7224 37.6849 40.5402 37.6849 40.3501V39.2241C37.6849 38.0707 38.6199 37.1357 39.7733 37.1357H35.9975C34.7722 37.1357 33.7586 38.1186 33.7538 39.3438L33.754 39.3674Z" fill="url(#paint31_linear_481_11874)"/>
<path d="M49.2971 56.2782V57.4043C49.2971 57.5943 49.3726 57.7766 49.507 57.9109C49.6413 58.0453 49.8236 58.1208 50.0136 58.1209H52.5114C52.7015 58.1208 52.8837 58.0453 53.0181 57.9109C53.1525 57.7766 53.228 57.5943 53.228 57.4043V56.4215C53.228 53.018 50.4689 50.2588 47.0653 50.2588H46.0826C45.8925 50.2588 45.7103 50.3343 45.5759 50.4687C45.4415 50.6031 45.366 50.7853 45.366 50.9754V53.4733C45.366 53.6633 45.4415 53.8456 45.5759 53.98C45.7103 54.1143 45.8925 54.1898 46.0826 54.1899H47.2086C48.362 54.1899 49.2971 55.1249 49.2971 56.2782Z" fill="url(#paint32_linear_481_11874)"/>
<path d="M47.0653 50.2589H46.0826C45.8925 50.2589 45.7103 50.3344 45.5759 50.4688C45.4415 50.6032 45.366 50.7854 45.366 50.9755V53.4733C45.366 53.6633 45.4415 53.8456 45.5759 53.98C45.7103 54.1143 45.8925 54.1898 46.0826 54.1899H47.2086C48.362 54.1899 49.2969 55.1248 49.2969 56.2782V52.5024C49.2969 51.2771 48.3141 50.2635 47.0889 50.2588L47.0653 50.2589Z" fill="url(#paint33_linear_481_11874)"/>
<defs>
<linearGradient id="paint0_linear_481_11874" x1="39" y1="0" x2="39" y2="78" gradientUnits="userSpaceOnUse">
<stop stop-color="#F0F0F0"/>
<stop offset="1" stop-color="white" stop-opacity="0"/>
</linearGradient>
<linearGradient id="paint1_linear_481_11874" x1="14.4049" y1="30.6977" x2="26.6461" y2="37.279" gradientUnits="userSpaceOnUse">
<stop stop-color="#FDB4BA"/>
<stop offset="1" stop-color="#FE5694"/>
</linearGradient>
<linearGradient id="paint2_linear_481_11874" x1="21.2542" y1="38.8602" x2="22.1755" y2="43.2039" gradientUnits="userSpaceOnUse">
<stop stop-color="#FD3581" stop-opacity="0"/>
<stop offset="0.281" stop-color="#FA317D" stop-opacity="0.282"/>
<stop offset="0.56" stop-color="#F02571" stop-opacity="0.56"/>
<stop offset="0.838" stop-color="#DF115E" stop-opacity="0.838"/>
<stop offset="1" stop-color="#D2024E"/>
</linearGradient>
<linearGradient id="paint3_linear_481_11874" x1="22.9274" y1="36.6339" x2="27.9291" y2="41.5041" gradientUnits="userSpaceOnUse">
<stop stop-color="#FDB4BA"/>
<stop offset="1" stop-color="#FE5694"/>
</linearGradient>
<linearGradient id="paint4_linear_481_11874" x1="16.2461" y1="29.9938" x2="26.2497" y2="39.8804" gradientUnits="userSpaceOnUse">
<stop stop-color="#FD3581" stop-opacity="0"/>
<stop offset="0.281" stop-color="#FA317D" stop-opacity="0.282"/>
<stop offset="0.56" stop-color="#F02571" stop-opacity="0.56"/>
<stop offset="0.838" stop-color="#DF115E" stop-opacity="0.838"/>
<stop offset="1" stop-color="#D2024E"/>
</linearGradient>
<linearGradient id="paint5_linear_481_11874" x1="55.4923" y1="31.3035" x2="63.9164" y2="39.9908" gradientUnits="userSpaceOnUse">
<stop stop-color="#FDB4BA"/>
<stop offset="1" stop-color="#FE5694"/>
</linearGradient>
<linearGradient id="paint6_linear_481_11874" x1="61.446" y1="35.5687" x2="54.8939" y2="33.5797" gradientUnits="userSpaceOnUse">
<stop stop-color="#FD3581" stop-opacity="0"/>
<stop offset="0.281" stop-color="#FA317D" stop-opacity="0.282"/>
<stop offset="0.56" stop-color="#F02571" stop-opacity="0.56"/>
<stop offset="0.838" stop-color="#DF115E" stop-opacity="0.838"/>
<stop offset="1" stop-color="#D2024E"/>
</linearGradient>
<linearGradient id="paint7_linear_481_11874" x1="56.9937" y1="38.3254" x2="56.204" y2="43.5906" gradientUnits="userSpaceOnUse">
<stop stop-color="#FD3581" stop-opacity="0"/>
<stop offset="0.281" stop-color="#FA317D" stop-opacity="0.282"/>
<stop offset="0.56" stop-color="#F02571" stop-opacity="0.56"/>
<stop offset="0.838" stop-color="#DF115E" stop-opacity="0.838"/>
<stop offset="1" stop-color="#D2024E"/>
</linearGradient>
<linearGradient id="paint8_linear_481_11874" x1="50.6618" y1="35.3183" x2="54.6106" y2="39.9252" gradientUnits="userSpaceOnUse">
<stop stop-color="#FDB4BA"/>
<stop offset="1" stop-color="#FE5694"/>
</linearGradient>
<linearGradient id="paint9_linear_481_11874" x1="41.936" y1="27.5554" x2="54.6891" y2="39.8406" gradientUnits="userSpaceOnUse">
<stop stop-color="#FD3581" stop-opacity="0"/>
<stop offset="0.281" stop-color="#FA317D" stop-opacity="0.282"/>
<stop offset="0.56" stop-color="#F02571" stop-opacity="0.56"/>
<stop offset="0.838" stop-color="#DF115E" stop-opacity="0.838"/>
<stop offset="1" stop-color="#D2024E"/>
</linearGradient>
<linearGradient id="paint10_linear_481_11874" x1="38.9999" y1="23.3278" x2="38.9999" y2="38.7332" gradientUnits="userSpaceOnUse">
<stop stop-color="#FDB4BA"/>
<stop offset="1" stop-color="#FE5694"/>
</linearGradient>
<linearGradient id="paint11_linear_481_11874" x1="12.8637" y1="44.9812" x2="15.2767" y2="44.7646" gradientUnits="userSpaceOnUse">
<stop stop-color="#F1B0A2"/>
<stop offset="1" stop-color="#CA6E59"/>
</linearGradient>
<linearGradient id="paint12_linear_481_11874" x1="62.0413" y1="44.6427" x2="65.2088" y2="44.9594" gradientUnits="userSpaceOnUse">
<stop stop-color="#F1B0A2"/>
<stop offset="1" stop-color="#CA6E59"/>
</linearGradient>
<linearGradient id="paint13_linear_481_11874" x1="44.6151" y1="43.1144" x2="44.615" y2="46.59" gradientUnits="userSpaceOnUse">
<stop stop-color="#EAF9FA"/>
<stop offset="1" stop-color="#B4D2E2"/>
</linearGradient>
<linearGradient id="paint14_linear_481_11874" x1="30.0833" y1="57.77" x2="32.1431" y2="59.8298" gradientUnits="userSpaceOnUse">
<stop stop-color="#C8EFFE"/>
<stop offset="1" stop-color="#62DBFB"/>
</linearGradient>
<linearGradient id="paint15_linear_481_11874" x1="18.7704" y1="46.8674" x2="21.9244" y2="50.0215" gradientUnits="userSpaceOnUse">
<stop stop-color="#FD4755"/>
<stop offset="1" stop-color="#A72B2B"/>
</linearGradient>
<linearGradient id="paint16_linear_481_11874" x1="56.2946" y1="57.7679" x2="59.2486" y2="60.7218" gradientUnits="userSpaceOnUse">
<stop stop-color="#C8EFFE"/>
<stop offset="1" stop-color="#62DBFB"/>
</linearGradient>
<linearGradient id="paint17_linear_481_11874" x1="37.4524" y1="14.2151" x2="40.4064" y2="17.1691" gradientUnits="userSpaceOnUse">
<stop stop-color="#FEF0AE"/>
<stop offset="1" stop-color="#FAC600"/>
</linearGradient>
<linearGradient id="paint18_linear_481_11874" x1="13.5515" y1="15.1094" x2="19.7257" y2="15.1094" gradientUnits="userSpaceOnUse">
<stop stop-color="#C8EFFE"/>
<stop offset="1" stop-color="#62DBFB"/>
</linearGradient>
<linearGradient id="paint19_linear_481_11874" x1="16.1295" y1="20.5817" x2="18.1792" y2="18.5826" gradientUnits="userSpaceOnUse">
<stop stop-color="#07B2CD" stop-opacity="0"/>
<stop offset="0.455" stop-color="#05A5CE" stop-opacity="0.455"/>
<stop offset="1" stop-color="#0290CF"/>
</linearGradient>
<linearGradient id="paint20_linear_481_11874" x1="17.6644" y1="21.3697" x2="17.6644" y2="22.2821" gradientUnits="userSpaceOnUse">
<stop stop-color="#07B2CD" stop-opacity="0"/>
<stop offset="0.455" stop-color="#05A5CE" stop-opacity="0.455"/>
<stop offset="1" stop-color="#0290CF"/>
</linearGradient>
<linearGradient id="paint21_linear_481_11874" x1="17.6644" y1="20.9142" x2="17.6644" y2="22.0826" gradientUnits="userSpaceOnUse">
<stop stop-color="#07B2CD" stop-opacity="0"/>
<stop offset="0.455" stop-color="#05A5CE" stop-opacity="0.455"/>
<stop offset="1" stop-color="#0290CF"/>
</linearGradient>
<linearGradient id="paint22_linear_481_11874" x1="16.8089" y1="9.27252" x2="14.8856" y2="12.5117" gradientUnits="userSpaceOnUse">
<stop stop-color="#07B2CD" stop-opacity="0"/>
<stop offset="0.455" stop-color="#05A5CE" stop-opacity="0.455"/>
<stop offset="1" stop-color="#0290CF"/>
</linearGradient>
<linearGradient id="paint23_linear_481_11874" x1="54.5202" y1="18.3465" x2="60.169" y2="12.6977" gradientUnits="userSpaceOnUse">
<stop stop-color="#8BC727"/>
<stop offset="0.132" stop-color="#83C528"/>
<stop offset="0.343" stop-color="#6BBD2B"/>
<stop offset="0.607" stop-color="#45B131"/>
<stop offset="0.911" stop-color="#11A038"/>
<stop offset="1" stop-color="#009B3A"/>
</linearGradient>
<linearGradient id="paint24_linear_481_11874" x1="61.8854" y1="20.9952" x2="61.9317" y2="17.2906" gradientUnits="userSpaceOnUse">
<stop stop-color="#026841" stop-opacity="0"/>
<stop offset="0.238" stop-color="#026441" stop-opacity="0.238"/>
<stop offset="0.474" stop-color="#015840" stop-opacity="0.475"/>
<stop offset="0.711" stop-color="#01443F" stop-opacity="0.711"/>
<stop offset="0.946" stop-color="#00283D" stop-opacity="0.946"/>
<stop offset="1" stop-color="#00213D"/>
</linearGradient>
<linearGradient id="paint25_linear_481_11874" x1="64.0106" y1="20.3116" x2="64.8453" y2="21.1464" gradientUnits="userSpaceOnUse">
<stop stop-color="#026841" stop-opacity="0"/>
<stop offset="0.238" stop-color="#026441" stop-opacity="0.238"/>
<stop offset="0.474" stop-color="#015840" stop-opacity="0.475"/>
<stop offset="0.711" stop-color="#01443F" stop-opacity="0.711"/>
<stop offset="0.946" stop-color="#00283D" stop-opacity="0.946"/>
<stop offset="1" stop-color="#00213D"/>
</linearGradient>
<linearGradient id="paint26_linear_481_11874" x1="63.5938" y1="19.8949" x2="64.6629" y2="20.9639" gradientUnits="userSpaceOnUse">
<stop stop-color="#026841" stop-opacity="0"/>
<stop offset="0.238" stop-color="#026441" stop-opacity="0.238"/>
<stop offset="0.474" stop-color="#015840" stop-opacity="0.475"/>
<stop offset="0.711" stop-color="#01443F" stop-opacity="0.711"/>
<stop offset="0.946" stop-color="#00283D" stop-opacity="0.946"/>
<stop offset="1" stop-color="#00213D"/>
</linearGradient>
<linearGradient id="paint27_linear_481_11874" x1="52.1602" y1="10.0261" x2="53.3643" y2="14.7493" gradientUnits="userSpaceOnUse">
<stop stop-color="#026841" stop-opacity="0"/>
<stop offset="0.238" stop-color="#026441" stop-opacity="0.238"/>
<stop offset="0.474" stop-color="#015840" stop-opacity="0.475"/>
<stop offset="0.711" stop-color="#01443F" stop-opacity="0.711"/>
<stop offset="0.946" stop-color="#00283D" stop-opacity="0.946"/>
<stop offset="1" stop-color="#00213D"/>
</linearGradient>
<linearGradient id="paint28_linear_481_11874" x1="27.6876" y1="50.2237" x2="28.9036" y2="54.3354" gradientUnits="userSpaceOnUse">
<stop stop-color="#FEF0AE"/>
<stop offset="1" stop-color="#FAC600"/>
</linearGradient>
<linearGradient id="paint29_linear_481_11874" x1="30.902" y1="49.4887" x2="29.0199" y2="53.6871" gradientUnits="userSpaceOnUse">
<stop stop-color="#FEA613" stop-opacity="0"/>
<stop offset="0.203" stop-color="#FDA215" stop-opacity="0.203"/>
<stop offset="0.405" stop-color="#FB961B" stop-opacity="0.405"/>
<stop offset="0.607" stop-color="#F68225" stop-opacity="0.607"/>
<stop offset="0.807" stop-color="#F06633" stop-opacity="0.807"/>
<stop offset="1" stop-color="#E94444"/>
</linearGradient>
<linearGradient id="paint30_linear_481_11874" x1="36.1021" y1="35.5742" x2="39.0121" y2="38.4842" gradientUnits="userSpaceOnUse">
<stop stop-color="#FEF0AE"/>
<stop offset="1" stop-color="#FAC600"/>
</linearGradient>
<linearGradient id="paint31_linear_481_11874" x1="37.5186" y1="40.7908" x2="35.8807" y2="36.4912" gradientUnits="userSpaceOnUse">
<stop stop-color="#FEA613" stop-opacity="0"/>
<stop offset="0.203" stop-color="#FDA215" stop-opacity="0.203"/>
<stop offset="0.405" stop-color="#FB961B" stop-opacity="0.405"/>
<stop offset="0.607" stop-color="#F68225" stop-opacity="0.607"/>
<stop offset="0.807" stop-color="#F06633" stop-opacity="0.807"/>
<stop offset="1" stop-color="#E94444"/>
</linearGradient>
<linearGradient id="paint32_linear_481_11874" x1="50.8897" y1="52.6611" x2="47.9797" y2="55.571" gradientUnits="userSpaceOnUse">
<stop stop-color="#8BC727"/>
<stop offset="0.132" stop-color="#83C528"/>
<stop offset="0.343" stop-color="#6BBD2B"/>
<stop offset="0.607" stop-color="#45B131"/>
<stop offset="0.911" stop-color="#11A038"/>
<stop offset="1" stop-color="#009B3A"/>
</linearGradient>
<linearGradient id="paint33_linear_481_11874" x1="45.642" y1="54.0234" x2="49.9416" y2="52.3855" gradientUnits="userSpaceOnUse">
<stop stop-color="#026841" stop-opacity="0"/>
<stop offset="0.238" stop-color="#026441" stop-opacity="0.238"/>
<stop offset="0.474" stop-color="#015840" stop-opacity="0.475"/>
<stop offset="0.711" stop-color="#01443F" stop-opacity="0.711"/>
<stop offset="0.946" stop-color="#00283D" stop-opacity="0.946"/>
<stop offset="1" stop-color="#00213D"/>
</linearGradient>
</defs>
</svg>
