<svg width="28" height="28" viewBox="0 0 28 28" fill="none" xmlns="http://www.w3.org/2000/svg">
<path d="M22.7935 9.43355C25.2758 12.9305 23.7085 18.231 19.3416 21.4502C14.9865 24.6607 9.69399 24.3762 7.20495 20.8699C4.70306 17.3454 5.91886 11.7074 10.2525 8.51274C14.5863 5.31796 20.2917 5.90922 22.7935 9.43355Z" stroke="url(#paint0_linear_7367_119913)" stroke-width="0.784383"/>
<path d="M22.0644 7.62125C25.6814 11.9894 24.7472 17.2711 19.7154 21.4325C14.5346 25.3255 8.91454 24.3863 5.96056 20.5574C3.00657 16.7285 4.08999 10.3638 8.67753 6.98199C13.2651 3.60015 19.3429 3.78747 22.0644 7.62125Z" fill="url(#paint1_linear_7367_119913)"/>
<path d="M21.5367 7.51838C22.781 9.27126 22.9863 11.4757 22.3145 13.6748C21.6418 15.8768 20.0917 18.0556 17.8606 19.7004C13.3745 23.0075 7.98835 22.7814 5.50426 19.282C3.00759 15.7649 4.30868 10.0528 8.77318 6.76166C13.2378 3.4704 19.0402 4.0014 21.5367 7.51838Z" stroke="url(#paint2_linear_7367_119913)" stroke-width="0.784383"/>
<path d="M20.5396 7.52132C22.6039 10.4293 21.4392 15.4177 17.1405 18.5866C12.8418 21.7555 7.82813 21.3217 5.76386 18.4137C3.69959 15.5057 4.86426 10.5174 9.16297 7.34845C13.4617 4.17952 18.4754 4.61333 20.5396 7.52132Z" fill="#FFD93B" stroke="url(#paint3_linear_7367_119913)" stroke-width="2.17884"/>
<path d="M19.4799 8.30429C20.3654 9.5517 20.4816 11.2063 19.9257 12.8897C19.37 14.5727 18.1456 16.2697 16.3778 17.5728C14.61 18.876 12.6453 19.5301 10.9028 19.5412C9.15993 19.5524 7.65415 18.9222 6.76866 17.6748C5.88316 16.4273 5.76699 14.7727 6.32282 13.0893C6.87854 11.4063 8.10298 9.70937 9.87075 8.4062C11.6385 7.10304 13.6033 6.44899 15.3458 6.4378C17.0886 6.42662 18.5944 7.05687 19.4799 8.30429Z" stroke="url(#paint4_linear_7367_119913)" stroke-width="0.348615"/>
<path d="M16.6747 12.1593L15.2698 12.0341C15.305 11.8076 15.2978 11.6036 15.2482 11.4221C15.1995 11.2381 15.1154 11.0784 14.9961 10.9429C14.8767 10.8075 14.7246 10.7004 14.5397 10.6215C14.3581 10.5405 14.1496 10.4895 13.9142 10.4685C13.496 10.4312 13.091 10.4999 12.6991 10.6745C12.3082 10.8468 11.9554 11.1197 11.6408 11.4934C11.327 11.8647 11.0756 12.3301 10.8865 12.8896C10.6942 13.4589 10.6235 13.9466 10.6746 14.3529C10.729 14.757 10.8829 15.0726 11.1363 15.2999C11.3931 15.5249 11.7293 15.6559 12.145 15.693C12.3754 15.7135 12.6006 15.7036 12.8206 15.6634C13.0439 15.6209 13.2554 15.5487 13.455 15.4467C13.657 15.3449 13.8418 15.2142 14.0093 15.0545C14.1793 14.8949 14.3224 14.7081 14.4386 14.4939L15.8411 14.6264C15.669 14.9754 15.4429 15.2971 15.1629 15.5915C14.8853 15.8861 14.5662 16.1396 14.2055 16.352C13.8456 16.562 13.4553 16.7168 13.0347 16.8165C12.6148 16.9138 12.1757 16.9421 11.7174 16.9012C11.0413 16.8409 10.4889 16.6357 10.0603 16.2856C9.63164 15.9355 9.36114 15.461 9.24877 14.8621C9.13639 14.2632 9.21525 13.5641 9.48534 12.7647C9.75624 11.9629 10.1419 11.2912 10.6423 10.7494C11.1434 10.2052 11.7107 9.8054 12.3439 9.54995C12.9771 9.2945 13.6293 9.1967 14.3005 9.25654C14.7287 9.29472 15.1073 9.38835 15.4361 9.53744C15.765 9.68653 16.0354 9.88655 16.2472 10.1375C16.4599 10.386 16.6041 10.6808 16.6798 11.0219C16.7587 11.3609 16.7571 11.74 16.6747 12.1593Z" fill="#FFEF61"/>
<path d="M16.5287 11.9025L15.1238 11.7772C15.159 11.5508 15.1518 11.3468 15.1022 11.1652C15.0535 10.9812 14.9694 10.8215 14.8501 10.6861C14.7307 10.5507 14.5786 10.4436 14.3937 10.3647C14.2121 10.2836 14.0036 10.2326 13.7682 10.2116C13.35 10.1743 12.945 10.243 12.5532 10.4177C12.1622 10.5899 11.8094 10.8629 11.4948 11.2366C11.181 11.6079 10.9296 12.0733 10.7405 12.6328C10.5482 13.202 10.4775 13.6898 10.5286 14.0961C10.583 14.5002 10.7369 14.8158 10.9903 15.043C11.2471 15.268 11.5833 15.3991 11.9991 15.4361C12.2295 15.4567 12.4546 15.4468 12.6746 15.4065C12.898 15.3641 13.1094 15.2918 13.309 15.1899C13.511 15.0881 13.6958 14.9574 13.8633 14.7976C14.0333 14.6381 14.1764 14.4512 14.2926 14.237L15.6951 14.3696C15.523 14.7185 15.2969 15.0402 15.0169 15.3346C14.7393 15.6293 14.4202 15.8828 14.0595 16.0952C13.6996 16.3051 13.3093 16.46 12.8887 16.5597C12.4688 16.657 12.0297 16.6852 11.5715 16.6444C10.8953 16.5841 10.3429 16.3789 9.91426 16.0288C9.48564 15.6786 9.21515 15.2041 9.10277 14.6052C8.99039 14.0064 9.06925 13.3072 9.33934 12.5079C9.61025 11.7061 9.99589 11.0343 10.4963 10.4926C10.9975 9.94838 11.5647 9.54856 12.1979 9.29311C12.8311 9.03767 13.4833 8.93986 14.1545 8.9997C14.5827 9.03788 14.9613 9.13152 15.2901 9.28061C15.619 9.4297 15.8894 9.62972 16.1012 9.88067C16.314 10.1292 16.4581 10.424 16.5338 10.7651C16.6128 11.104 16.6111 11.4831 16.5287 11.9025Z" fill="#ECA132"/>
<g filter="url(#filter0_f_7367_119913)">
<path d="M22.9845 12.4279L24.2657 14.5085C24.6627 12.1311 23.7947 10.2282 23.4536 9.70028C23.1836 9.18458 22.6828 8.4602 22.0929 7.66538C20.5273 5.17119 17.2272 2.94664 12.0972 4.60776C5.99573 6.74611 3.9733 11.785 3.75635 14.0101L22.463 12.1842L22.9845 12.4279Z" fill="url(#paint5_linear_7367_119913)" fill-opacity="0.3"/>
</g>
<defs>
<filter id="filter0_f_7367_119913" x="3.61048" y="3.88734" width="20.9031" height="10.7673" filterUnits="userSpaceOnUse" color-interpolation-filters="sRGB">
<feFlood flood-opacity="0" result="BackgroundImageFix"/>
<feBlend mode="normal" in="SourceGraphic" in2="BackgroundImageFix" result="shape"/>
<feGaussianBlur stdDeviation="0.0729333" result="effect1_foregroundBlur_7367_119913"/>
</filter>
<linearGradient id="paint0_linear_7367_119913" x1="22.6042" y1="8.48015" x2="8.92222" y2="23.5733" gradientUnits="userSpaceOnUse">
<stop stop-color="#FDF8CE"/>
<stop offset="0.0550575" stop-color="#F2E158"/>
<stop offset="0.170676" stop-color="#FCF5AF"/>
<stop offset="0.309086" stop-color="#ECD42F"/>
<stop offset="0.491314" stop-color="#E9B00C"/>
<stop offset="0.704021" stop-color="#ECB600"/>
<stop offset="0.78935" stop-color="#E8CF29"/>
<stop offset="0.843399" stop-color="#EBD431"/>
<stop offset="0.909367" stop-color="#E2C317"/>
<stop offset="1" stop-color="#E9D14F"/>
</linearGradient>
<linearGradient id="paint1_linear_7367_119913" x1="22.3747" y1="8.58011" x2="7.27946" y2="23.5386" gradientUnits="userSpaceOnUse">
<stop stop-color="#EEBB5C"/>
<stop offset="0.0550575" stop-color="#FDEE48"/>
<stop offset="0.170676" stop-color="#E8BB06"/>
<stop offset="0.309086" stop-color="#D57B01"/>
<stop offset="0.491314" stop-color="#C86101"/>
<stop offset="0.660555" stop-color="#D88C2D"/>
<stop offset="0.771761" stop-color="#E8BE29"/>
<stop offset="0.815114" stop-color="#E8BE29"/>
<stop offset="0.881945" stop-color="#E8AE0E"/>
<stop offset="0.930202" stop-color="#D98317"/>
<stop offset="1" stop-color="#EBAE4E"/>
</linearGradient>
<linearGradient id="paint2_linear_7367_119913" x1="21.3476" y1="6.56489" x2="7.39695" y2="22.1344" gradientUnits="userSpaceOnUse">
<stop stop-color="#FDF8CE"/>
<stop offset="0.0550575" stop-color="#F2E158"/>
<stop offset="0.170676" stop-color="#FCF5AF"/>
<stop offset="0.309086" stop-color="#ECD42F"/>
<stop offset="0.491314" stop-color="#E9B00C"/>
<stop offset="0.704021" stop-color="#ECB600"/>
<stop offset="0.78935" stop-color="#E8CF29"/>
<stop offset="0.843399" stop-color="#EBD431"/>
<stop offset="0.909367" stop-color="#E2C317"/>
<stop offset="1" stop-color="#E9D14F"/>
</linearGradient>
<linearGradient id="paint3_linear_7367_119913" x1="16.9997" y1="3.92874" x2="10.1327" y2="21.9453" gradientUnits="userSpaceOnUse">
<stop stop-color="#FFDC5E"/>
<stop offset="0.417119" stop-color="#FFED97"/>
<stop offset="1" stop-color="#FFF27B"/>
</linearGradient>
<linearGradient id="paint4_linear_7367_119913" x1="9.8576" y1="7.89966" x2="17.1827" y2="17.4209" gradientUnits="userSpaceOnUse">
<stop stop-color="#E4991A"/>
<stop offset="0.474971" stop-color="#EAAA2E" stop-opacity="0"/>
<stop offset="1" stop-color="#FFF27B" stop-opacity="0"/>
</linearGradient>
<linearGradient id="paint5_linear_7367_119913" x1="10.5731" y1="13.1907" x2="10.2893" y2="3.25723" gradientUnits="userSpaceOnUse">
<stop stop-color="white"/>
<stop offset="0.105858" stop-color="white"/>
<stop offset="0.21696" stop-color="white" stop-opacity="0.961194"/>
<stop offset="1" stop-color="white" stop-opacity="0"/>
</linearGradient>
</defs>
</svg>
