<svg width="343" height="501" viewBox="0 0 343 501" fill="none" xmlns="http://www.w3.org/2000/svg">
<g clip-path="url(#clip0_45_501)">
<mask id="mask0_45_501" style="mask-type:luminance" maskUnits="userSpaceOnUse" x="0" y="0" width="343" height="501">
<path d="M343 0H0V501H343V0Z" fill="white"/>
</mask>
<g mask="url(#mask0_45_501)">
<mask id="mask1_45_501" style="mask-type:luminance" maskUnits="userSpaceOnUse" x="0" y="0" width="343" height="501">
<path d="M343 0H0V501H343V0Z" fill="white"/>
</mask>
<g mask="url(#mask1_45_501)">
<path d="M343 0.00196457H0V501.002H343V0.00196457Z" fill="url(#paint0_linear_45_501)"/>
</g>
<mask id="mask2_45_501" style="mask-type:luminance" maskUnits="userSpaceOnUse" x="0" y="0" width="343" height="501">
<path d="M343 0H0V501H343V0Z" fill="white"/>
</mask>
<g mask="url(#mask2_45_501)">
<path d="M82.28 -20.3661L114.224 460.032L-283.952 249.916L82.28 -20.3661Z" fill="url(#paint1_linear_45_501)"/>
</g>
<mask id="mask3_45_501" style="mask-type:luminance" maskUnits="userSpaceOnUse" x="0" y="0" width="343" height="501">
<path d="M343 0H0V501H343V0Z" fill="white"/>
</mask>
<g mask="url(#mask3_45_501)">
<g opacity="0.7">
<path d="M255.34 347.202L493.364 477.953L270.291 636.915L255.34 347.202Z" fill="url(#paint2_linear_45_501)"/>
</g>
</g>
<mask id="mask4_45_501" style="mask-type:luminance" maskUnits="userSpaceOnUse" x="0" y="0" width="343" height="501">
<path d="M343 0H0V501H343V0Z" fill="white"/>
</mask>
<g mask="url(#mask4_45_501)">
<g opacity="0.5">
<path d="M81.6353 -127.252L406.888 -25.4137L163.271 230.237L81.6353 -127.252Z" fill="url(#paint3_linear_45_501)"/>
</g>
</g>
<mask id="mask5_45_501" style="mask-type:luminance" maskUnits="userSpaceOnUse" x="0" y="0" width="343" height="501">
<path d="M343 0H0V501H343V0Z" fill="white"/>
</mask>
<g mask="url(#mask5_45_501)">
<path d="M-215.007 62.8678L45.7116 198.77L-192.85 376.578L-215.007 62.8678Z" fill="url(#paint4_linear_45_501)"/>
</g>
<mask id="mask6_45_501" style="mask-type:luminance" maskUnits="userSpaceOnUse" x="0" y="0" width="343" height="501">
<path d="M343 0H0V501H343V0Z" fill="white"/>
</mask>
<g mask="url(#mask6_45_501)">
<g opacity="0.3">
<path d="M612.97 115.296L254.267 143.624L411.193 -208.598L612.97 115.296Z" fill="url(#paint5_linear_45_501)"/>
</g>
</g>
<mask id="mask7_45_501" style="mask-type:luminance" maskUnits="userSpaceOnUse" x="0" y="0" width="343" height="501">
<path d="M343 0H0V501H343V0Z" fill="white"/>
</mask>
<g mask="url(#mask7_45_501)">
<g opacity="0.5">
<path d="M140.9 -285.159L165.745 88.6005L-144.019 -74.8097L140.9 -285.159Z" fill="url(#paint6_linear_45_501)"/>
</g>
</g>
<mask id="mask8_45_501" style="mask-type:luminance" maskUnits="userSpaceOnUse" x="0" y="0" width="343" height="501">
<path d="M343 0H0V501H343V0Z" fill="white"/>
</mask>
<g mask="url(#mask8_45_501)">
<g opacity="0.5">
<path d="M-114.442 959.396L39.4727 317.461L473.359 783.461L-114.442 959.396Z" fill="url(#paint7_linear_45_501)"/>
</g>
</g>
<mask id="mask9_45_501" style="mask-type:luminance" maskUnits="userSpaceOnUse" x="0" y="0" width="343" height="501">
<path d="M343 0H0V501H343V0Z" fill="white"/>
</mask>
<g mask="url(#mask9_45_501)">
<path d="M332.89 104.411C332.244 103.708 332.244 102.655 332.89 101.953C333.535 101.25 334.503 101.25 335.148 101.953C335.794 102.655 335.794 103.708 335.148 104.411C334.503 105.113 333.535 105.113 332.89 104.411ZM326.436 97.3874C325.791 96.6851 325.791 95.6316 326.436 94.9292C327.082 94.2269 328.05 94.2269 328.695 94.9292C329.34 95.6316 329.34 96.6851 328.695 97.3874C328.157 98.0897 327.082 98.0897 326.436 97.3874ZM319.983 90.364C319.338 89.6617 319.338 88.6082 319.983 87.9059C320.628 87.2035 321.596 87.2035 322.242 87.9059C322.887 88.6082 322.887 89.6617 322.242 90.364C321.704 91.0664 320.628 91.0664 319.983 90.364ZM313.637 83.3407C312.992 82.6383 312.992 81.5848 313.637 80.8825C314.282 80.1802 315.25 80.1802 315.896 80.8825C316.541 81.5848 316.541 82.6383 315.896 83.3407C315.25 84.043 314.282 84.043 313.637 83.3407ZM307.184 76.4344C306.538 75.732 306.538 74.6785 307.184 73.9762C307.829 73.2738 308.797 73.2738 309.442 73.9762C310.088 74.6785 310.088 75.732 309.442 76.4344C308.797 77.0196 307.829 77.0196 307.184 76.4344ZM300.73 69.411C300.085 68.7087 300.085 67.6551 300.73 66.9528C301.375 66.2505 302.343 66.2505 302.989 66.9528C303.634 67.6551 303.634 68.7087 302.989 69.411C302.451 70.1133 301.375 70.1133 300.73 69.411ZM339.236 97.3874C338.59 96.6851 338.59 95.6316 339.236 94.9292C339.881 94.2269 340.849 94.2269 341.494 94.9292C342.14 95.6316 342.14 96.6851 341.494 97.3874C340.957 98.0897 339.881 98.0897 339.236 97.3874ZM332.89 90.364C332.244 89.6617 332.244 88.6082 332.89 87.9059C333.535 87.2035 334.503 87.2035 335.148 87.9059C335.794 88.6082 335.794 89.6617 335.148 90.364C334.503 91.0664 333.428 91.0664 332.89 90.364ZM326.436 83.4577C325.791 82.7554 325.791 81.7019 326.436 80.9995C327.082 80.2972 328.05 80.2972 328.695 80.9995C329.34 81.7019 329.34 82.7554 328.695 83.4577C328.05 84.1601 327.082 84.1601 326.436 83.4577ZM319.983 76.4344C319.338 75.732 319.338 74.6785 319.983 73.9762C320.628 73.2738 321.596 73.2738 322.242 73.9762C322.887 74.6785 322.887 75.732 322.242 76.4344C321.704 77.1367 320.628 77.1367 319.983 76.4344ZM313.529 69.411C312.884 68.7087 312.884 67.6551 313.529 66.9528C314.175 66.2505 315.143 66.2505 315.788 66.9528C316.433 67.6551 316.433 68.7087 315.788 69.411C315.25 70.1133 314.175 70.1133 313.529 69.411ZM307.184 62.3876C306.538 61.6853 306.538 60.6318 307.184 59.9294C307.829 59.2271 308.797 59.2271 309.442 59.9294C310.088 60.6318 310.088 61.6853 309.442 62.3876C308.797 63.09 307.721 63.09 307.184 62.3876ZM345.689 90.4811C345.044 89.7787 345.044 88.7252 345.689 88.0229C346.334 87.3206 347.302 87.3206 347.948 88.0229C348.593 88.7252 348.593 89.7787 347.948 90.4811C347.302 91.1834 346.334 91.1834 345.689 90.4811ZM339.236 83.4577C338.59 82.7554 338.59 81.7019 339.236 80.9995C339.881 80.2972 340.849 80.2972 341.494 80.9995C342.14 81.7019 342.14 82.7554 341.494 83.4577C340.849 84.1601 339.881 84.1601 339.236 83.4577ZM332.782 76.4344C332.137 75.732 332.137 74.6785 332.782 73.9762C333.428 73.2738 334.396 73.2738 335.041 73.9762C335.686 74.6785 335.686 75.732 335.041 76.4344C334.503 77.1367 333.428 77.1367 332.782 76.4344ZM326.329 69.5281C325.683 68.8257 325.683 67.7722 326.329 67.0699C326.974 66.3675 327.942 66.3675 328.587 67.0699C329.233 67.7722 329.233 68.8257 328.587 69.5281C328.05 70.2304 326.974 70.2304 326.329 69.5281ZM319.983 62.5047C319.338 61.8024 319.338 60.7488 319.983 60.0465C320.628 59.3442 321.596 59.3442 322.242 60.0465C322.887 60.7488 322.887 61.8024 322.242 62.5047C321.596 63.207 320.628 63.207 319.983 62.5047ZM313.529 55.4813C312.884 54.779 312.884 53.7255 313.529 53.0231C314.175 52.3208 315.143 52.3208 315.788 53.0231C316.433 53.7255 316.433 54.779 315.788 55.4813C315.143 56.1837 314.175 56.1837 313.529 55.4813ZM352.035 83.4577C351.39 82.7554 351.39 81.7019 352.035 80.9995C352.68 80.2972 353.648 80.2972 354.294 80.9995C354.939 81.7019 354.939 82.7554 354.294 83.4577C353.756 84.1601 352.68 84.1601 352.035 83.4577ZM345.581 76.5514C344.936 75.8491 344.936 74.7956 345.581 74.0932C346.227 73.3909 347.195 73.3909 347.84 74.0932C348.486 74.7956 348.486 75.8491 347.84 76.5514C347.302 77.2538 346.227 77.2538 345.581 76.5514ZM339.236 69.5281C338.59 68.8257 338.59 67.7722 339.236 67.0699C339.881 66.3675 340.849 66.3675 341.494 67.0699C342.14 67.7722 342.14 68.8257 341.494 69.5281C340.849 70.2304 339.773 70.2304 339.236 69.5281ZM332.782 62.5047C332.137 61.8024 332.137 60.7488 332.782 60.0465C333.428 59.3442 334.396 59.3442 335.041 60.0465C335.686 60.7488 335.686 61.8024 335.041 62.5047C334.396 63.207 333.428 63.207 332.782 62.5047ZM326.329 55.4813C325.683 54.779 325.683 53.7255 326.329 53.0231C326.974 52.3208 327.942 52.3208 328.587 53.0231C329.233 53.7255 329.233 54.779 328.587 55.4813C328.05 56.1837 326.974 56.1837 326.329 55.4813ZM319.875 48.575C319.23 47.8727 319.23 46.8192 319.875 46.1168C320.521 45.4145 321.489 45.4145 322.134 46.1168C322.779 46.8192 322.779 47.8727 322.134 48.575C321.596 49.2774 320.521 49.2774 319.875 48.575ZM358.381 76.5514C357.735 75.8491 357.735 74.7956 358.381 74.0932C359.026 73.3909 359.994 73.3909 360.639 74.0932C361.285 74.7956 361.285 75.8491 360.639 76.5514C360.102 77.2538 359.026 77.2538 358.381 76.5514ZM352.035 69.5281C351.39 68.8257 351.39 67.7722 352.035 67.0699C352.68 66.3675 353.648 66.3675 354.294 67.0699C354.939 67.7722 354.939 68.8257 354.294 69.5281C353.648 70.2304 352.68 70.2304 352.035 69.5281ZM345.581 62.6218C344.936 61.9194 344.936 60.8659 345.581 60.1636C346.227 59.4612 347.195 59.4612 347.84 60.1636C348.486 60.8659 348.486 61.9194 347.84 62.6218C347.195 63.3241 346.227 63.3241 345.581 62.6218ZM339.128 55.5984C338.483 54.8961 338.483 53.8425 339.128 53.1402C339.773 52.4379 340.741 52.4379 341.387 53.1402C342.032 53.8425 342.032 54.8961 341.387 55.5984C340.849 56.3007 339.773 56.3007 339.128 55.5984ZM332.675 48.575C332.029 47.8727 332.029 46.8192 332.675 46.1168C333.32 45.4145 334.288 45.4145 334.933 46.1168C335.579 46.8192 335.579 47.8727 334.933 48.575C334.396 49.2774 333.32 49.2774 332.675 48.575ZM326.329 41.5517C325.683 40.8493 325.683 39.7958 326.329 39.0935C326.974 38.3911 327.942 38.3911 328.587 39.0935C329.233 39.7958 329.233 40.8493 328.587 41.5517C327.942 42.254 326.974 42.254 326.329 41.5517ZM364.834 69.6451C364.189 68.9428 364.189 67.8893 364.834 67.1869C365.48 66.4846 366.448 66.4846 367.093 67.1869C367.738 67.8893 367.738 68.9428 367.093 69.6451C366.448 70.3475 365.48 70.3475 364.834 69.6451ZM358.381 62.6218C357.735 61.9194 357.735 60.8659 358.381 60.1636C359.026 59.4612 359.994 59.4612 360.639 60.1636C361.285 60.8659 361.285 61.9194 360.639 62.6218C360.102 63.3241 359.026 63.3241 358.381 62.6218ZM351.927 55.5984C351.282 54.8961 351.282 53.8425 351.927 53.1402C352.573 52.4379 353.541 52.4379 354.186 53.1402C354.831 53.8425 354.831 54.8961 354.186 55.5984C353.648 56.3007 352.573 56.3007 351.927 55.5984ZM345.581 48.575C344.936 47.8727 344.936 46.8192 345.581 46.1168C346.227 45.4145 347.195 45.4145 347.84 46.1168C348.486 46.8192 348.486 47.8727 347.84 48.575C347.195 49.2774 346.119 49.2774 345.581 48.575ZM339.128 41.6687C338.483 40.9664 338.483 39.9129 339.128 39.2105C339.773 38.5082 340.741 38.5082 341.387 39.2105C342.032 39.9129 342.032 40.9664 341.387 41.6687C340.741 42.3711 339.773 42.3711 339.128 41.6687ZM332.675 34.6454C332.029 33.943 332.029 32.8895 332.675 32.1872C333.32 31.4848 334.288 31.4848 334.933 32.1872C335.579 32.8895 335.579 33.943 334.933 34.6454C334.396 35.3477 333.32 35.3477 332.675 34.6454Z" fill="white"/>
</g>
<mask id="mask10_45_501" style="mask-type:luminance" maskUnits="userSpaceOnUse" x="0" y="0" width="343" height="501">
<path d="M343 0H0V501H343V0Z" fill="white"/>
</mask>
<g mask="url(#mask10_45_501)">
<path d="M8.17535 491.053C7.53 490.35 7.53 489.297 8.17535 488.594C8.82069 487.892 9.78871 487.892 10.4341 488.594C11.0794 489.297 11.0794 490.35 10.4341 491.053C9.78871 491.755 8.71313 491.755 8.17535 491.053ZM1.72191 484.029C1.07657 483.327 1.07657 482.273 1.72191 481.571C2.36726 480.869 3.33528 480.869 3.98062 481.571C4.62597 482.273 4.62597 483.327 3.98062 484.029C3.33528 484.732 2.36726 484.732 1.72191 484.029ZM-4.73152 477.006C-5.37686 476.304 -5.37686 475.25 -4.73152 474.548C-4.08618 473.845 -3.11815 473.845 -2.47281 474.548C-1.82747 475.25 -1.82747 476.304 -2.47281 477.006C-3.0106 477.708 -4.08618 477.708 -4.73152 477.006ZM-11.185 469.983C-11.8303 469.28 -11.8303 468.227 -11.185 467.524C-10.5396 466.822 -9.57159 466.822 -8.92624 467.524C-8.2809 468.227 -8.2809 469.28 -8.92624 469.983C-9.46403 470.685 -10.5396 470.685 -11.185 469.983ZM-17.5308 463.076C-18.1762 462.374 -18.1762 461.32 -17.5308 460.618C-16.8855 459.916 -15.9175 459.916 -15.2721 460.618C-14.6268 461.32 -14.6268 462.374 -15.2721 463.076C-15.9175 463.779 -16.993 463.779 -17.5308 463.076ZM-23.9843 456.053C-24.6296 455.351 -24.6296 454.297 -23.9843 453.595C-23.3389 452.892 -22.3709 452.892 -21.7256 453.595C-21.0802 454.297 -21.0802 455.351 -21.7256 456.053C-22.3709 456.755 -23.3389 456.755 -23.9843 456.053ZM14.5212 484.029C13.8759 483.327 13.8759 482.273 14.5212 481.571C15.1666 480.869 16.1346 480.869 16.7799 481.571C17.4253 482.273 17.4253 483.327 16.7799 484.029C16.1346 484.732 15.1666 484.732 14.5212 484.029ZM8.06778 477.123C7.42244 476.421 7.42244 475.367 8.06778 474.665C8.71313 473.962 9.68115 473.962 10.3265 474.665C10.9718 475.367 10.9718 476.421 10.3265 477.123C9.7887 477.708 8.71313 477.708 8.06778 477.123ZM1.61435 470.1C0.969007 469.397 0.969007 468.344 1.61435 467.641C2.25969 466.939 3.22771 466.939 3.87306 467.641C4.5184 468.344 4.5184 469.397 3.87306 470.1C3.33527 470.802 2.25969 470.802 1.61435 470.1ZM-4.73152 463.076C-5.37686 462.374 -5.37686 461.32 -4.73152 460.618C-4.08618 459.916 -3.11815 459.916 -2.47281 460.618C-1.82747 461.32 -1.82747 462.374 -2.47281 463.076C-3.11815 463.779 -4.08618 463.779 -4.73152 463.076ZM-11.185 456.053C-11.8303 455.351 -11.8303 454.297 -11.185 453.595C-10.5396 452.892 -9.57159 452.892 -8.92624 453.595C-8.2809 454.297 -8.2809 455.351 -8.92624 456.053C-9.57159 456.755 -10.5396 456.755 -11.185 456.053ZM-17.6384 449.147C-18.2837 448.444 -18.2837 447.391 -17.6384 446.688C-16.993 445.986 -16.025 445.986 -15.3797 446.688C-14.7343 447.391 -14.7343 448.444 -15.3797 449.147C-15.9175 449.732 -16.993 449.732 -17.6384 449.147ZM20.8671 477.123C20.2217 476.421 20.2217 475.367 20.8671 474.665C21.5124 473.962 22.4804 473.962 23.1258 474.665C23.7711 475.367 23.7711 476.421 23.1258 477.123C22.588 477.825 21.5124 477.825 20.8671 477.123ZM14.5212 470.1C13.8759 469.397 13.8759 468.344 14.5212 467.641C15.1666 466.939 16.1346 466.939 16.7799 467.641C17.4253 468.344 17.4253 469.397 16.7799 470.1C16.1346 470.802 15.059 470.802 14.5212 470.1ZM8.06778 463.076C7.42244 462.374 7.42244 461.32 8.06778 460.618C8.71313 459.916 9.68115 459.916 10.3265 460.618C10.9718 461.32 10.9718 462.374 10.3265 463.076C9.68115 463.779 8.71313 463.779 8.06778 463.076ZM1.61435 456.17C0.969007 455.468 0.969007 454.414 1.61435 453.712C2.25969 453.009 3.22771 453.009 3.87306 453.712C4.5184 454.414 4.5184 455.468 3.87306 456.17C3.33527 456.872 2.25969 456.872 1.61435 456.17ZM-4.83908 449.147C-5.48443 448.444 -5.48443 447.391 -4.83908 446.688C-4.19374 445.986 -3.22572 445.986 -2.58037 446.688C-1.93503 447.391 -1.93503 448.444 -2.58037 449.147C-3.11816 449.849 -4.19374 449.849 -4.83908 449.147ZM-11.185 442.123C-11.8303 441.421 -11.8303 440.367 -11.185 439.665C-10.5396 438.963 -9.57159 438.963 -8.92624 439.665C-8.2809 440.367 -8.2809 441.421 -8.92624 442.123C-9.57159 442.826 -10.6472 442.826 -11.185 442.123ZM27.3205 470.217C26.6752 469.514 26.6752 468.461 27.3205 467.759C27.9659 467.056 28.9339 467.056 29.5792 467.759C30.2246 468.461 30.2246 469.514 29.5792 470.217C28.9339 470.802 27.9659 470.802 27.3205 470.217ZM20.8671 463.193C20.2217 462.491 20.2217 461.437 20.8671 460.735C21.5124 460.033 22.4804 460.033 23.1258 460.735C23.7711 461.437 23.7711 462.491 23.1258 463.193C22.4804 463.896 21.5124 463.896 20.8671 463.193ZM14.4137 456.17C13.7683 455.468 13.7683 454.414 14.4137 453.712C15.059 453.009 16.027 453.009 16.6724 453.712C17.3177 454.414 17.3177 455.468 16.6724 456.17C16.1346 456.872 15.059 456.872 14.4137 456.17ZM7.96022 449.147C7.31488 448.444 7.31488 447.391 7.96022 446.688C8.60556 445.986 9.57358 445.986 10.2189 446.688C10.8643 447.391 10.8643 448.444 10.2189 449.147C9.68114 449.849 8.60556 449.849 7.96022 449.147ZM1.61435 442.24C0.969007 441.538 0.969007 440.484 1.61435 439.782C2.25969 439.08 3.22771 439.08 3.87306 439.782C4.5184 440.484 4.5184 441.538 3.87306 442.24C3.22771 442.826 2.25969 442.826 1.61435 442.24ZM-4.83908 435.217C-5.48443 434.515 -5.48443 433.461 -4.83908 432.759C-4.19374 432.056 -3.22572 432.056 -2.58037 432.759C-1.93503 433.461 -1.93503 434.515 -2.58037 435.217C-3.22572 435.919 -4.19374 435.919 -4.83908 435.217ZM33.6664 463.193C33.021 462.491 33.021 461.437 33.6664 460.735C34.3117 460.033 35.2798 460.033 35.9251 460.735C36.5704 461.437 36.5704 462.491 35.9251 463.193C35.3873 463.896 34.3117 463.896 33.6664 463.193ZM27.213 456.17C26.5676 455.468 26.5676 454.414 27.213 453.712C27.8583 453.009 28.8263 453.009 29.4717 453.712C30.117 454.414 30.117 455.468 29.4717 456.17C28.9339 456.872 27.8583 456.872 27.213 456.17ZM20.8671 449.264C20.2217 448.561 20.2217 447.508 20.8671 446.805C21.5124 446.103 22.4804 446.103 23.1258 446.805C23.7711 447.508 23.7711 448.561 23.1258 449.264C22.4804 449.966 21.4049 449.966 20.8671 449.264ZM14.4137 442.24C13.7683 441.538 13.7683 440.484 14.4137 439.782C15.059 439.08 16.027 439.08 16.6724 439.782C17.3177 440.484 17.3177 441.538 16.6724 442.24C16.027 442.943 15.059 442.943 14.4137 442.24ZM7.96022 435.217C7.31488 434.515 7.31488 433.461 7.96022 432.759C8.60556 432.056 9.57358 432.056 10.2189 432.759C10.8643 433.461 10.8643 434.515 10.2189 435.217C9.68114 435.919 8.60556 435.919 7.96022 435.217ZM1.50679 428.194C0.861443 427.491 0.861443 426.438 1.50679 425.735C2.15213 425.033 3.12015 425.033 3.76549 425.735C4.41084 426.438 4.41084 427.491 3.76549 428.194C3.22771 428.896 2.15213 428.896 1.50679 428.194ZM40.0123 456.287C39.3669 455.585 39.3669 454.531 40.0123 453.829C40.6576 453.126 41.6256 453.126 42.271 453.829C42.9163 454.531 42.9163 455.585 42.271 456.287C41.7332 456.989 40.6576 456.989 40.0123 456.287ZM33.6664 449.264C33.021 448.561 33.021 447.508 33.6664 446.805C34.3117 446.103 35.2798 446.103 35.9251 446.805C36.5704 447.508 36.5704 448.561 35.9251 449.264C35.2798 449.966 34.3117 449.966 33.6664 449.264ZM27.213 442.24C26.5676 441.538 26.5676 440.484 27.213 439.782C27.8583 439.08 28.8263 439.08 29.4717 439.782C30.117 440.484 30.117 441.538 29.4717 442.24C28.8263 442.943 27.8583 442.943 27.213 442.24ZM20.7595 435.334C20.1142 434.632 20.1142 433.578 20.7595 432.876C21.4049 432.173 22.3729 432.173 23.0182 432.876C23.6636 433.578 23.6636 434.632 23.0182 435.334C22.4804 435.919 21.4049 435.919 20.7595 435.334ZM14.3061 428.311C13.6607 427.608 13.6607 426.555 14.3061 425.852C14.9514 425.15 15.9195 425.15 16.5648 425.852C17.2101 426.555 17.2101 427.608 16.5648 428.311C16.027 429.013 14.9514 429.013 14.3061 428.311ZM7.96022 421.287C7.31488 420.585 7.31488 419.531 7.96022 418.829C8.60556 418.127 9.57358 418.127 10.2189 418.829C10.8643 419.531 10.8643 420.585 10.2189 421.287C9.57358 421.99 8.60556 421.99 7.96022 421.287Z" fill="white"/>
</g>
</g>
<path d="M343 0H0V501H343V0Z" fill="#6B2425"/>
<g clip-path="url(#clip1_45_501)">
<path opacity="0.5" d="M305.8 142.6C377.487 142.6 435.6 84.4866 435.6 12.8C435.6 -58.8866 377.487 -117 305.8 -117C234.113 -117 176 -58.8866 176 12.8C176 84.4866 234.113 142.6 305.8 142.6Z" fill="url(#paint8_radial_45_501)"/>
</g>
<g clip-path="url(#clip2_45_501)">
<path opacity="0.5" d="M31.8 154.6C103.487 154.6 161.6 96.4866 161.6 24.8C161.6 -46.8866 103.487 -105 31.8 -105C-39.8866 -105 -98 -46.8866 -98 24.8C-98 96.4866 -39.8866 154.6 31.8 154.6Z" fill="url(#paint9_radial_45_501)"/>
</g>
<g clip-path="url(#clip3_45_501)">
<path opacity="0.5" d="M-0.199996 562.6C71.4866 562.6 129.6 504.487 129.6 432.8C129.6 361.113 71.4866 303 -0.199997 303C-71.8866 303 -130 361.113 -130 432.8C-130 504.487 -71.8866 562.6 -0.199996 562.6Z" fill="url(#paint10_radial_45_501)"/>
</g>
<g clip-path="url(#clip4_45_501)">
<path opacity="0.5" d="M324.8 583.6C396.487 583.6 454.6 525.487 454.6 453.8C454.6 382.113 396.487 324 324.8 324C253.113 324 195 382.113 195 453.8C195 525.487 253.113 583.6 324.8 583.6Z" fill="url(#paint11_radial_45_501)"/>
</g>
<g opacity="0.2" clip-path="url(#clip5_45_501)">
<path d="M268.164 232.915C268.061 232.593 267.871 232.335 267.757 232.088C265.504 227.845 262.726 225.51 259.571 225.106C256.664 224.587 254.084 225.418 251.894 227.685C249.675 229.641 248.981 233.13 249.66 238.127C250.34 243.125 252.511 247.891 256.248 252.436C259.911 256.97 262.54 259.282 264.158 259.223C265.701 259.152 268.788 258.016 273.281 255.717C277.849 253.43 281.429 249.616 283.996 244.425C286.564 239.233 287.029 235.251 285.443 232.639C283.868 229.952 281.647 228.467 278.878 228.045C275.586 227.544 272.239 228.87 268.804 232.247C268.47 232.426 268.274 232.702 268.164 232.915Z" fill="url(#paint12_linear_45_501)"/>
<path d="M61.0913 279.428C60.8152 279.233 60.6139 279.049 60.4126 278.866C56.472 276.125 53.0015 275.29 49.9378 276.277C47.1217 277.148 45.2256 279.001 44.1516 281.972C43.0376 284.708 43.9607 288.137 46.7714 292.235C49.6569 296.345 53.7408 299.643 59.0229 302.129C64.3167 304.54 67.7008 305.438 69.112 304.735C70.4484 304.021 72.6617 301.605 75.7403 297.562C78.8305 293.445 80.2808 288.542 80.3389 282.74C80.3222 276.926 78.9848 273.205 76.4017 271.588C73.8302 269.897 71.1364 269.487 68.47 270.381C65.3314 271.356 62.9105 274.123 61.3685 278.629C61.184 278.83 61.1377 279.129 61.0913 279.428Z" fill="url(#paint13_linear_45_501)"/>
<path d="M290.235 206.13C290.183 205.969 290.131 205.808 290.08 205.648C289.253 203.075 288.052 201.439 286.302 200.867C284.789 200.254 283.223 200.474 281.765 201.476C280.331 202.328 279.505 204.191 279.376 207C279.246 209.81 279.939 212.745 281.479 215.656C283.019 218.566 284.232 220.127 285.13 220.264C286.028 220.401 287.842 220.065 290.56 219.332C293.365 218.535 295.773 216.837 297.71 214.227C299.722 211.627 300.358 209.506 299.778 207.812C299.187 206.193 298.14 205.039 296.615 204.501C294.877 203.854 292.827 204.231 290.603 205.727C290.494 205.94 290.407 206.003 290.235 206.13Z" fill="url(#paint14_linear_45_501)"/>
<path d="M66.6329 244.987C66.5813 244.826 66.4548 244.654 66.3916 244.568C64.9835 242.289 63.3383 241.045 61.5191 240.921C59.8612 240.745 58.4731 241.298 57.2684 242.644C56.0868 243.841 55.7853 245.783 56.3407 248.62C56.9077 251.383 58.2578 254.036 60.4774 256.515C62.697 258.994 64.279 260.152 65.1254 260.128C65.9833 260.029 67.7055 259.297 70.1539 257.835C72.6772 256.384 74.5565 254.146 75.8667 251.134C77.102 248.11 77.3002 245.846 76.2884 244.469C75.2882 243.017 74.034 242.214 72.4509 242.049C70.5685 241.839 68.7367 242.784 66.9038 244.723C66.829 244.711 66.7309 244.849 66.6329 244.987Z" fill="url(#paint15_linear_45_501)"/>
<g opacity="0.5">
<path d="M269.558 189.065C269.42 188.968 269.357 188.882 269.293 188.796C267.671 187.402 266.21 186.95 264.856 187.279C263.59 187.545 262.702 188.328 262.131 189.541C261.571 190.679 261.788 192.241 262.869 194.164C263.949 196.088 265.622 197.642 267.866 198.978C270.122 200.239 271.497 200.754 272.153 200.472C272.81 200.189 273.796 199.269 275.357 197.595C276.845 195.91 277.705 193.823 277.949 191.26C278.182 188.772 277.764 187.027 276.659 186.247C275.566 185.392 274.456 185.147 273.264 185.424C271.836 185.742 270.666 186.864 269.84 188.726C269.679 188.778 269.581 188.916 269.558 189.065Z" fill="url(#paint16_linear_45_501)"/>
</g>
<g opacity="0.2">
<path d="M293.082 134.005C293.019 133.919 292.956 133.833 292.967 133.758C292.117 132.329 291.162 131.572 290.039 131.401C289.066 131.253 288.174 131.576 287.436 132.381C286.71 133.112 286.449 134.296 286.718 136.019C286.987 137.742 287.814 139.321 289.102 140.894C290.402 142.391 291.345 143.223 291.892 143.154C292.427 143.159 293.493 142.709 295.002 141.868C296.586 141.039 297.791 139.693 298.605 137.905C299.419 136.117 299.553 134.761 299.007 133.837C298.461 132.912 297.695 132.413 296.711 132.34C295.589 132.169 294.437 132.682 293.255 133.879C293.267 133.804 293.169 133.942 293.082 134.005Z" fill="url(#paint17_linear_45_501)"/>
</g>
<g opacity="0.5">
<path d="M15.0535 180.722C14.9903 180.636 14.9386 180.475 14.9502 180.4C14.2093 178.758 13.2028 177.84 12.017 177.583C10.981 177.349 9.95016 177.574 9.06268 178.357C8.1868 179.065 7.84001 180.312 8.01071 182.173C8.18142 184.035 8.88754 185.901 10.1523 187.623C11.4054 189.42 12.3371 190.326 12.9474 190.343C13.5577 190.359 14.6865 189.995 16.4087 189.264C18.131 188.532 19.5602 187.22 20.6965 185.328C21.7579 183.425 22.053 182.017 21.5303 180.943C20.9959 179.944 20.2539 179.296 19.2179 179.062C18.0321 178.805 16.742 179.22 15.4108 180.394C15.238 180.521 15.1515 180.584 15.0535 180.722Z" fill="url(#paint18_linear_45_501)"/>
</g>
<g opacity="0.5">
<path d="M94.1307 111.487C94.0674 111.401 93.9926 111.39 93.9926 111.39C93.0894 110.794 92.3527 110.605 91.6329 110.801C90.9879 111.009 90.5442 111.4 90.365 112.061C90.1226 112.636 90.306 113.428 90.9267 114.364C91.5474 115.3 92.4274 116.045 93.6415 116.612C94.8556 117.18 95.5923 117.368 95.9264 117.19C96.2605 117.011 96.7274 116.47 97.4019 115.579C98.0764 114.688 98.4 113.59 98.4475 112.297C98.4201 110.993 98.1619 110.189 97.6097 109.799C97.0574 109.409 96.4588 109.318 95.8138 109.526C95.094 109.722 94.5407 110.326 94.2287 111.349C94.1423 111.413 94.1423 111.413 94.1307 111.487Z" fill="url(#paint19_linear_45_501)"/>
</g>
<path d="M100.035 100.552C100.046 100.477 99.9716 100.466 99.9716 100.466C99.6038 99.8746 99.1148 99.5707 98.6542 99.5771C98.2052 99.5087 97.8711 99.6873 97.5886 100.027C97.3062 100.366 97.225 100.889 97.42 101.607C97.6149 102.325 97.9711 102.991 98.5635 103.616C99.1558 104.242 99.57 104.534 99.8061 104.494C100.042 104.453 100.451 104.286 101.131 103.854C101.811 103.422 102.278 102.882 102.555 102.083C102.832 101.284 102.85 100.675 102.597 100.33C102.344 99.9858 101.993 99.7795 101.544 99.7111C101.084 99.7175 100.588 99.948 100.121 100.489C100.046 100.477 100.046 100.477 100.035 100.552Z" fill="url(#paint20_linear_45_501)"/>
<g opacity="0.5">
<path d="M125.258 82.187C125.195 82.1009 125.195 82.1009 125.195 82.1009C124.677 81.4868 124.114 81.1716 123.578 81.1666C123.043 81.1615 122.697 81.4148 122.328 81.8174C122.034 82.2315 122.016 82.8405 122.274 83.6445C122.533 84.4485 123.102 85.2233 123.844 85.8716C124.586 86.5198 125.149 86.835 125.386 86.7945C125.622 86.754 126.129 86.4488 126.82 85.9423C127.511 85.4358 128.013 84.671 128.239 83.7113C128.464 82.7515 128.419 82.0564 128.091 81.7006C127.763 81.3449 127.338 81.1271 126.802 81.1221C126.267 81.117 125.673 81.4855 125.258 82.187C125.27 82.1123 125.281 82.0376 125.258 82.187Z" fill="url(#paint21_linear_45_501)"/>
</g>
<g opacity="0.5">
<path d="M18.2014 297.459C18.1382 297.373 18.1382 297.373 18.075 297.287C17.3046 296.329 16.5278 295.904 15.6815 295.929C14.91 295.964 14.3282 296.258 13.9129 296.959C13.4344 297.575 13.4565 298.419 13.8812 299.631C14.3059 300.843 15.0648 301.876 16.2209 302.816C17.3771 303.757 18.079 304.17 18.4764 304.077C18.8737 303.985 19.5535 303.553 20.5906 302.793C21.6277 302.034 22.3371 300.918 22.707 299.521C23.077 298.125 23.0033 297.12 22.4858 296.505C21.9683 295.891 21.318 295.64 20.6214 295.686C19.775 295.711 19.0088 296.206 18.3226 297.172C18.2995 297.321 18.213 297.384 18.2014 297.459Z" fill="url(#paint22_linear_45_501)"/>
</g>
</g>
</g>
<defs>
<linearGradient id="paint0_linear_45_501" x1="4.58494" y1="508.061" x2="374.533" y2="26.3167" gradientUnits="userSpaceOnUse">
<stop stop-color="#9A3E97"/>
<stop offset="0.0993819" stop-color="#8E3F97"/>
<stop offset="0.4999" stop-color="#644098"/>
<stop offset="0.8136" stop-color="#4A4299"/>
<stop offset="1" stop-color="#404299"/>
</linearGradient>
<linearGradient id="paint1_linear_45_501" x1="371.961" y1="839.308" x2="-92.5089" y2="238.42" gradientUnits="userSpaceOnUse">
<stop stop-color="#B958A1"/>
<stop offset="0.1422" stop-color="#A7519E"/>
<stop offset="0.5236" stop-color="#7D4098"/>
<stop offset="0.8225" stop-color="#633594"/>
<stop offset="1" stop-color="#593192"/>
</linearGradient>
<linearGradient id="paint2_linear_45_501" x1="622.46" y1="461.481" x2="190.046" y2="492.552" gradientUnits="userSpaceOnUse">
<stop stop-color="#B958A1"/>
<stop offset="0.1422" stop-color="#A7519E"/>
<stop offset="0.5236" stop-color="#7D4098"/>
<stop offset="0.8225" stop-color="#633594"/>
<stop offset="1" stop-color="#593192"/>
</linearGradient>
<linearGradient id="paint3_linear_45_501" x1="564.273" y1="-79.1739" x2="27.8505" y2="54.7637" gradientUnits="userSpaceOnUse">
<stop stop-color="#B958A1"/>
<stop offset="0.1422" stop-color="#A7519E"/>
<stop offset="0.5236" stop-color="#7D4098"/>
<stop offset="0.8225" stop-color="#633594"/>
<stop offset="1" stop-color="#593192"/>
</linearGradient>
<linearGradient id="paint4_linear_45_501" x1="74.9678" y1="198.171" x2="-478.006" y2="234.216" gradientUnits="userSpaceOnUse">
<stop stop-color="#824399"/>
<stop offset="0.3836" stop-color="#62327F"/>
<stop offset="0.7698" stop-color="#48256A"/>
<stop offset="1" stop-color="#3E2062"/>
</linearGradient>
<linearGradient id="paint5_linear_45_501" x1="215.445" y1="182.649" x2="519.289" y2="-15.6438" gradientUnits="userSpaceOnUse">
<stop stop-color="#B958A1"/>
<stop offset="0.1354" stop-color="#A854A0"/>
<stop offset="0.5198" stop-color="#7E4A9C"/>
<stop offset="0.8211" stop-color="#64449A"/>
<stop offset="1" stop-color="#5A4299"/>
</linearGradient>
<linearGradient id="paint6_linear_45_501" x1="366.327" y1="383.714" x2="4.93366" y2="-83.823" gradientUnits="userSpaceOnUse">
<stop stop-color="#B958A1"/>
<stop offset="0.1422" stop-color="#A7519E"/>
<stop offset="0.5236" stop-color="#7D4098"/>
<stop offset="0.8225" stop-color="#633594"/>
<stop offset="1" stop-color="#593192"/>
</linearGradient>
<linearGradient id="paint7_linear_45_501" x1="10.8059" y1="256.502" x2="341.375" y2="1274.13" gradientUnits="userSpaceOnUse">
<stop stop-color="#6B4399"/>
<stop offset="0.2765" stop-color="#5B3786"/>
<stop offset="0.7299" stop-color="#46266C"/>
<stop offset="1" stop-color="#3E2062"/>
</linearGradient>
<radialGradient id="paint8_radial_45_501" cx="0" cy="0" r="1" gradientUnits="userSpaceOnUse" gradientTransform="translate(305.811 12.8115) scale(129.812)">
<stop stop-color="#DB332F"/>
<stop offset="1" stop-color="#BC27DA" stop-opacity="0"/>
</radialGradient>
<radialGradient id="paint9_radial_45_501" cx="0" cy="0" r="1" gradientUnits="userSpaceOnUse" gradientTransform="translate(31.8114 24.8115) scale(129.812)">
<stop stop-color="#DB332F"/>
<stop offset="1" stop-color="#BC27DA" stop-opacity="0"/>
</radialGradient>
<radialGradient id="paint10_radial_45_501" cx="0" cy="0" r="1" gradientUnits="userSpaceOnUse" gradientTransform="translate(-0.188599 432.812) scale(129.812)">
<stop stop-color="#DB332F"/>
<stop offset="1" stop-color="#BC27DA" stop-opacity="0"/>
</radialGradient>
<radialGradient id="paint11_radial_45_501" cx="0" cy="0" r="1" gradientUnits="userSpaceOnUse" gradientTransform="translate(324.811 453.812) scale(129.812)">
<stop stop-color="#DB332F"/>
<stop offset="1" stop-color="#BC27DA" stop-opacity="0"/>
</radialGradient>
<linearGradient id="paint12_linear_45_501" x1="257.98" y1="278.29" x2="276.769" y2="230.361" gradientUnits="userSpaceOnUse">
<stop stop-color="#DB332F"/>
<stop offset="1" stop-color="#BC27DA"/>
</linearGradient>
<linearGradient id="paint13_linear_45_501" x1="72.3008" y1="324.487" x2="67.7489" y2="273.279" gradientUnits="userSpaceOnUse">
<stop stop-color="#DB332F"/>
<stop offset="1" stop-color="#BC27DA"/>
</linearGradient>
<linearGradient id="paint14_linear_45_501" x1="279.661" y1="230.201" x2="295.328" y2="205.648" gradientUnits="userSpaceOnUse">
<stop stop-color="#DB332F"/>
<stop offset="1" stop-color="#BC27DA"/>
</linearGradient>
<linearGradient id="paint15_linear_45_501" x1="62.3913" y1="270.946" x2="71.399" y2="243.272" gradientUnits="userSpaceOnUse">
<stop stop-color="#DB332F"/>
<stop offset="1" stop-color="#BC27DA"/>
</linearGradient>
<linearGradient id="paint16_linear_45_501" x1="272.692" y1="209.142" x2="272.7" y2="186.628" gradientUnits="userSpaceOnUse">
<stop stop-color="#DB332F"/>
<stop offset="1" stop-color="#BC27DA"/>
</linearGradient>
<linearGradient id="paint17_linear_45_501" x1="290.022" y1="149.742" x2="296.075" y2="133.036" gradientUnits="userSpaceOnUse">
<stop stop-color="#DB332F"/>
<stop offset="1" stop-color="#BC27DA"/>
</linearGradient>
<linearGradient id="paint18_linear_45_501" x1="10.2664" y1="197.364" x2="18.3517" y2="179.93" gradientUnits="userSpaceOnUse">
<stop stop-color="#DB332F"/>
<stop offset="1" stop-color="#BC27DA"/>
</linearGradient>
<linearGradient id="paint19_linear_45_501" x1="96.5226" y1="121.576" x2="95.6091" y2="110.15" gradientUnits="userSpaceOnUse">
<stop stop-color="#DB332F"/>
<stop offset="1" stop-color="#BC27DA"/>
</linearGradient>
<linearGradient id="paint20_linear_45_501" x1="99.134" y1="107.341" x2="101.236" y2="100.036" gradientUnits="userSpaceOnUse">
<stop stop-color="#DB332F"/>
<stop offset="1" stop-color="#BC27DA"/>
</linearGradient>
<linearGradient id="paint21_linear_45_501" x1="125.031" y1="90.1606" x2="126.625" y2="81.4454" gradientUnits="userSpaceOnUse">
<stop stop-color="#DB332F"/>
<stop offset="1" stop-color="#BC27DA"/>
</linearGradient>
<linearGradient id="paint22_linear_45_501" x1="17.8953" y1="309.144" x2="20.2233" y2="296.416" gradientUnits="userSpaceOnUse">
<stop stop-color="#DB332F"/>
<stop offset="1" stop-color="#BC27DA"/>
</linearGradient>
<clipPath id="clip0_45_501">
<rect width="343" height="501" fill="white"/>
</clipPath>
<clipPath id="clip1_45_501">
<rect width="167" height="143" fill="white" transform="translate(176)"/>
</clipPath>
<clipPath id="clip2_45_501">
<rect width="162" height="155" fill="white"/>
</clipPath>
<clipPath id="clip3_45_501">
<rect width="130" height="198" fill="white" transform="translate(0 303)"/>
</clipPath>
<clipPath id="clip4_45_501">
<rect width="148" height="177" fill="white" transform="translate(195 324)"/>
</clipPath>
<clipPath id="clip5_45_501">
<rect width="292" height="224" fill="white" transform="translate(8 81)"/>
</clipPath>
</defs>
</svg>
