<svg width="279" height="47" viewBox="0 0 279 47" fill="none" xmlns="http://www.w3.org/2000/svg">
<g clip-path="url(#clip0_4093_18253)">
<path d="M37.5001 26.1C37.8001 26.1 38.1001 26.4 38.1001 26.7V32.3C38.1001 32.6 37.8001 32.9 37.5001 32.9C37.2001 32.9 36.9001 32.6 36.9001 32.3V26.7C36.9001 26.4 37.2001 26.1 37.5001 26.1Z" fill="url(#paint0_linear_4093_18253)"/>
<path d="M37.5001 0C37.8001 0 38.1001 0.3 38.1001 0.6V6.2C38.1001 6.5 37.8001 6.8 37.5001 6.8C37.2001 6.8 36.9001 6.5 36.9001 6.2V0.6C36.9001 0.3 37.2001 0 37.5001 0Z" fill="url(#paint1_linear_4093_18253)"/>
<path d="M21.7001 15.9H27.3001C27.6001 15.9 27.9001 16.2 27.9001 16.5C27.9001 16.8 27.6001 17.1 27.3001 17.1H21.7001C21.4001 17.1 21.1001 16.8 21.1001 16.5C21.1001 16.1 21.3001 15.9 21.7001 15.9Z" fill="url(#paint2_linear_4093_18253)"/>
<path d="M47.8002 15.9H53.4002C53.7002 15.9 54.0002 16.2 54.0002 16.5C54.0002 16.8 53.7002 17.1 53.4002 17.1H47.8002C47.5002 17.1 47.2002 16.8 47.2002 16.5C47.2002 16.1 47.5002 15.9 47.8002 15.9Z" fill="url(#paint3_linear_4093_18253)"/>
<path d="M42.7002 24.7C42.9002 24.7 43.1002 24.8 43.2002 25L44.5002 27.2999C44.7002 27.5999 44.6002 28 44.3002 28.1C44.0002 28.3 43.6002 28.1999 43.5002 27.9L42.2002 25.6C42.0002 25.3 42.1002 24.8999 42.4002 24.7999C42.5002 24.7999 42.6002 24.7 42.7002 24.7Z" fill="url(#paint4_linear_4093_18253)"/>
<path d="M31.1001 4.69995C31.3001 4.69995 31.5001 4.79995 31.6001 4.99995L32.9001 7.29995C33.1001 7.59995 33.0001 7.99995 32.7001 8.09995C32.4001 8.29995 32.0001 8.19995 31.9001 7.89995L30.6001 5.59995C30.4001 5.29995 30.5001 4.89995 30.8001 4.79995C30.9001 4.79995 31.0001 4.69995 31.1001 4.69995Z" fill="url(#paint5_linear_4093_18253)"/>
<path d="M28.7002 21C28.9002 21 29.1002 21.1 29.2002 21.3C29.4002 21.6 29.3002 22 29.0002 22.1L26.7002 23.4C26.4002 23.6 26.0002 23.5 25.9002 23.2C25.7002 22.9 25.8002 22.5 26.1002 22.4L28.4002 21.1C28.5002 21 28.6002 21 28.7002 21Z" fill="url(#paint6_linear_4093_18253)"/>
<path d="M48.7002 9.3999C48.9002 9.3999 49.1002 9.4999 49.2002 9.6999C49.4002 9.9999 49.3002 10.3999 49.0002 10.4999L46.7002 11.7999C46.4002 11.9999 46.0002 11.8999 45.9002 11.5999C45.7002 11.2999 45.8002 10.8999 46.1002 10.7999L48.4002 9.4999C48.5002 9.4999 48.6002 9.3999 48.7002 9.3999Z" fill="url(#paint7_linear_4093_18253)"/>
<path d="M46.4002 21C46.5002 21 46.6002 21 46.7002 21.1L49.0002 22.4C49.3002 22.6 49.4002 22.9 49.2002 23.2C49.0002 23.5 48.7002 23.6 48.4002 23.4L46.1002 22.1C45.8002 21.9 45.7002 21.6 45.9002 21.3C46.0002 21.1 46.2002 21 46.4002 21Z" fill="url(#paint8_linear_4093_18253)"/>
<path d="M26.4002 9.3999C26.5002 9.3999 26.6002 9.3999 26.7002 9.4999L29.0002 10.7999C29.3002 10.9999 29.4002 11.2999 29.2002 11.5999C29.0002 11.8999 28.7002 11.9999 28.4002 11.7999L26.1002 10.4999C25.8002 10.2999 25.7002 9.9999 25.9002 9.6999C26.0002 9.4999 26.2002 9.3999 26.4002 9.3999Z" fill="url(#paint9_linear_4093_18253)"/>
<path d="M32.4001 24.7C32.5001 24.7 32.6001 24.6999 32.7001 24.7999C33.0001 24.9999 33.1001 25.3 32.9001 25.6L31.6001 27.9C31.4001 28.1999 31.1001 28.3 30.8001 28.1C30.5001 27.9 30.4001 27.5999 30.6001 27.2999L31.9001 25C32.0001 24.8 32.2001 24.7 32.4001 24.7Z" fill="url(#paint10_linear_4093_18253)"/>
<path d="M44.0002 4.69995C44.1002 4.69995 44.2002 4.69995 44.3002 4.79995C44.6002 4.99995 44.7002 5.29995 44.5002 5.59995L43.2002 7.89995C43.0002 8.19995 42.7002 8.29995 42.4002 8.09995C42.1002 7.99995 42.0002 7.59995 42.1002 7.29995L43.5002 4.99995C43.6002 4.79995 43.8002 4.69995 44.0002 4.69995Z" fill="url(#paint11_linear_4093_18253)"/>
<path d="M42.7002 24.7C42.9002 24.7 43.1002 24.8 43.2002 25L44.5002 27.2999C44.7002 27.5999 44.6002 28 44.3002 28.1C44.0002 28.3 43.6002 28.1999 43.5002 27.9L42.2002 25.6C42.0002 25.3 42.1002 24.8999 42.4002 24.7999C42.5002 24.7999 42.6002 24.7 42.7002 24.7Z" fill="url(#paint12_linear_4093_18253)"/>
<path d="M31.1001 4.69995C31.3001 4.69995 31.5001 4.79995 31.6001 4.99995L32.9001 7.29995C33.1001 7.59995 33.0001 7.99995 32.7001 8.09995C32.4001 8.29995 32.0001 8.19995 31.9001 7.89995L30.6001 5.59995C30.4001 5.29995 30.5001 4.89995 30.8001 4.79995C30.9001 4.79995 31.0001 4.69995 31.1001 4.69995Z" fill="url(#paint13_linear_4093_18253)"/>
<path d="M28.7002 21C28.9002 21 29.1002 21.1 29.2002 21.3C29.4002 21.6 29.3002 22 29.0002 22.1L26.7002 23.4C26.4002 23.6 26.0002 23.5 25.9002 23.2C25.7002 22.9 25.8002 22.5 26.1002 22.4L28.4002 21.1C28.5002 21 28.6002 21 28.7002 21Z" fill="url(#paint14_linear_4093_18253)"/>
<path d="M48.7002 9.3999C48.9002 9.3999 49.1002 9.4999 49.2002 9.6999C49.4002 9.9999 49.3002 10.3999 49.0002 10.4999L46.7002 11.7999C46.4002 11.9999 46.0002 11.8999 45.9002 11.5999C45.7002 11.2999 45.8002 10.8999 46.1002 10.7999L48.4002 9.4999C48.5002 9.4999 48.6002 9.3999 48.7002 9.3999Z" fill="url(#paint15_linear_4093_18253)"/>
<path d="M46.4002 21C46.5002 21 46.6002 21 46.7002 21.1L49.0002 22.4C49.3002 22.6 49.4002 22.9 49.2002 23.2C49.0002 23.5 48.7002 23.6 48.4002 23.4L46.1002 22.1C45.8002 21.9 45.7002 21.6 45.9002 21.3C46.0002 21.1 46.2002 21 46.4002 21Z" fill="url(#paint16_linear_4093_18253)"/>
<path d="M26.4002 9.3999C26.5002 9.3999 26.6002 9.3999 26.7002 9.4999L29.0002 10.7999C29.3002 10.9999 29.4002 11.2999 29.2002 11.5999C29.0002 11.8999 28.7002 11.9999 28.4002 11.7999L26.1002 10.4999C25.8002 10.2999 25.7002 9.9999 25.9002 9.6999C26.0002 9.4999 26.2002 9.3999 26.4002 9.3999Z" fill="url(#paint17_linear_4093_18253)"/>
<path d="M32.4001 24.7C32.5001 24.7 32.6001 24.6999 32.7001 24.7999C33.0001 24.9999 33.1001 25.3 32.9001 25.6L31.6001 27.9C31.4001 28.1999 31.1001 28.3 30.8001 28.1C30.5001 27.9 30.4001 27.5999 30.6001 27.2999L31.9001 25C32.0001 24.8 32.2001 24.7 32.4001 24.7Z" fill="url(#paint18_linear_4093_18253)"/>
<path d="M44.0002 4.69995C44.1002 4.69995 44.2002 4.69995 44.3002 4.79995C44.6002 4.99995 44.7002 5.29995 44.5002 5.59995L43.2002 7.89995C43.0002 8.19995 42.7002 8.29995 42.4002 8.09995C42.1002 7.99995 42.0002 7.59995 42.1002 7.29995L43.5002 4.99995C43.6002 4.79995 43.8002 4.69995 44.0002 4.69995Z" fill="url(#paint19_linear_4093_18253)"/>
<path d="M37.5 21.5C37.7 21.5 37.7999 21.6 37.7999 21.8V23.2C37.7999 23.4 37.7 23.5 37.5 23.5C37.3 23.5 37.2 23.4 37.2 23.2V21.8C37.2 21.7 37.4 21.5 37.5 21.5Z" fill="url(#paint20_linear_4093_18253)"/>
<path d="M37.5 9.40002C37.7 9.40002 37.7999 9.50002 37.7999 9.70002V11.1C37.7999 11.3 37.7 11.4 37.5 11.4C37.3 11.4 37.2 11.3 37.2 11.1V9.70002C37.2 9.60002 37.4 9.40002 37.5 9.40002Z" fill="url(#paint21_linear_4093_18253)"/>
<path d="M30.8 16.2001H32.2C32.4 16.2001 32.5 16.3001 32.5 16.5001C32.5 16.7001 32.4 16.8001 32.2 16.8001H30.8C30.6 16.8001 30.5 16.7001 30.5 16.5001C30.5 16.3001 30.7 16.2001 30.8 16.2001Z" fill="url(#paint22_linear_4093_18253)"/>
<path d="M42.9001 16.2001H44.3001C44.5001 16.2001 44.6001 16.3001 44.6001 16.5001C44.6001 16.7001 44.5001 16.8001 44.3001 16.8001H42.9001C42.7001 16.8001 42.6001 16.7001 42.6001 16.5001C42.6001 16.3001 42.7001 16.2001 42.9001 16.2001Z" fill="url(#paint23_linear_4093_18253)"/>
<path d="M40.2002 20.8C40.3002 20.8 40.4002 20.9 40.5002 21L41.2002 22.2001C41.3002 22.3001 41.2002 22.5 41.1002 22.6C41.0002 22.7 40.8002 22.6 40.7002 22.5L40.0002 21.3C39.9002 21.2 40.0002 21 40.1002 20.9C40.1002 20.8 40.2002 20.8 40.2002 20.8Z" fill="url(#paint24_linear_4093_18253)"/>
<path d="M34.2002 10.3C34.3002 10.3 34.4002 10.4 34.5002 10.5L35.2002 11.7C35.3002 11.8 35.2002 12 35.1002 12.1C35.0002 12.2 34.8002 12.1 34.7002 12L34.0002 10.8C33.9002 10.7 34.0002 10.5 34.1002 10.4C34.1002 10.4 34.1002 10.3 34.2002 10.3Z" fill="url(#paint25_linear_4093_18253)"/>
<path d="M32.9002 18.9C33.0002 18.9 33.1002 19 33.2002 19.1C33.3002 19.2 33.2002 19.4 33.1002 19.5L31.9002 20.2C31.8002 20.3 31.6002 20.2 31.5002 20.1C31.4002 20 31.5002 19.8 31.6002 19.7L32.8002 19C32.8002 18.9 32.9002 18.9 32.9002 18.9Z" fill="url(#paint26_linear_4093_18253)"/>
<path d="M43.4002 12.8C43.5002 12.8 43.6002 12.9 43.7002 13C43.8002 13.1 43.7002 13.3 43.6002 13.4L42.4002 14.1C42.3002 14.2 42.1002 14.1 42.0002 14C41.9002 13.9 42.0002 13.7 42.1002 13.6L43.3002 12.9C43.3002 12.8 43.3002 12.8 43.4002 12.8Z" fill="url(#paint27_linear_4093_18253)"/>
<path d="M42.2001 18.9C42.3001 18.9 42.3001 18.9 42.4001 18.9L43.6001 19.6C43.7001 19.7 43.8001 19.9 43.7001 20C43.6001 20.1 43.4001 20.2 43.3001 20.1L42.0001 19.4C41.9001 19.3 41.8001 19.1 41.9001 19C42.0001 18.9 42.1001 18.9 42.2001 18.9Z" fill="url(#paint28_linear_4093_18253)"/>
<path d="M31.7002 12.8C31.8002 12.8 31.8002 12.8 31.9002 12.8L33.1002 13.5C33.2002 13.6 33.3002 13.8 33.2002 13.9C33.1002 14 32.9002 14.1 32.8002 14L31.6002 13.3C31.5002 13.2 31.4002 13 31.5002 12.9C31.5002 12.9 31.6002 12.8 31.7002 12.8Z" fill="url(#paint29_linear_4093_18253)"/>
<path d="M34.9001 20.8C35.0001 20.8 35.0001 20.8 35.0001 20.8C35.1001 20.9 35.2001 21.1001 35.1001 21.2001L34.4001 22.4C34.3001 22.5 34.1001 22.6 34.0001 22.5C33.9001 22.4 33.8001 22.2 33.9001 22.1L34.6001 20.9C34.7001 20.9 34.8001 20.8 34.9001 20.8Z" fill="url(#paint30_linear_4093_18253)"/>
<path d="M40.9002 10.3C41.0002 10.3 41.0002 10.3 41.0002 10.3C41.1002 10.4 41.2002 10.6 41.1002 10.7L40.5002 12C40.4002 12.1 40.2002 12.2 40.1002 12.1C40.0002 12 39.9002 11.8 40.0002 11.7L40.7002 10.5C40.7002 10.4 40.8002 10.3 40.9002 10.3Z" fill="url(#paint31_linear_4093_18253)"/>
<path d="M34.7002 16.5C34.7002 14.9 36.0002 13.7 37.5002 13.7C39.1002 13.7 40.3002 15 40.3002 16.5C40.3002 18 39.0002 19.3 37.5002 19.3C36.0002 19.3 34.7002 18 34.7002 16.5Z" fill="url(#paint32_linear_4093_18253)"/>
<path d="M11.0001 42.3C11.2001 42.3 11.4001 42.5001 11.4001 42.7001V46.5C11.4001 46.7 11.2001 46.9001 11.0001 46.9001C10.8001 46.9001 10.6001 46.7 10.6001 46.5V42.7001C10.6001 42.5001 10.8001 42.3 11.0001 42.3Z" fill="url(#paint33_linear_4093_18253)"/>
<path d="M11.0001 24.9C11.2001 24.9 11.4001 25.1 11.4001 25.3V29C11.4001 29.2 11.2001 29.4 11.0001 29.4C10.8001 29.4 10.6001 29.2 10.6001 29V25.2C10.6001 25 10.8001 24.9 11.0001 24.9Z" fill="url(#paint34_linear_4093_18253)"/>
<path d="M0.4 35.5H4.2C4.4 35.5 4.6 35.7 4.6 35.9C4.6 36.1 4.4 36.3 4.2 36.3H0.4C0.2 36.3 0 36.1 0 35.9C0 35.6 0.2 35.5 0.4 35.5Z" fill="url(#paint35_linear_4093_18253)"/>
<path d="M17.9 35.5H21.7C21.9 35.5 22.1 35.7 22.1 35.9C22.1 36.1 21.9 36.3 21.7 36.3H17.9C17.7 36.3 17.5 36.1 17.5 35.9C17.5 35.6 17.6 35.5 17.9 35.5Z" fill="url(#paint36_linear_4093_18253)"/>
<path d="M14.4 41.4C14.5 41.4 14.7 41.5 14.7 41.6L15.6 43.1C15.7 43.3 15.6 43.5 15.5 43.7C15.3 43.8 15.1 43.7 14.9 43.6L14.1 42C14 41.8 14.1 41.6 14.2 41.4C14.3 41.4 14.4 41.4 14.4 41.4Z" fill="url(#paint37_linear_4093_18253)"/>
<path d="M6.70021 28C6.80021 28 7.00021 28.1 7.00021 28.2L7.90021 29.7C8.00021 29.9 7.90021 30.1 7.80021 30.3C7.60021 30.4 7.40021 30.3 7.20021 30.2L6.30021 28.7C6.20021 28.5 6.30021 28.3 6.40021 28.1C6.60021 28 6.60021 28 6.70021 28Z" fill="url(#paint38_linear_4093_18253)"/>
<path d="M5.10011 38.9C5.20011 38.9 5.40011 39 5.40011 39.1C5.50011 39.3 5.40011 39.5 5.30011 39.7L3.80011 40.6C3.60011 40.7 3.40011 40.6 3.20011 40.5C3.10011 40.3 3.20011 40.1 3.30011 40L4.80011 39.1C4.90011 38.9 5.00011 38.9 5.10011 38.9Z" fill="url(#paint39_linear_4093_18253)"/>
<path d="M18.4002 31.2C18.5002 31.2 18.7002 31.3 18.7002 31.4C18.8002 31.6 18.7002 31.8 18.6002 32L17.1002 32.9C16.9002 33 16.7002 32.8999 16.5002 32.7999C16.4002 32.5999 16.5002 32.4 16.6002 32.2L18.1002 31.2999C18.3002 31.1999 18.4002 31.2 18.4002 31.2Z" fill="url(#paint40_linear_4093_18253)"/>
<path d="M16.9001 38.9C17.0001 38.9 17.0001 38.9 17.1001 39L18.6001 39.9C18.8001 40 18.9001 40.3 18.7001 40.4C18.6001 40.6 18.3001 40.7 18.1001 40.5L16.6001 39.6C16.4001 39.5 16.3001 39.2 16.5001 39C16.7001 39 16.8001 38.9 16.9001 38.9Z" fill="url(#paint41_linear_4093_18253)"/>
<path d="M3.60008 31.2C3.70008 31.2 3.70008 31.1999 3.80008 31.2999L5.30008 32.2C5.50008 32.3 5.60008 32.5999 5.40008 32.7999C5.30008 32.9999 5.00008 33.1 4.80008 32.9L3.30008 32C3.10008 31.9 3.00008 31.6 3.20008 31.4C3.30008 31.2 3.40008 31.2 3.60008 31.2Z" fill="url(#paint42_linear_4093_18253)"/>
<path d="M7.60003 41.4C7.70003 41.4 7.70003 41.4 7.80003 41.5C8.00003 41.6 8.00003 41.8 7.90003 42L7.00003 43.5C6.90003 43.7 6.60003 43.8 6.50003 43.6C6.30003 43.5 6.20003 43.2 6.40003 43L7.30003 41.5C7.30003 41.5 7.40003 41.4 7.60003 41.4Z" fill="url(#paint43_linear_4093_18253)"/>
<path d="M15.3001 28C15.4001 28 15.4001 28 15.5001 28.1C15.7001 28.2 15.8001 28.5 15.6001 28.7L14.7001 30.2C14.6001 30.4 14.3001 30.5 14.1001 30.3C13.9001 30.2 13.8001 29.9 14.0001 29.7L14.9001 28.2C15.0001 28.1 15.2001 28 15.3001 28Z" fill="url(#paint44_linear_4093_18253)"/>
<path d="M14.4 41.4C14.5 41.4 14.7 41.5 14.7 41.6L15.6 43.1C15.7 43.3 15.6 43.5 15.5 43.7C15.3 43.8 15.1 43.7 14.9 43.6L14.1 42C14 41.8 14.1 41.6 14.2 41.4C14.3 41.4 14.4 41.4 14.4 41.4Z" fill="url(#paint45_linear_4093_18253)"/>
<path d="M6.70021 28C6.80021 28 7.00021 28.1 7.00021 28.2L7.90021 29.7C8.00021 29.9 7.90021 30.1 7.80021 30.3C7.60021 30.4 7.40021 30.3 7.20021 30.2L6.30021 28.7C6.20021 28.5 6.30021 28.3 6.40021 28.1C6.60021 28 6.60021 28 6.70021 28Z" fill="url(#paint46_linear_4093_18253)"/>
<path d="M5.10011 38.9C5.20011 38.9 5.40011 39 5.40011 39.1C5.50011 39.3 5.40011 39.5 5.30011 39.7L3.80011 40.6C3.60011 40.7 3.40011 40.6 3.20011 40.5C3.10011 40.3 3.20011 40.1 3.30011 40L4.80011 39.1C4.90011 38.9 5.00011 38.9 5.10011 38.9Z" fill="url(#paint47_linear_4093_18253)"/>
<path d="M18.4002 31.2C18.5002 31.2 18.7002 31.3 18.7002 31.4C18.8002 31.6 18.7002 31.8 18.6002 32L17.1002 32.9C16.9002 33 16.7002 32.8999 16.5002 32.7999C16.4002 32.5999 16.5002 32.4 16.6002 32.2L18.1002 31.2999C18.3002 31.1999 18.4002 31.2 18.4002 31.2Z" fill="url(#paint48_linear_4093_18253)"/>
<path d="M16.9001 38.9C17.0001 38.9 17.0001 38.9 17.1001 39L18.6001 39.9C18.8001 40 18.9001 40.3 18.7001 40.4C18.6001 40.6 18.3001 40.7 18.1001 40.5L16.6001 39.6C16.4001 39.5 16.3001 39.2 16.5001 39C16.7001 39 16.8001 38.9 16.9001 38.9Z" fill="url(#paint49_linear_4093_18253)"/>
<path d="M3.60008 31.2C3.70008 31.2 3.70008 31.1999 3.80008 31.2999L5.30008 32.2C5.50008 32.3 5.60008 32.5999 5.40008 32.7999C5.30008 32.9999 5.00008 33.1 4.80008 32.9L3.30008 32C3.10008 31.9 3.00008 31.6 3.20008 31.4C3.30008 31.2 3.40008 31.2 3.60008 31.2Z" fill="url(#paint50_linear_4093_18253)"/>
<path d="M7.60003 41.4C7.70003 41.4 7.70003 41.4 7.80003 41.5C8.00003 41.6 8.00003 41.8 7.90003 42L7.00003 43.5C6.90003 43.7 6.60003 43.8 6.50003 43.6C6.30003 43.5 6.20003 43.2 6.40003 43L7.30003 41.5C7.30003 41.5 7.40003 41.4 7.60003 41.4Z" fill="url(#paint51_linear_4093_18253)"/>
<path d="M15.3001 28C15.4001 28 15.4001 28 15.5001 28.1C15.7001 28.2 15.8001 28.5 15.6001 28.7L14.7001 30.2C14.6001 30.4 14.3001 30.5 14.1001 30.3C13.9001 30.2 13.8001 29.9 14.0001 29.7L14.9001 28.2C15.0001 28.1 15.2001 28 15.3001 28Z" fill="url(#paint52_linear_4093_18253)"/>
<path d="M11 39.2001C11.1 39.2001 11.2 39.3001 11.2 39.4001V40.3001C11.2 40.4001 11.1 40.5001 11 40.5001C10.9 40.5001 10.8 40.4001 10.8 40.3001V39.4001C10.8 39.3001 10.9 39.2001 11 39.2001Z" fill="url(#paint53_linear_4093_18253)"/>
<path d="M11 31.2001C11.1 31.2001 11.2 31.3001 11.2 31.4001V32.3001C11.2 32.4001 11.1 32.5001 11 32.5001C10.9 32.5001 10.8 32.4001 10.8 32.3001V31.4001C10.8 31.3001 10.9 31.2001 11 31.2001Z" fill="url(#paint54_linear_4093_18253)"/>
<path d="M6.50005 35.7001H7.40005C7.50005 35.7001 7.60005 35.8001 7.60005 35.9001C7.60005 36.0001 7.50005 36.1001 7.40005 36.1001H6.50005C6.40005 36.1001 6.30005 36.0001 6.30005 35.9001C6.30005 35.7001 6.40005 35.7001 6.50005 35.7001Z" fill="url(#paint55_linear_4093_18253)"/>
<path d="M14.6001 35.7001H15.5001C15.6001 35.7001 15.7001 35.8001 15.7001 35.9001C15.7001 36.0001 15.6001 36.1001 15.5001 36.1001H14.6001C14.5001 36.1001 14.4001 36.0001 14.4001 35.9001C14.4001 35.7001 14.5001 35.7001 14.6001 35.7001Z" fill="url(#paint56_linear_4093_18253)"/>
<path d="M12.8001 38.8C12.9001 38.8 12.9001 38.8001 13.0001 38.9001L13.5001 39.7001C13.6001 39.8001 13.5001 39.9 13.4001 40C13.3001 40.1 13.2001 40.0001 13.1001 39.9001L12.6001 39.1C12.6001 39 12.6001 38.8 12.8001 38.8Z" fill="url(#paint57_linear_4093_18253)"/>
<path d="M8.80016 31.8C8.90016 31.8 8.90016 31.8 9.00016 31.9L9.50016 32.7001C9.60016 32.8001 9.50016 32.9 9.40016 33C9.20016 33 9.10016 33.0001 9.00016 32.9001L8.50016 32.1C8.40016 32 8.50016 31.9 8.60016 31.8C8.70016 31.8 8.70016 31.8 8.80016 31.8Z" fill="url(#paint58_linear_4093_18253)"/>
<path d="M7.90006 37.5C8.00006 37.5 8.00006 37.5 8.10006 37.6C8.20006 37.7 8.10006 37.8 8.00006 37.9L7.20006 38.4C7.10006 38.5 7.00006 38.4 6.90006 38.3C6.80006 38.2 6.90006 38.1 7.00006 38L7.80006 37.5H7.90006Z" fill="url(#paint59_linear_4093_18253)"/>
<path d="M14.9001 33.4C15.0001 33.4 15.0001 33.4 15.1001 33.5C15.2001 33.6 15.1001 33.7 15.0001 33.8L14.2001 34.3C14.1001 34.4 14.0001 34.3 13.9001 34.2C13.8001 34.1 13.9001 34 14.0001 33.9L14.8001 33.4H14.9001Z" fill="url(#paint60_linear_4093_18253)"/>
<path d="M14.0999 37.5H14.1999L14.9999 38C15.0999 38.1 15.0999 38.2 15.0999 38.3C14.9999 38.4 14.8999 38.4 14.7999 38.4L13.9999 37.8C13.8999 37.7 13.8999 37.6 13.8999 37.5C13.9999 37.5 13.9999 37.5 14.0999 37.5Z" fill="url(#paint61_linear_4093_18253)"/>
<path d="M7.0999 33.4H7.1999L7.9999 33.9C8.0999 34 8.0999 34.1 8.0999 34.2C7.9999 34.3 7.8999 34.3 7.7999 34.3L6.9999 33.8C6.8999 33.7 6.8999 33.6 6.8999 33.5C6.9999 33.4 6.9999 33.4 7.0999 33.4Z" fill="url(#paint62_linear_4093_18253)"/>
<path d="M9.19985 38.8H9.29985C9.39985 38.9 9.39985 39 9.39985 39.1L8.89985 39.9001C8.89985 40.0001 8.79985 40.0001 8.69985 39.9001C8.59985 39.8001 8.59985 39.7 8.59985 39.6L8.99985 38.9001C9.09985 38.8001 9.09985 38.8 9.19985 38.8Z" fill="url(#paint63_linear_4093_18253)"/>
<path d="M13.2999 31.8H13.3999C13.4999 31.9 13.4999 32 13.4999 32.1L12.9999 32.9001C12.8999 33.0001 12.7999 33 12.6999 33C12.5999 32.9 12.5999 32.8001 12.5999 32.7001L13.0999 31.9C13.0999 31.8 13.1999 31.8 13.2999 31.8Z" fill="url(#paint64_linear_4093_18253)"/>
<path d="M11.0001 37.8C12.0494 37.8 12.9001 36.9493 12.9001 35.9C12.9001 34.8507 12.0494 34 11.0001 34C9.95076 34 9.1001 34.8507 9.1001 35.9C9.1001 36.9493 9.95076 37.8 11.0001 37.8Z" fill="url(#paint65_linear_4093_18253)"/>
</g>
<g clip-path="url(#clip1_4093_18253)">
<path d="M241.5 26.1C241.2 26.1 240.9 26.4 240.9 26.7V32.3C240.9 32.6 241.2 32.9 241.5 32.9C241.8 32.9 242.1 32.6 242.1 32.3V26.7C242.1 26.4 241.8 26.1 241.5 26.1Z" fill="url(#paint66_linear_4093_18253)"/>
<path d="M241.5 0C241.2 0 240.9 0.3 240.9 0.6V6.2C240.9 6.5 241.2 6.8 241.5 6.8C241.8 6.8 242.1 6.5 242.1 6.2V0.6C242.1 0.3 241.8 0 241.5 0Z" fill="url(#paint67_linear_4093_18253)"/>
<path d="M257.3 15.9H251.7C251.4 15.9 251.1 16.2 251.1 16.5C251.1 16.8 251.4 17.1 251.7 17.1H257.3C257.6 17.1 257.9 16.8 257.9 16.5C257.9 16.1 257.7 15.9 257.3 15.9Z" fill="url(#paint68_linear_4093_18253)"/>
<path d="M231.2 15.9H225.6C225.3 15.9 225 16.2 225 16.5C225 16.8 225.3 17.1 225.6 17.1H231.2C231.5 17.1 231.8 16.8 231.8 16.5C231.8 16.1 231.6 15.9 231.2 15.9Z" fill="url(#paint69_linear_4093_18253)"/>
<path d="M236.4 24.7C236.2 24.7 236 24.8 235.9 25L234.6 27.2999C234.4 27.5999 234.5 28 234.8 28.1C235.1 28.3 235.5 28.1999 235.6 27.9L236.9 25.6C237.1 25.3 237 24.8999 236.7 24.7999C236.6 24.7999 236.5 24.7 236.4 24.7Z" fill="url(#paint70_linear_4093_18253)"/>
<path d="M247.9 4.69995C247.7 4.69995 247.5 4.79995 247.4 4.99995L246.1 7.29995C245.9 7.59995 246 7.99995 246.3 8.09995C246.6 8.29995 247 8.19995 247.1 7.89995L248.4 5.59995C248.6 5.29995 248.5 4.89995 248.2 4.79995C248.1 4.79995 248 4.69995 247.9 4.69995Z" fill="url(#paint71_linear_4093_18253)"/>
<path d="M250.3 21C250.1 21 249.9 21.1 249.8 21.3C249.6 21.6 249.7 22 250 22.1L252.3 23.4C252.6 23.6 253 23.5 253.1 23.2C253.3 22.9 253.2 22.5 252.9 22.4L250.6 21.1C250.6 21 250.4 21 250.3 21Z" fill="url(#paint72_linear_4093_18253)"/>
<path d="M230.3 9.3999C230.1 9.3999 229.9 9.4999 229.8 9.6999C229.6 9.9999 229.7 10.3999 230 10.5999L232.3 11.8999C232.6 11.9999 233 11.8999 233.1 11.6999C233.3 11.3999 233.2 10.9999 232.9 10.8999L230.6 9.4999C230.5 9.4999 230.4 9.3999 230.3 9.3999Z" fill="url(#paint73_linear_4093_18253)"/>
<path d="M232.6 21C232.5 21 232.4 21 232.3 21.1L230 22.4C229.7 22.6 229.6 22.9 229.8 23.2C230 23.5 230.3 23.6 230.6 23.4L232.9 22.1C233.2 21.9 233.3 21.6 233.1 21.3C233 21.1 232.8 21 232.6 21Z" fill="url(#paint74_linear_4093_18253)"/>
<path d="M252.6 9.3999C252.5 9.3999 252.4 9.3999 252.3 9.4999L250 10.7999C249.7 10.9999 249.6 11.2999 249.8 11.5999C250 11.8999 250.3 11.9999 250.6 11.7999L252.9 10.4999C253.2 10.2999 253.3 9.9999 253.1 9.6999C253 9.4999 252.8 9.3999 252.6 9.3999Z" fill="url(#paint75_linear_4093_18253)"/>
<path d="M246.6 24.7C246.5 24.7 246.4 24.6999 246.3 24.7999C246 24.9999 245.9 25.3 246.1 25.6L247.4 27.9C247.6 28.1999 247.9 28.3 248.2 28.1C248.5 27.9 248.6 27.5999 248.4 27.2999L247.1 25C247 24.8 246.8 24.7 246.6 24.7Z" fill="url(#paint76_linear_4093_18253)"/>
<path d="M235 4.69995C234.9 4.69995 234.8 4.69995 234.7 4.79995C234.5 4.99995 234.4 5.39995 234.5 5.59995L235.8 7.89995C236 8.19995 236.3 8.29995 236.6 8.09995C236.9 7.99995 237 7.59995 236.9 7.29995L235.6 4.99995C235.5 4.79995 235.3 4.69995 235 4.69995Z" fill="url(#paint77_linear_4093_18253)"/>
<path d="M236.4 24.7C236.2 24.7 236 24.8 235.9 25L234.6 27.2999C234.4 27.5999 234.5 28 234.8 28.1C235.1 28.3 235.5 28.1999 235.6 27.9L236.9 25.6C237.1 25.3 237 24.8999 236.7 24.7999C236.6 24.7999 236.5 24.7 236.4 24.7Z" fill="url(#paint78_linear_4093_18253)"/>
<path d="M247.9 4.69995C247.7 4.69995 247.5 4.79995 247.4 4.99995L246.1 7.29995C245.9 7.59995 246 7.99995 246.3 8.09995C246.6 8.29995 247 8.19995 247.1 7.89995L248.4 5.59995C248.6 5.29995 248.5 4.89995 248.2 4.79995C248.1 4.79995 248 4.69995 247.9 4.69995Z" fill="url(#paint79_linear_4093_18253)"/>
<path d="M250.3 21C250.1 21 249.9 21.1 249.8 21.3C249.6 21.6 249.7 22 250 22.1L252.3 23.4C252.6 23.6 253 23.5 253.1 23.2C253.3 22.9 253.2 22.5 252.9 22.4L250.6 21.1C250.6 21 250.4 21 250.3 21Z" fill="url(#paint80_linear_4093_18253)"/>
<path d="M230.3 9.3999C230.1 9.3999 229.9 9.4999 229.8 9.6999C229.6 9.9999 229.7 10.3999 230 10.5999L232.3 11.8999C232.6 11.9999 233 11.8999 233.1 11.6999C233.3 11.3999 233.2 10.9999 232.9 10.8999L230.6 9.4999C230.5 9.4999 230.4 9.3999 230.3 9.3999Z" fill="url(#paint81_linear_4093_18253)"/>
<path d="M232.6 21C232.5 21 232.4 21 232.3 21.1L230 22.4C229.7 22.6 229.6 22.9 229.8 23.2C230 23.5 230.3 23.6 230.6 23.4L232.9 22.1C233.2 21.9 233.3 21.6 233.1 21.3C233 21.1 232.8 21 232.6 21Z" fill="url(#paint82_linear_4093_18253)"/>
<path d="M252.6 9.3999C252.5 9.3999 252.4 9.3999 252.3 9.4999L250 10.7999C249.7 10.9999 249.6 11.2999 249.8 11.5999C250 11.8999 250.3 11.9999 250.6 11.7999L252.9 10.4999C253.2 10.2999 253.3 9.9999 253.1 9.6999C253 9.4999 252.8 9.3999 252.6 9.3999Z" fill="url(#paint83_linear_4093_18253)"/>
<path d="M246.6 24.7C246.5 24.7 246.4 24.6999 246.3 24.7999C246 24.9999 245.9 25.3 246.1 25.6L247.4 27.9C247.6 28.1999 247.9 28.3 248.2 28.1C248.5 27.9 248.6 27.5999 248.4 27.2999L247.1 25C247 24.8 246.8 24.7 246.6 24.7Z" fill="url(#paint84_linear_4093_18253)"/>
<path d="M235 4.69995C234.9 4.69995 234.8 4.69995 234.7 4.79995C234.5 4.99995 234.4 5.39995 234.5 5.59995L235.8 7.89995C236 8.19995 236.3 8.29995 236.6 8.09995C236.9 7.99995 237 7.59995 236.9 7.29995L235.6 4.99995C235.5 4.79995 235.3 4.69995 235 4.69995Z" fill="url(#paint85_linear_4093_18253)"/>
<path d="M241.5 21.5C241.3 21.5 241.2 21.6 241.2 21.8V23.2C241.2 23.4 241.3 23.5 241.5 23.5C241.7 23.5 241.8 23.4 241.8 23.2V21.8C241.8 21.7 241.6 21.5 241.5 21.5Z" fill="url(#paint86_linear_4093_18253)"/>
<path d="M241.5 9.40002C241.3 9.40002 241.2 9.50002 241.2 9.70002V11.1C241.2 11.3 241.3 11.4 241.5 11.4C241.7 11.4 241.8 11.3 241.8 11.1V9.70002C241.8 9.60002 241.6 9.40002 241.5 9.40002Z" fill="url(#paint87_linear_4093_18253)"/>
<path d="M248.2 16.2001H246.8C246.6 16.2001 246.5 16.3001 246.5 16.5001C246.5 16.7001 246.6 16.8001 246.8 16.8001H248.2C248.4 16.8001 248.5 16.7001 248.5 16.5001C248.5 16.3001 248.4 16.2001 248.2 16.2001Z" fill="url(#paint88_linear_4093_18253)"/>
<path d="M236.1 16.2001H234.7C234.5 16.2001 234.4 16.3001 234.4 16.5001C234.4 16.7001 234.5 16.8001 234.7 16.8001H236.1C236.3 16.8001 236.4 16.7001 236.4 16.5001C236.4 16.3001 236.3 16.2001 236.1 16.2001Z" fill="url(#paint89_linear_4093_18253)"/>
<path d="M238.8 20.8C238.7 20.8 238.6 20.9 238.5 21L237.8 22.2001C237.7 22.3001 237.8 22.5 237.9 22.6C238 22.7 238.2 22.6 238.3 22.5L239 21.3C239.1 21.2 239 21 238.9 20.9C238.9 20.8 238.8 20.8 238.8 20.8Z" fill="url(#paint90_linear_4093_18253)"/>
<path d="M244.8 10.3C244.7 10.3 244.6 10.4 244.5 10.5L243.8 11.7C243.7 11.8 243.8 12 243.9 12.1C244 12.2 244.2 12.1 244.3 12L245 10.8C245.1 10.7 245 10.5 244.9 10.4C244.9 10.4 244.9 10.3 244.8 10.3Z" fill="url(#paint91_linear_4093_18253)"/>
<path d="M246.1 18.9C246 18.9 245.9 19 245.8 19.1C245.7 19.2 245.8 19.4 245.9 19.5L247.1 20.2C247.2 20.3 247.4 20.2 247.5 20.1C247.6 20 247.5 19.8 247.4 19.7L246.2 19C246.2 18.9 246.2 18.9 246.1 18.9Z" fill="url(#paint92_linear_4093_18253)"/>
<path d="M235.6 12.8C235.5 12.8 235.4 12.9 235.3 13C235.2 13.1 235.3 13.3 235.4 13.4L236.6 14.1C236.7 14.2 236.9 14.1 237 14C237.1 13.9 237 13.7 236.9 13.6L235.7 12.9C235.7 12.8 235.7 12.8 235.6 12.8Z" fill="url(#paint93_linear_4093_18253)"/>
<path d="M236.8 18.9C236.7 18.9 236.7 18.9 236.6 18.9L235.4 19.6C235.3 19.7 235.2 19.9 235.3 20C235.4 20.1 235.6 20.2 235.7 20.1L236.9 19.4C237 19.3 237.1 19.1 237 19C237 18.9 236.9 18.9 236.8 18.9Z" fill="url(#paint94_linear_4093_18253)"/>
<path d="M247.3 12.8C247.2 12.8 247.2 12.8 247.1 12.8L246 13.5C245.9 13.6 245.8 13.8 245.9 13.9C246 14 246.2 14.1 246.3 14L247.5 13.3C247.6 13.2 247.7 13 247.6 12.9C247.5 12.9 247.4 12.8 247.3 12.8Z" fill="url(#paint95_linear_4093_18253)"/>
<path d="M244.2 20.8C244.1 20.8 244.1 20.8 244 20.8C243.9 20.9 243.8 21.1001 243.9 21.2001L244.6 22.4C244.7 22.5 244.9 22.6 245 22.5C245.1 22.4 245.2 22.2 245.1 22.1L244.4 21C244.4 20.9 244.3 20.8 244.2 20.8Z" fill="url(#paint96_linear_4093_18253)"/>
<path d="M238.1 10.3C238 10.3 238 10.3 238 10.3C237.9 10.4 237.8 10.6 237.9 10.7L238.6 11.9C238.7 12 238.9 12.1 239 12C239.1 11.9 239.2 11.7 239.1 11.6L238.4 10.4C238.3 10.4 238.2 10.3 238.1 10.3Z" fill="url(#paint97_linear_4093_18253)"/>
<path d="M244.3 16.5C244.3 14.9 243 13.7 241.5 13.7C239.9 13.7 238.7 15 238.7 16.5C238.7 18 240 19.3 241.5 19.3C243 19.3 244.3 18 244.3 16.5Z" fill="url(#paint98_linear_4093_18253)"/>
<path d="M268 42.3C267.8 42.3 267.6 42.5001 267.6 42.7001V46.5C267.6 46.7 267.8 46.9001 268 46.9001C268.2 46.9001 268.4 46.7 268.4 46.5V42.7001C268.4 42.5001 268.2 42.3 268 42.3Z" fill="url(#paint99_linear_4093_18253)"/>
<path d="M268 24.9C267.8 24.9 267.6 25.1 267.6 25.3V29C267.6 29.2 267.8 29.4 268 29.4C268.2 29.4 268.4 29.2 268.4 29V25.2C268.4 25 268.2 24.9 268 24.9Z" fill="url(#paint100_linear_4093_18253)"/>
<path d="M278.6 35.5H274.8C274.6 35.5 274.4 35.7 274.4 35.9C274.4 36.1 274.6 36.3 274.8 36.3H278.6C278.8 36.3 279 36.1 279 35.9C279 35.6 278.8 35.5 278.6 35.5Z" fill="url(#paint101_linear_4093_18253)"/>
<path d="M261.2 35.5H257.4C257.2 35.5 257 35.7 257 35.9C257 36.1 257.2 36.3 257.4 36.3H261.2C261.4 36.3 261.6 36.1 261.6 35.9C261.6 35.6 261.4 35.5 261.2 35.5Z" fill="url(#paint102_linear_4093_18253)"/>
<path d="M264.6 41.4C264.5 41.4 264.3 41.5 264.3 41.6L263.4 43.1C263.3 43.3 263.4 43.5 263.5 43.7C263.7 43.8 263.9 43.7 264.1 43.6L265 42.1C265.1 41.9 265 41.7 264.9 41.5C264.7 41.4 264.7 41.4 264.6 41.4Z" fill="url(#paint103_linear_4093_18253)"/>
<path d="M272.3 28C272.2 28 272 28.1 272 28.2L271.1 29.7C271 29.9 271.1 30.1 271.2 30.3C271.4 30.4 271.6 30.3 271.7 30.2L272.6 28.7C272.7 28.5 272.6 28.3 272.5 28.1C272.4 28 272.4 28 272.3 28Z" fill="url(#paint104_linear_4093_18253)"/>
<path d="M273.9 38.9C273.8 38.9 273.6 39 273.6 39.1C273.5 39.3 273.6 39.5 273.7 39.7L275.2 40.6C275.4 40.7 275.6 40.6 275.8 40.5C275.9 40.3 275.8 40.1 275.7 40L274.2 39.1C274.1 38.9 274 38.9 273.9 38.9Z" fill="url(#paint105_linear_4093_18253)"/>
<path d="M260.6 31.2C260.5 31.2 260.3 31.3 260.3 31.4C260.2 31.6 260.3 31.8 260.4 32L261.9 32.9C262.1 33 262.3 32.8999 262.4 32.7999C262.5 32.5999 262.4 32.4 262.3 32.2L260.8 31.2999C260.7 31.1999 260.6 31.2 260.6 31.2Z" fill="url(#paint106_linear_4093_18253)"/>
<path d="M262.1 38.9C262 38.9 262 38.9 261.9 39L260.4 39.9C260.2 40 260.1 40.3 260.3 40.4C260.4 40.6 260.7 40.7 260.9 40.5L262.4 39.6C262.6 39.5 262.7 39.2 262.5 39C262.4 39 262.2 38.9 262.1 38.9Z" fill="url(#paint107_linear_4093_18253)"/>
<path d="M275.5 31.2C275.4 31.2 275.4 31.1999 275.3 31.2999L273.8 32.2C273.6 32.3 273.5 32.5999 273.7 32.7999C273.8 32.9999 274.1 33.1 274.3 32.9L275.8 32C276 31.9 276.1 31.6 275.9 31.4C275.7 31.2 275.6 31.2 275.5 31.2Z" fill="url(#paint108_linear_4093_18253)"/>
<path d="M271.4 41.4C271.3 41.4 271.3 41.4 271.2 41.5C271 41.6 271 41.8 271.1 42L272 43.5C272.1 43.7 272.4 43.8 272.5 43.6C272.7 43.5 272.8 43.2 272.6 43L271.7 41.5C271.7 41.5 271.6 41.4 271.4 41.4Z" fill="url(#paint109_linear_4093_18253)"/>
<path d="M263.7 28C263.6 28 263.6 28 263.5 28.1C263.3 28.2 263.2 28.5 263.4 28.7L264.3 30.2C264.4 30.4 264.7 30.5 264.9 30.3C265.1 30.2 265.2 29.9 265 29.7L264.1 28.2C264 28.1 263.9 28 263.7 28Z" fill="url(#paint110_linear_4093_18253)"/>
<path d="M264.6 41.4C264.5 41.4 264.3 41.5 264.3 41.6L263.4 43.1C263.3 43.3 263.4 43.5 263.5 43.7C263.7 43.8 263.9 43.7 264.1 43.6L265 42.1C265.1 41.9 265 41.7 264.9 41.5C264.7 41.4 264.7 41.4 264.6 41.4Z" fill="url(#paint111_linear_4093_18253)"/>
<path d="M272.3 28C272.2 28 272 28.1 272 28.2L271.1 29.7C271 29.9 271.1 30.1 271.2 30.3C271.4 30.4 271.6 30.3 271.7 30.2L272.6 28.7C272.7 28.5 272.6 28.3 272.5 28.1C272.4 28 272.4 28 272.3 28Z" fill="url(#paint112_linear_4093_18253)"/>
<path d="M273.9 38.9C273.8 38.9 273.6 39 273.6 39.1C273.5 39.3 273.6 39.5 273.7 39.7L275.2 40.6C275.4 40.7 275.6 40.6 275.8 40.5C275.9 40.3 275.8 40.1 275.7 40L274.2 39.1C274.1 38.9 274 38.9 273.9 38.9Z" fill="url(#paint113_linear_4093_18253)"/>
<path d="M260.6 31.2C260.5 31.2 260.3 31.3 260.3 31.4C260.2 31.6 260.3 31.8 260.4 32L261.9 32.9C262.1 33 262.3 32.8999 262.4 32.7999C262.5 32.5999 262.4 32.4 262.3 32.2L260.8 31.2999C260.7 31.1999 260.6 31.2 260.6 31.2Z" fill="url(#paint114_linear_4093_18253)"/>
<path d="M262.1 38.9C262 38.9 262 38.9 261.9 39L260.4 39.9C260.2 40 260.1 40.3 260.3 40.4C260.4 40.6 260.7 40.7 260.9 40.5L262.4 39.6C262.6 39.5 262.7 39.2 262.5 39C262.4 39 262.2 38.9 262.1 38.9Z" fill="url(#paint115_linear_4093_18253)"/>
<path d="M275.5 31.2C275.4 31.2 275.4 31.1999 275.3 31.2999L273.8 32.2C273.6 32.3 273.5 32.5999 273.7 32.7999C273.8 32.9999 274.1 33.1 274.3 32.9L275.8 32C276 31.9 276.1 31.6 275.9 31.4C275.7 31.2 275.6 31.2 275.5 31.2Z" fill="url(#paint116_linear_4093_18253)"/>
<path d="M271.4 41.4C271.3 41.4 271.3 41.4 271.2 41.5C271 41.6 271 41.8 271.1 42L272 43.5C272.1 43.7 272.4 43.8 272.5 43.6C272.7 43.5 272.8 43.2 272.6 43L271.7 41.5C271.7 41.5 271.6 41.4 271.4 41.4Z" fill="url(#paint117_linear_4093_18253)"/>
<path d="M263.7 28C263.6 28 263.6 28 263.5 28.1C263.3 28.2 263.2 28.5 263.4 28.7L264.3 30.2C264.4 30.4 264.7 30.5 264.9 30.3C265.1 30.2 265.2 29.9 265 29.7L264.1 28.2C264 28.1 263.9 28 263.7 28Z" fill="url(#paint118_linear_4093_18253)"/>
<path d="M268 39.2001C267.9 39.2001 267.8 39.3001 267.8 39.4001V40.3001C267.8 40.4001 267.9 40.5001 268 40.5001C268.1 40.5001 268.2 40.4001 268.2 40.3001V39.4001C268.2 39.3001 268.1 39.2001 268 39.2001Z" fill="url(#paint119_linear_4093_18253)"/>
<path d="M268 31.2001C267.9 31.2001 267.8 31.3001 267.8 31.4001V32.3001C267.8 32.4001 267.9 32.5001 268 32.5001C268.1 32.5001 268.2 32.4001 268.2 32.3001V31.4001C268.2 31.3001 268.1 31.2001 268 31.2001Z" fill="url(#paint120_linear_4093_18253)"/>
<path d="M272.5 35.7001H271.6C271.5 35.7001 271.4 35.8001 271.4 35.9001C271.4 36.0001 271.5 36.1001 271.6 36.1001H272.5C272.6 36.1001 272.7 36.0001 272.7 35.9001C272.7 35.7001 272.6 35.7001 272.5 35.7001Z" fill="url(#paint121_linear_4093_18253)"/>
<path d="M264.4 35.7001H263.5C263.4 35.7001 263.3 35.8001 263.3 35.9001C263.3 36.0001 263.4 36.1001 263.5 36.1001H264.4C264.5 36.1001 264.6 36.0001 264.6 35.9001C264.6 35.7001 264.5 35.7001 264.4 35.7001Z" fill="url(#paint122_linear_4093_18253)"/>
<path d="M266.2 38.8C266.1 38.8 266.1 38.8001 266 38.9001L265.5 39.7001C265.4 39.8001 265.5 39.9 265.6 40C265.7 40.1 265.8 40.0001 265.9 39.9001L266.4 39.1C266.5 39 266.4 38.9 266.3 38.8C266.3 38.8 266.3 38.8 266.2 38.8Z" fill="url(#paint123_linear_4093_18253)"/>
<path d="M270.3 31.8C270.2 31.8 270.2 31.8 270.1 31.9L269.6 32.7001C269.5 32.8001 269.6 32.9 269.7 33C269.8 33.1 269.9 33.0001 270 32.9001L270.5 32.1C270.6 32 270.5 31.9 270.4 31.8C270.3 31.8 270.3 31.8 270.3 31.8Z" fill="url(#paint124_linear_4093_18253)"/>
<path d="M271.1 37.5C271 37.5 271 37.5 270.9 37.6C270.8 37.7 270.9 37.8 271 37.9L271.8 38.4C271.9 38.5 272 38.4 272.1 38.3C272.2 38.2 272.1 38.1 272 38L271.2 37.5H271.1Z" fill="url(#paint125_linear_4093_18253)"/>
<path d="M264.1 33.4C264 33.4 264 33.4 263.9 33.5C263.8 33.6 263.9 33.7 264 33.8L264.8 34.3C264.9 34.4 265 34.3 265.1 34.2C265.2 34.1 265.1 34 265 33.9L264.1 33.4Z" fill="url(#paint126_linear_4093_18253)"/>
<path d="M264.9 37.5H264.8L264 37.9C263.9 38 263.9 38.1 263.9 38.2C264 38.3 264.1 38.3 264.2 38.3L265 37.8C265.1 37.7 265.1 37.6 265.1 37.5C265 37.5 265 37.5 264.9 37.5Z" fill="url(#paint127_linear_4093_18253)"/>
<path d="M271.9 33.4L271 33.9C270.9 34 270.9 34.1 270.9 34.2C271 34.3 271.1 34.3 271.2 34.3L272 33.8C272.1 33.7 272.1 33.6 272.1 33.5C272 33.4 272 33.4 271.9 33.4Z" fill="url(#paint128_linear_4093_18253)"/>
<path d="M269.8 38.8H269.7C269.6 38.9 269.6 39 269.6 39.1L270.1 39.9001C270.2 40.0001 270.3 40 270.4 40C270.5 39.9 270.5 39.8001 270.5 39.7001L270 38.9001C269.9 38.8001 269.9 38.8 269.8 38.8Z" fill="url(#paint129_linear_4093_18253)"/>
<path d="M265.8 31.8H265.7C265.6 31.9 265.6 32 265.6 32.1L266.1 32.9001C266.2 33.0001 266.3 33 266.4 33C266.5 32.9 266.5 32.8001 266.5 32.7001L266 31.9C265.9 31.8 265.8 31.8 265.8 31.8Z" fill="url(#paint130_linear_4093_18253)"/>
<path d="M269.9 35.9C269.9 34.9 269.1 34 268 34C267 34 266.1 34.8 266.1 35.9C266.1 36.9 266.9 37.8 268 37.8C269 37.7 269.9 36.9 269.9 35.9Z" fill="url(#paint131_linear_4093_18253)"/>
</g>
<defs>
<linearGradient id="paint0_linear_4093_18253" x1="38.1495" y1="29.53" x2="36.9444" y2="29.53" gradientUnits="userSpaceOnUse">
<stop stop-color="#BC7D2A"/>
<stop offset="0.5161" stop-color="#FDEB8A"/>
<stop offset="1" stop-color="#BC7D2A"/>
</linearGradient>
<linearGradient id="paint1_linear_4093_18253" x1="38.1495" y1="3.4152" x2="36.9444" y2="3.4152" gradientUnits="userSpaceOnUse">
<stop stop-color="#BC7D2A"/>
<stop offset="0.5161" stop-color="#FDEB8A"/>
<stop offset="1" stop-color="#BC7D2A"/>
</linearGradient>
<linearGradient id="paint2_linear_4093_18253" x1="27.9049" y1="16.4728" x2="21.0748" y2="16.4728" gradientUnits="userSpaceOnUse">
<stop stop-color="#BC7D2A"/>
<stop offset="0.5161" stop-color="#FDEB8A"/>
<stop offset="1" stop-color="#BC7D2A"/>
</linearGradient>
<linearGradient id="paint3_linear_4093_18253" x1="54.0197" y1="16.4728" x2="47.1897" y2="16.4728" gradientUnits="userSpaceOnUse">
<stop stop-color="#BC7D2A"/>
<stop offset="0.5161" stop-color="#FDEB8A"/>
<stop offset="1" stop-color="#BC7D2A"/>
</linearGradient>
<linearGradient id="paint4_linear_4093_18253" x1="44.5781" y1="26.4757" x2="42.0671" y2="26.4757" gradientUnits="userSpaceOnUse">
<stop stop-color="#BC7D2A"/>
<stop offset="0.5161" stop-color="#FDEB8A"/>
<stop offset="1" stop-color="#BC7D2A"/>
</linearGradient>
<linearGradient id="paint5_linear_4093_18253" x1="33.0275" y1="6.46955" x2="30.5162" y2="6.46955" gradientUnits="userSpaceOnUse">
<stop stop-color="#BC7D2A"/>
<stop offset="0.5161" stop-color="#FDEB8A"/>
<stop offset="1" stop-color="#BC7D2A"/>
</linearGradient>
<linearGradient id="paint6_linear_4093_18253" x1="29.2773" y1="22.2482" x2="25.8108" y2="22.2482" gradientUnits="userSpaceOnUse">
<stop stop-color="#BC7D2A"/>
<stop offset="0.5161" stop-color="#FDEB8A"/>
<stop offset="1" stop-color="#BC7D2A"/>
</linearGradient>
<linearGradient id="paint7_linear_4093_18253" x1="49.2841" y1="10.6976" x2="45.8166" y2="10.6976" gradientUnits="userSpaceOnUse">
<stop stop-color="#BC7D2A"/>
<stop offset="0.5161" stop-color="#FDEB8A"/>
<stop offset="1" stop-color="#BC7D2A"/>
</linearGradient>
<linearGradient id="paint8_linear_4093_18253" x1="49.2841" y1="22.2482" x2="45.8166" y2="22.2482" gradientUnits="userSpaceOnUse">
<stop stop-color="#BC7D2A"/>
<stop offset="0.5161" stop-color="#FDEB8A"/>
<stop offset="1" stop-color="#BC7D2A"/>
</linearGradient>
<linearGradient id="paint9_linear_4093_18253" x1="29.2776" y1="10.6976" x2="25.8108" y2="10.6976" gradientUnits="userSpaceOnUse">
<stop stop-color="#BC7D2A"/>
<stop offset="0.5161" stop-color="#FDEB8A"/>
<stop offset="1" stop-color="#BC7D2A"/>
</linearGradient>
<linearGradient id="paint10_linear_4093_18253" x1="33.0275" y1="26.4757" x2="30.5162" y2="26.4757" gradientUnits="userSpaceOnUse">
<stop stop-color="#BC7D2A"/>
<stop offset="0.5161" stop-color="#FDEB8A"/>
<stop offset="1" stop-color="#BC7D2A"/>
</linearGradient>
<linearGradient id="paint11_linear_4093_18253" x1="44.5781" y1="6.46945" x2="42.0671" y2="6.46945" gradientUnits="userSpaceOnUse">
<stop stop-color="#BC7D2A"/>
<stop offset="0.5161" stop-color="#FDEB8A"/>
<stop offset="1" stop-color="#BC7D2A"/>
</linearGradient>
<linearGradient id="paint12_linear_4093_18253" x1="44.5781" y1="26.4757" x2="42.0671" y2="26.4757" gradientUnits="userSpaceOnUse">
<stop stop-color="#BC7D2A"/>
<stop offset="0.5161" stop-color="#FDEB8A"/>
<stop offset="1" stop-color="#BC7D2A"/>
</linearGradient>
<linearGradient id="paint13_linear_4093_18253" x1="33.0275" y1="6.46955" x2="30.5162" y2="6.46955" gradientUnits="userSpaceOnUse">
<stop stop-color="#BC7D2A"/>
<stop offset="0.5161" stop-color="#FDEB8A"/>
<stop offset="1" stop-color="#BC7D2A"/>
</linearGradient>
<linearGradient id="paint14_linear_4093_18253" x1="29.2773" y1="22.2482" x2="25.8108" y2="22.2482" gradientUnits="userSpaceOnUse">
<stop stop-color="#BC7D2A"/>
<stop offset="0.5161" stop-color="#FDEB8A"/>
<stop offset="1" stop-color="#BC7D2A"/>
</linearGradient>
<linearGradient id="paint15_linear_4093_18253" x1="49.2841" y1="10.6976" x2="45.8166" y2="10.6976" gradientUnits="userSpaceOnUse">
<stop stop-color="#BC7D2A"/>
<stop offset="0.5161" stop-color="#FDEB8A"/>
<stop offset="1" stop-color="#BC7D2A"/>
</linearGradient>
<linearGradient id="paint16_linear_4093_18253" x1="49.2841" y1="22.2482" x2="45.8166" y2="22.2482" gradientUnits="userSpaceOnUse">
<stop stop-color="#BC7D2A"/>
<stop offset="0.5161" stop-color="#FDEB8A"/>
<stop offset="1" stop-color="#BC7D2A"/>
</linearGradient>
<linearGradient id="paint17_linear_4093_18253" x1="29.2776" y1="10.6976" x2="25.8108" y2="10.6976" gradientUnits="userSpaceOnUse">
<stop stop-color="#BC7D2A"/>
<stop offset="0.5161" stop-color="#FDEB8A"/>
<stop offset="1" stop-color="#BC7D2A"/>
</linearGradient>
<linearGradient id="paint18_linear_4093_18253" x1="33.0275" y1="26.4757" x2="30.5162" y2="26.4757" gradientUnits="userSpaceOnUse">
<stop stop-color="#BC7D2A"/>
<stop offset="0.5161" stop-color="#FDEB8A"/>
<stop offset="1" stop-color="#BC7D2A"/>
</linearGradient>
<linearGradient id="paint19_linear_4093_18253" x1="44.5781" y1="6.46945" x2="42.0671" y2="6.46945" gradientUnits="userSpaceOnUse">
<stop stop-color="#BC7D2A"/>
<stop offset="0.5161" stop-color="#FDEB8A"/>
<stop offset="1" stop-color="#BC7D2A"/>
</linearGradient>
<linearGradient id="paint20_linear_4093_18253" x1="37.8481" y1="22.5188" x2="37.2456" y2="22.5188" gradientUnits="userSpaceOnUse">
<stop stop-color="#BC7D2A"/>
<stop offset="0.5161" stop-color="#FDEB8A"/>
<stop offset="1" stop-color="#BC7D2A"/>
</linearGradient>
<linearGradient id="paint21_linear_4093_18253" x1="37.8481" y1="10.4268" x2="37.2456" y2="10.4268" gradientUnits="userSpaceOnUse">
<stop stop-color="#BC7D2A"/>
<stop offset="0.5161" stop-color="#FDEB8A"/>
<stop offset="1" stop-color="#BC7D2A"/>
</linearGradient>
<linearGradient id="paint22_linear_4093_18253" x1="32.4858" y1="16.4729" x2="30.5161" y2="16.4729" gradientUnits="userSpaceOnUse">
<stop stop-color="#BC7D2A"/>
<stop offset="0.5161" stop-color="#FDEB8A"/>
<stop offset="1" stop-color="#BC7D2A"/>
</linearGradient>
<linearGradient id="paint23_linear_4093_18253" x1="44.5777" y1="16.4729" x2="42.6085" y2="16.4729" gradientUnits="userSpaceOnUse">
<stop stop-color="#BC7D2A"/>
<stop offset="0.5161" stop-color="#FDEB8A"/>
<stop offset="1" stop-color="#BC7D2A"/>
</linearGradient>
<linearGradient id="paint24_linear_4093_18253" x1="41.2133" y1="21.7089" x2="39.9272" y2="21.7089" gradientUnits="userSpaceOnUse">
<stop stop-color="#BC7D2A"/>
<stop offset="0.5161" stop-color="#FDEB8A"/>
<stop offset="1" stop-color="#BC7D2A"/>
</linearGradient>
<linearGradient id="paint25_linear_4093_18253" x1="35.1674" y1="11.2364" x2="33.8811" y2="11.2364" gradientUnits="userSpaceOnUse">
<stop stop-color="#BC7D2A"/>
<stop offset="0.5161" stop-color="#FDEB8A"/>
<stop offset="1" stop-color="#BC7D2A"/>
</linearGradient>
<linearGradient id="paint26_linear_4093_18253" x1="33.2043" y1="19.4962" x2="31.4177" y2="19.4962" gradientUnits="userSpaceOnUse">
<stop stop-color="#BC7D2A"/>
<stop offset="0.5161" stop-color="#FDEB8A"/>
<stop offset="1" stop-color="#BC7D2A"/>
</linearGradient>
<linearGradient id="paint27_linear_4093_18253" x1="43.6765" y1="13.4498" x2="41.8896" y2="13.4498" gradientUnits="userSpaceOnUse">
<stop stop-color="#BC7D2A"/>
<stop offset="0.5161" stop-color="#FDEB8A"/>
<stop offset="1" stop-color="#BC7D2A"/>
</linearGradient>
<linearGradient id="paint28_linear_4093_18253" x1="43.6764" y1="19.4962" x2="41.8895" y2="19.4962" gradientUnits="userSpaceOnUse">
<stop stop-color="#BC7D2A"/>
<stop offset="0.5161" stop-color="#FDEB8A"/>
<stop offset="1" stop-color="#BC7D2A"/>
</linearGradient>
<linearGradient id="paint29_linear_4093_18253" x1="33.2043" y1="13.4498" x2="31.4177" y2="13.4498" gradientUnits="userSpaceOnUse">
<stop stop-color="#BC7D2A"/>
<stop offset="0.5161" stop-color="#FDEB8A"/>
<stop offset="1" stop-color="#BC7D2A"/>
</linearGradient>
<linearGradient id="paint30_linear_4093_18253" x1="35.1673" y1="21.7089" x2="33.881" y2="21.7089" gradientUnits="userSpaceOnUse">
<stop stop-color="#BC7D2A"/>
<stop offset="0.5161" stop-color="#FDEB8A"/>
<stop offset="1" stop-color="#BC7D2A"/>
</linearGradient>
<linearGradient id="paint31_linear_4093_18253" x1="41.2133" y1="11.2364" x2="39.9272" y2="11.2364" gradientUnits="userSpaceOnUse">
<stop stop-color="#BC7D2A"/>
<stop offset="0.5161" stop-color="#FDEB8A"/>
<stop offset="1" stop-color="#BC7D2A"/>
</linearGradient>
<linearGradient id="paint32_linear_4093_18253" x1="40.3596" y1="16.4726" x2="34.7351" y2="16.4726" gradientUnits="userSpaceOnUse">
<stop stop-color="#BC7D2A"/>
<stop offset="0.5161" stop-color="#FDEB8A"/>
<stop offset="1" stop-color="#BC7D2A"/>
</linearGradient>
<linearGradient id="paint33_linear_4093_18253" x1="11.4122" y1="44.5868" x2="10.6066" y2="44.5868" gradientUnits="userSpaceOnUse">
<stop stop-color="#BC7D2A"/>
<stop offset="0.5161" stop-color="#FDEB8A"/>
<stop offset="1" stop-color="#BC7D2A"/>
</linearGradient>
<linearGradient id="paint34_linear_4093_18253" x1="11.4122" y1="27.1335" x2="10.6066" y2="27.1335" gradientUnits="userSpaceOnUse">
<stop stop-color="#BC7D2A"/>
<stop offset="0.5161" stop-color="#FDEB8A"/>
<stop offset="1" stop-color="#BC7D2A"/>
</linearGradient>
<linearGradient id="paint35_linear_4093_18253" x1="4.5645" y1="35.8603" x2="0" y2="35.8603" gradientUnits="userSpaceOnUse">
<stop stop-color="#BC7D2A"/>
<stop offset="0.5161" stop-color="#FDEB8A"/>
<stop offset="1" stop-color="#BC7D2A"/>
</linearGradient>
<linearGradient id="paint36_linear_4093_18253" x1="22.0176" y1="35.8603" x2="17.4536" y2="35.8603" gradientUnits="userSpaceOnUse">
<stop stop-color="#BC7D2A"/>
<stop offset="0.5161" stop-color="#FDEB8A"/>
<stop offset="1" stop-color="#BC7D2A"/>
</linearGradient>
<linearGradient id="paint37_linear_4093_18253" x1="15.708" y1="42.5457" x2="14.0298" y2="42.5457" gradientUnits="userSpaceOnUse">
<stop stop-color="#BC7D2A"/>
<stop offset="0.5161" stop-color="#FDEB8A"/>
<stop offset="1" stop-color="#BC7D2A"/>
</linearGradient>
<linearGradient id="paint38_linear_4093_18253" x1="7.98871" y1="29.175" x2="6.31001" y2="29.175" gradientUnits="userSpaceOnUse">
<stop stop-color="#BC7D2A"/>
<stop offset="0.5161" stop-color="#FDEB8A"/>
<stop offset="1" stop-color="#BC7D2A"/>
</linearGradient>
<linearGradient id="paint39_linear_4093_18253" x1="5.48201" y1="39.7204" x2="3.16511" y2="39.7204" gradientUnits="userSpaceOnUse">
<stop stop-color="#BC7D2A"/>
<stop offset="0.5161" stop-color="#FDEB8A"/>
<stop offset="1" stop-color="#BC7D2A"/>
</linearGradient>
<linearGradient id="paint40_linear_4093_18253" x1="18.8532" y1="32.0007" x2="16.5359" y2="32.0007" gradientUnits="userSpaceOnUse">
<stop stop-color="#BC7D2A"/>
<stop offset="0.5161" stop-color="#FDEB8A"/>
<stop offset="1" stop-color="#BC7D2A"/>
</linearGradient>
<linearGradient id="paint41_linear_4093_18253" x1="18.8531" y1="39.7204" x2="16.5358" y2="39.7204" gradientUnits="userSpaceOnUse">
<stop stop-color="#BC7D2A"/>
<stop offset="0.5161" stop-color="#FDEB8A"/>
<stop offset="1" stop-color="#BC7D2A"/>
</linearGradient>
<linearGradient id="paint42_linear_4093_18253" x1="5.48198" y1="32.0007" x2="3.16508" y2="32.0007" gradientUnits="userSpaceOnUse">
<stop stop-color="#BC7D2A"/>
<stop offset="0.5161" stop-color="#FDEB8A"/>
<stop offset="1" stop-color="#BC7D2A"/>
</linearGradient>
<linearGradient id="paint43_linear_4093_18253" x1="7.98853" y1="42.5457" x2="6.30983" y2="42.5457" gradientUnits="userSpaceOnUse">
<stop stop-color="#BC7D2A"/>
<stop offset="0.5161" stop-color="#FDEB8A"/>
<stop offset="1" stop-color="#BC7D2A"/>
</linearGradient>
<linearGradient id="paint44_linear_4093_18253" x1="15.7081" y1="29.1749" x2="14.0299" y2="29.1749" gradientUnits="userSpaceOnUse">
<stop stop-color="#BC7D2A"/>
<stop offset="0.5161" stop-color="#FDEB8A"/>
<stop offset="1" stop-color="#BC7D2A"/>
</linearGradient>
<linearGradient id="paint45_linear_4093_18253" x1="15.708" y1="42.5457" x2="14.0298" y2="42.5457" gradientUnits="userSpaceOnUse">
<stop stop-color="#BC7D2A"/>
<stop offset="0.5161" stop-color="#FDEB8A"/>
<stop offset="1" stop-color="#BC7D2A"/>
</linearGradient>
<linearGradient id="paint46_linear_4093_18253" x1="7.98871" y1="29.175" x2="6.31001" y2="29.175" gradientUnits="userSpaceOnUse">
<stop stop-color="#BC7D2A"/>
<stop offset="0.5161" stop-color="#FDEB8A"/>
<stop offset="1" stop-color="#BC7D2A"/>
</linearGradient>
<linearGradient id="paint47_linear_4093_18253" x1="5.48201" y1="39.7204" x2="3.16511" y2="39.7204" gradientUnits="userSpaceOnUse">
<stop stop-color="#BC7D2A"/>
<stop offset="0.5161" stop-color="#FDEB8A"/>
<stop offset="1" stop-color="#BC7D2A"/>
</linearGradient>
<linearGradient id="paint48_linear_4093_18253" x1="18.8532" y1="32.0007" x2="16.5359" y2="32.0007" gradientUnits="userSpaceOnUse">
<stop stop-color="#BC7D2A"/>
<stop offset="0.5161" stop-color="#FDEB8A"/>
<stop offset="1" stop-color="#BC7D2A"/>
</linearGradient>
<linearGradient id="paint49_linear_4093_18253" x1="18.8531" y1="39.7204" x2="16.5358" y2="39.7204" gradientUnits="userSpaceOnUse">
<stop stop-color="#BC7D2A"/>
<stop offset="0.5161" stop-color="#FDEB8A"/>
<stop offset="1" stop-color="#BC7D2A"/>
</linearGradient>
<linearGradient id="paint50_linear_4093_18253" x1="5.48198" y1="32.0007" x2="3.16508" y2="32.0007" gradientUnits="userSpaceOnUse">
<stop stop-color="#BC7D2A"/>
<stop offset="0.5161" stop-color="#FDEB8A"/>
<stop offset="1" stop-color="#BC7D2A"/>
</linearGradient>
<linearGradient id="paint51_linear_4093_18253" x1="7.98853" y1="42.5457" x2="6.30983" y2="42.5457" gradientUnits="userSpaceOnUse">
<stop stop-color="#BC7D2A"/>
<stop offset="0.5161" stop-color="#FDEB8A"/>
<stop offset="1" stop-color="#BC7D2A"/>
</linearGradient>
<linearGradient id="paint52_linear_4093_18253" x1="15.7081" y1="29.1749" x2="14.0299" y2="29.1749" gradientUnits="userSpaceOnUse">
<stop stop-color="#BC7D2A"/>
<stop offset="0.5161" stop-color="#FDEB8A"/>
<stop offset="1" stop-color="#BC7D2A"/>
</linearGradient>
<linearGradient id="paint53_linear_4093_18253" x1="11.2105" y1="39.9012" x2="10.8076" y2="39.9012" gradientUnits="userSpaceOnUse">
<stop stop-color="#BC7D2A"/>
<stop offset="0.5161" stop-color="#FDEB8A"/>
<stop offset="1" stop-color="#BC7D2A"/>
</linearGradient>
<linearGradient id="paint54_linear_4093_18253" x1="11.2105" y1="31.8199" x2="10.8076" y2="31.8199" gradientUnits="userSpaceOnUse">
<stop stop-color="#BC7D2A"/>
<stop offset="0.5161" stop-color="#FDEB8A"/>
<stop offset="1" stop-color="#BC7D2A"/>
</linearGradient>
<linearGradient id="paint55_linear_4093_18253" x1="7.62655" y1="35.8607" x2="6.31015" y2="35.8607" gradientUnits="userSpaceOnUse">
<stop stop-color="#BC7D2A"/>
<stop offset="0.5161" stop-color="#FDEB8A"/>
<stop offset="1" stop-color="#BC7D2A"/>
</linearGradient>
<linearGradient id="paint56_linear_4093_18253" x1="15.7076" y1="35.8607" x2="14.3917" y2="35.8607" gradientUnits="userSpaceOnUse">
<stop stop-color="#BC7D2A"/>
<stop offset="0.5161" stop-color="#FDEB8A"/>
<stop offset="1" stop-color="#BC7D2A"/>
</linearGradient>
<linearGradient id="paint57_linear_4093_18253" x1="13.4593" y1="39.3598" x2="12.6" y2="39.3598" gradientUnits="userSpaceOnUse">
<stop stop-color="#BC7D2A"/>
<stop offset="0.5161" stop-color="#FDEB8A"/>
<stop offset="1" stop-color="#BC7D2A"/>
</linearGradient>
<linearGradient id="paint58_linear_4093_18253" x1="9.41886" y1="32.3608" x2="8.55876" y2="32.3608" gradientUnits="userSpaceOnUse">
<stop stop-color="#BC7D2A"/>
<stop offset="0.5161" stop-color="#FDEB8A"/>
<stop offset="1" stop-color="#BC7D2A"/>
</linearGradient>
<linearGradient id="paint59_linear_4093_18253" x1="8.10676" y1="37.8809" x2="6.91266" y2="37.8809" gradientUnits="userSpaceOnUse">
<stop stop-color="#BC7D2A"/>
<stop offset="0.5161" stop-color="#FDEB8A"/>
<stop offset="1" stop-color="#BC7D2A"/>
</linearGradient>
<linearGradient id="paint60_linear_4093_18253" x1="15.1056" y1="33.8401" x2="13.9115" y2="33.8401" gradientUnits="userSpaceOnUse">
<stop stop-color="#BC7D2A"/>
<stop offset="0.5161" stop-color="#FDEB8A"/>
<stop offset="1" stop-color="#BC7D2A"/>
</linearGradient>
<linearGradient id="paint61_linear_4093_18253" x1="15.1054" y1="37.8809" x2="13.9113" y2="37.8809" gradientUnits="userSpaceOnUse">
<stop stop-color="#BC7D2A"/>
<stop offset="0.5161" stop-color="#FDEB8A"/>
<stop offset="1" stop-color="#BC7D2A"/>
</linearGradient>
<linearGradient id="paint62_linear_4093_18253" x1="8.1066" y1="33.8401" x2="6.9125" y2="33.8401" gradientUnits="userSpaceOnUse">
<stop stop-color="#BC7D2A"/>
<stop offset="0.5161" stop-color="#FDEB8A"/>
<stop offset="1" stop-color="#BC7D2A"/>
</linearGradient>
<linearGradient id="paint63_linear_4093_18253" x1="9.41855" y1="39.3598" x2="8.55845" y2="39.3598" gradientUnits="userSpaceOnUse">
<stop stop-color="#BC7D2A"/>
<stop offset="0.5161" stop-color="#FDEB8A"/>
<stop offset="1" stop-color="#BC7D2A"/>
</linearGradient>
<linearGradient id="paint64_linear_4093_18253" x1="13.4591" y1="32.3608" x2="12.5998" y2="32.3608" gradientUnits="userSpaceOnUse">
<stop stop-color="#BC7D2A"/>
<stop offset="0.5161" stop-color="#FDEB8A"/>
<stop offset="1" stop-color="#BC7D2A"/>
</linearGradient>
<linearGradient id="paint65_linear_4093_18253" x1="12.8883" y1="35.8603" x2="9.1295" y2="35.8603" gradientUnits="userSpaceOnUse">
<stop stop-color="#BC7D2A"/>
<stop offset="0.5161" stop-color="#FDEB8A"/>
<stop offset="1" stop-color="#BC7D2A"/>
</linearGradient>
<linearGradient id="paint66_linear_4093_18253" x1="240.87" y1="29.53" x2="242.075" y2="29.53" gradientUnits="userSpaceOnUse">
<stop stop-color="#BC7D2A"/>
<stop offset="0.5161" stop-color="#FDEB8A"/>
<stop offset="1" stop-color="#BC7D2A"/>
</linearGradient>
<linearGradient id="paint67_linear_4093_18253" x1="240.87" y1="3.4152" x2="242.075" y2="3.4152" gradientUnits="userSpaceOnUse">
<stop stop-color="#BC7D2A"/>
<stop offset="0.5161" stop-color="#FDEB8A"/>
<stop offset="1" stop-color="#BC7D2A"/>
</linearGradient>
<linearGradient id="paint68_linear_4093_18253" x1="251.114" y1="16.4728" x2="257.944" y2="16.4728" gradientUnits="userSpaceOnUse">
<stop stop-color="#BC7D2A"/>
<stop offset="0.5161" stop-color="#FDEB8A"/>
<stop offset="1" stop-color="#BC7D2A"/>
</linearGradient>
<linearGradient id="paint69_linear_4093_18253" x1="225" y1="16.4728" x2="231.83" y2="16.4728" gradientUnits="userSpaceOnUse">
<stop stop-color="#BC7D2A"/>
<stop offset="0.5161" stop-color="#FDEB8A"/>
<stop offset="1" stop-color="#BC7D2A"/>
</linearGradient>
<linearGradient id="paint70_linear_4093_18253" x1="234.441" y1="26.4757" x2="236.953" y2="26.4757" gradientUnits="userSpaceOnUse">
<stop stop-color="#BC7D2A"/>
<stop offset="0.5161" stop-color="#FDEB8A"/>
<stop offset="1" stop-color="#BC7D2A"/>
</linearGradient>
<linearGradient id="paint71_linear_4093_18253" x1="245.993" y1="6.46955" x2="248.504" y2="6.46955" gradientUnits="userSpaceOnUse">
<stop stop-color="#BC7D2A"/>
<stop offset="0.5161" stop-color="#FDEB8A"/>
<stop offset="1" stop-color="#BC7D2A"/>
</linearGradient>
<linearGradient id="paint72_linear_4093_18253" x1="249.742" y1="22.2482" x2="253.209" y2="22.2482" gradientUnits="userSpaceOnUse">
<stop stop-color="#BC7D2A"/>
<stop offset="0.5161" stop-color="#FDEB8A"/>
<stop offset="1" stop-color="#BC7D2A"/>
</linearGradient>
<linearGradient id="paint73_linear_4093_18253" x1="229.735" y1="10.6976" x2="233.203" y2="10.6976" gradientUnits="userSpaceOnUse">
<stop stop-color="#BC7D2A"/>
<stop offset="0.5161" stop-color="#FDEB8A"/>
<stop offset="1" stop-color="#BC7D2A"/>
</linearGradient>
<linearGradient id="paint74_linear_4093_18253" x1="229.735" y1="22.2482" x2="233.203" y2="22.2482" gradientUnits="userSpaceOnUse">
<stop stop-color="#BC7D2A"/>
<stop offset="0.5161" stop-color="#FDEB8A"/>
<stop offset="1" stop-color="#BC7D2A"/>
</linearGradient>
<linearGradient id="paint75_linear_4093_18253" x1="249.742" y1="10.6976" x2="253.209" y2="10.6976" gradientUnits="userSpaceOnUse">
<stop stop-color="#BC7D2A"/>
<stop offset="0.5161" stop-color="#FDEB8A"/>
<stop offset="1" stop-color="#BC7D2A"/>
</linearGradient>
<linearGradient id="paint76_linear_4093_18253" x1="245.993" y1="26.4757" x2="248.504" y2="26.4757" gradientUnits="userSpaceOnUse">
<stop stop-color="#BC7D2A"/>
<stop offset="0.5161" stop-color="#FDEB8A"/>
<stop offset="1" stop-color="#BC7D2A"/>
</linearGradient>
<linearGradient id="paint77_linear_4093_18253" x1="234.441" y1="6.46945" x2="236.953" y2="6.46945" gradientUnits="userSpaceOnUse">
<stop stop-color="#BC7D2A"/>
<stop offset="0.5161" stop-color="#FDEB8A"/>
<stop offset="1" stop-color="#BC7D2A"/>
</linearGradient>
<linearGradient id="paint78_linear_4093_18253" x1="234.441" y1="26.4757" x2="236.953" y2="26.4757" gradientUnits="userSpaceOnUse">
<stop stop-color="#BC7D2A"/>
<stop offset="0.5161" stop-color="#FDEB8A"/>
<stop offset="1" stop-color="#BC7D2A"/>
</linearGradient>
<linearGradient id="paint79_linear_4093_18253" x1="245.993" y1="6.46955" x2="248.504" y2="6.46955" gradientUnits="userSpaceOnUse">
<stop stop-color="#BC7D2A"/>
<stop offset="0.5161" stop-color="#FDEB8A"/>
<stop offset="1" stop-color="#BC7D2A"/>
</linearGradient>
<linearGradient id="paint80_linear_4093_18253" x1="249.742" y1="22.2482" x2="253.209" y2="22.2482" gradientUnits="userSpaceOnUse">
<stop stop-color="#BC7D2A"/>
<stop offset="0.5161" stop-color="#FDEB8A"/>
<stop offset="1" stop-color="#BC7D2A"/>
</linearGradient>
<linearGradient id="paint81_linear_4093_18253" x1="229.735" y1="10.6976" x2="233.203" y2="10.6976" gradientUnits="userSpaceOnUse">
<stop stop-color="#BC7D2A"/>
<stop offset="0.5161" stop-color="#FDEB8A"/>
<stop offset="1" stop-color="#BC7D2A"/>
</linearGradient>
<linearGradient id="paint82_linear_4093_18253" x1="229.735" y1="22.2482" x2="233.203" y2="22.2482" gradientUnits="userSpaceOnUse">
<stop stop-color="#BC7D2A"/>
<stop offset="0.5161" stop-color="#FDEB8A"/>
<stop offset="1" stop-color="#BC7D2A"/>
</linearGradient>
<linearGradient id="paint83_linear_4093_18253" x1="249.742" y1="10.6976" x2="253.209" y2="10.6976" gradientUnits="userSpaceOnUse">
<stop stop-color="#BC7D2A"/>
<stop offset="0.5161" stop-color="#FDEB8A"/>
<stop offset="1" stop-color="#BC7D2A"/>
</linearGradient>
<linearGradient id="paint84_linear_4093_18253" x1="245.993" y1="26.4757" x2="248.504" y2="26.4757" gradientUnits="userSpaceOnUse">
<stop stop-color="#BC7D2A"/>
<stop offset="0.5161" stop-color="#FDEB8A"/>
<stop offset="1" stop-color="#BC7D2A"/>
</linearGradient>
<linearGradient id="paint85_linear_4093_18253" x1="234.441" y1="6.46945" x2="236.953" y2="6.46945" gradientUnits="userSpaceOnUse">
<stop stop-color="#BC7D2A"/>
<stop offset="0.5161" stop-color="#FDEB8A"/>
<stop offset="1" stop-color="#BC7D2A"/>
</linearGradient>
<linearGradient id="paint86_linear_4093_18253" x1="241.171" y1="22.5188" x2="241.774" y2="22.5188" gradientUnits="userSpaceOnUse">
<stop stop-color="#BC7D2A"/>
<stop offset="0.5161" stop-color="#FDEB8A"/>
<stop offset="1" stop-color="#BC7D2A"/>
</linearGradient>
<linearGradient id="paint87_linear_4093_18253" x1="241.171" y1="10.4268" x2="241.774" y2="10.4268" gradientUnits="userSpaceOnUse">
<stop stop-color="#BC7D2A"/>
<stop offset="0.5161" stop-color="#FDEB8A"/>
<stop offset="1" stop-color="#BC7D2A"/>
</linearGradient>
<linearGradient id="paint88_linear_4093_18253" x1="246.534" y1="16.4729" x2="248.503" y2="16.4729" gradientUnits="userSpaceOnUse">
<stop stop-color="#BC7D2A"/>
<stop offset="0.5161" stop-color="#FDEB8A"/>
<stop offset="1" stop-color="#BC7D2A"/>
</linearGradient>
<linearGradient id="paint89_linear_4093_18253" x1="234.441" y1="16.4729" x2="236.411" y2="16.4729" gradientUnits="userSpaceOnUse">
<stop stop-color="#BC7D2A"/>
<stop offset="0.5161" stop-color="#FDEB8A"/>
<stop offset="1" stop-color="#BC7D2A"/>
</linearGradient>
<linearGradient id="paint90_linear_4093_18253" x1="237.806" y1="21.7089" x2="239.092" y2="21.7089" gradientUnits="userSpaceOnUse">
<stop stop-color="#BC7D2A"/>
<stop offset="0.5161" stop-color="#FDEB8A"/>
<stop offset="1" stop-color="#BC7D2A"/>
</linearGradient>
<linearGradient id="paint91_linear_4093_18253" x1="243.852" y1="11.2364" x2="245.139" y2="11.2364" gradientUnits="userSpaceOnUse">
<stop stop-color="#BC7D2A"/>
<stop offset="0.5161" stop-color="#FDEB8A"/>
<stop offset="1" stop-color="#BC7D2A"/>
</linearGradient>
<linearGradient id="paint92_linear_4093_18253" x1="245.816" y1="19.4962" x2="247.602" y2="19.4962" gradientUnits="userSpaceOnUse">
<stop stop-color="#BC7D2A"/>
<stop offset="0.5161" stop-color="#FDEB8A"/>
<stop offset="1" stop-color="#BC7D2A"/>
</linearGradient>
<linearGradient id="paint93_linear_4093_18253" x1="235.343" y1="13.4498" x2="237.129" y2="13.4498" gradientUnits="userSpaceOnUse">
<stop stop-color="#BC7D2A"/>
<stop offset="0.5161" stop-color="#FDEB8A"/>
<stop offset="1" stop-color="#BC7D2A"/>
</linearGradient>
<linearGradient id="paint94_linear_4093_18253" x1="235.343" y1="19.4962" x2="237.129" y2="19.4962" gradientUnits="userSpaceOnUse">
<stop stop-color="#BC7D2A"/>
<stop offset="0.5161" stop-color="#FDEB8A"/>
<stop offset="1" stop-color="#BC7D2A"/>
</linearGradient>
<linearGradient id="paint95_linear_4093_18253" x1="245.816" y1="13.4498" x2="247.602" y2="13.4498" gradientUnits="userSpaceOnUse">
<stop stop-color="#BC7D2A"/>
<stop offset="0.5161" stop-color="#FDEB8A"/>
<stop offset="1" stop-color="#BC7D2A"/>
</linearGradient>
<linearGradient id="paint96_linear_4093_18253" x1="243.852" y1="21.7089" x2="245.139" y2="21.7089" gradientUnits="userSpaceOnUse">
<stop stop-color="#BC7D2A"/>
<stop offset="0.5161" stop-color="#FDEB8A"/>
<stop offset="1" stop-color="#BC7D2A"/>
</linearGradient>
<linearGradient id="paint97_linear_4093_18253" x1="237.806" y1="11.2364" x2="239.092" y2="11.2364" gradientUnits="userSpaceOnUse">
<stop stop-color="#BC7D2A"/>
<stop offset="0.5161" stop-color="#FDEB8A"/>
<stop offset="1" stop-color="#BC7D2A"/>
</linearGradient>
<linearGradient id="paint98_linear_4093_18253" x1="238.659" y1="16.4726" x2="244.284" y2="16.4726" gradientUnits="userSpaceOnUse">
<stop stop-color="#BC7D2A"/>
<stop offset="0.5161" stop-color="#FDEB8A"/>
<stop offset="1" stop-color="#BC7D2A"/>
</linearGradient>
<linearGradient id="paint99_linear_4093_18253" x1="267.606" y1="44.5869" x2="268.413" y2="44.5869" gradientUnits="userSpaceOnUse">
<stop stop-color="#BC7D2A"/>
<stop offset="0.5161" stop-color="#FDEB8A"/>
<stop offset="1" stop-color="#BC7D2A"/>
</linearGradient>
<linearGradient id="paint100_linear_4093_18253" x1="267.606" y1="27.1335" x2="268.413" y2="27.1335" gradientUnits="userSpaceOnUse">
<stop stop-color="#BC7D2A"/>
<stop offset="0.5161" stop-color="#FDEB8A"/>
<stop offset="1" stop-color="#BC7D2A"/>
</linearGradient>
<linearGradient id="paint101_linear_4093_18253" x1="274.455" y1="35.8603" x2="279.019" y2="35.8603" gradientUnits="userSpaceOnUse">
<stop stop-color="#BC7D2A"/>
<stop offset="0.5161" stop-color="#FDEB8A"/>
<stop offset="1" stop-color="#BC7D2A"/>
</linearGradient>
<linearGradient id="paint102_linear_4093_18253" x1="257.001" y1="35.8603" x2="261.565" y2="35.8603" gradientUnits="userSpaceOnUse">
<stop stop-color="#BC7D2A"/>
<stop offset="0.5161" stop-color="#FDEB8A"/>
<stop offset="1" stop-color="#BC7D2A"/>
</linearGradient>
<linearGradient id="paint103_linear_4093_18253" x1="263.311" y1="42.5457" x2="264.99" y2="42.5457" gradientUnits="userSpaceOnUse">
<stop stop-color="#BC7D2A"/>
<stop offset="0.5161" stop-color="#FDEB8A"/>
<stop offset="1" stop-color="#BC7D2A"/>
</linearGradient>
<linearGradient id="paint104_linear_4093_18253" x1="271.031" y1="29.175" x2="272.709" y2="29.175" gradientUnits="userSpaceOnUse">
<stop stop-color="#BC7D2A"/>
<stop offset="0.5161" stop-color="#FDEB8A"/>
<stop offset="1" stop-color="#BC7D2A"/>
</linearGradient>
<linearGradient id="paint105_linear_4093_18253" x1="273.537" y1="39.7204" x2="275.854" y2="39.7204" gradientUnits="userSpaceOnUse">
<stop stop-color="#BC7D2A"/>
<stop offset="0.5161" stop-color="#FDEB8A"/>
<stop offset="1" stop-color="#BC7D2A"/>
</linearGradient>
<linearGradient id="paint106_linear_4093_18253" x1="260.166" y1="32.0007" x2="262.484" y2="32.0007" gradientUnits="userSpaceOnUse">
<stop stop-color="#BC7D2A"/>
<stop offset="0.5161" stop-color="#FDEB8A"/>
<stop offset="1" stop-color="#BC7D2A"/>
</linearGradient>
<linearGradient id="paint107_linear_4093_18253" x1="260.166" y1="39.7204" x2="262.483" y2="39.7204" gradientUnits="userSpaceOnUse">
<stop stop-color="#BC7D2A"/>
<stop offset="0.5161" stop-color="#FDEB8A"/>
<stop offset="1" stop-color="#BC7D2A"/>
</linearGradient>
<linearGradient id="paint108_linear_4093_18253" x1="273.537" y1="32.0007" x2="275.854" y2="32.0007" gradientUnits="userSpaceOnUse">
<stop stop-color="#BC7D2A"/>
<stop offset="0.5161" stop-color="#FDEB8A"/>
<stop offset="1" stop-color="#BC7D2A"/>
</linearGradient>
<linearGradient id="paint109_linear_4093_18253" x1="271.031" y1="42.5457" x2="272.709" y2="42.5457" gradientUnits="userSpaceOnUse">
<stop stop-color="#BC7D2A"/>
<stop offset="0.5161" stop-color="#FDEB8A"/>
<stop offset="1" stop-color="#BC7D2A"/>
</linearGradient>
<linearGradient id="paint110_linear_4093_18253" x1="263.311" y1="29.1749" x2="264.99" y2="29.1749" gradientUnits="userSpaceOnUse">
<stop stop-color="#BC7D2A"/>
<stop offset="0.5161" stop-color="#FDEB8A"/>
<stop offset="1" stop-color="#BC7D2A"/>
</linearGradient>
<linearGradient id="paint111_linear_4093_18253" x1="263.311" y1="42.5457" x2="264.99" y2="42.5457" gradientUnits="userSpaceOnUse">
<stop stop-color="#BC7D2A"/>
<stop offset="0.5161" stop-color="#FDEB8A"/>
<stop offset="1" stop-color="#BC7D2A"/>
</linearGradient>
<linearGradient id="paint112_linear_4093_18253" x1="271.031" y1="29.175" x2="272.709" y2="29.175" gradientUnits="userSpaceOnUse">
<stop stop-color="#BC7D2A"/>
<stop offset="0.5161" stop-color="#FDEB8A"/>
<stop offset="1" stop-color="#BC7D2A"/>
</linearGradient>
<linearGradient id="paint113_linear_4093_18253" x1="273.537" y1="39.7204" x2="275.854" y2="39.7204" gradientUnits="userSpaceOnUse">
<stop stop-color="#BC7D2A"/>
<stop offset="0.5161" stop-color="#FDEB8A"/>
<stop offset="1" stop-color="#BC7D2A"/>
</linearGradient>
<linearGradient id="paint114_linear_4093_18253" x1="260.166" y1="32.0007" x2="262.484" y2="32.0007" gradientUnits="userSpaceOnUse">
<stop stop-color="#BC7D2A"/>
<stop offset="0.5161" stop-color="#FDEB8A"/>
<stop offset="1" stop-color="#BC7D2A"/>
</linearGradient>
<linearGradient id="paint115_linear_4093_18253" x1="260.166" y1="39.7204" x2="262.483" y2="39.7204" gradientUnits="userSpaceOnUse">
<stop stop-color="#BC7D2A"/>
<stop offset="0.5161" stop-color="#FDEB8A"/>
<stop offset="1" stop-color="#BC7D2A"/>
</linearGradient>
<linearGradient id="paint116_linear_4093_18253" x1="273.537" y1="32.0007" x2="275.854" y2="32.0007" gradientUnits="userSpaceOnUse">
<stop stop-color="#BC7D2A"/>
<stop offset="0.5161" stop-color="#FDEB8A"/>
<stop offset="1" stop-color="#BC7D2A"/>
</linearGradient>
<linearGradient id="paint117_linear_4093_18253" x1="271.031" y1="42.5457" x2="272.709" y2="42.5457" gradientUnits="userSpaceOnUse">
<stop stop-color="#BC7D2A"/>
<stop offset="0.5161" stop-color="#FDEB8A"/>
<stop offset="1" stop-color="#BC7D2A"/>
</linearGradient>
<linearGradient id="paint118_linear_4093_18253" x1="263.311" y1="29.1749" x2="264.99" y2="29.1749" gradientUnits="userSpaceOnUse">
<stop stop-color="#BC7D2A"/>
<stop offset="0.5161" stop-color="#FDEB8A"/>
<stop offset="1" stop-color="#BC7D2A"/>
</linearGradient>
<linearGradient id="paint119_linear_4093_18253" x1="267.809" y1="39.9012" x2="268.212" y2="39.9012" gradientUnits="userSpaceOnUse">
<stop stop-color="#BC7D2A"/>
<stop offset="0.5161" stop-color="#FDEB8A"/>
<stop offset="1" stop-color="#BC7D2A"/>
</linearGradient>
<linearGradient id="paint120_linear_4093_18253" x1="267.809" y1="31.8199" x2="268.212" y2="31.8199" gradientUnits="userSpaceOnUse">
<stop stop-color="#BC7D2A"/>
<stop offset="0.5161" stop-color="#FDEB8A"/>
<stop offset="1" stop-color="#BC7D2A"/>
</linearGradient>
<linearGradient id="paint121_linear_4093_18253" x1="271.393" y1="35.8607" x2="272.709" y2="35.8607" gradientUnits="userSpaceOnUse">
<stop stop-color="#BC7D2A"/>
<stop offset="0.5161" stop-color="#FDEB8A"/>
<stop offset="1" stop-color="#BC7D2A"/>
</linearGradient>
<linearGradient id="paint122_linear_4093_18253" x1="263.312" y1="35.8607" x2="264.628" y2="35.8607" gradientUnits="userSpaceOnUse">
<stop stop-color="#BC7D2A"/>
<stop offset="0.5161" stop-color="#FDEB8A"/>
<stop offset="1" stop-color="#BC7D2A"/>
</linearGradient>
<linearGradient id="paint123_linear_4093_18253" x1="265.561" y1="39.3598" x2="266.42" y2="39.3598" gradientUnits="userSpaceOnUse">
<stop stop-color="#BC7D2A"/>
<stop offset="0.5161" stop-color="#FDEB8A"/>
<stop offset="1" stop-color="#BC7D2A"/>
</linearGradient>
<linearGradient id="paint124_linear_4093_18253" x1="269.601" y1="32.3608" x2="270.46" y2="32.3608" gradientUnits="userSpaceOnUse">
<stop stop-color="#BC7D2A"/>
<stop offset="0.5161" stop-color="#FDEB8A"/>
<stop offset="1" stop-color="#BC7D2A"/>
</linearGradient>
<linearGradient id="paint125_linear_4093_18253" x1="270.913" y1="37.8809" x2="272.107" y2="37.8809" gradientUnits="userSpaceOnUse">
<stop stop-color="#BC7D2A"/>
<stop offset="0.5161" stop-color="#FDEB8A"/>
<stop offset="1" stop-color="#BC7D2A"/>
</linearGradient>
<linearGradient id="paint126_linear_4093_18253" x1="263.914" y1="33.8401" x2="265.108" y2="33.8401" gradientUnits="userSpaceOnUse">
<stop stop-color="#BC7D2A"/>
<stop offset="0.5161" stop-color="#FDEB8A"/>
<stop offset="1" stop-color="#BC7D2A"/>
</linearGradient>
<linearGradient id="paint127_linear_4093_18253" x1="263.913" y1="37.8809" x2="265.107" y2="37.8809" gradientUnits="userSpaceOnUse">
<stop stop-color="#BC7D2A"/>
<stop offset="0.5161" stop-color="#FDEB8A"/>
<stop offset="1" stop-color="#BC7D2A"/>
</linearGradient>
<linearGradient id="paint128_linear_4093_18253" x1="270.912" y1="33.8401" x2="272.107" y2="33.8401" gradientUnits="userSpaceOnUse">
<stop stop-color="#BC7D2A"/>
<stop offset="0.5161" stop-color="#FDEB8A"/>
<stop offset="1" stop-color="#BC7D2A"/>
</linearGradient>
<linearGradient id="paint129_linear_4093_18253" x1="269.601" y1="39.3598" x2="270.46" y2="39.3598" gradientUnits="userSpaceOnUse">
<stop stop-color="#BC7D2A"/>
<stop offset="0.5161" stop-color="#FDEB8A"/>
<stop offset="1" stop-color="#BC7D2A"/>
</linearGradient>
<linearGradient id="paint130_linear_4093_18253" x1="265.56" y1="32.3608" x2="266.419" y2="32.3608" gradientUnits="userSpaceOnUse">
<stop stop-color="#BC7D2A"/>
<stop offset="0.5161" stop-color="#FDEB8A"/>
<stop offset="1" stop-color="#BC7D2A"/>
</linearGradient>
<linearGradient id="paint131_linear_4093_18253" x1="266.131" y1="35.8603" x2="269.89" y2="35.8603" gradientUnits="userSpaceOnUse">
<stop stop-color="#BC7D2A"/>
<stop offset="0.5161" stop-color="#FDEB8A"/>
<stop offset="1" stop-color="#BC7D2A"/>
</linearGradient>
<clipPath id="clip0_4093_18253">
<rect width="54" height="46.9" fill="white"/>
</clipPath>
<clipPath id="clip1_4093_18253">
<rect width="54" height="46.9" fill="white" transform="translate(225)"/>
</clipPath>
</defs>
</svg>
