<svg width="225" height="197" viewBox="0 0 225 197" fill="none" xmlns="http://www.w3.org/2000/svg">
<g clip-path="url(#clip0_4093_18555)">
<path d="M49.7 43.9C49.7 43.9 33.6 20.9 2 13.6L10 0C10 0 37.6 16.2 49.7 43.9Z" fill="url(#paint0_linear_4093_18555)"/>
<path d="M50.1001 46.8C50.1001 46.8 31.3001 36.5 7.1001 42.3L8.0001 30.3C8.0001 30.4 32.4001 32.1 50.1001 46.8Z" fill="url(#paint1_linear_4093_18555)"/>
<path d="M50.8999 41.7C50.8999 41.7 49.2999 23.2 33.8999 5.79995L43.3999 1.19995C43.3999 1.19995 52.7999 21.9 50.8999 41.7Z" fill="url(#paint2_linear_4093_18555)"/>
<path d="M174.5 43.9C174.5 43.9 190.6 20.9 222.2 13.6L214.2 0C214.2 0 186.6 16.2 174.5 43.9Z" fill="url(#paint3_linear_4093_18555)"/>
<path d="M174.1 46.8C174.1 46.8 192.9 36.5 217.1 42.3L216.2 30.3C216.2 30.4 191.8 32.1 174.1 46.8Z" fill="url(#paint4_linear_4093_18555)"/>
<path d="M173.3 41.7C173.3 41.7 174.9 23.2 190.3 5.79995L180.8 1.19995C180.8 1.19995 171.4 21.9 173.3 41.7Z" fill="url(#paint5_linear_4093_18555)"/>
</g>
<path opacity="0.5" d="M184.8 193.602L198.8 178.602L165.5 106.002C155.1 109.602 143.3 104.802 138.6 94.5023L112.5 37.7023L152 19.6023L178.1 76.4023C182.8 86.7023 178.8 98.7023 169.3 104.302L202.7 176.902L223.2 176.002C225.1 175.902 225.7 178.502 224 179.302L205.4 187.802L186.8 196.302C185.1 197.202 183.5 195.002 184.8 193.602Z" fill="white"/>
<path d="M168.8 64.1022C168.8 64.1022 163.6 52.9022 161.3 47.8022C159 42.8022 157.2 55.9022 148.6 58.3022C141.4 60.3022 135.1 47.0022 128.9 50.9022C124.7 49.1022 131.8 64.7022 135.2 66.0022C138.6 67.3022 148 74.2022 148 74.2022L158.1 74.6022L162.8 73.4022L166.6 71.9022C166.6 71.8022 170.5 69.3022 168.8 64.1022Z" fill="url(#paint6_linear_4093_18555)"/>
<path d="M119.7 34.4022C121.2 35.8022 122.8 37.5022 124.1 39.5022C127.4 44.7022 131.3 43.7022 131.3 47.5022C131.3 55.5022 136.6 68.7022 147.4 66.9022C158.2 65.0022 161.7 57.0022 161.2 47.7022L174.7 77.2022C178.9 86.4022 174.9 97.4022 165.7 101.602C156.5 105.802 145.5 101.802 141.3 92.6022L132.4 73.2022L118.1 42.2022C118.1 42.2022 117 38.8022 114.1 36.1022C110.2 31.8022 111.8 27.6022 119.7 34.4022Z" fill="url(#paint7_linear_4093_18555)"/>
<path d="M164.6 87.6023C165.4 89.4023 167.6 90.2023 169.4 89.4023C171.2 88.6023 172 86.4023 171.2 84.6023C170.4 82.8023 168.2 82.0023 166.4 82.8023C164.6 83.6023 163.8 85.8023 164.6 87.6023Z" fill="#FCEA89"/>
<path d="M143.1 88.4022C143.9 90.2022 146.1 91.0022 147.9 90.2022C149.7 89.4022 150.5 87.2022 149.7 85.4022C148.9 83.6022 146.7 82.8022 144.9 83.6022C143 84.5022 142.2 86.6022 143.1 88.4022Z" fill="#FCEA89"/>
<path d="M158.4 82.0023C159 83.3023 160.6 83.9023 161.9 83.3023C163.2 82.7023 163.8 81.1023 163.2 79.8023C162.6 78.5023 161 77.9023 159.7 78.5023C158.4 79.2023 157.8 80.7023 158.4 82.0023Z" fill="#FCEA89"/>
<path d="M146.6 79.9022C147.2 81.2022 148.8 81.8022 150.1 81.2022C151.4 80.6022 152 79.0022 151.4 77.7022C150.8 76.4022 149.2 75.8022 147.9 76.4022C146.6 77.1022 146 78.6022 146.6 79.9022Z" fill="#FCEA89"/>
<path d="M121.4 28.4022C122 29.7022 123.6 30.3022 124.9 29.7022C126.2 29.1022 126.8 27.5022 126.2 26.2022C125.6 24.9022 124 24.3022 122.7 24.9022C121.3 25.6022 120.8 27.1022 121.4 28.4022Z" fill="url(#paint8_linear_4093_18555)"/>
<path d="M117.4 14.7022C118 16.0022 119.6 16.6022 120.9 16.0022C122.2 15.4022 122.8 13.8022 122.2 12.5022C121.6 11.2022 120 10.6022 118.7 11.2022C117.4 11.8022 116.8 13.4022 117.4 14.7022Z" fill="url(#paint9_linear_4093_18555)"/>
<path d="M155.4 96.8022C155.9 97.9022 157.2 98.4022 158.4 97.9022C159.5 97.4022 160 96.1022 159.5 94.9022C159 93.8022 157.7 93.3022 156.5 93.8022C155.3 94.4022 154.9 95.7022 155.4 96.8022Z" fill="#FCEA89"/>
<path d="M159.3 67.3023C159.8 68.4023 161.1 68.9023 162.3 68.4023C163.4 67.9023 163.9 66.6023 163.4 65.4023C162.9 64.3023 161.6 63.8023 160.4 64.3023C159.3 64.8023 158.8 66.1023 159.3 67.3023Z" fill="#FCEA89"/>
<path opacity="0.5" d="M212.7 180.802L196.1 181.502L198.8 178.602L165.5 106.002C164.3 106.402 163.1 106.702 161.9 106.902C169.2 100.802 171.9 90.3023 167.7 81.2023L141.6 24.4023L152 19.6023L178.1 76.4023C182.8 86.7023 178.8 98.7023 169.3 104.302L202.7 176.902L223.2 176.002C225.1 175.902 225.7 178.502 224 179.302L213.6 184.102C215.2 183.302 214.6 180.702 212.7 180.802Z" fill="#231F20"/>
<path opacity="0.3" d="M124.3 36.8022L149.8 92.2022C152.1 97.2022 155.7 101.102 159.8 103.702C152.1 103.802 144.7 99.5022 141.3 92.2022L117.3 40.0022L124.3 36.8022Z" fill="white"/>
<path opacity="0.5" d="M40.1002 193.602L26.1002 178.602L59.5002 106.002C69.9002 109.602 81.7002 104.802 86.4002 94.5023L112.5 37.7023L73.0002 19.6023L46.9002 76.4023C42.2002 86.7023 46.2002 98.7023 55.7002 104.302L22.3002 176.902L1.80016 176.002C-0.099842 175.902 -0.699842 178.502 1.00016 179.302L19.6002 187.802L38.2002 196.302C39.9002 197.202 41.4002 195.002 40.1002 193.602Z" fill="white"/>
<path d="M56.2001 64.1023C56.2001 64.1023 61.4001 52.9023 63.7001 47.8023C66.0001 42.7023 67.8001 55.9023 76.4001 58.3023C83.6001 60.3023 89.9001 47.0023 96.1001 50.9023C100.3 49.1023 93.2001 64.7023 89.8001 66.0023C86.4001 67.3023 77.0001 74.2023 77.0001 74.2023L66.9001 74.6023L62.2001 73.4023L58.4001 71.9023C58.4001 71.8023 54.5001 69.3023 56.2001 64.1023Z" fill="url(#paint10_linear_4093_18555)"/>
<path d="M110.6 30.5022C107.5 32.2022 103.8 35.1022 100.8 39.5022C97.5001 44.7022 93.6001 43.7022 93.6001 47.5022C93.6001 55.5022 88.3001 68.7022 77.5001 66.9022C66.7001 65.0022 63.2001 57.0023 63.7001 47.7022L50.1001 77.2022C45.9001 86.4022 49.9001 97.4023 59.1001 101.602C68.3001 105.802 79.3001 101.802 83.5001 92.6022L92.4001 73.2022L106.7 42.2022C106.7 42.2022 109.1 34.6022 116.8 32.7022C124.5 30.9022 115.5 27.7022 110.6 30.5022Z" fill="url(#paint11_linear_4093_18555)"/>
<path d="M60.3 87.6023C59.5 89.4023 57.3 90.2023 55.5 89.4023C53.7 88.6023 52.9 86.4023 53.7 84.6023C54.5 82.8023 56.7 82.0023 58.5 82.8023C60.4 83.6023 61.2 85.8023 60.3 87.6023Z" fill="#FCEA89"/>
<path d="M81.9001 88.4023C81.1001 90.2023 78.9001 91.0023 77.1001 90.2023C75.3001 89.4023 74.5001 87.2023 75.3001 85.4023C76.1001 83.6023 78.3001 82.8023 80.1001 83.6023C81.9001 84.5023 82.7001 86.6023 81.9001 88.4023Z" fill="#FCEA89"/>
<path d="M116.6 22.6023C115.8 24.4023 113.6 25.2023 111.8 24.4023C110 23.6023 109.2 21.4023 110 19.6023C110.8 17.8023 113 17.0023 114.8 17.8023C116.7 18.6023 117.5 20.8023 116.6 22.6023Z" fill="url(#paint12_linear_4093_18555)"/>
<path d="M66.5 82.0023C65.9 83.3023 64.3 83.9023 63 83.3023C61.7 82.7023 61.1 81.1023 61.7 79.8023C62.3 78.5023 63.9 77.9023 65.2 78.5023C66.6 79.2023 67.1 80.7023 66.5 82.0023Z" fill="#FCEA89"/>
<path d="M78.4002 79.9023C77.8002 81.2023 76.2002 81.8023 74.9002 81.2023C73.6002 80.6023 73.0002 79.0023 73.6002 77.7023C74.2002 76.4023 75.8002 75.8023 77.1002 76.4023C78.4002 77.1023 79.0002 78.6023 78.4002 79.9023Z" fill="#FCEA89"/>
<path d="M104.8 27.3023C104.2 28.6023 102.6 29.2023 101.3 28.6023C100 28.0023 99.4001 26.4023 100 25.1023C100.6 23.8023 102.2 23.2023 103.5 23.8023C104.8 24.5023 105.4 26.0023 104.8 27.3023Z" fill="url(#paint13_linear_4093_18555)"/>
<path d="M69.6002 96.8023C69.1002 97.9023 67.8002 98.4023 66.6002 97.9023C65.5002 97.4023 65.0002 96.1023 65.5002 94.9023C66.0002 93.8023 67.3002 93.3023 68.5002 93.8023C69.6002 94.4023 70.1002 95.7023 69.6002 96.8023Z" fill="#FCEA89"/>
<path d="M65.7 67.3023C65.2 68.4023 63.9 68.9023 62.7 68.4023C61.6 67.9023 61.1 66.6023 61.6 65.4023C62.1 64.3023 63.4 63.8023 64.6 64.3023C65.7 64.8023 66.2 66.1023 65.7 67.3023Z" fill="#FCEA89"/>
<path opacity="0.5" d="M12.2002 180.802L28.8002 181.502L26.1002 178.602L59.5002 106.002C60.7002 106.402 61.9002 106.702 63.1002 106.902C55.8002 100.802 53.1002 90.3023 57.3002 81.2023L83.4002 24.4023L73.0002 19.6023L46.9002 76.4023C42.2002 86.7023 46.2002 98.7023 55.7002 104.302L22.3002 176.902L1.80016 176.002C-0.099842 175.902 -0.699842 178.502 1.00016 179.302L11.4002 184.102C9.70016 183.302 10.3002 180.702 12.2002 180.802Z" fill="#231F20"/>
<path opacity="0.3" d="M100.7 36.8022L75.2002 92.2022C72.9002 97.2022 69.3002 101.102 65.2002 103.702C72.9002 103.802 80.3002 99.5022 83.7002 92.2022L107.7 40.0022L100.7 36.8022Z" fill="white"/>
<defs>
<linearGradient id="paint0_linear_4093_18555" x1="1.45483" y1="16.3018" x2="53.1719" y2="26.5567" gradientUnits="userSpaceOnUse">
<stop stop-color="#BC7D2A"/>
<stop offset="0.5161" stop-color="#FDEB8A"/>
<stop offset="1" stop-color="#BC7D2A"/>
</linearGradient>
<linearGradient id="paint1_linear_4093_18555" x1="6.90688" y1="36.0599" x2="50.549" y2="44.7135" gradientUnits="userSpaceOnUse">
<stop stop-color="#BC7D2A"/>
<stop offset="0.5161" stop-color="#FDEB8A"/>
<stop offset="1" stop-color="#BC7D2A"/>
</linearGradient>
<linearGradient id="paint2_linear_4093_18555" x1="31.4368" y1="18.3635" x2="54.6038" y2="22.9572" gradientUnits="userSpaceOnUse">
<stop stop-color="#BC7D2A"/>
<stop offset="0.5161" stop-color="#FDEB8A"/>
<stop offset="1" stop-color="#BC7D2A"/>
</linearGradient>
<linearGradient id="paint3_linear_4093_18555" x1="222.74" y1="16.3017" x2="171.022" y2="26.5567" gradientUnits="userSpaceOnUse">
<stop stop-color="#BC7D2A"/>
<stop offset="0.5161" stop-color="#FDEB8A"/>
<stop offset="1" stop-color="#BC7D2A"/>
</linearGradient>
<linearGradient id="paint4_linear_4093_18555" x1="217.287" y1="36.0599" x2="173.644" y2="44.7136" gradientUnits="userSpaceOnUse">
<stop stop-color="#BC7D2A"/>
<stop offset="0.5161" stop-color="#FDEB8A"/>
<stop offset="1" stop-color="#BC7D2A"/>
</linearGradient>
<linearGradient id="paint5_linear_4093_18555" x1="192.757" y1="18.3635" x2="169.589" y2="22.9573" gradientUnits="userSpaceOnUse">
<stop stop-color="#BC7D2A"/>
<stop offset="0.5161" stop-color="#FDEB8A"/>
<stop offset="1" stop-color="#BC7D2A"/>
</linearGradient>
<linearGradient id="paint6_linear_4093_18555" x1="128.967" y1="43.1057" x2="150.527" y2="58.261" gradientUnits="userSpaceOnUse">
<stop stop-color="#BC7D2A"/>
<stop offset="0.5161" stop-color="#FDEB8A"/>
<stop offset="1" stop-color="#BC7D2A"/>
</linearGradient>
<linearGradient id="paint7_linear_4093_18555" x1="164.477" y1="54.7183" x2="129.548" y2="70.7668" gradientUnits="userSpaceOnUse">
<stop stop-color="#BC7D2A"/>
<stop offset="0.5161" stop-color="#FDEB8A"/>
<stop offset="1" stop-color="#BC7D2A"/>
</linearGradient>
<linearGradient id="paint8_linear_4093_18555" x1="126.127" y1="26.2425" x2="121.361" y2="28.4322" gradientUnits="userSpaceOnUse">
<stop stop-color="#BC7D2A"/>
<stop offset="0.5161" stop-color="#FDEB8A"/>
<stop offset="1" stop-color="#BC7D2A"/>
</linearGradient>
<linearGradient id="paint9_linear_4093_18555" x1="122.215" y1="12.5301" x2="117.449" y2="14.7197" gradientUnits="userSpaceOnUse">
<stop stop-color="#BC7D2A"/>
<stop offset="0.5161" stop-color="#FDEB8A"/>
<stop offset="1" stop-color="#BC7D2A"/>
</linearGradient>
<linearGradient id="paint10_linear_4093_18555" x1="95.9989" y1="43.1057" x2="74.4385" y2="58.2609" gradientUnits="userSpaceOnUse">
<stop stop-color="#BC7D2A"/>
<stop offset="0.5161" stop-color="#FDEB8A"/>
<stop offset="1" stop-color="#BC7D2A"/>
</linearGradient>
<linearGradient id="paint11_linear_4093_18555" x1="61.234" y1="53.0956" x2="101.296" y2="71.5021" gradientUnits="userSpaceOnUse">
<stop stop-color="#BC7D2A"/>
<stop offset="0.5161" stop-color="#FDEB8A"/>
<stop offset="1" stop-color="#BC7D2A"/>
</linearGradient>
<linearGradient id="paint12_linear_4093_18555" x1="110.016" y1="19.5555" x2="116.629" y2="22.5938" gradientUnits="userSpaceOnUse">
<stop stop-color="#BC7D2A"/>
<stop offset="0.5161" stop-color="#FDEB8A"/>
<stop offset="1" stop-color="#BC7D2A"/>
</linearGradient>
<linearGradient id="paint13_linear_4093_18555" x1="100.024" y1="25.1465" x2="104.79" y2="27.3362" gradientUnits="userSpaceOnUse">
<stop stop-color="#BC7D2A"/>
<stop offset="0.5161" stop-color="#FDEB8A"/>
<stop offset="1" stop-color="#BC7D2A"/>
</linearGradient>
<clipPath id="clip0_4093_18555">
<rect width="220.2" height="46.8" fill="white" transform="translate(2)"/>
</clipPath>
</defs>
</svg>
