<svg width="246" height="35" viewBox="0 0 246 35" fill="none" xmlns="http://www.w3.org/2000/svg">
<path d="M42.6001 17.1018H107.3" stroke="white" stroke-miterlimit="10"/>
<path d="M125.757 17.0774L123.212 14.5315L120.666 17.0767L123.211 19.6226L125.757 17.0774Z" stroke="white" stroke-miterlimit="10"/>
<path d="M119.011 17.0784L117.313 15.3816L115.616 17.0789L117.314 18.7757L119.011 17.0784Z" fill="white"/>
<path d="M129.184 18.7803L130.882 17.0837L129.185 15.3862L127.488 17.0828L129.184 18.7803Z" fill="white"/>
<path d="M139 17.1018H202.3" stroke="white" stroke-miterlimit="10"/>
<path d="M17.1 7.1C16.8 7.1 16.5 6.8 16.5 6.5V0.6C16.5 0.3 16.8 0 17.1 0C17.4 0 17.7 0.3 17.7 0.6V6.4C17.7 6.8 17.5 7.1 17.1 7.1Z" fill="url(#paint0_linear_4093_18612)"/>
<path d="M17.1 34.2C16.8 34.2 16.5 33.8999 16.5 33.5999V27.7999C16.5 27.4999 16.8 27.2 17.1 27.2C17.4 27.2 17.7 27.4999 17.7 27.7999V33.5999C17.7 33.8999 17.5 34.2 17.1 34.2Z" fill="url(#paint1_linear_4093_18612)"/>
<path d="M33.5999 17.7H27.7999C27.4999 17.7 27.2 17.4 27.2 17.1C27.2 16.8 27.4999 16.5 27.7999 16.5H33.5999C33.8999 16.5 34.2 16.8 34.2 17.1C34.2 17.5 33.8999 17.7 33.5999 17.7Z" fill="url(#paint2_linear_4093_18612)"/>
<path d="M6.5 17.7H0.6C0.3 17.7 0 17.4 0 17.1C0 16.8 0.3 16.5 0.6 16.5H6.4C6.7 16.5 7 16.8 7 17.1C7.1 17.5 6.8 17.7 6.5 17.7Z" fill="url(#paint3_linear_4093_18612)"/>
<path d="M11.8 8.50005C11.6 8.50005 11.4 8.40005 11.3 8.20005L9.89995 5.90005C9.69995 5.60005 9.79995 5.20005 10.1 5.00005C10.4 4.80005 10.8 4.90005 11 5.20005L12.4 7.50005C12.6 7.80005 12.5 8.20005 12.2 8.40005C12 8.50005 11.9 8.50005 11.8 8.50005Z" fill="url(#paint4_linear_4093_18612)"/>
<path d="M23.7999 29.3001C23.5999 29.3001 23.3999 29.2001 23.2999 29.0001L21.9 26.7001C21.7 26.4001 21.8 26.0001 22.1 25.8001C22.4 25.6001 22.8 25.7001 23 26.0001L24.4 28.3001C24.6 28.6001 24.5 29.0001 24.2 29.2001C24 29.3001 23.8999 29.3001 23.7999 29.3001Z" fill="url(#paint5_linear_4093_18612)"/>
<path d="M26.3001 12.4001C26.1001 12.4001 25.9001 12.3001 25.8001 12.1001C25.6001 11.8001 25.7001 11.4001 26.0001 11.2001L28.3001 9.8001C28.6001 9.6001 29.0001 9.7001 29.2001 10.0001C29.4001 10.3001 29.3001 10.7001 29.0001 10.9001L26.7001 12.3001C26.5001 12.4001 26.4001 12.4001 26.3001 12.4001Z" fill="url(#paint6_linear_4093_18612)"/>
<path d="M5.50005 24.4001C5.30005 24.4001 5.10005 24.3001 5.00005 24.1001C4.80005 23.8001 4.90005 23.4001 5.20005 23.2001L7.50005 21.8001C7.80005 21.6001 8.20005 21.7001 8.40005 22.0001C8.60005 22.3001 8.50005 22.7001 8.20005 22.9001L5.90005 24.3001C5.80005 24.4001 5.70005 24.4001 5.50005 24.4001Z" fill="url(#paint7_linear_4093_18612)"/>
<path d="M7.90005 12.4C7.80005 12.4 7.70005 12.4 7.60005 12.3L5.20005 11C4.90005 10.8 4.80005 10.4 5.00005 10.1C5.20005 9.79995 5.60005 9.69995 5.90005 9.89995L8.20005 11.3C8.50005 11.5 8.60005 11.9 8.40005 12.2C8.30005 12.3 8.10005 12.4 7.90005 12.4Z" fill="url(#paint8_linear_4093_18612)"/>
<path d="M28.7001 24.4C28.6001 24.4 28.5001 24.3999 28.4001 24.2999L26.0001 23C25.7001 22.8 25.6001 22.4 25.8001 22.1C26.0001 21.8 26.4001 21.7 26.7001 21.9L29.0001 23.2999C29.3001 23.4999 29.4001 23.9 29.2001 24.2C29.1001 24.3 28.9001 24.4 28.7001 24.4Z" fill="url(#paint9_linear_4093_18612)"/>
<path d="M22.4 8.50005C22.3 8.50005 22.2 8.50005 22.1 8.40005C21.8 8.20005 21.7 7.80005 21.9 7.50005L23.2999 5.20005C23.4999 4.90005 23.9 4.80005 24.2 5.00005C24.5 5.20005 24.6 5.60005 24.4 5.90005L23 8.20005C22.9 8.40005 22.6 8.50005 22.4 8.50005Z" fill="url(#paint10_linear_4093_18612)"/>
<path d="M10.4 29.3001C10.3 29.3001 10.2 29.3001 10.1 29.2001C9.79995 29.0001 9.69995 28.6001 9.89995 28.3001L11.3 26.0001C11.5 25.7001 11.9 25.6001 12.2 25.8001C12.5 26.0001 12.6 26.4001 12.4 26.7001L11 29.0001C10.9 29.2001 10.6 29.3001 10.4 29.3001Z" fill="url(#paint11_linear_4093_18612)"/>
<path d="M11.8 8.50005C11.6 8.50005 11.4 8.40005 11.3 8.20005L9.89995 5.90005C9.69995 5.60005 9.79995 5.20005 10.1 5.00005C10.4 4.80005 10.8 4.90005 11 5.20005L12.4 7.50005C12.6 7.80005 12.5 8.20005 12.2 8.40005C12 8.50005 11.9 8.50005 11.8 8.50005Z" fill="url(#paint12_linear_4093_18612)"/>
<path d="M23.7999 29.3001C23.5999 29.3001 23.3999 29.2001 23.2999 29.0001L21.9 26.7001C21.7 26.4001 21.8 26.0001 22.1 25.8001C22.4 25.6001 22.8 25.7001 23 26.0001L24.4 28.3001C24.6 28.6001 24.5 29.0001 24.2 29.2001C24 29.3001 23.8999 29.3001 23.7999 29.3001Z" fill="url(#paint13_linear_4093_18612)"/>
<path d="M26.3001 12.4001C26.1001 12.4001 25.9001 12.3001 25.8001 12.1001C25.6001 11.8001 25.7001 11.4001 26.0001 11.2001L28.3001 9.8001C28.6001 9.6001 29.0001 9.7001 29.2001 10.0001C29.4001 10.3001 29.3001 10.7001 29.0001 10.9001L26.7001 12.3001C26.5001 12.4001 26.4001 12.4001 26.3001 12.4001Z" fill="url(#paint14_linear_4093_18612)"/>
<path d="M5.50005 24.4001C5.30005 24.4001 5.10005 24.3001 5.00005 24.1001C4.80005 23.8001 4.90005 23.4001 5.20005 23.2001L7.50005 21.8001C7.80005 21.6001 8.20005 21.7001 8.40005 22.0001C8.60005 22.3001 8.50005 22.7001 8.20005 22.9001L5.90005 24.3001C5.80005 24.4001 5.70005 24.4001 5.50005 24.4001Z" fill="url(#paint15_linear_4093_18612)"/>
<path d="M7.90005 12.4C7.80005 12.4 7.70005 12.4 7.60005 12.3L5.20005 11C4.90005 10.8 4.80005 10.4 5.00005 10.1C5.20005 9.79995 5.60005 9.69995 5.90005 9.89995L8.20005 11.3C8.50005 11.5 8.60005 11.9 8.40005 12.2C8.30005 12.3 8.10005 12.4 7.90005 12.4Z" fill="url(#paint16_linear_4093_18612)"/>
<path d="M28.7001 24.4C28.6001 24.4 28.5001 24.3999 28.4001 24.2999L26.0001 23C25.7001 22.8 25.6001 22.4 25.8001 22.1C26.0001 21.8 26.4001 21.7 26.7001 21.9L29.0001 23.2999C29.3001 23.4999 29.4001 23.9 29.2001 24.2C29.1001 24.3 28.9001 24.4 28.7001 24.4Z" fill="url(#paint17_linear_4093_18612)"/>
<path d="M22.4 8.50005C22.3 8.50005 22.2 8.50005 22.1 8.40005C21.8 8.20005 21.7 7.80005 21.9 7.50005L23.2999 5.20005C23.4999 4.90005 23.9 4.80005 24.2 5.00005C24.5 5.20005 24.6 5.60005 24.4 5.90005L23 8.20005C22.9 8.40005 22.6 8.50005 22.4 8.50005Z" fill="url(#paint18_linear_4093_18612)"/>
<path d="M10.4 29.3001C10.3 29.3001 10.2 29.3001 10.1 29.2001C9.79995 29.0001 9.69995 28.6001 9.89995 28.3001L11.3 26.0001C11.5 25.7001 11.9 25.6001 12.2 25.8001C12.5 26.0001 12.6 26.4001 12.4 26.7001L11 29.0001C10.9 29.2001 10.6 29.3001 10.4 29.3001Z" fill="url(#paint19_linear_4093_18612)"/>
<path d="M17.1 11.8999C16.9 11.8999 16.8 11.7999 16.8 11.5999V10.1999C16.8 9.9999 16.9 9.8999 17.1 9.8999C17.3 9.8999 17.4 9.9999 17.4 10.1999V11.5999C17.4 11.6999 17.3 11.8999 17.1 11.8999Z" fill="url(#paint20_linear_4093_18612)"/>
<path d="M17.1 24.3999C16.9 24.3999 16.8 24.2999 16.8 24.0999V22.6999C16.8 22.4999 16.9 22.3999 17.1 22.3999C17.3 22.3999 17.4 22.4999 17.4 22.6999V24.0999C17.4 24.2999 17.3 24.3999 17.1 24.3999Z" fill="url(#paint21_linear_4093_18612)"/>
<path d="M24.1001 17.3998H22.7001C22.5001 17.3998 22.4001 17.2998 22.4001 17.0998C22.4001 16.8998 22.5001 16.7998 22.7001 16.7998H24.1001C24.3001 16.7998 24.4001 16.8998 24.4001 17.0998C24.4001 17.2998 24.3001 17.3998 24.1001 17.3998Z" fill="url(#paint22_linear_4093_18612)"/>
<path d="M11.5 17.3998H10.1C9.90005 17.3998 9.80005 17.2998 9.80005 17.0998C9.80005 16.8998 9.90005 16.7998 10.1 16.7998H11.5C11.7 16.7998 11.8 16.8998 11.8 17.0998C11.9 17.2998 11.7 17.3998 11.5 17.3998Z" fill="url(#paint23_linear_4093_18612)"/>
<path d="M14.3 12.6C14.2 12.6 14.1 12.5 14 12.4L13.3 11.2C13.2 11.1 13.3 10.9 13.4 10.8C13.5 10.7 13.7 10.8 13.8 10.9L14.5 12.1C14.6 12.3 14.5 12.4 14.4 12.5C14.4 12.6 14.4 12.6 14.3 12.6Z" fill="url(#paint24_linear_4093_18612)"/>
<path d="M20.6 23.4999C20.5 23.4999 20.4 23.3999 20.3 23.2999L19.6 22.0999C19.5 21.9999 19.6 21.7999 19.7 21.6999C19.8 21.5999 20 21.6999 20.1 21.7999L20.8 22.9999C20.9 23.0999 20.8 23.2999 20.7 23.3999C20.7 23.4999 20.7 23.4999 20.6 23.4999Z" fill="url(#paint25_linear_4093_18612)"/>
<path d="M21.9 14.6C21.8 14.6 21.7 14.5 21.6 14.4C21.5 14.3 21.6 14.1 21.7 14L22.9 13.3C23 13.2 23.2 13.3 23.3 13.4C23.4 13.5 23.3 13.7 23.2 13.8L22 14.5C22 14.6 22 14.6 21.9 14.6Z" fill="url(#paint26_linear_4093_18612)"/>
<path d="M11.1 20.9C11 20.9 10.9 20.8 10.8 20.7C10.7 20.6 10.8 20.4 10.9 20.3L12.1 19.6C12.2 19.5 12.4 19.6 12.5 19.7C12.6 19.9 12.5 20 12.4 20.1L11.2 20.8C11.2 20.9 11.1 20.9 11.1 20.9Z" fill="url(#paint27_linear_4093_18612)"/>
<path d="M12.3 14.5998C12.2 14.5998 12.2 14.5998 12.1 14.5998L10.9 13.8998C10.8 13.7998 10.7 13.5998 10.8 13.4998C10.9 13.3998 11.1 13.2998 11.2 13.3998L12.4 14.0998C12.5 14.1998 12.6 14.3998 12.5 14.4998C12.5 14.5998 12.4 14.5998 12.3 14.5998Z" fill="url(#paint28_linear_4093_18612)"/>
<path d="M23.1999 20.8999C23.0999 20.8999 23.0999 20.8999 22.9999 20.8999L21.7999 20.1999C21.6999 20.0999 21.5999 19.8999 21.6999 19.7999C21.7999 19.6999 21.9999 19.5999 22.0999 19.6999L23.2999 20.3999C23.3999 20.4999 23.4999 20.6999 23.3999 20.7999C23.3999 20.8999 23.2999 20.8999 23.1999 20.8999Z" fill="url(#paint29_linear_4093_18612)"/>
<path d="M19.9 12.5999C19.8 12.5999 19.8 12.5999 19.7 12.5999C19.6 12.4999 19.5 12.2999 19.6 12.1999L20.3 10.9999C20.4 10.7999 20.6 10.7999 20.7 10.8999C20.8 10.9999 20.9 11.1999 20.8 11.2999L20.1 12.4999C20.1 12.4999 20 12.5999 19.9 12.5999Z" fill="url(#paint30_linear_4093_18612)"/>
<path d="M13.6 23.5C13.5 23.5 13.5 23.5 13.4 23.5C13.3 23.4 13.2 23.2 13.3 23.1L14 21.9C14.1 21.8 14.3 21.7 14.4 21.8C14.5 21.9 14.6 22.1 14.5 22.2L13.8 23.4C13.8 23.4 13.7 23.5 13.6 23.5Z" fill="url(#paint31_linear_4093_18612)"/>
<path d="M20 17.1C20 18.7 18.7 20 17.1 20C15.5 20 14.2 18.7 14.2 17.1C14.2 15.5 15.5 14.2 17.1 14.2C18.7 14.2 20 15.5 20 17.1Z" fill="url(#paint32_linear_4093_18612)"/>
<path d="M228.801 7.1C228.501 7.1 228.201 6.8 228.201 6.5V0.6C228.201 0.3 228.501 0 228.801 0C229.101 0 229.401 0.3 229.401 0.6V6.4C229.401 6.8 229.201 7.1 228.801 7.1Z" fill="url(#paint33_linear_4093_18612)"/>
<path d="M228.801 34.2C228.501 34.2 228.201 33.8999 228.201 33.5999V27.7999C228.201 27.4999 228.501 27.2 228.801 27.2C229.101 27.2 229.401 27.4999 229.401 27.7999V33.5999C229.401 33.8999 229.201 34.2 228.801 34.2Z" fill="url(#paint34_linear_4093_18612)"/>
<path d="M245.301 17.7H239.501C239.201 17.7 238.901 17.4 238.901 17.1C238.901 16.8 239.201 16.5 239.501 16.5H245.301C245.601 16.5 245.901 16.8 245.901 17.1C245.901 17.5 245.601 17.7 245.301 17.7Z" fill="url(#paint35_linear_4093_18612)"/>
<path d="M218.201 17.7H212.401C212.101 17.7 211.801 17.4 211.801 17.1C211.801 16.8 212.101 16.5 212.401 16.5H218.201C218.501 16.5 218.801 16.8 218.801 17.1C218.801 17.5 218.501 17.7 218.201 17.7Z" fill="url(#paint36_linear_4093_18612)"/>
<path d="M223.501 8.50005C223.301 8.50005 223.101 8.40005 223.001 8.20005L221.601 5.90005C221.401 5.60005 221.501 5.20005 221.801 5.00005C222.101 4.80005 222.501 4.90005 222.701 5.20005L224.101 7.50005C224.301 7.80005 224.201 8.20005 223.901 8.40005C223.701 8.50005 223.601 8.50005 223.501 8.50005Z" fill="url(#paint37_linear_4093_18612)"/>
<path d="M235.501 29.3001C235.301 29.3001 235.101 29.2001 235.001 29.0001L233.601 26.7001C233.401 26.4001 233.501 26.0001 233.801 25.8001C234.101 25.6001 234.501 25.7001 234.701 26.0001L236.101 28.3001C236.301 28.6001 236.201 29.0001 235.901 29.2001C235.701 29.3001 235.601 29.3001 235.501 29.3001Z" fill="url(#paint38_linear_4093_18612)"/>
<path d="M238.001 12.4001C237.801 12.4001 237.601 12.3001 237.501 12.1001C237.301 11.8001 237.401 11.4001 237.701 11.2001L240.001 9.8001C240.301 9.6001 240.701 9.7001 240.901 10.0001C241.101 10.3001 241.001 10.7001 240.701 10.9001L238.401 12.3001C238.201 12.4001 238.101 12.4001 238.001 12.4001Z" fill="url(#paint39_linear_4093_18612)"/>
<path d="M217.301 24.4001C217.101 24.4001 216.901 24.3001 216.801 24.1001C216.601 23.8001 216.701 23.4001 217.001 23.2001L219.301 21.8001C219.601 21.6001 220.001 21.7001 220.201 22.0001C220.401 22.3001 220.301 22.7001 220.001 22.9001L217.701 24.3001C217.501 24.4001 217.401 24.4001 217.301 24.4001Z" fill="url(#paint40_linear_4093_18612)"/>
<path d="M219.601 12.4001C219.501 12.4001 219.401 12.4001 219.301 12.3001L217.001 10.9001C216.701 10.7001 216.601 10.3001 216.801 10.0001C217.001 9.7001 217.401 9.6001 217.701 9.8001L220.001 11.2001C220.301 11.4001 220.401 11.8001 220.201 12.1001C220.001 12.3001 219.801 12.4001 219.601 12.4001Z" fill="url(#paint41_linear_4093_18612)"/>
<path d="M240.401 24.4001C240.301 24.4001 240.201 24.4001 240.101 24.3001L237.801 22.9001C237.501 22.7001 237.401 22.3001 237.601 22.0001C237.801 21.7001 238.201 21.6001 238.501 21.8001L240.801 23.2001C241.101 23.4001 241.201 23.8001 241.001 24.1001C240.801 24.3001 240.601 24.4001 240.401 24.4001Z" fill="url(#paint42_linear_4093_18612)"/>
<path d="M234.101 8.50005C234.001 8.50005 233.901 8.50005 233.801 8.40005C233.501 8.20005 233.401 7.80005 233.601 7.50005L235.001 5.20005C235.201 4.90005 235.601 4.80005 235.901 5.00005C236.201 5.20005 236.301 5.60005 236.101 5.90005L234.701 8.20005C234.601 8.40005 234.401 8.50005 234.101 8.50005Z" fill="url(#paint43_linear_4093_18612)"/>
<path d="M222.101 29.3001C222.001 29.3001 221.901 29.3001 221.801 29.2001C221.501 29.0001 221.401 28.6001 221.601 28.3001L223.001 26.0001C223.201 25.7001 223.601 25.6001 223.901 25.8001C224.201 26.0001 224.301 26.4001 224.101 26.7001L222.701 29.0001C222.601 29.2001 222.401 29.3001 222.101 29.3001Z" fill="url(#paint44_linear_4093_18612)"/>
<path d="M223.501 8.50005C223.301 8.50005 223.101 8.40005 223.001 8.20005L221.601 5.90005C221.401 5.60005 221.501 5.20005 221.801 5.00005C222.101 4.80005 222.501 4.90005 222.701 5.20005L224.101 7.50005C224.301 7.80005 224.201 8.20005 223.901 8.40005C223.701 8.50005 223.601 8.50005 223.501 8.50005Z" fill="url(#paint45_linear_4093_18612)"/>
<path d="M235.501 29.3001C235.301 29.3001 235.101 29.2001 235.001 29.0001L233.601 26.7001C233.401 26.4001 233.501 26.0001 233.801 25.8001C234.101 25.6001 234.501 25.7001 234.701 26.0001L236.101 28.3001C236.301 28.6001 236.201 29.0001 235.901 29.2001C235.701 29.3001 235.601 29.3001 235.501 29.3001Z" fill="url(#paint46_linear_4093_18612)"/>
<path d="M238.001 12.4001C237.801 12.4001 237.601 12.3001 237.501 12.1001C237.301 11.8001 237.401 11.4001 237.701 11.2001L240.001 9.8001C240.301 9.6001 240.701 9.7001 240.901 10.0001C241.101 10.3001 241.001 10.7001 240.701 10.9001L238.401 12.3001C238.201 12.4001 238.101 12.4001 238.001 12.4001Z" fill="url(#paint47_linear_4093_18612)"/>
<path d="M217.301 24.4001C217.101 24.4001 216.901 24.3001 216.801 24.1001C216.601 23.8001 216.701 23.4001 217.001 23.2001L219.301 21.8001C219.601 21.6001 220.001 21.7001 220.201 22.0001C220.401 22.3001 220.301 22.7001 220.001 22.9001L217.701 24.3001C217.501 24.4001 217.401 24.4001 217.301 24.4001Z" fill="url(#paint48_linear_4093_18612)"/>
<path d="M219.601 12.4001C219.501 12.4001 219.401 12.4001 219.301 12.3001L217.001 10.9001C216.701 10.7001 216.601 10.3001 216.801 10.0001C217.001 9.7001 217.401 9.6001 217.701 9.8001L220.001 11.2001C220.301 11.4001 220.401 11.8001 220.201 12.1001C220.001 12.3001 219.801 12.4001 219.601 12.4001Z" fill="url(#paint49_linear_4093_18612)"/>
<path d="M240.401 24.4001C240.301 24.4001 240.201 24.4001 240.101 24.3001L237.801 22.9001C237.501 22.7001 237.401 22.3001 237.601 22.0001C237.801 21.7001 238.201 21.6001 238.501 21.8001L240.801 23.2001C241.101 23.4001 241.201 23.8001 241.001 24.1001C240.801 24.3001 240.601 24.4001 240.401 24.4001Z" fill="url(#paint50_linear_4093_18612)"/>
<path d="M234.101 8.50005C234.001 8.50005 233.901 8.50005 233.801 8.40005C233.501 8.20005 233.401 7.80005 233.601 7.50005L235.001 5.20005C235.201 4.90005 235.601 4.80005 235.901 5.00005C236.201 5.20005 236.301 5.60005 236.101 5.90005L234.701 8.20005C234.601 8.40005 234.401 8.50005 234.101 8.50005Z" fill="url(#paint51_linear_4093_18612)"/>
<path d="M222.101 29.3001C222.001 29.3001 221.901 29.3001 221.801 29.2001C221.501 29.0001 221.401 28.6001 221.601 28.3001L223.001 26.0001C223.201 25.7001 223.601 25.6001 223.901 25.8001C224.201 26.0001 224.301 26.4001 224.101 26.7001L222.701 29.0001C222.601 29.2001 222.401 29.3001 222.101 29.3001Z" fill="url(#paint52_linear_4093_18612)"/>
<path d="M228.801 11.8999C228.601 11.8999 228.501 11.7999 228.501 11.5999V10.1999C228.501 9.9999 228.601 9.8999 228.801 9.8999C229.001 9.8999 229.101 9.9999 229.101 10.1999V11.5999C229.101 11.6999 229.001 11.8999 228.801 11.8999Z" fill="url(#paint53_linear_4093_18612)"/>
<path d="M228.801 24.3999C228.601 24.3999 228.501 24.2999 228.501 24.0999V22.6999C228.501 22.4999 228.601 22.3999 228.801 22.3999C229.001 22.3999 229.101 22.4999 229.101 22.6999V24.0999C229.101 24.2999 229.001 24.3999 228.801 24.3999Z" fill="url(#paint54_linear_4093_18612)"/>
<path d="M235.801 17.3998H234.401C234.201 17.3998 234.101 17.2998 234.101 17.0998C234.101 16.8998 234.201 16.7998 234.401 16.7998H235.801C236.001 16.7998 236.101 16.8998 236.101 17.0998C236.101 17.2998 236.001 17.3998 235.801 17.3998Z" fill="url(#paint55_linear_4093_18612)"/>
<path d="M223.301 17.3998H221.901C221.701 17.3998 221.601 17.2998 221.601 17.0998C221.601 16.8998 221.701 16.7998 221.901 16.7998H223.301C223.501 16.7998 223.601 16.8998 223.601 17.0998C223.601 17.2998 223.401 17.3998 223.301 17.3998Z" fill="url(#paint56_linear_4093_18612)"/>
<path d="M226.001 12.6C225.901 12.6 225.801 12.5 225.701 12.4L225.001 11.2C224.901 11.1 225.001 10.9 225.101 10.8C225.201 10.7 225.401 10.8 225.501 10.9L226.201 12.1C226.301 12.3 226.201 12.4 226.101 12.5C226.101 12.6 226.101 12.6 226.001 12.6Z" fill="url(#paint57_linear_4093_18612)"/>
<path d="M232.301 23.4999C232.201 23.4999 232.101 23.3999 232.001 23.2999L231.301 22.0999C231.201 21.9999 231.301 21.7999 231.401 21.6999C231.501 21.5999 231.701 21.6999 231.801 21.7999L232.501 22.9999C232.601 23.0999 232.501 23.2999 232.401 23.3999C232.401 23.4999 232.401 23.4999 232.301 23.4999Z" fill="url(#paint58_linear_4093_18612)"/>
<path d="M233.601 14.6C233.501 14.6 233.401 14.5 233.301 14.4C233.201 14.3 233.301 14.1 233.401 14L234.601 13.3C234.701 13.2 234.901 13.3 235.001 13.4C235.101 13.5 235.001 13.7 234.901 13.8L233.701 14.5C233.701 14.6 233.701 14.6 233.601 14.6Z" fill="url(#paint59_linear_4093_18612)"/>
<path d="M222.801 20.9C222.701 20.9 222.601 20.8 222.501 20.7C222.401 20.6 222.501 20.4 222.601 20.3L223.801 19.6C223.901 19.5 224.101 19.6 224.201 19.7C224.301 19.9 224.201 20 224.101 20.1L222.901 20.8C222.901 20.9 222.801 20.9 222.801 20.9Z" fill="url(#paint60_linear_4093_18612)"/>
<path d="M224.001 14.5998C223.901 14.5998 223.901 14.5998 223.801 14.5998L222.601 13.8998C222.501 13.7998 222.401 13.5998 222.501 13.4998C222.601 13.3998 222.801 13.2998 222.901 13.3998L224.101 14.0998C224.301 14.1998 224.301 14.3998 224.201 14.4998C224.201 14.5998 224.101 14.5998 224.001 14.5998Z" fill="url(#paint61_linear_4093_18612)"/>
<path d="M234.901 20.8999C234.801 20.8999 234.801 20.8999 234.701 20.8999L233.501 20.1999C233.401 20.0999 233.301 19.8999 233.401 19.7999C233.501 19.6999 233.701 19.5999 233.801 19.6999L235.001 20.3999C235.201 20.4999 235.201 20.6999 235.101 20.7999C235.101 20.8999 235.001 20.8999 234.901 20.8999Z" fill="url(#paint62_linear_4093_18612)"/>
<path d="M231.601 12.5999C231.501 12.5999 231.501 12.5999 231.401 12.5999C231.201 12.4999 231.201 12.2999 231.301 12.1999L232.001 10.9999C232.101 10.7999 232.301 10.7999 232.401 10.8999C232.601 10.9999 232.601 11.1999 232.501 11.2999L231.801 12.4999C231.801 12.4999 231.701 12.5999 231.601 12.5999Z" fill="url(#paint63_linear_4093_18612)"/>
<path d="M225.301 23.5C225.201 23.5 225.201 23.5 225.101 23.5C224.901 23.4 224.901 23.2 225.001 23.1L225.701 21.9C225.801 21.8 226.001 21.7 226.101 21.8C226.201 21.9 226.301 22.1 226.201 22.2L225.501 23.4C225.501 23.4 225.401 23.5 225.301 23.5Z" fill="url(#paint64_linear_4093_18612)"/>
<path d="M231.701 17.1C231.701 18.7 230.401 20 228.801 20C227.201 20 225.901 18.7 225.901 17.1C225.901 15.5 227.201 14.2 228.801 14.2C230.401 14.2 231.701 15.5 231.701 17.1Z" fill="url(#paint65_linear_4093_18612)"/>
<defs>
<linearGradient id="paint0_linear_4093_18612" x1="16.481" y1="3.5464" x2="17.7329" y2="3.5464" gradientUnits="userSpaceOnUse">
<stop stop-color="#BC7D2A"/>
<stop offset="0.5161" stop-color="#FDEB8A"/>
<stop offset="1" stop-color="#BC7D2A"/>
</linearGradient>
<linearGradient id="paint1_linear_4093_18612" x1="16.481" y1="30.6679" x2="17.7329" y2="30.6679" gradientUnits="userSpaceOnUse">
<stop stop-color="#BC7D2A"/>
<stop offset="0.5161" stop-color="#FDEB8A"/>
<stop offset="1" stop-color="#BC7D2A"/>
</linearGradient>
<linearGradient id="paint2_linear_4093_18612" x1="27.1206" y1="17.1064" x2="34.2144" y2="17.1064" gradientUnits="userSpaceOnUse">
<stop stop-color="#BC7D2A"/>
<stop offset="0.5161" stop-color="#FDEB8A"/>
<stop offset="1" stop-color="#BC7D2A"/>
</linearGradient>
<linearGradient id="paint3_linear_4093_18612" x1="0" y1="17.1064" x2="7.0933" y2="17.1064" gradientUnits="userSpaceOnUse">
<stop stop-color="#BC7D2A"/>
<stop offset="0.5161" stop-color="#FDEB8A"/>
<stop offset="1" stop-color="#BC7D2A"/>
</linearGradient>
<linearGradient id="paint4_linear_4093_18612" x1="9.80515" y1="6.71855" x2="12.4127" y2="6.71855" gradientUnits="userSpaceOnUse">
<stop stop-color="#BC7D2A"/>
<stop offset="0.5161" stop-color="#FDEB8A"/>
<stop offset="1" stop-color="#BC7D2A"/>
</linearGradient>
<linearGradient id="paint5_linear_4093_18612" x1="21.8008" y1="27.4954" x2="24.4088" y2="27.4954" gradientUnits="userSpaceOnUse">
<stop stop-color="#BC7D2A"/>
<stop offset="0.5161" stop-color="#FDEB8A"/>
<stop offset="1" stop-color="#BC7D2A"/>
</linearGradient>
<linearGradient id="paint6_linear_4093_18612" x1="25.6955" y1="11.1084" x2="29.2957" y2="11.1084" gradientUnits="userSpaceOnUse">
<stop stop-color="#BC7D2A"/>
<stop offset="0.5161" stop-color="#FDEB8A"/>
<stop offset="1" stop-color="#BC7D2A"/>
</linearGradient>
<linearGradient id="paint7_linear_4093_18612" x1="4.91805" y1="23.1043" x2="8.51885" y2="23.1043" gradientUnits="userSpaceOnUse">
<stop stop-color="#BC7D2A"/>
<stop offset="0.5161" stop-color="#FDEB8A"/>
<stop offset="1" stop-color="#BC7D2A"/>
</linearGradient>
<linearGradient id="paint8_linear_4093_18612" x1="4.91805" y1="11.1083" x2="8.51875" y2="11.1083" gradientUnits="userSpaceOnUse">
<stop stop-color="#BC7D2A"/>
<stop offset="0.5161" stop-color="#FDEB8A"/>
<stop offset="1" stop-color="#BC7D2A"/>
</linearGradient>
<linearGradient id="paint9_linear_4093_18612" x1="25.6953" y1="23.1042" x2="29.2958" y2="23.1042" gradientUnits="userSpaceOnUse">
<stop stop-color="#BC7D2A"/>
<stop offset="0.5161" stop-color="#FDEB8A"/>
<stop offset="1" stop-color="#BC7D2A"/>
</linearGradient>
<linearGradient id="paint10_linear_4093_18612" x1="21.8008" y1="6.71855" x2="24.4088" y2="6.71855" gradientUnits="userSpaceOnUse">
<stop stop-color="#BC7D2A"/>
<stop offset="0.5161" stop-color="#FDEB8A"/>
<stop offset="1" stop-color="#BC7D2A"/>
</linearGradient>
<linearGradient id="paint11_linear_4093_18612" x1="9.80515" y1="27.4955" x2="12.4127" y2="27.4955" gradientUnits="userSpaceOnUse">
<stop stop-color="#BC7D2A"/>
<stop offset="0.5161" stop-color="#FDEB8A"/>
<stop offset="1" stop-color="#BC7D2A"/>
</linearGradient>
<linearGradient id="paint12_linear_4093_18612" x1="9.80515" y1="6.71855" x2="12.4127" y2="6.71855" gradientUnits="userSpaceOnUse">
<stop stop-color="#BC7D2A"/>
<stop offset="0.5161" stop-color="#FDEB8A"/>
<stop offset="1" stop-color="#BC7D2A"/>
</linearGradient>
<linearGradient id="paint13_linear_4093_18612" x1="21.8008" y1="27.4954" x2="24.4088" y2="27.4954" gradientUnits="userSpaceOnUse">
<stop stop-color="#BC7D2A"/>
<stop offset="0.5161" stop-color="#FDEB8A"/>
<stop offset="1" stop-color="#BC7D2A"/>
</linearGradient>
<linearGradient id="paint14_linear_4093_18612" x1="25.6955" y1="11.1084" x2="29.2957" y2="11.1084" gradientUnits="userSpaceOnUse">
<stop stop-color="#BC7D2A"/>
<stop offset="0.5161" stop-color="#FDEB8A"/>
<stop offset="1" stop-color="#BC7D2A"/>
</linearGradient>
<linearGradient id="paint15_linear_4093_18612" x1="4.91805" y1="23.1043" x2="8.51885" y2="23.1043" gradientUnits="userSpaceOnUse">
<stop stop-color="#BC7D2A"/>
<stop offset="0.5161" stop-color="#FDEB8A"/>
<stop offset="1" stop-color="#BC7D2A"/>
</linearGradient>
<linearGradient id="paint16_linear_4093_18612" x1="4.91805" y1="11.1083" x2="8.51875" y2="11.1083" gradientUnits="userSpaceOnUse">
<stop stop-color="#BC7D2A"/>
<stop offset="0.5161" stop-color="#FDEB8A"/>
<stop offset="1" stop-color="#BC7D2A"/>
</linearGradient>
<linearGradient id="paint17_linear_4093_18612" x1="25.6953" y1="23.1042" x2="29.2958" y2="23.1042" gradientUnits="userSpaceOnUse">
<stop stop-color="#BC7D2A"/>
<stop offset="0.5161" stop-color="#FDEB8A"/>
<stop offset="1" stop-color="#BC7D2A"/>
</linearGradient>
<linearGradient id="paint18_linear_4093_18612" x1="21.8008" y1="6.71855" x2="24.4088" y2="6.71855" gradientUnits="userSpaceOnUse">
<stop stop-color="#BC7D2A"/>
<stop offset="0.5161" stop-color="#FDEB8A"/>
<stop offset="1" stop-color="#BC7D2A"/>
</linearGradient>
<linearGradient id="paint19_linear_4093_18612" x1="9.80515" y1="27.4955" x2="12.4127" y2="27.4955" gradientUnits="userSpaceOnUse">
<stop stop-color="#BC7D2A"/>
<stop offset="0.5161" stop-color="#FDEB8A"/>
<stop offset="1" stop-color="#BC7D2A"/>
</linearGradient>
<linearGradient id="paint20_linear_4093_18612" x1="16.794" y1="10.8276" x2="17.4199" y2="10.8276" gradientUnits="userSpaceOnUse">
<stop stop-color="#BC7D2A"/>
<stop offset="0.5161" stop-color="#FDEB8A"/>
<stop offset="1" stop-color="#BC7D2A"/>
</linearGradient>
<linearGradient id="paint21_linear_4093_18612" x1="16.794" y1="23.3856" x2="17.4199" y2="23.3856" gradientUnits="userSpaceOnUse">
<stop stop-color="#BC7D2A"/>
<stop offset="0.5161" stop-color="#FDEB8A"/>
<stop offset="1" stop-color="#BC7D2A"/>
</linearGradient>
<linearGradient id="paint22_linear_4093_18612" x1="22.3629" y1="17.1067" x2="24.4088" y2="17.1067" gradientUnits="userSpaceOnUse">
<stop stop-color="#BC7D2A"/>
<stop offset="0.5161" stop-color="#FDEB8A"/>
<stop offset="1" stop-color="#BC7D2A"/>
</linearGradient>
<linearGradient id="paint23_linear_4093_18612" x1="9.80525" y1="17.1067" x2="11.8506" y2="17.1067" gradientUnits="userSpaceOnUse">
<stop stop-color="#BC7D2A"/>
<stop offset="0.5161" stop-color="#FDEB8A"/>
<stop offset="1" stop-color="#BC7D2A"/>
</linearGradient>
<linearGradient id="paint24_linear_4093_18612" x1="13.2995" y1="11.6688" x2="14.6353" y2="11.6688" gradientUnits="userSpaceOnUse">
<stop stop-color="#BC7D2A"/>
<stop offset="0.5161" stop-color="#FDEB8A"/>
<stop offset="1" stop-color="#BC7D2A"/>
</linearGradient>
<linearGradient id="paint25_linear_4093_18612" x1="19.5783" y1="22.5449" x2="20.9146" y2="22.5449" gradientUnits="userSpaceOnUse">
<stop stop-color="#BC7D2A"/>
<stop offset="0.5161" stop-color="#FDEB8A"/>
<stop offset="1" stop-color="#BC7D2A"/>
</linearGradient>
<linearGradient id="paint26_linear_4093_18612" x1="21.617" y1="13.967" x2="23.4727" y2="13.967" gradientUnits="userSpaceOnUse">
<stop stop-color="#BC7D2A"/>
<stop offset="0.5161" stop-color="#FDEB8A"/>
<stop offset="1" stop-color="#BC7D2A"/>
</linearGradient>
<linearGradient id="paint27_linear_4093_18612" x1="10.7414" y1="20.2463" x2="12.5969" y2="20.2463" gradientUnits="userSpaceOnUse">
<stop stop-color="#BC7D2A"/>
<stop offset="0.5161" stop-color="#FDEB8A"/>
<stop offset="1" stop-color="#BC7D2A"/>
</linearGradient>
<linearGradient id="paint28_linear_4093_18612" x1="10.7414" y1="13.9668" x2="12.5969" y2="13.9668" gradientUnits="userSpaceOnUse">
<stop stop-color="#BC7D2A"/>
<stop offset="0.5161" stop-color="#FDEB8A"/>
<stop offset="1" stop-color="#BC7D2A"/>
</linearGradient>
<linearGradient id="paint29_linear_4093_18612" x1="21.6169" y1="20.2462" x2="23.4726" y2="20.2462" gradientUnits="userSpaceOnUse">
<stop stop-color="#BC7D2A"/>
<stop offset="0.5161" stop-color="#FDEB8A"/>
<stop offset="1" stop-color="#BC7D2A"/>
</linearGradient>
<linearGradient id="paint30_linear_4093_18612" x1="19.5783" y1="11.6687" x2="20.9146" y2="11.6687" gradientUnits="userSpaceOnUse">
<stop stop-color="#BC7D2A"/>
<stop offset="0.5161" stop-color="#FDEB8A"/>
<stop offset="1" stop-color="#BC7D2A"/>
</linearGradient>
<linearGradient id="paint31_linear_4093_18612" x1="13.2995" y1="22.545" x2="14.6353" y2="22.545" gradientUnits="userSpaceOnUse">
<stop stop-color="#BC7D2A"/>
<stop offset="0.5161" stop-color="#FDEB8A"/>
<stop offset="1" stop-color="#BC7D2A"/>
</linearGradient>
<linearGradient id="paint32_linear_4093_18612" x1="14.1861" y1="17.1069" x2="20.0278" y2="17.1069" gradientUnits="userSpaceOnUse">
<stop stop-color="#BC7D2A"/>
<stop offset="0.5161" stop-color="#FDEB8A"/>
<stop offset="1" stop-color="#BC7D2A"/>
</linearGradient>
<linearGradient id="paint33_linear_4093_18612" x1="228.194" y1="3.5464" x2="229.446" y2="3.5464" gradientUnits="userSpaceOnUse">
<stop stop-color="#BC7D2A"/>
<stop offset="0.5161" stop-color="#FDEB8A"/>
<stop offset="1" stop-color="#BC7D2A"/>
</linearGradient>
<linearGradient id="paint34_linear_4093_18612" x1="228.194" y1="30.6679" x2="229.446" y2="30.6679" gradientUnits="userSpaceOnUse">
<stop stop-color="#BC7D2A"/>
<stop offset="0.5161" stop-color="#FDEB8A"/>
<stop offset="1" stop-color="#BC7D2A"/>
</linearGradient>
<linearGradient id="paint35_linear_4093_18612" x1="238.834" y1="17.1064" x2="245.927" y2="17.1064" gradientUnits="userSpaceOnUse">
<stop stop-color="#BC7D2A"/>
<stop offset="0.5161" stop-color="#FDEB8A"/>
<stop offset="1" stop-color="#BC7D2A"/>
</linearGradient>
<linearGradient id="paint36_linear_4093_18612" x1="211.712" y1="17.1064" x2="218.805" y2="17.1064" gradientUnits="userSpaceOnUse">
<stop stop-color="#BC7D2A"/>
<stop offset="0.5161" stop-color="#FDEB8A"/>
<stop offset="1" stop-color="#BC7D2A"/>
</linearGradient>
<linearGradient id="paint37_linear_4093_18612" x1="221.518" y1="6.71855" x2="224.126" y2="6.71855" gradientUnits="userSpaceOnUse">
<stop stop-color="#BC7D2A"/>
<stop offset="0.5161" stop-color="#FDEB8A"/>
<stop offset="1" stop-color="#BC7D2A"/>
</linearGradient>
<linearGradient id="paint38_linear_4093_18612" x1="233.513" y1="27.4954" x2="236.121" y2="27.4954" gradientUnits="userSpaceOnUse">
<stop stop-color="#BC7D2A"/>
<stop offset="0.5161" stop-color="#FDEB8A"/>
<stop offset="1" stop-color="#BC7D2A"/>
</linearGradient>
<linearGradient id="paint39_linear_4093_18612" x1="237.408" y1="11.1084" x2="241.009" y2="11.1084" gradientUnits="userSpaceOnUse">
<stop stop-color="#BC7D2A"/>
<stop offset="0.5161" stop-color="#FDEB8A"/>
<stop offset="1" stop-color="#BC7D2A"/>
</linearGradient>
<linearGradient id="paint40_linear_4093_18612" x1="216.631" y1="23.1043" x2="220.232" y2="23.1043" gradientUnits="userSpaceOnUse">
<stop stop-color="#BC7D2A"/>
<stop offset="0.5161" stop-color="#FDEB8A"/>
<stop offset="1" stop-color="#BC7D2A"/>
</linearGradient>
<linearGradient id="paint41_linear_4093_18612" x1="216.631" y1="11.1084" x2="220.231" y2="11.1084" gradientUnits="userSpaceOnUse">
<stop stop-color="#BC7D2A"/>
<stop offset="0.5161" stop-color="#FDEB8A"/>
<stop offset="1" stop-color="#BC7D2A"/>
</linearGradient>
<linearGradient id="paint42_linear_4093_18612" x1="237.408" y1="23.1043" x2="241.009" y2="23.1043" gradientUnits="userSpaceOnUse">
<stop stop-color="#BC7D2A"/>
<stop offset="0.5161" stop-color="#FDEB8A"/>
<stop offset="1" stop-color="#BC7D2A"/>
</linearGradient>
<linearGradient id="paint43_linear_4093_18612" x1="233.513" y1="6.71855" x2="236.121" y2="6.71855" gradientUnits="userSpaceOnUse">
<stop stop-color="#BC7D2A"/>
<stop offset="0.5161" stop-color="#FDEB8A"/>
<stop offset="1" stop-color="#BC7D2A"/>
</linearGradient>
<linearGradient id="paint44_linear_4093_18612" x1="221.518" y1="27.4955" x2="224.126" y2="27.4955" gradientUnits="userSpaceOnUse">
<stop stop-color="#BC7D2A"/>
<stop offset="0.5161" stop-color="#FDEB8A"/>
<stop offset="1" stop-color="#BC7D2A"/>
</linearGradient>
<linearGradient id="paint45_linear_4093_18612" x1="221.518" y1="6.71855" x2="224.126" y2="6.71855" gradientUnits="userSpaceOnUse">
<stop stop-color="#BC7D2A"/>
<stop offset="0.5161" stop-color="#FDEB8A"/>
<stop offset="1" stop-color="#BC7D2A"/>
</linearGradient>
<linearGradient id="paint46_linear_4093_18612" x1="233.513" y1="27.4954" x2="236.121" y2="27.4954" gradientUnits="userSpaceOnUse">
<stop stop-color="#BC7D2A"/>
<stop offset="0.5161" stop-color="#FDEB8A"/>
<stop offset="1" stop-color="#BC7D2A"/>
</linearGradient>
<linearGradient id="paint47_linear_4093_18612" x1="237.408" y1="11.1084" x2="241.009" y2="11.1084" gradientUnits="userSpaceOnUse">
<stop stop-color="#BC7D2A"/>
<stop offset="0.5161" stop-color="#FDEB8A"/>
<stop offset="1" stop-color="#BC7D2A"/>
</linearGradient>
<linearGradient id="paint48_linear_4093_18612" x1="216.631" y1="23.1043" x2="220.232" y2="23.1043" gradientUnits="userSpaceOnUse">
<stop stop-color="#BC7D2A"/>
<stop offset="0.5161" stop-color="#FDEB8A"/>
<stop offset="1" stop-color="#BC7D2A"/>
</linearGradient>
<linearGradient id="paint49_linear_4093_18612" x1="216.631" y1="11.1084" x2="220.231" y2="11.1084" gradientUnits="userSpaceOnUse">
<stop stop-color="#BC7D2A"/>
<stop offset="0.5161" stop-color="#FDEB8A"/>
<stop offset="1" stop-color="#BC7D2A"/>
</linearGradient>
<linearGradient id="paint50_linear_4093_18612" x1="237.408" y1="23.1043" x2="241.009" y2="23.1043" gradientUnits="userSpaceOnUse">
<stop stop-color="#BC7D2A"/>
<stop offset="0.5161" stop-color="#FDEB8A"/>
<stop offset="1" stop-color="#BC7D2A"/>
</linearGradient>
<linearGradient id="paint51_linear_4093_18612" x1="233.513" y1="6.71855" x2="236.121" y2="6.71855" gradientUnits="userSpaceOnUse">
<stop stop-color="#BC7D2A"/>
<stop offset="0.5161" stop-color="#FDEB8A"/>
<stop offset="1" stop-color="#BC7D2A"/>
</linearGradient>
<linearGradient id="paint52_linear_4093_18612" x1="221.518" y1="27.4955" x2="224.126" y2="27.4955" gradientUnits="userSpaceOnUse">
<stop stop-color="#BC7D2A"/>
<stop offset="0.5161" stop-color="#FDEB8A"/>
<stop offset="1" stop-color="#BC7D2A"/>
</linearGradient>
<linearGradient id="paint53_linear_4093_18612" x1="228.507" y1="10.8276" x2="229.134" y2="10.8276" gradientUnits="userSpaceOnUse">
<stop stop-color="#BC7D2A"/>
<stop offset="0.5161" stop-color="#FDEB8A"/>
<stop offset="1" stop-color="#BC7D2A"/>
</linearGradient>
<linearGradient id="paint54_linear_4093_18612" x1="228.507" y1="23.3856" x2="229.134" y2="23.3856" gradientUnits="userSpaceOnUse">
<stop stop-color="#BC7D2A"/>
<stop offset="0.5161" stop-color="#FDEB8A"/>
<stop offset="1" stop-color="#BC7D2A"/>
</linearGradient>
<linearGradient id="paint55_linear_4093_18612" x1="234.075" y1="17.1067" x2="236.122" y2="17.1067" gradientUnits="userSpaceOnUse">
<stop stop-color="#BC7D2A"/>
<stop offset="0.5161" stop-color="#FDEB8A"/>
<stop offset="1" stop-color="#BC7D2A"/>
</linearGradient>
<linearGradient id="paint56_linear_4093_18612" x1="221.518" y1="17.1067" x2="223.563" y2="17.1067" gradientUnits="userSpaceOnUse">
<stop stop-color="#BC7D2A"/>
<stop offset="0.5161" stop-color="#FDEB8A"/>
<stop offset="1" stop-color="#BC7D2A"/>
</linearGradient>
<linearGradient id="paint57_linear_4093_18612" x1="225.012" y1="11.6688" x2="226.348" y2="11.6688" gradientUnits="userSpaceOnUse">
<stop stop-color="#BC7D2A"/>
<stop offset="0.5161" stop-color="#FDEB8A"/>
<stop offset="1" stop-color="#BC7D2A"/>
</linearGradient>
<linearGradient id="paint58_linear_4093_18612" x1="231.292" y1="22.5449" x2="232.627" y2="22.5449" gradientUnits="userSpaceOnUse">
<stop stop-color="#BC7D2A"/>
<stop offset="0.5161" stop-color="#FDEB8A"/>
<stop offset="1" stop-color="#BC7D2A"/>
</linearGradient>
<linearGradient id="paint59_linear_4093_18612" x1="233.33" y1="13.967" x2="235.186" y2="13.967" gradientUnits="userSpaceOnUse">
<stop stop-color="#BC7D2A"/>
<stop offset="0.5161" stop-color="#FDEB8A"/>
<stop offset="1" stop-color="#BC7D2A"/>
</linearGradient>
<linearGradient id="paint60_linear_4093_18612" x1="222.454" y1="20.2463" x2="224.31" y2="20.2463" gradientUnits="userSpaceOnUse">
<stop stop-color="#BC7D2A"/>
<stop offset="0.5161" stop-color="#FDEB8A"/>
<stop offset="1" stop-color="#BC7D2A"/>
</linearGradient>
<linearGradient id="paint61_linear_4093_18612" x1="222.454" y1="13.9668" x2="224.31" y2="13.9668" gradientUnits="userSpaceOnUse">
<stop stop-color="#BC7D2A"/>
<stop offset="0.5161" stop-color="#FDEB8A"/>
<stop offset="1" stop-color="#BC7D2A"/>
</linearGradient>
<linearGradient id="paint62_linear_4093_18612" x1="233.33" y1="20.2462" x2="235.186" y2="20.2462" gradientUnits="userSpaceOnUse">
<stop stop-color="#BC7D2A"/>
<stop offset="0.5161" stop-color="#FDEB8A"/>
<stop offset="1" stop-color="#BC7D2A"/>
</linearGradient>
<linearGradient id="paint63_linear_4093_18612" x1="231.291" y1="11.6687" x2="232.627" y2="11.6687" gradientUnits="userSpaceOnUse">
<stop stop-color="#BC7D2A"/>
<stop offset="0.5161" stop-color="#FDEB8A"/>
<stop offset="1" stop-color="#BC7D2A"/>
</linearGradient>
<linearGradient id="paint64_linear_4093_18612" x1="225.012" y1="22.545" x2="226.348" y2="22.545" gradientUnits="userSpaceOnUse">
<stop stop-color="#BC7D2A"/>
<stop offset="0.5161" stop-color="#FDEB8A"/>
<stop offset="1" stop-color="#BC7D2A"/>
</linearGradient>
<linearGradient id="paint65_linear_4093_18612" x1="225.899" y1="17.1069" x2="231.741" y2="17.1069" gradientUnits="userSpaceOnUse">
<stop stop-color="#BC7D2A"/>
<stop offset="0.5161" stop-color="#FDEB8A"/>
<stop offset="1" stop-color="#BC7D2A"/>
</linearGradient>
</defs>
</svg>
