<svg width="346" height="490" viewBox="0 0 346 490" fill="none" xmlns="http://www.w3.org/2000/svg">
<rect width="345" height="490" transform="translate(0.985352)" fill="black"/>
<path d="M345.971 0H0.985352V490H345.971V0Z" fill="#FFC5E2"/>
<path opacity="0.3" d="M1 483.876V485.099H3.86107V490H5.1138V485.099H22.6763V490H23.929V485.099H41.4914V490H42.7523V485.099H60.3147V490H61.5674V485.099H79.1703V490H80.3826V485.099H97.9451V490H99.1978V485.099H116.76V490H118.021V485.099H135.584V490H136.836V485.099H154.399V490H155.651V485.099H173.214V490H174.467V485.099H192.029V490H193.29V485.099H210.852V490H212.105V485.099H229.668V490H230.92V485.099H248.483V490H249.703V485.099H267.266V490H268.526V485.099H286.089V490H287.342V485.099H304.904V490H306.157V485.099H323.719V490H324.972V485.099H342.567V490H343.828V485.099H345.985V483.876H343.828V466.726H345.985V465.502H343.828V448.353H345.985V447.098H343.828V429.979H345.985V428.748H343.828V411.582H345.985V410.359H343.828V393.225H345.985V392.002H343.828V374.852H345.985V373.628H343.828V356.478H345.985V355.247H343.828V338.097H345.985V336.874H343.828V319.724H345.985V318.501H343.828V301.351H345.985V300.128H343.828V282.978H345.985V281.746H343.828V264.597H345.985V263.373H343.828V246.223H345.985V245H343.828V227.85H345.985V226.627H343.828V209.477H345.985V208.246H343.828V191.096H345.985V189.872H343.828V172.723H345.985V171.499H343.828V154.349H345.985V153.126H343.828V137.578H345.985V136.355H343.828V119.205H345.985V117.99H343.828V100.832H345.985V99.6006H343.828V82.4743H345.985V81.2273H343.828V64.0774H345.985V62.8541H343.828V45.7042H345.985V44.4809H343.828V27.331H345.985V26.0998H343.828V8.94985H345.985V7.72654H343.828V0H342.567V7.72654H325.004V0H323.751V7.72654H306.189V0H304.936V7.72654H287.374V0H286.121V7.72654H268.559V0H267.298V7.72654H249.703V0H248.45V7.72654H230.92V0H229.668V7.72654H212.105V0H210.852V7.72654H193.29V0H192.029V7.72654H174.467V0H173.214V7.72654H155.651V0H154.399V7.72654H136.836V0H135.584V7.72654H118.021V0H116.76V7.72654H99.1978V0H97.9451V7.72654H80.3826V0H79.1703V7.72654H61.5674V0H60.3147V7.72654H42.7523V0H41.4914V7.72654H23.929V0H22.6763V7.72654H5.1138V0H3.86107V7.72654H1V8.94985H3.86107V26.0998H1V27.331H3.86107V44.4809H1V45.7042H3.86107V62.8541H1V64.0774H3.86107V81.2273H1V82.4743H3.86107V99.6006H1V100.832H3.86107V117.99H1V119.213H3.86107V136.363H1V137.586H3.86107V153.134H1V154.357H3.86107V171.499H1V172.723H3.86107V189.872H1V191.096H3.86107V208.246H1V209.477H3.86107V226.627H1V227.85H3.86107V245H1V246.223H3.86107V263.373H1V264.597H3.86107V281.746H1V282.978H3.86107V300.128H1V301.351H3.86107V318.501H1V319.724H3.86107V336.874H1V338.097H3.86107V355.247H1V356.478H3.86107V373.628H1V374.852H3.86107V392.002H1V393.225H3.86107V410.375H1V411.582H3.86107V428.732H1V429.963H3.86107V447.098H1V448.321H3.86107V465.471H1V466.694H3.86107V483.876H1ZM23.929 483.876V466.726H41.4914V483.876H23.929ZM174.467 318.501V301.351H192.029V318.501H174.467ZM192.029 319.724V336.874H174.467V319.724H192.029ZM174.467 300.128V282.978H192.029V300.128H174.467ZM174.467 281.746V264.597H192.029V281.746H174.467ZM174.467 263.373V246.223H192.029V263.373H174.467ZM174.467 245V227.85H192.029V245H174.467ZM174.467 226.627V209.477H192.029V226.627H174.467ZM174.467 208.246V191.096H192.029V208.246H174.467ZM174.467 189.872V172.723H192.029V189.872H174.467ZM174.467 171.499V154.349H192.029V171.499H174.467ZM173.214 171.499H155.651V154.349H173.214V171.499ZM173.214 172.723V189.872H155.651V172.723H173.214ZM173.214 191.096V208.246H155.651V191.096H173.214ZM173.214 209.477V226.627H155.651V209.477H173.214ZM173.214 227.85V245H155.651V227.85H173.214ZM173.214 246.223V263.373H155.651V246.223H173.214ZM173.214 264.597V281.746H155.651V264.597H173.214ZM173.214 282.978V300.128H155.651V282.978H173.214ZM173.214 301.351V318.501H155.651V301.351H173.214ZM173.214 319.724V336.874H155.651V319.724H173.214ZM173.214 338.097V355.247H155.651V338.097H173.214ZM174.467 338.097H192.029V355.247H174.467V338.097ZM193.29 338.097H210.852V355.247H193.29V338.097ZM193.29 336.874V319.724H210.852V336.874H193.29ZM193.29 318.501V301.351H210.852V318.501H193.29ZM193.29 300.128V282.978H210.852V300.128H193.29ZM193.29 281.746V264.597H210.852V281.746H193.29ZM193.29 263.373V246.223H210.852V263.373H193.29ZM193.29 245V227.85H210.852V245H193.29ZM193.29 226.627V209.477H210.852V226.627H193.29ZM193.29 208.246V191.096H210.852V208.246H193.29ZM193.29 189.872V172.723H210.852V189.872H193.29ZM193.29 171.499V154.349H210.852V171.499H193.29ZM193.29 153.126V137.578H210.852V153.126H193.29ZM192.029 153.126H174.467V137.578H192.029V153.126ZM173.214 153.126H155.651V137.578H173.214V153.126ZM154.399 153.126H136.836V137.578H154.399V153.126ZM154.399 154.349V171.499H136.836V154.349H154.399ZM154.399 172.723V189.872H136.836V172.723H154.399ZM154.399 191.096V208.246H136.836V191.096H154.399ZM154.399 209.477V226.627H136.836V209.477H154.399ZM154.399 227.85V245H136.836V227.85H154.399ZM154.399 246.223V263.373H136.836V246.223H154.399ZM154.399 264.597V281.746H136.836V264.597H154.399ZM154.399 282.978V300.128H136.836V282.978H154.399ZM154.399 301.351V318.501H136.836V301.351H154.399ZM154.399 319.724V336.874H136.836V319.724H154.399ZM154.399 338.097V355.247H136.836V338.097H154.399ZM154.399 356.478V373.628H136.836V356.478H154.399ZM155.651 356.478H173.214V373.628H155.651V356.478ZM174.467 356.478H192.029V373.628H174.467V356.478ZM193.29 356.478H210.852V373.628H193.29V356.478ZM212.105 356.478H229.668V373.628H212.105V356.478ZM212.105 355.247V338.097H229.668V355.247H212.105ZM212.105 336.874V319.724H229.668V336.874H212.105ZM212.105 318.501V301.351H229.668V318.501H212.105ZM212.105 300.128V282.978H229.668V300.128H212.105ZM212.105 281.746V264.597H229.668V281.746H212.105ZM212.105 263.373V246.223H229.668V263.373H212.105ZM212.105 245V227.85H229.668V245H212.105ZM212.105 226.627V209.477H229.668V226.627H212.105ZM212.105 208.246V191.096H229.668V208.246H212.105ZM212.105 189.872V172.723H229.668V189.872H212.105ZM212.105 171.499V154.349H229.668V171.499H212.105ZM212.105 153.126V137.578H229.668V153.126H212.105ZM212.105 136.355V119.205H229.668V136.355H212.105ZM210.852 136.355H193.29V119.205H210.852V136.355ZM192.029 136.355H174.467V119.205H192.029V136.355ZM173.214 136.355H155.651V119.205H173.214V136.355ZM154.399 136.355H136.836V119.205H154.399V136.355ZM135.584 136.355H118.021V119.205H135.584V136.355ZM135.584 137.578V153.126H118.021V137.578H135.584ZM135.584 154.349V171.499H118.021V154.349H135.584ZM135.584 172.723V189.872H118.021V172.723H135.584ZM135.584 191.096V208.246H118.021V191.096H135.584ZM135.584 209.477V226.627H118.021V209.477H135.584ZM135.584 227.85V245H118.021V227.85H135.584ZM135.584 246.223V263.373H118.021V246.223H135.584ZM135.584 264.597V281.746H118.021V264.597H135.584ZM135.584 282.978V300.128H118.021V282.978H135.584ZM135.584 301.351V318.501H118.021V301.351H135.584ZM135.584 319.724V336.874H118.021V319.724H135.584ZM135.584 338.097V355.247H118.021V338.097H135.584ZM135.584 356.478V373.628H118.021V356.478H135.584ZM135.584 374.852V392.002H118.021V374.852H135.584ZM136.836 374.852H154.399V392.002H136.836V374.852ZM155.651 374.852H173.214V392.002H155.651V374.852ZM174.467 374.852H192.029V392.002H174.467V374.852ZM193.29 374.852H210.852V392.002H193.29V374.852ZM212.105 374.852H229.668V392.002H212.105V374.852ZM230.92 374.852H248.483V392.002H230.92V374.852ZM230.92 373.628V356.478H248.483V373.628H230.92ZM230.92 355.247V338.097H248.483V355.247H230.92ZM230.92 336.874V319.724H248.483V336.874H230.92ZM230.92 318.501V301.351H248.483V318.501H230.92ZM230.92 300.128V282.978H248.483V300.128H230.92ZM230.92 281.746V264.597H248.483V281.746H230.92ZM230.92 263.373V246.223H248.483V263.373H230.92ZM230.92 245V227.85H248.483V245H230.92ZM230.92 226.627V209.477H248.483V226.627H230.92ZM230.92 208.246V191.096H248.483V208.246H230.92ZM230.92 189.872V172.723H248.483V189.872H230.92ZM230.92 171.499V154.349H248.483V171.499H230.92ZM230.92 153.126V137.578H248.483V153.126H230.92ZM230.92 136.355V119.205H248.483V136.355H230.92ZM230.92 117.982V100.832H248.483V117.99L230.92 117.982ZM229.668 117.982H212.105V100.832H229.668V117.982ZM210.852 117.982H193.29V100.832H210.852V117.982ZM192.029 117.982H174.467V100.832H192.029V117.982ZM173.214 117.982H155.651V100.832H173.214V117.982ZM154.399 117.982H136.836V100.832H154.399V117.982ZM135.584 117.982H118.021V100.832H135.584V117.982ZM116.76 117.982H99.1978V100.832H116.76V117.982ZM116.76 119.205V136.355H99.1978V119.205H116.76ZM116.76 137.578V153.126H99.1978V137.578H116.76ZM116.76 154.349V171.499H99.1978V154.349H116.76ZM116.76 172.723V189.872H99.1978V172.723H116.76ZM116.76 191.096V208.246H99.1978V191.096H116.76ZM116.76 209.477V226.627H99.1978V209.477H116.76ZM116.76 227.85V245H99.1978V227.85H116.76ZM116.76 246.223V263.373H99.1978V246.223H116.76ZM116.76 264.597V281.746H99.1978V264.597H116.76ZM116.76 282.978V300.128H99.1978V282.978H116.76ZM116.76 301.351V318.501H99.1978V301.351H116.76ZM116.76 319.724V336.874H99.1978V319.724H116.76ZM116.76 338.097V355.247H99.1978V338.097H116.76ZM116.76 356.478V373.628H99.1978V356.478H116.76ZM116.76 374.852V392.002H99.1978V374.852H116.76ZM116.76 393.225V410.375H99.1978V393.225H116.76ZM118.021 393.225H135.584V410.375H118.021V393.225ZM136.836 393.225H154.399V410.375H136.836V393.225ZM155.651 393.225H173.214V410.375H155.651V393.225ZM174.467 393.225H192.029V410.375H174.467V393.225ZM193.29 393.225H210.852V410.375H193.29V393.225ZM212.105 393.225H229.668V410.375H212.105V393.225ZM230.92 393.225H248.483V410.375H230.92V393.225ZM249.735 393.225H267.298V410.375H249.703L249.735 393.225ZM249.735 392.002V374.852H267.298V392.002H249.735ZM249.735 373.628V356.478H267.298V373.628H249.735ZM249.735 355.247V338.097H267.298V355.247H249.735ZM249.735 336.874V319.724H267.298V336.874H249.735ZM249.735 318.501V301.351H267.298V318.501H249.735ZM249.735 300.128V282.978H267.298V300.128H249.735ZM249.735 281.746V264.597H267.298V281.746H249.735ZM249.735 263.373V246.223H267.298V263.373H249.735ZM249.735 245V227.85H267.298V245H249.735ZM249.735 226.627V209.477H267.298V226.627H249.735ZM249.735 208.246V191.096H267.298V208.246H249.735ZM249.735 189.872V172.723H267.298V189.872H249.735ZM249.735 171.499V154.349H267.298V171.499H249.735ZM249.735 153.126V137.578H267.298V153.126H249.735ZM249.735 136.355V119.205H267.298V136.355H249.735ZM249.703 117.99V100.832H267.266V117.99H249.703ZM249.703 99.6085V82.4743H267.266V99.6006L249.703 99.6085ZM248.45 99.6085H230.92V82.4743H248.483L248.45 99.6085ZM229.635 99.6085H212.105V82.4743H229.668L229.635 99.6085ZM210.82 99.6085H193.29V82.4743H210.852L210.82 99.6085ZM191.997 99.6085H174.467V82.4743H192.029L191.997 99.6085ZM173.182 99.6085H155.651V82.4743H173.214L173.182 99.6085ZM154.366 99.6085H136.836V82.4743H154.399L154.366 99.6085ZM135.551 99.6085H118.021V82.4743H135.584L135.551 99.6085ZM116.728 99.6085H99.1978V82.4743H116.76L116.728 99.6085ZM97.9127 99.6085H80.3826V82.4743H97.9451L97.9127 99.6085ZM97.9127 100.84V117.99H80.3826V100.832L97.9127 100.84ZM97.9127 119.213V136.363H80.3826V119.205L97.9127 119.213ZM97.9127 137.586V153.134H80.3826V137.586H97.9127ZM97.9127 154.357V171.499H80.3826V154.349L97.9127 154.357ZM97.9127 172.73V189.88H80.3826V172.723L97.9127 172.73ZM97.9127 191.104V208.254H80.3826V191.096L97.9127 191.104ZM97.9127 209.485V226.635H80.3826V209.477L97.9127 209.485ZM97.9127 227.858V245.008H80.3826V227.85L97.9127 227.858ZM97.9127 246.231V263.381H80.3826V246.223L97.9127 246.231ZM97.9127 264.604V281.754H80.3826V264.597L97.9127 264.604ZM97.9127 282.986V300.135H80.3826V282.978L97.9127 282.986ZM97.9127 301.359V318.509H80.3826V301.351L97.9127 301.359ZM97.9127 319.732V336.882H80.3826V319.724L97.9127 319.732ZM97.9127 338.105V355.255H80.3826V338.097L97.9127 338.105ZM97.9127 356.486V373.636H80.3826V356.478L97.9127 356.486ZM97.9127 374.86V392.01H80.3826V374.852L97.9127 374.86ZM97.9127 393.233V410.383H80.3826V393.225L97.9127 393.233ZM97.9127 411.606V428.756H80.3826V411.582L97.9127 411.606ZM99.1655 411.606H116.728V428.756H99.1978L99.1655 411.606ZM117.989 411.606H135.584V428.756H118.021L117.989 411.606ZM136.804 411.606H154.366V428.756H136.836L136.804 411.606ZM155.619 411.606H173.182V428.756H155.651L155.619 411.606ZM174.434 411.606H191.997V428.756H174.467L174.434 411.606ZM193.258 411.606H210.82V428.756H193.29L193.258 411.606ZM212.073 411.606H229.635V428.756H212.105L212.073 411.606ZM230.888 411.606H248.45V428.756H230.92L230.888 411.606ZM249.703 411.582H267.266V428.732H249.703V411.582ZM268.526 411.582H286.089V428.732H268.559L268.526 411.582ZM268.526 410.359V393.225H286.089V410.375L268.526 410.359ZM268.526 391.986V374.852H286.089V392.002L268.526 391.986ZM268.526 373.613V356.478H286.089V373.628L268.526 373.613ZM268.526 355.231V338.097H286.089V355.247L268.526 355.231ZM268.526 336.858V319.724H286.089V336.874L268.526 336.858ZM268.526 318.485V301.351H286.089V318.501L268.526 318.485ZM268.526 300.112V282.978H286.089V300.128L268.526 300.112ZM268.526 281.731V264.597H286.089V281.746L268.526 281.731ZM268.526 263.357V246.223H286.089V263.373L268.526 263.357ZM268.526 244.984V227.85H286.089V245L268.526 244.984ZM268.526 226.611V209.477H286.089V226.627L268.526 226.611ZM268.526 208.23V191.096H286.089V208.246L268.526 208.23ZM268.526 189.857V172.723H286.089V189.872L268.526 189.857ZM268.526 171.483V154.349H286.089V171.499L268.526 171.483ZM268.526 153.11V137.562H286.089V153.11H268.526ZM268.526 136.339V119.205H286.089V136.355L268.526 136.339ZM268.526 117.966V100.832H286.089V117.99L268.526 117.966ZM268.526 99.5848V82.4743H286.089V99.6006L268.526 99.5848ZM268.526 81.2116V64.0774H286.089V81.2273L268.526 81.2116ZM267.266 81.2116H249.703V64.0774H267.266V81.2116ZM248.45 81.2116H230.92V64.0774H248.483L248.45 81.2116ZM229.635 81.2116H212.105V64.0774H229.668L229.635 81.2116ZM210.82 81.2116H193.29V64.0774H210.852L210.82 81.2116ZM191.997 81.2116H174.467V64.0774H192.029L191.997 81.2116ZM173.182 81.2116H155.651V64.0774H173.214L173.182 81.2116ZM154.366 81.2116H136.836V64.0774H154.399L154.366 81.2116ZM135.551 81.2116H118.021V64.0774H135.584L135.551 81.2116ZM116.728 81.2116H99.1978V64.0774H116.76L116.728 81.2116ZM97.9127 81.2116H80.3826V64.0774H97.9451L97.9127 81.2116ZM79.1703 81.2273H61.5674V64.0774H79.1703V81.2273ZM79.1703 82.4743V99.6006H61.5674V82.4743H79.1703ZM79.1703 100.855V117.99H61.5674V100.832L79.1703 100.855ZM79.1703 119.229V136.379H61.5674V119.205L79.1703 119.229ZM79.1703 137.602V153.15H61.5674V137.602H79.1703ZM79.1703 154.373V171.499H61.5674V154.349L79.1703 154.373ZM79.1703 172.746V189.896H61.5674V172.723L79.1703 172.746ZM79.1703 191.119V208.269H61.5674V191.096L79.1703 191.119ZM79.1703 209.501V226.65H61.5674V209.477L79.1703 209.501ZM79.1703 227.874V245.024H61.5674V227.85L79.1703 227.874ZM79.1703 246.247V263.397H61.5674V246.223L79.1703 246.247ZM79.1703 264.62V281.77H61.5674V264.597L79.1703 264.62ZM79.1703 283.001V300.151H61.5674V282.978L79.1703 283.001ZM79.1703 301.375V318.524H61.5674V301.351L79.1703 301.375ZM79.1703 319.748V336.898H61.5674V319.724L79.1703 319.748ZM79.1703 338.121V355.271H61.5674V338.097L79.1703 338.121ZM79.1703 356.502V373.652H61.5674V356.478L79.1703 356.502ZM79.1703 374.875V392.025H61.5674V374.852L79.1703 374.875ZM79.1703 393.249V410.398H61.5674V393.225L79.1703 393.249ZM79.1703 411.582V428.732H61.5674V411.582H79.1703ZM79.1703 429.963V447.098H61.5674V429.979L79.1703 429.963ZM80.423 429.963H97.9451V447.098H80.3826L80.423 429.963ZM99.2382 429.963H116.801V447.098H99.1978L99.2382 429.963ZM118.061 429.963H135.584V447.098H118.021L118.061 429.963ZM136.877 429.963H154.439V447.098H136.836L136.877 429.963ZM155.692 429.963H173.254V447.098H155.651L155.692 429.963ZM174.507 429.963H192.069V447.098H174.467L174.507 429.963ZM193.33 429.963H210.893V447.098H193.29L193.33 429.963ZM212.145 429.963H229.708V447.098H212.105L212.145 429.963ZM230.961 429.963H248.523V447.098H230.92L230.961 429.963ZM249.776 429.963H267.338V447.098H249.703L249.776 429.963ZM268.599 429.963H286.162V447.098H268.559L268.599 429.963ZM287.414 429.963H304.977V447.098H287.374L287.414 429.963ZM287.414 428.732V411.582H304.977V428.732H287.414ZM287.414 410.359V393.225H304.977V410.375L287.414 410.359ZM287.414 391.986V374.852H304.977V392.002L287.414 391.986ZM287.414 373.613V356.478H304.977V373.628L287.414 373.613ZM287.414 355.231V338.097H304.977V355.247L287.414 355.231ZM287.414 336.858V319.724H304.977V336.874L287.414 336.858ZM287.414 318.485V301.351H304.977V318.501L287.414 318.485ZM287.414 300.112V282.978H304.977V300.128L287.414 300.112ZM287.414 281.731V264.597H304.977V281.746L287.414 281.731ZM287.414 263.357V246.223H304.977V263.373L287.414 263.357ZM287.414 244.984V227.85H304.977V245L287.414 244.984ZM287.414 226.611V209.477H304.977V226.627L287.414 226.611ZM287.414 208.23V191.096H304.977V208.246L287.414 208.23ZM287.414 189.857V172.723H304.977V189.872L287.414 189.857ZM287.414 171.483V154.349H304.977V171.499L287.414 171.483ZM287.414 153.11V137.562H304.977V153.11H287.414ZM287.414 136.339V119.205H304.977V136.355L287.414 136.339ZM287.414 117.966V100.832H304.977V117.99L287.414 117.966ZM287.414 99.5848V82.4743H304.977V99.6006L287.414 99.5848ZM287.414 81.2116V64.0774H304.977V81.2273L287.414 81.2116ZM287.414 62.8383V45.7042H304.977V62.8541L287.414 62.8383ZM286.162 62.8383H268.559V45.7042H286.121L286.162 62.8383ZM267.338 62.8383H249.703V45.7042H267.266L267.338 62.8383ZM248.523 62.8383H230.92V45.7042H248.483L248.523 62.8383ZM229.708 62.8383H212.105V45.7042H229.668L229.708 62.8383ZM210.893 62.8383H193.29V45.7042H210.852L210.893 62.8383ZM192.069 62.8383H174.467V45.7042H192.029L192.069 62.8383ZM173.254 62.8383H155.651V45.7042H173.214L173.254 62.8383ZM154.439 62.8383H136.836V45.7042H154.399L154.439 62.8383ZM135.624 62.8383H118.021V45.7042H135.584L135.624 62.8383ZM116.801 62.8383H99.1978V45.7042H116.76L116.801 62.8383ZM97.9855 62.8383H80.3826V45.7042H97.9451L97.9855 62.8383ZM79.1703 62.8541H61.5674V45.7042H79.1703V62.8541ZM60.3551 62.8541H42.7523V45.7042H60.3147L60.3551 62.8541ZM60.3551 64.0774V81.2273H42.7523V64.0774H60.3551ZM60.3551 82.4506V99.6006H42.7523V82.4743L60.3551 82.4506ZM60.3551 100.832V117.99H42.7523V100.832H60.3551ZM60.3551 119.205V136.355H42.7523V119.205H60.3551ZM60.3551 137.578V153.126H42.7523V137.578H60.3551ZM60.3551 154.349V171.499H42.7523V154.349H60.3551ZM60.3551 172.723V189.872H42.7523V172.723H60.3551ZM60.3551 191.096V208.246H42.7523V191.096H60.3551ZM60.3551 209.477V226.627H42.7523V209.477H60.3551ZM60.3551 227.85V245H42.7523V227.85H60.3551ZM60.3551 246.223V263.373H42.7523V246.223H60.3551ZM60.3551 264.597V281.746H42.7523V264.597H60.3551ZM60.3551 282.978V300.128H42.7523V282.978H60.3551ZM60.3551 301.351V318.501H42.7523V301.351H60.3551ZM60.3551 319.724V336.874H42.7523V319.724H60.3551ZM60.3551 338.097V355.247H42.7523V338.097H60.3551ZM60.3551 356.478V373.628H42.7523V356.478H60.3551ZM60.3551 374.852V392.002H42.7523V374.852H60.3551ZM60.3551 393.225V410.375H42.7523V393.225H60.3551ZM60.3551 411.598V428.748H42.7523V411.582L60.3551 411.598ZM60.3551 429.979V447.098H42.7523V429.979H60.3551ZM60.3551 448.353V465.502H42.7523V448.353H60.3551ZM61.6078 448.353H79.1703V465.502H61.5674L61.6078 448.353ZM80.423 448.353H97.9451V465.502H80.3826L80.423 448.353ZM99.2382 448.353H116.801V465.502H99.1978L99.2382 448.353ZM118.061 448.353H135.584V465.502H118.021L118.061 448.353ZM136.877 448.353H154.439V465.502H136.836L136.877 448.353ZM155.692 448.353H173.254V465.502H155.651L155.692 448.353ZM174.507 448.353H192.069V465.502H174.467L174.507 448.353ZM193.33 448.353H210.893V465.502H193.29L193.33 448.353ZM212.145 448.353H229.708V465.502H212.105L212.145 448.353ZM230.961 448.353H248.523V465.502H230.92L230.961 448.353ZM249.776 448.353H267.338V465.502H249.703L249.776 448.353ZM268.599 448.353H286.162V465.502H268.559L268.599 448.353ZM287.414 448.353H304.977V465.502H287.374L287.414 448.353ZM306.229 448.353H323.792V465.502H306.189L306.229 448.353ZM306.229 447.129V429.979H323.792V447.098L306.229 447.129ZM306.229 428.748V411.582H323.792V428.732L306.229 428.748ZM306.229 410.375V393.225H323.792V410.375H306.229ZM306.229 392.002V374.852H323.792V392.002H306.229ZM306.229 373.628V356.478H323.792V373.628H306.229ZM306.229 355.247V338.097H323.792V355.247H306.229ZM306.229 336.874V319.724H323.792V336.874H306.229ZM306.229 318.501V301.351H323.792V318.501H306.229ZM306.229 300.128V282.978H323.792V300.128H306.229ZM306.229 281.746V264.597H323.792V281.746H306.229ZM306.229 263.373V246.223H323.792V263.373H306.229ZM306.229 245V227.85H323.792V245H306.229ZM306.229 226.627V209.477H323.792V226.627H306.229ZM306.229 208.246V191.096H323.792V208.246H306.229ZM306.229 189.872V172.723H323.792V189.872H306.229ZM306.229 171.499V154.349H323.792V171.499H306.229ZM306.229 153.126V137.578H323.792V153.126H306.229ZM306.229 136.355V119.205H323.792V136.355H306.229ZM306.229 117.982V100.832H323.792V117.99L306.229 117.982ZM306.229 99.6006V82.4743H323.792V99.6006H306.229ZM306.229 81.2273V64.0774H323.792V81.2273H306.229ZM306.229 62.8541V45.7042H323.792V62.8541H306.229ZM306.229 44.4809V27.331H323.792V44.4809H306.229ZM304.977 44.4809H287.374V27.331H304.936L304.977 44.4809ZM286.162 44.4809H268.559V27.331H286.121L286.162 44.4809ZM267.338 44.4809H249.703V27.331H267.266L267.338 44.4809ZM248.523 44.4809H230.92V27.331H248.483L248.523 44.4809ZM229.708 44.4809H212.105V27.331H229.668L229.708 44.4809ZM210.893 44.4809H193.29V27.331H210.852L210.893 44.4809ZM192.069 44.4809H174.467V27.331H192.029L192.069 44.4809ZM173.254 44.4809H155.651V27.331H173.214L173.254 44.4809ZM154.439 44.4809H136.836V27.331H154.399L154.439 44.4809ZM135.624 44.4809H118.021V27.331H135.584L135.624 44.4809ZM116.801 44.4809H99.1978V27.331H116.76L116.801 44.4809ZM97.9855 44.4809H80.3826V27.331H97.9451L97.9855 44.4809ZM79.1703 44.4809H61.5674V27.331H79.1703V44.4809ZM60.3551 44.4809H42.7523V27.331H60.3147L60.3551 44.4809ZM41.5318 44.4809H23.929V27.331H41.4914L41.5318 44.4809ZM41.5318 45.7042V62.8541H23.929V45.7042H41.5318ZM41.5318 64.0774V81.2273H23.929V64.0774H41.5318ZM41.4914 82.4743V99.6006H23.929V82.4743H41.4914ZM41.4914 100.855V117.99H23.929V100.832L41.4914 100.855ZM41.4914 119.229V136.379H23.929V119.205L41.4914 119.229ZM41.4914 137.602V153.15H23.929V137.602H41.4914ZM41.4914 154.373V171.499H23.929V154.349L41.4914 154.373ZM41.4914 172.746V189.896H23.929V172.723L41.4914 172.746ZM41.4914 191.119V208.269H23.929V191.096L41.4914 191.119ZM41.4914 209.501V226.65H23.929V209.477L41.4914 209.501ZM41.4914 227.874V245.024H23.929V227.85L41.4914 227.874ZM41.4914 246.247V263.397H23.929V246.223L41.4914 246.247ZM41.4914 264.62V281.77H23.929V264.597L41.4914 264.62ZM41.4914 283.001V300.151H23.929V282.978L41.4914 283.001ZM41.4914 301.375V318.524H23.929V301.351L41.4914 301.375ZM41.4914 319.748V336.898H23.929V319.724L41.4914 319.748ZM41.4914 338.121V355.271H23.929V338.097L41.4914 338.121ZM41.4914 356.502V373.652H23.929V356.478L41.4914 356.502ZM41.4914 374.875V392.025H23.929V374.852L41.4914 374.875ZM41.4914 393.249V410.398H23.929V393.225L41.4914 393.249ZM41.4914 411.622V428.772H23.929V411.582L41.4914 411.622ZM41.4914 430.003V447.098H23.929V429.979L41.4914 430.003ZM41.4914 448.376V465.526H23.929V448.353L41.4914 448.376ZM42.7523 483.891V466.726H60.3147V483.876L42.7523 483.891ZM61.5674 483.891V466.726H79.1703V483.876L61.5674 483.891ZM80.3826 483.891V466.726H97.9451V483.876L80.3826 483.891ZM99.1978 483.891V466.726H116.76V483.876L99.1978 483.891ZM118.021 483.891V466.726H135.584V483.876L118.021 483.891ZM136.836 483.891V466.726H154.399V483.876L136.836 483.891ZM155.651 483.891V466.726H173.214V483.876L155.651 483.891ZM174.467 483.891V466.726H192.029V483.876L174.467 483.891ZM193.29 483.891V466.726H210.852V483.876L193.29 483.891ZM212.105 483.891V466.726H229.668V483.876L212.105 483.891ZM230.92 483.891V466.726H248.483V483.876L230.92 483.891ZM249.735 483.891V466.726H267.298V483.876L249.735 483.891ZM268.559 483.891V466.726H286.121V483.876L268.559 483.891ZM287.374 483.891V466.726H304.936V483.876L287.374 483.891ZM306.189 483.891V466.726H323.751V483.876L306.189 483.891ZM342.559 483.891H325.004V466.726H342.567L342.559 483.891ZM342.559 465.518H325.004V448.353H342.567L342.559 465.518ZM342.559 447.145H325.004V429.979H342.567L342.559 447.145ZM342.559 428.764H325.004V411.582H342.567L342.559 428.764ZM342.559 410.391H325.004V393.225H342.567L342.559 410.391ZM342.559 392.017H325.004V374.852H342.567L342.559 392.017ZM342.559 373.644H325.004V356.478H342.567L342.559 373.644ZM342.559 355.263H325.004V338.097H342.567L342.559 355.263ZM342.559 336.89H325.004V319.724H342.567L342.559 336.89ZM342.559 318.517H325.004V301.351H342.567L342.559 318.517ZM342.559 300.143H325.004V282.978H342.567L342.559 300.143ZM342.559 281.762H325.004V264.597H342.567L342.559 281.762ZM342.559 263.389H325.004V246.223H342.567L342.559 263.389ZM342.559 245.016H325.004V227.85H342.567L342.559 245.016ZM342.559 226.643H325.004V209.477H342.567L342.559 226.643ZM342.559 208.261H325.004V191.096H342.567L342.559 208.261ZM342.559 189.888H325.004V172.723H342.567L342.559 189.888ZM342.559 171.515H325.004V154.349H342.567L342.559 171.515ZM342.559 153.142H325.004V137.594H342.567L342.559 153.142ZM342.559 136.371H325.004V119.205H342.567L342.559 136.371ZM342.559 117.997H325.004V100.832H342.567L342.559 117.997ZM342.559 99.6163H325.004V82.4743H342.567L342.559 99.6163ZM342.559 81.2431H325.004V64.0774H342.567L342.559 81.2431ZM342.559 62.8699H325.004V45.7042H342.567L342.559 62.8699ZM342.559 44.4967H325.004V27.331H342.567L342.559 44.4967ZM342.559 8.98141V26.0998H325.004V8.94985L342.559 8.98141ZM323.743 8.98141V26.0998H306.189V8.94985L323.743 8.98141ZM304.928 8.98141V26.0998H287.374V8.94985L304.928 8.98141ZM286.113 8.98141V26.0998H268.559V8.94985L286.113 8.98141ZM267.29 8.98141V26.0998H249.703V8.94985L267.29 8.98141ZM248.475 8.98141V26.0998H230.92V8.94985L248.475 8.98141ZM229.659 8.98141V26.0998H212.105V8.94985L229.659 8.98141ZM210.844 8.98141V26.0998H193.29V8.94985L210.844 8.98141ZM192.021 8.98141V26.0998H174.467V8.94985L192.021 8.98141ZM173.206 8.98141V26.0998H155.651V8.94985L173.206 8.98141ZM154.391 8.98141V26.0998H136.836V8.94985L154.391 8.98141ZM135.575 8.98141V26.0998H118.021V8.94985L135.575 8.98141ZM116.752 8.98141V26.0998H99.1978V8.94985L116.752 8.98141ZM97.937 8.98141V26.0998H80.3826V8.94985L97.937 8.98141ZM79.1703 8.94985V26.0998H61.5674V8.94985H79.1703ZM60.3551 8.94985V26.0998H42.7523V8.94985H60.3551ZM41.5318 8.94985V26.0998H23.929V8.94985H41.5318ZM5.16229 8.94985H22.6763V26.0998H5.1138L5.16229 8.94985ZM5.16229 27.331H22.6763V44.4809H5.1138L5.16229 27.331ZM5.16229 45.7042H22.6763V62.8541H5.1138L5.16229 45.7042ZM5.16229 64.0774H22.6763V81.2273H5.1138L5.16229 64.0774ZM5.16229 82.4506H22.6763V99.6006H5.1138L5.16229 82.4506ZM5.16229 100.832H22.6763V117.99H5.1138L5.16229 100.832ZM5.16229 119.205H22.6763V136.355H5.1138L5.16229 119.205ZM5.16229 137.578H22.6763V153.126H5.1138L5.16229 137.578ZM5.16229 154.349H22.6763V171.499H5.1138L5.16229 154.349ZM5.16229 172.723H22.6763V189.872H5.1138L5.16229 172.723ZM5.16229 191.096H22.6763V208.246H5.1138L5.16229 191.096ZM5.16229 209.477H22.6763V226.627H5.1138L5.16229 209.477ZM5.16229 227.85H22.6763V245H5.1138L5.16229 227.85ZM5.16229 246.223H22.6763V263.373H5.1138L5.16229 246.223ZM5.16229 264.597H22.6763V281.746H5.1138L5.16229 264.597ZM5.16229 282.978H22.6763V300.128H5.1138L5.16229 282.978ZM5.16229 301.351H22.6763V318.501H5.1138L5.16229 301.351ZM5.16229 319.724H22.6763V336.874H5.1138L5.16229 319.724ZM5.16229 338.097H22.6763V355.247H5.1138L5.16229 338.097ZM5.16229 356.478H22.6763V373.628H5.1138L5.16229 356.478ZM5.16229 374.852H22.6763V392.002H5.1138L5.16229 374.852ZM5.16229 393.225H22.6763V410.375H5.1138L5.16229 393.225ZM5.16229 411.598H22.6763V428.748H5.1138L5.16229 411.598ZM5.16229 429.979H22.6763V447.098H5.1138L5.16229 429.979ZM5.16229 448.353H22.6763V465.502H5.1138L5.16229 448.353ZM5.16229 466.726H22.6763V483.876H5.1138L5.16229 466.726Z" fill="white"/>
<g clip-path="url(#clip0_4452_17657)">
<path d="M293.273 183.371C292.492 182.911 291.615 182.637 290.71 182.572C290.71 181.096 288.968 179.192 287.878 178.652C286.012 177.784 284.089 179.012 283.066 180.533C281.178 183.304 281.695 189.263 282.392 192.383C284.213 192.473 286.338 191.673 288.125 191.324C290.373 190.874 293.532 190.783 294.937 188.609C296.342 186.435 295.151 184.475 293.273 183.371Z" fill="white"/>
<path d="M42.2932 379.045C41.5144 378.578 40.6358 378.304 39.7302 378.245C39.7302 376.77 37.9878 374.866 36.8862 374.325C35.0314 373.458 33.1092 374.686 32.075 376.195C30.1977 378.977 30.7036 384.936 31.4118 388.045C33.2216 388.135 35.3574 387.347 37.1335 386.986C39.3817 386.536 42.5405 386.446 43.9568 384.272C45.2608 382.21 44.1817 380.093 42.2932 379.045Z" fill="white"/>
<path d="M45.1596 68.0127C44.3801 67.5474 43.5019 67.2733 42.5966 67.2129C42.5966 65.7373 40.8543 63.8336 39.7639 63.2929C37.8979 62.4143 35.9756 63.6534 34.9527 65.1628C33.0642 67.9451 33.5813 73.9039 34.2782 77.0129C36.0993 77.103 38.2239 76.3033 40.0112 75.9541C42.2594 75.5035 45.4182 75.4134 46.8233 73.2393C48.2284 71.0653 47.0481 69.1166 45.1596 68.0127Z" fill="white"/>
<path d="M94.5281 158.263C93.7833 158.781 93.171 159.468 92.7408 160.268C91.4031 159.637 88.9188 160.437 87.9971 161.214C86.4346 162.555 86.7493 164.819 87.6936 166.385C89.4359 169.257 95.0565 171.273 98.1703 171.927C99.0133 170.305 99.1707 168.04 99.5979 166.294C100.137 164.042 101.351 161.147 99.9688 158.961C98.5862 156.776 96.3155 156.956 94.5281 158.263Z" fill="white"/>
<path d="M318.328 65.7822C317.586 66.3036 316.975 66.9898 316.541 67.7873C315.203 67.1565 312.719 67.9563 311.797 68.7448C310.235 70.074 310.55 72.3381 311.494 73.9039C313.236 76.7763 318.857 78.7926 321.971 79.4459C322.814 77.8351 322.971 75.5597 323.398 73.8137C323.938 71.5609 325.152 68.6546 323.769 66.4694C322.386 64.2841 320.116 64.5206 318.328 65.7822Z" fill="white"/>
<path d="M326.905 234.162C326.163 234.684 325.551 235.37 325.118 236.167C323.78 235.548 321.296 236.336 320.374 237.125C318.812 238.465 319.126 240.729 320.082 242.295C321.813 245.168 327.433 247.173 330.559 247.837C331.39 246.215 331.559 243.94 331.975 242.205C332.526 239.952 333.74 237.057 332.346 234.872C330.952 232.687 328.749 232.901 326.905 234.162Z" fill="white"/>
<path d="M310.179 370.518C309.437 371.039 308.825 371.725 308.392 372.523C307.054 371.892 304.57 372.692 303.648 373.469C302.085 374.81 302.4 377.074 303.344 378.64C305.087 381.512 310.707 383.528 313.821 384.182C314.664 382.56 314.822 380.284 315.249 378.549C315.788 376.297 317.002 373.402 315.62 371.216C314.237 369.031 311.966 369.256 310.179 370.518Z" fill="white"/>
<path d="M24.128 230.141C23.282 229.823 22.3744 229.703 21.4751 229.792C21.239 228.327 19.2269 226.728 18.0241 226.412C16.0344 225.872 14.3483 227.404 13.5951 229.071C12.2012 232.135 13.7075 237.913 14.9216 240.876C16.7314 240.65 18.6873 239.513 20.396 238.859C22.5767 238.037 25.6231 237.418 26.6573 235.041C27.6914 232.664 26.1514 230.918 24.128 230.141Z" fill="white"/>
</g>
<defs>
<clipPath id="clip0_4452_17657">
<rect width="319.987" height="325" fill="white" transform="translate(12.9995 63)"/>
</clipPath>
</defs>
</svg>
