<svg width="444" height="131" viewBox="0 0 444 131" fill="none" xmlns="http://www.w3.org/2000/svg">
<path d="M357.593 34.9653C382.591 25.2237 400.336 16.8722 423.215 1.45687C420.937 14.5176 424.343 23.4333 420.573 36.5864C430.191 42.101 432.125 52.2018 442.344 57.0649C421.035 70.4642 406.815 76.8971 383.987 86.1719C374.943 69.2176 366.145 52.1453 357.588 34.9653H357.593Z" fill="#D1F3FC"/>
<mask id="mask0_10_1702" style="mask-type:luminance" maskUnits="userSpaceOnUse" x="356" y="0" width="88" height="88">
<path d="M356.188 0H443.611V87.9571H356.188V0Z" fill="white"/>
</mask>
<g mask="url(#mask0_10_1702)">
<path d="M424.071 0.143658L423.82 1.56464C422.82 7.2896 422.927 12.2707 423.03 17.0877C423.163 23.2589 423.287 29.0916 421.296 36.2991C425.744 38.9667 428.57 42.6192 431.305 46.1588C434.434 50.2063 437.394 54.028 442.611 56.5109L443.621 56.9931L442.672 57.5882C421.866 70.6694 407.825 77.1536 384.217 86.7414L383.704 86.9517L383.443 86.4643C374.445 69.5921 365.56 52.3608 357.039 35.2424L356.742 34.6422L357.367 34.3959C381.781 24.88 399.448 16.7337 422.871 0.954181L424.071 0.143658ZM441.098 57.1214C436.209 54.5051 433.223 50.6474 430.33 46.9077C427.585 43.3579 424.749 39.69 420.27 37.1199L419.85 36.8839L419.983 36.4171C422.055 29.1788 421.932 23.3154 421.799 17.1133C421.707 12.6298 421.609 8.01291 422.384 2.7599C399.643 17.9546 382.206 26.0137 358.44 35.2988C366.781 52.0428 375.466 68.8893 384.269 85.3922C407.148 76.0866 421.019 69.6742 441.092 57.1214H441.098Z" fill="#3B95B3"/>
</g>
<path d="M372.188 42.2447C367.227 39.9157 362.364 37.4893 357.593 34.9705L372.188 42.2447Z" fill="#D1F3FC"/>
<path d="M357.593 34.3549C357.691 34.3549 357.788 34.3806 357.88 34.4267C362.641 36.9404 367.54 39.3873 372.449 41.6906C372.757 41.8394 372.891 42.2036 372.742 42.5114C372.598 42.8192 372.234 42.9475 371.926 42.8038C367.001 40.4903 362.082 38.0382 357.306 35.5143C357.003 35.3552 356.89 34.9808 357.049 34.6832C357.157 34.4729 357.373 34.3549 357.593 34.3549Z" fill="#3B95B3"/>
<path d="M89.9924 35.1398C64.9791 25.393 47.322 17.1031 24.4324 1.68264C26.7152 14.7433 23.2115 23.5924 26.982 36.7506C17.0146 42.0651 12.7722 50.7911 2.1687 55.3875C23.822 69.0945 40.3607 76.9074 63.594 86.3464C72.638 69.3921 81.4358 52.3198 89.9873 35.1449L89.9924 35.1398Z" fill="#D1F3FC"/>
<mask id="mask1_10_1702" style="mask-type:luminance" maskUnits="userSpaceOnUse" x="0" y="0" width="91" height="88">
<path d="M0.388672 0H90.9107V87.9571H0.388672V0Z" fill="white"/>
</mask>
<g mask="url(#mask1_10_1702)">
<path d="M23.5861 0.364304L24.7814 1.1697C48.1429 16.9133 65.8051 25.0545 90.2234 34.5704L90.8492 34.8167L90.5517 35.4169C82.031 52.5353 73.146 69.7666 64.143 86.6337L63.8865 87.1262L63.3684 86.9158C40.6892 77.7025 24.1658 70.0334 1.84562 55.9056L0.865814 55.2849L1.93283 54.8232C7.50389 52.4071 11.2231 48.8931 15.1577 45.179C18.41 42.1011 21.7752 38.9257 26.269 36.448C24.2838 29.261 24.4325 23.4539 24.5864 17.3135C24.7095 12.5016 24.8378 7.52563 23.8323 1.78528L23.5861 0.364304ZM89.1512 35.4733C65.3793 26.1882 47.948 18.1342 25.2738 2.98055C26.0484 8.24895 25.9305 12.8658 25.8176 17.3442C25.6586 23.5206 25.5098 29.3584 27.5823 36.5813L27.7208 37.0584L27.2796 37.2944C22.714 39.726 19.3026 42.9527 15.999 46.0716C12.3978 49.4728 8.67864 52.9867 3.46667 55.4747C25.0584 69.0587 41.2894 76.6048 63.3171 85.5667C72.12 69.0587 80.8049 52.2121 89.1461 35.4733H89.1512Z" fill="#3B95B3"/>
</g>
<path d="M74.8439 42.1728C79.9071 39.9721 84.8728 37.6739 89.7462 35.2783L74.8439 42.1728Z" fill="#D1F3FC"/>
<path d="M89.7514 34.6679C89.9771 34.6679 90.1977 34.791 90.3054 35.0116C90.4542 35.3142 90.3311 35.6836 90.0233 35.8323C85.1396 38.2331 80.1175 40.557 75.0953 42.7372C74.7824 42.8706 74.4233 42.7269 74.2848 42.414C74.1514 42.1062 74.2951 41.742 74.608 41.6086C79.6096 39.4335 84.6164 37.1199 89.4795 34.7294C89.5667 34.6884 89.6591 34.6679 89.7514 34.6679Z" fill="#3B95B3"/>
<path d="M74.7721 42.5063C169.757 82.8888 277.367 82.9606 372.393 42.7217C379.842 60.3224 387.295 77.9179 394.744 95.5186C285.416 141.816 161.621 141.734 52.3442 95.2775C59.8236 77.6871 67.2978 60.0967 74.7721 42.5063Z" fill="#D1F3FC"/>
<path d="M74.4387 41.7009L75.003 41.942C122.28 62.0409 172.353 72.234 223.826 72.234C275.11 72.234 325.013 62.1127 372.147 42.1523L372.716 41.9112L395.544 95.8469L394.975 96.0829C367.92 107.543 339.587 116.3 310.752 122.117C282.21 127.873 252.964 130.792 223.826 130.792C194.581 130.792 165.228 127.852 136.592 122.056C107.67 116.202 79.2403 107.379 52.098 95.8418L51.5338 95.6007L74.4387 41.7009ZM223.826 73.4652C198.403 73.4652 172.886 70.9105 147.986 65.8678C123.034 60.8149 98.5082 53.2278 75.0851 43.3168L53.1445 94.9543C107.378 117.921 164.802 129.566 223.826 129.566C282.635 129.566 339.864 118.003 393.934 95.1954L372.065 43.5272C348.708 53.3714 324.27 60.9021 299.405 65.9191C274.592 70.9259 249.163 73.4652 223.826 73.4652Z" fill="#3B95B3"/>
</svg>
