<svg width="460" height="135" viewBox="0 0 460 135" fill="none" xmlns="http://www.w3.org/2000/svg">
<mask id="mask0_10_1164" style="mask-type:luminance" maskUnits="userSpaceOnUse" x="47" y="33" width="347" height="101">
<path d="M47.7678 37.6704L392.738 33.9629L393.767 129.696L48.7967 133.403L47.7678 37.6704Z" fill="white"/>
</mask>
<g mask="url(#mask0_10_1164)">
<path d="M52.7562 68.9849C53.318 66.9558 53.9629 64.9036 54.6574 62.8176C55.508 60.2574 56.4411 57.613 57.4461 54.94C58.0947 53.2323 58.7663 51.6023 59.4438 49.9999C60.2179 48.0741 61.0484 46.2311 61.8851 44.4437C62.9491 42.0868 64.0699 39.8406 65.164 37.7002C77.0244 42.3635 88.8847 47.0213 100.773 51.6566C99.1885 55.2639 97.6565 59.0597 96.2097 63.0379C95.5676 64.8289 94.9477 66.614 94.3555 68.4044C93.7365 70.2729 93.173 72.1409 92.6314 73.9807C89.4998 84.602 87.6123 94.6263 86.5147 103.681C84.945 101.385 83.3224 98.824 81.7244 95.9678C80.9368 94.5646 80.1483 93.0836 79.3868 91.5245C78.4888 89.6723 77.5898 87.7367 76.7456 85.7228C75.0801 81.7557 73.7889 77.9625 72.7953 74.4607C70.9442 75.4643 69.0932 76.4735 67.2146 77.4996L62.2912 80.1592C57.7162 82.6593 53.119 85.1541 48.5164 87.6768C49.4386 81.9479 50.8329 75.6805 52.7562 68.9849ZM197.154 97.0115C197.148 93.877 197.193 90.7864 197.294 87.7563C197.335 86.422 197.371 85.0933 197.412 83.7924C197.562 80.1171 197.762 76.5524 198.014 73.0927C204.568 73.767 211.41 74.3271 218.567 74.7059C225.997 75.104 233.124 75.322 239.961 75.3541C239.622 85.6786 239.282 96.003 238.938 106.355C238.881 108.351 238.825 110.347 238.735 112.343C238.542 118.676 238.316 125.036 238.117 131.369C234.743 129.248 230.182 125.813 225.952 120.539C225.248 119.669 224.605 118.825 224.007 117.981C222.172 115.367 220.812 112.88 219.805 110.735L219.783 110.763C216.72 113.241 213.689 115.725 210.632 118.203C208.758 119.74 206.913 121.25 205.039 122.759C202.902 124.511 200.769 126.234 198.632 127.986C198.271 123.894 197.931 119.64 197.694 115.202C197.536 112.386 197.421 109.458 197.339 106.508C197.195 103.425 197.161 100.257 197.154 97.0115ZM339.201 64.5226C342.259 71.9371 345.275 79.9913 348.108 88.6865C348.217 89.0077 348.299 89.3236 348.408 89.6448C348.85 91.0184 349.287 92.3754 349.674 93.7273C351.989 101.178 353.905 108.31 355.517 115.079C358.154 110.154 360.758 105.229 363.395 100.31C364.256 98.6782 365.138 97.0458 365.999 95.3859C367.148 93.2171 368.32 91.0481 369.469 88.8849C373.915 91.9217 378.338 94.9587 382.789 97.9955C384.262 99.019 385.762 100.042 387.263 101.06C389.351 102.505 391.417 103.916 393.506 105.356C392.213 98.8557 390.594 91.9537 388.548 84.6894L387.169 79.9412L387.14 79.8359C386.535 77.7916 385.873 75.7257 385.212 73.6597C384.114 70.2646 382.962 67.0034 381.811 63.8534L381.645 63.405C380.958 61.545 380.277 59.746 379.563 57.9697C379.015 56.5917 378.472 55.2192 377.924 53.8634C371.904 55.8178 365.594 57.7474 358.994 59.5746C352.2 61.4039 345.593 63.07 339.201 64.5226Z" fill="#3B95B3"/>
</g>
<mask id="mask1_10_1164" style="mask-type:luminance" maskUnits="userSpaceOnUse" x="-13" y="17" width="480" height="114">
<path d="M-12.8146 22.9542L465.122 17.8177L466.281 125.743L-11.6547 130.879L-12.8146 22.9542Z" fill="white"/>
</mask>
<g mask="url(#mask1_10_1164)">
<path d="M-10.9277 51.662L-10.4849 50.4568C-9.65812 48.2693 -8.77661 45.9978 -7.8173 43.7255L-7.35139 42.6033C-6.65226 40.9452 -5.92558 39.2645 -5.14363 37.5554L-4.51889 36.2148C-4.07933 35.2263 -3.61199 34.2376 -3.11716 33.2208L-2.38851 31.7234C-1.68705 30.282 -0.958098 28.8125 -0.173637 27.3368C-0.124459 27.2584 -0.0700225 27.1523 -0.0153462 27.0683L0.583696 25.9225C1.49287 24.1565 2.43066 22.468 3.37407 20.7849L3.89752 19.8456C4.93952 18.0281 5.95983 16.2609 7.03076 14.5487C7.2923 14.0624 7.57644 13.6091 7.89362 13.1278C8.78372 11.6565 9.69659 10.235 10.5875 8.84154C12.3778 9.93942 14.174 11.065 16.0201 12.1901C16.8255 12.6594 17.6534 13.1563 18.4868 13.6531C19.7957 14.4338 21.1381 15.2196 22.4745 15.9778C23.0617 16.3161 23.6489 16.6544 24.2417 16.9926C24.8289 17.3364 25.4439 17.6744 26.0592 18.0401C27.2111 18.6891 28.3349 19.3162 29.4588 19.9433L31.6001 21.1207C34.0378 22.4729 36.4411 23.7253 38.8222 24.978C39.7054 25.4465 40.6163 25.9147 41.4711 26.3334C41.8177 26.5131 42.142 26.6986 42.4605 26.8564C42.3104 27.8917 42.1107 28.961 41.9113 30.0524C41.8117 30.6093 41.7124 31.1995 41.585 31.7566C41.3592 32.9817 41.0779 34.213 40.7748 35.489L40.3921 37.116C39.9331 38.8772 39.4191 40.6946 38.8278 42.5628C38.6456 43.1983 38.4411 43.8174 38.2367 44.4532C38.0266 45.0724 37.8223 45.7082 37.5902 46.3498C37.2024 47.4989 36.7645 48.6485 36.3261 49.7425C36.0885 50.3842 35.8339 50.9983 35.5737 51.6125C34.7941 53.5383 33.9913 55.381 33.1599 57.1462C32.8179 57.8946 32.4535 58.6433 32.0889 59.3641C30.8648 61.8227 29.6165 64.0981 28.361 66.2125L27.001 68.4391C26.034 69.989 25.0939 71.4663 24.1468 72.8048C23.9771 71.5006 23.7225 70.0416 23.3555 68.4783L22.8848 66.5659C22.2998 64.3657 21.5297 62.0064 20.4973 59.5443L20.3836 59.3065C20.167 58.8031 19.9501 58.2719 19.7057 57.7687L19.3757 57.0553C18.6139 55.4684 17.8254 53.9874 17.0164 52.6623C16.6878 52.0822 16.3092 51.5027 15.959 50.9729C15.3938 50.1009 14.8237 49.2845 14.26 48.5458C10.4562 48.8534 5.91704 49.5136 0.851793 50.8685C-4.4793 52.3097 -8.98311 54.1922 -12.5267 55.9587C-11.9583 54.5465 -11.4677 53.1295 -10.9277 51.662ZM126.521 81.5975C127.67 74.2433 129.029 67.2592 130.503 60.6741C131.702 60.9835 132.878 61.2877 134.104 61.6191C134.611 61.747 135.118 61.875 135.648 62.0027C137.063 62.3598 138.479 62.717 139.944 63.0736C140.373 63.1746 140.825 63.3031 141.253 63.3763C142.747 63.7327 144.24 64.089 145.756 64.4451C146.263 64.573 146.742 64.679 147.249 64.7792L148.213 65.0078C149.622 65.3094 151.009 65.6169 152.424 65.9185C152.959 66.0183 153.488 66.146 153.995 66.2462C155.382 66.5536 156.741 66.828 158.128 67.0799L159.515 67.3595C160.422 67.5332 161.33 67.7124 162.233 67.8861L164.337 68.2636C165.245 68.4151 166.125 68.589 167.033 68.7404C166.902 76.2726 166.484 84.3859 165.642 92.9373C164.538 104.015 162.919 114.192 161.023 123.416C160.265 122.201 159.48 121.015 158.694 119.8L158.451 119.403C157.886 118.559 157.344 117.709 156.751 116.842L156.508 116.495C155.423 114.861 154.288 113.195 153.098 111.507C152.776 111.033 152.454 110.553 152.098 110.079C151.777 109.632 151.478 109.207 151.156 108.788C149.966 107.095 148.781 105.485 147.563 103.875L147.456 103.72C146.65 102.64 145.81 101.554 145.004 100.501C144.677 100.076 144.355 99.6298 144.006 99.2056C142.944 99.6449 141.832 100.163 140.666 100.787C139.688 101.275 138.682 101.819 137.627 102.442C137.02 102.793 136.385 103.172 135.75 103.607C135.143 103.986 134.536 104.387 133.929 104.822C133.4 105.2 132.87 105.578 132.374 105.955C131.023 106.954 129.789 108.006 128.677 109.002C127.549 109.998 126.548 110.992 125.625 111.958C124.679 112.958 123.812 113.923 123.077 114.837C123.606 104.56 124.681 93.4275 126.521 81.5975ZM270.651 74.3295L272.055 74.181L277.318 73.6465C278.007 73.5613 278.701 73.4983 279.367 73.4411C281.038 73.262 282.687 73.0831 284.358 72.9095L286.084 72.7297C287.444 72.5817 288.821 72.4613 290.181 72.2856L291.88 72.1061L297.937 71.4853L299.613 71.3061C301.101 71.1567 302.589 71.0073 304.077 70.8357C304.554 70.775 305.032 70.7421 305.509 70.6869C306.491 70.5652 307.502 70.4765 308.484 70.3604C310.644 77.8902 312.699 86.0881 314.467 94.9282C316.353 104.351 317.671 113.251 318.588 121.483C317.837 120.936 317.059 120.411 316.308 119.885C315.474 119.283 314.617 118.681 313.788 118.106L307.757 113.858C306.816 113.207 305.881 112.522 304.918 111.871C302.773 110.349 300.6 108.827 298.455 107.311C297.895 106.917 297.33 106.522 296.769 106.106C296.529 106.481 296.294 106.856 296.059 107.259C295.065 108.837 293.943 110.522 292.628 112.27C291.894 113.261 291.11 114.253 290.243 115.297C289.662 115.998 289.036 116.721 288.404 117.445C287.877 118.012 287.35 118.601 286.828 119.14C285.959 120.028 285.112 120.859 284.27 121.669C283.192 122.692 282.113 123.632 281.083 124.521C280.213 125.247 279.342 125.951 278.526 126.571C277.997 126.977 277.468 127.355 276.994 127.733C276.272 120.049 275.227 111.79 273.722 103.08C271.939 92.8064 269.736 83.3041 267.381 74.7148C268.441 74.57 269.557 74.4469 270.651 74.3295ZM402.356 45.0918C403.843 47.4157 405.309 49.8731 406.798 52.4137C407.449 53.546 408.1 54.684 408.746 55.8497C410.106 58.2805 411.462 60.8447 412.797 63.4648C412.927 63.7302 413.064 64.0233 413.2 64.2886C413.773 65.3995 414.319 66.5108 414.831 67.6224C416.167 70.398 417.419 73.1246 418.565 75.8244C419.004 76.8312 419.437 77.8381 419.848 78.8174L419.984 79.1383C421.542 82.8731 422.909 86.4987 424.169 89.9977L425.242 93.0985C425.409 93.6025 425.569 94.0787 425.736 94.5827C428.385 90.7527 431.23 86.0925 433.805 80.507C435.624 76.5748 437.024 72.8638 438.077 69.5012C440.163 70.6737 442.543 71.8986 445.19 73.0651L447.301 73.9483C448.479 74.4414 449.734 74.9059 451.012 75.3701C453.177 76.1472 455.256 76.764 457.235 77.2763C458.138 77.5056 459.018 77.7351 459.898 77.909C462.032 78.3918 464.031 78.7427 465.846 79.0456C464.91 76.2323 463.895 73.3198 462.796 70.3749C462.384 69.24 461.977 68.1272 461.537 66.987C460.032 62.9849 458.393 58.8787 456.648 54.6958L455.935 53.025C455.496 51.9682 455.034 50.9116 454.573 49.8494C452.823 45.85 451.026 41.99 449.229 38.2578L448.172 36.0849C446.865 33.4423 445.559 30.872 444.26 28.3627C443.959 27.7768 443.636 27.1968 443.335 26.6164C443.23 26.6676 443.125 26.7243 443.02 26.781C438.786 28.9273 434.391 31.1032 429.812 33.2532C429.154 33.5771 428.491 33.8788 427.799 34.1752C425.338 35.3188 422.827 36.4629 420.255 37.5854C418.379 38.4003 416.499 39.2487 414.645 40.0133L411.995 41.1311C408.764 42.5219 405.561 43.8347 402.356 45.0918Z" fill="#FFF8B7"/>
</g>
<path d="M94.3274 68.3769C93.7083 70.2454 93.1448 72.1133 92.6033 73.9588C91.9857 73.3763 91.6045 72.5578 91.5945 71.6242C91.549 69.9796 92.7626 68.6105 94.3274 68.3769ZM81.6962 95.9403C81.9357 95.9933 82.1749 96.0129 82.4139 96.0104C84.2255 95.9909 85.6713 94.5137 85.6519 92.7076C85.6328 90.9238 84.1555 89.4779 82.3439 89.4974C80.9879 89.512 79.852 90.3467 79.3586 91.4969L81.6962 95.9403ZM54.6573 62.8175C55.7797 63.3112 56.5367 64.448 56.5507 65.7539C56.5701 67.56 55.1243 69.0372 53.3182 69.0566C53.1293 69.0586 52.9181 69.0609 52.7564 69.0126C53.3179 66.9558 53.9628 64.9036 54.6573 62.8175ZM67.1587 77.478C67.2199 75.9322 66.1986 74.5093 64.622 74.1539C62.8613 73.7448 61.117 74.8529 60.7135 76.6135C60.3844 78.0565 61.0608 79.4554 62.2411 80.1596L67.1587 77.478ZM84.41 73.8578C86.2217 73.8384 87.6989 75.2842 87.7184 77.0958C87.7378 78.9019 86.292 80.3847 84.4804 80.4042C82.6743 80.4236 81.1915 78.9722 81.1721 77.1662C81.1804 75.3542 82.6262 73.877 84.41 73.8578ZM61.8847 44.4158C63.6138 44.475 64.9852 45.8998 65.0038 47.628C65.0232 49.4341 63.5774 50.9113 61.7658 50.9308C60.86 50.9406 60.0335 50.5771 59.4437 49.9998L61.8847 44.4158ZM72.9462 59.0306C74.7522 59.0112 76.2351 60.4625 76.2545 62.2686C76.2739 64.0747 74.8226 65.5575 73.0165 65.5769C71.2104 65.5963 69.7276 64.145 69.7082 62.3389C69.6888 60.5329 71.1401 59.05 72.9462 59.0306ZM91.628 54.5726C93.434 54.5532 94.9113 56.0046 94.9307 57.8106C94.9502 59.6222 93.5044 61.0995 91.6983 61.1189C89.8867 61.1384 88.4095 59.6925 88.39 57.8809C88.3706 56.0748 89.8163 54.5921 91.628 54.5726ZM205.354 114.853L210.604 118.203C208.731 119.741 206.885 121.25 205.011 122.76L205.354 114.853ZM219.794 109.696L228.82 115.451L223.979 117.982C222.144 115.367 220.789 112.881 219.783 110.735L219.755 110.763L219.794 109.696ZM197.644 115.202L197.947 116.027L204.745 107.756L197.284 106.536L197.644 115.202ZM234.976 103.841L238.91 106.356C238.854 108.351 238.797 110.347 238.713 112.343L234.507 114.539L234.976 103.841ZM197.412 83.7923L203.15 80.4015L203.265 91.1213L197.293 87.7563C197.307 86.4223 197.371 85.1211 197.412 83.7923ZM213.186 91.1202L222.212 96.8756L212.717 101.818L213.186 91.1202ZM233.799 81.217L233.914 91.9368L224.576 86.6905L233.799 81.217ZM386.05 94.7702C387.862 94.7507 389.339 96.1966 389.358 98.0082C389.373 99.3919 388.508 100.596 387.29 101.059C385.812 100.042 384.312 99.0184 382.811 97.9952C382.848 96.2163 384.266 94.7894 386.05 94.7702ZM387.167 79.78C386.363 79.444 385.463 79.4259 384.638 79.7849C382.995 80.4918 382.221 82.4175 382.928 84.055C383.641 85.7258 385.561 86.4777 387.232 85.7928C387.813 85.5476 388.286 85.1423 388.603 84.661L387.167 79.78ZM363.417 100.282L363.261 100.284C361.477 100.303 360 98.8572 359.981 97.0456C359.961 95.2396 361.407 93.7568 363.191 93.7376C364.413 93.7244 365.46 94.3801 366.026 95.3578L363.417 100.282ZM349.674 93.6994C349.997 93.8016 350.37 93.8754 350.743 93.8714C352.549 93.852 353.995 92.3747 353.975 90.5687C353.956 88.757 352.479 87.3112 350.673 87.3306C349.606 87.3421 348.655 87.8581 348.08 88.659L349.674 93.6994ZM351.538 71.7039C353.35 71.6845 354.827 73.1359 354.847 74.9419C354.866 76.7536 353.42 78.2308 351.609 78.2503C349.803 78.2697 348.325 76.8238 348.306 75.0122C348.314 73.2059 349.732 71.7234 351.538 71.7039ZM359.234 59.5998C361.04 59.5804 362.517 61.0262 362.536 62.8378C362.556 64.6439 361.11 66.1211 359.304 66.1405C357.492 66.16 356.015 64.7142 355.996 62.9081C355.976 61.0965 357.422 59.6192 359.234 59.5998ZM371.057 73.2004C372.863 73.181 374.34 74.6268 374.359 76.4329C374.379 78.2445 372.933 79.7218 371.127 79.7412C369.315 79.7606 367.838 78.3148 367.819 76.5032C367.799 74.6971 369.245 73.2199 371.057 73.2004ZM379.59 57.9193C377.914 58.0929 376.628 59.4906 376.647 61.1967C376.666 63.0027 378.143 64.4486 379.955 64.4291C380.672 64.4214 381.33 64.1753 381.86 63.7973L379.59 57.9193Z" fill="#FFF8B7"/>
<path d="M7.89344 13.1C10.5446 12.5935 13.3373 12.3245 16.0197 12.1345C16.825 12.6038 17.6529 13.1007 18.4864 13.5975C18.4308 13.5981 18.4033 13.6262 18.3255 13.627C14.7399 14.0657 10.7272 14.5868 7.00249 14.4934C7.29242 14.0624 7.60404 13.5811 7.89344 13.1ZM3.89208 19.8457C10.1029 18.5562 16.2635 17.2395 22.4746 15.9778C23.0618 16.3161 23.649 16.6544 24.2418 16.9926C17.2864 18.2956 10.3297 19.4875 3.40197 20.7846L3.89208 19.8457ZM29.4587 19.921C25.8475 20.5657 22.2648 21.2711 18.7106 22.054C12.739 23.3687 6.72069 25.5064 0.583218 25.867L-0.0157643 27.0183C5.72649 27.1178 11.3475 25.2455 16.9474 23.9904C21.8043 22.8989 26.7126 21.9402 31.6277 21.0927L29.4587 19.921ZM-2.3606 31.7232C0.719905 31.3455 3.61303 30.5974 6.77014 30.1078C10.7264 29.5095 14.7442 29.4663 18.6988 28.7068C25.4433 27.4339 32.052 25.9289 38.822 24.9503C39.7052 25.4187 40.6162 25.8925 41.471 26.3057C32.9495 27.7256 24.4554 29.6287 15.932 30.8652C12.2141 31.4109 8.35542 31.2634 4.69075 32.1031C1.90733 32.7166 -0.433242 33.1641 -3.08955 33.1927L-2.3606 31.7232ZM-4.49654 36.2146C11.0166 34.2694 26.3316 30.9646 41.9392 30.0521C41.8396 30.609 41.7348 31.1992 41.6074 31.7564C25.8646 31.9812 10.5657 36.7974 -5.09379 37.5271L-4.49654 36.2146ZM40.7974 35.5166C24.7301 37.6067 8.71819 40.1964 -7.32349 42.603L-7.79496 43.7252C8.27738 41.585 24.3789 39.5779 40.3925 37.1438L40.7974 35.5166ZM-10.4623 50.4844C5.7841 46.9584 22.3298 44.3852 38.8559 42.5847C38.6738 43.2258 38.4692 43.8394 38.2594 44.4808C21.8481 46.6246 5.45688 49.0906 -10.8998 51.6618L-10.4623 50.4844ZM36.3488 49.7701C36.1167 50.4117 35.8565 51.0259 35.5963 51.64C29.3995 51.6511 23.2386 52.412 17.0666 52.6617C16.7435 52.0816 16.3649 51.5021 16.0147 50.9724C22.8161 50.3379 29.6403 49.2308 36.3488 49.7701ZM33.1826 57.1737C32.8461 57.9221 32.4817 58.6708 32.1171 59.3916C30.1221 59.4131 28.1259 59.3289 26.159 59.3778C24.2976 59.4201 22.4091 59.5237 20.548 59.5938L20.4398 59.3559C20.2232 58.8525 20.0008 58.3269 19.7564 57.8238C24.1122 57.1656 28.844 56.848 33.1826 57.1737ZM28.3892 66.24C26.6053 66.2591 24.7448 66.3847 22.9408 66.5931L23.4115 68.4999C23.756 68.4962 24.1003 68.4703 24.4504 68.4665L27.0567 68.4385L28.3892 66.24ZM135.626 62.0307C135.069 69.6675 133.316 77.2727 132.119 84.8386C130.85 92.8833 129.869 100.958 128.655 109.002L125.597 111.936C125.517 111.776 125.487 111.587 125.513 111.376C126.49 102.984 127.968 94.6427 129.34 86.3302C130.691 78.1513 131.661 69.5986 134.104 61.6191L135.626 62.0307ZM141.226 63.4044C140.616 71.2308 138.97 78.9905 137.804 86.7728C136.985 92.2893 136.518 98.0133 135.751 103.629C135.143 104.008 134.536 104.415 133.93 104.849C133.4 105.227 132.871 105.606 132.374 105.983C133.056 100.068 134.348 94.1517 135.27 88.3951C136.586 79.9776 137.61 71.3187 139.945 63.1292L141.226 63.4044ZM147.227 64.8016L147.227 64.8572C145.679 76.9231 143.095 88.8946 140.644 100.815C139.666 101.303 138.66 101.847 137.6 102.47C140.042 89.7777 142.3 76.9316 145.706 64.4734L147.227 64.8016ZM152.397 65.9188C152.931 66.0186 153.466 66.1463 153.973 66.2464C152.792 72.7006 151.505 79.1503 150.374 85.6262C149.35 91.6507 148.75 97.8819 147.536 103.903L147.429 103.748L144.976 100.529C146.13 88.9453 149.242 76.9682 152.397 65.9188ZM159.465 67.3601C157.998 81.9261 155.013 96.3251 153.308 110.866C153.283 111.133 153.18 111.373 153.076 111.535L151.129 108.816C153.186 94.933 154.712 80.7387 158.1 67.108L159.465 67.3601ZM164.288 68.2642C164.23 85.1327 162.401 103.237 158.645 119.801L158.401 119.403L156.695 116.843L156.453 116.495C157.492 109.276 158.799 102.081 159.627 94.836C160.67 85.8601 161.212 76.8618 162.182 67.8644L164.288 68.2642ZM281.083 124.471C278.457 107.709 276.118 90.6829 272.055 74.1811L270.651 74.3295C272.856 91.7851 276.265 109.066 278.526 126.516L281.083 124.471ZM286.827 119.113C285.923 112.019 284.146 104.908 283.031 97.9004C281.721 89.7446 280.755 81.5628 279.389 73.4131C278.7 73.4705 278.007 73.5613 277.346 73.6184C277.717 81.2508 278.894 88.9024 280.064 96.4428C281.348 104.699 282.187 113.471 284.298 121.613L286.827 119.113ZM286.084 72.702C289.283 85.4338 291.72 99.1076 292.628 112.242C291.894 113.234 291.11 114.226 290.243 115.274C289.044 107.651 288.427 99.8877 287.284 92.2691C286.336 85.8156 285.255 79.3635 284.358 72.8817L286.084 72.702ZM291.88 72.1061C294.423 83.7335 296.495 95.5715 298.455 107.283C297.895 106.889 297.329 106.5 296.769 106.078C296.529 106.453 296.294 106.828 296.059 107.231C293.89 95.6829 291.768 83.9454 290.181 72.2578L291.88 72.1061ZM307.757 113.836C308.244 107.417 305.535 100.026 304.324 93.8145C302.859 86.2994 301.582 78.6823 299.635 71.2781L297.964 71.4572C298.756 78.4459 300.215 85.3997 301.462 92.328C302.509 98.1968 302.802 105.825 304.94 111.843L307.757 113.836ZM316.309 119.885C316.545 119.616 316.674 119.242 316.586 118.793C313.89 102.754 310.123 86.3047 305.509 70.6869C305.031 70.7143 304.554 70.775 304.077 70.8357C306.375 86.584 309.682 102.694 313.788 118.078L316.309 119.885ZM412.073 41.1581C410.201 44.8186 408.274 48.5908 406.798 52.4137L408.747 55.8497C411.278 50.9539 412.946 45.2948 414.696 40.035L412.073 41.1581ZM427.882 34.1744C428.117 33.7494 428.351 33.2912 428.585 32.8663C428.923 32.2513 429.966 32.5847 429.895 33.2246C429.896 33.2746 429.896 33.3302 429.869 33.386C425.524 44.8929 420.324 56.3922 414.914 67.5937C414.396 66.4822 413.823 65.3712 413.283 64.2599C417.748 54.0745 422.584 43.8629 427.882 34.1744ZM443.07 26.7805C443.175 26.7237 443.28 26.667 443.385 26.6159C443.686 27.1962 444.015 27.7763 444.31 28.3622C436.194 45.2617 428.559 62.4451 420.04 79.1099L419.903 78.7946L418.62 75.8016C426.369 59.3062 434.998 43.1182 443.07 26.7805ZM449.285 38.2294C446.367 46.5307 442.225 54.6396 438.721 62.6582C434.414 72.5696 430.861 83.8067 425.27 93.0704L424.197 89.9696C427.185 80.9506 432.12 72.1718 435.885 63.5668C439.856 54.5317 443.397 44.7564 448.2 36.0568L449.285 38.2294ZM456.698 54.6952C453.599 61.1367 450.45 67.5564 447.357 73.9755L445.246 73.0923C448.63 66.2977 451.964 59.4536 456.013 53.0519L456.698 54.6952ZM457.285 77.2757C458.193 77.505 459.074 77.7345 459.954 77.9084C460.883 75.3697 461.867 72.8636 462.88 70.374C462.467 69.2391 462.055 68.1264 461.621 66.9862C459.9 70.2782 458.448 73.7785 457.285 77.2757Z" fill="#3B95B3"/>
<path d="M261.281 73.8467C251.759 74.2436 242.001 74.3484 232.05 74.1052C127.959 71.5836 48.8348 33.007 0.767486 1.12729C0.230297 0.788481 -0.457354 0.929257 -0.824308 1.4334C-1.16312 1.97059 -1.02228 2.6638 -0.518137 3.03075C47.7901 35.0969 127.344 73.8522 231.991 76.3957C237.183 76.5288 242.341 76.5512 247.426 76.4966C251.388 76.454 255.294 76.3564 259.178 76.2091C347.405 72.8933 417.156 43.4711 461.622 18.011C462.18 17.6882 462.356 16.9916 462.061 16.4667C461.733 15.9089 461.042 15.733 460.512 16.0277C416.652 41.1089 348.037 70.1187 261.281 73.8467Z" fill="black"/>
</svg>
