<svg width="342" height="490" viewBox="0 0 342 490" fill="none" xmlns="http://www.w3.org/2000/svg">
<mask id="mask0_4130_18852" style="mask-type:luminance" maskUnits="userSpaceOnUse" x="0" y="0" width="342" height="490">
<path d="M341.747 0H0.152344V490H341.747V0Z" fill="white"/>
</mask>
<g mask="url(#mask0_4130_18852)">
<mask id="mask1_4130_18852" style="mask-type:luminance" maskUnits="userSpaceOnUse" x="-10" y="-9" width="362" height="511">
<path d="M351.363 -8.82056H-9.4668V501.82H351.363V-8.82056Z" fill="white"/>
</mask>
<g mask="url(#mask1_4130_18852)">
<path d="M351.363 -8.8186H-9.4668V501.822H351.363V-8.8186Z" fill="url(#paint0_linear_4130_18852)"/>
</g>
<mask id="mask2_4130_18852" style="mask-type:luminance" maskUnits="userSpaceOnUse" x="-10" y="-9" width="362" height="511">
<path d="M351.363 -8.82056H-9.4668V501.82H351.363V-8.82056Z" fill="white"/>
</mask>
<g mask="url(#mask2_4130_18852)">
<path d="M77.0902 -29.5784L110.695 460.064L-308.18 245.905L77.0902 -29.5784Z" fill="url(#paint1_linear_4130_18852)"/>
</g>
<mask id="mask3_4130_18852" style="mask-type:luminance" maskUnits="userSpaceOnUse" x="-10" y="-9" width="362" height="511">
<path d="M351.363 -8.82056H-9.4668V501.82H351.363V-8.82056Z" fill="white"/>
</mask>
<g mask="url(#mask3_4130_18852)">
<g opacity="0.7">
<path d="M259.146 345.062L509.544 478.33L274.874 640.351L259.146 345.062Z" fill="url(#paint2_linear_4130_18852)"/>
</g>
</g>
<mask id="mask4_4130_18852" style="mask-type:luminance" maskUnits="userSpaceOnUse" x="-10" y="-9" width="362" height="511">
<path d="M351.363 -8.82056H-9.4668V501.82H351.363V-8.82056Z" fill="white"/>
</mask>
<g mask="url(#mask4_4130_18852)">
<g opacity="0.5">
<path d="M76.4121 -138.522L418.573 -34.7233L162.292 225.846L76.4121 -138.522Z" fill="url(#paint3_linear_4130_18852)"/>
</g>
</g>
<mask id="mask5_4130_18852" style="mask-type:luminance" maskUnits="userSpaceOnUse" x="-10" y="-9" width="362" height="511">
<path d="M351.363 -8.82056H-9.4668V501.82H351.363V-8.82056Z" fill="white"/>
</mask>
<g mask="url(#mask5_4130_18852)">
<path d="M-235.65 55.2571L38.621 193.774L-212.342 375.004L-235.65 55.2571Z" fill="url(#paint4_linear_4130_18852)"/>
</g>
<mask id="mask6_4130_18852" style="mask-type:luminance" maskUnits="userSpaceOnUse" x="-10" y="-9" width="362" height="511">
<path d="M351.363 -8.82056H-9.4668V501.82H351.363V-8.82056Z" fill="white"/>
</mask>
<g mask="url(#mask6_4130_18852)">
<g opacity="0.3">
<path d="M635.367 108.694L258.018 137.567L423.101 -221.432L635.367 108.694Z" fill="url(#paint5_linear_4130_18852)"/>
</g>
</g>
<mask id="mask7_4130_18852" style="mask-type:luminance" maskUnits="userSpaceOnUse" x="-10" y="-9" width="362" height="511">
<path d="M351.363 -8.82056H-9.4668V501.82H351.363V-8.82056Z" fill="white"/>
</mask>
<g mask="url(#mask7_4130_18852)">
<g opacity="0.5">
<path d="M138.757 -299.467L164.894 81.4847L-160.973 -85.0699L138.757 -299.467Z" fill="url(#paint6_linear_4130_18852)"/>
</g>
</g>
<mask id="mask8_4130_18852" style="mask-type:luminance" maskUnits="userSpaceOnUse" x="-10" y="-9" width="362" height="511">
<path d="M351.363 -8.82056H-9.4668V501.82H351.363V-8.82056Z" fill="white"/>
</mask>
<g mask="url(#mask8_4130_18852)">
<g opacity="0.5">
<path d="M-129.857 969.036L32.0578 314.749L488.498 789.716L-129.857 969.036Z" fill="url(#paint7_linear_4130_18852)"/>
</g>
</g>
<mask id="mask9_4130_18852" style="mask-type:luminance" maskUnits="userSpaceOnUse" x="-10" y="-9" width="362" height="511">
<path d="M351.363 -8.82056H-9.4668V501.82H351.363V-8.82056Z" fill="white"/>
</mask>
<g mask="url(#mask9_4130_18852)">
<path d="M340.727 97.5992C340.048 96.8833 340.048 95.8096 340.727 95.0937C341.406 94.3779 342.424 94.3779 343.103 95.0937C343.782 95.8096 343.782 96.8833 343.103 97.5992C342.424 98.315 341.406 98.315 340.727 97.5992ZM333.938 90.4407C333.259 89.7248 333.259 88.6511 333.938 87.9352C334.617 87.2194 335.636 87.2194 336.314 87.9352C336.993 88.6511 336.993 89.7248 336.314 90.4407C335.749 91.1565 334.617 91.1565 333.938 90.4407ZM327.149 83.2822C326.471 82.5663 326.471 81.4926 327.149 80.7767C327.828 80.0609 328.847 80.0609 329.526 80.7767C330.204 81.4926 330.204 82.5663 329.526 83.2822C328.96 83.998 327.828 83.998 327.149 83.2822ZM320.474 76.1237C319.795 75.4078 319.795 74.3341 320.474 73.6182C321.153 72.9024 322.171 72.9024 322.85 73.6182C323.529 74.3341 323.529 75.4078 322.85 76.1237C322.171 76.8395 321.153 76.8395 320.474 76.1237ZM313.685 69.0845C313.006 68.3686 313.006 67.2948 313.685 66.579C314.364 65.8631 315.382 65.8631 316.061 66.579C316.74 67.2948 316.74 68.3686 316.061 69.0845C315.382 69.681 314.364 69.681 313.685 69.0845ZM306.896 61.9259C306.217 61.2101 306.217 60.1363 306.896 59.4205C307.575 58.7046 308.593 58.7046 309.272 59.4205C309.951 60.1363 309.951 61.2101 309.272 61.9259C308.706 62.6418 307.575 62.6418 306.896 61.9259ZM347.403 90.4407C346.724 89.7248 346.724 88.6511 347.403 87.9352C348.082 87.2194 349.1 87.2194 349.779 87.9352C350.458 88.6511 350.458 89.7248 349.779 90.4407C349.213 91.1565 348.082 91.1565 347.403 90.4407ZM340.727 83.2822C340.048 82.5663 340.048 81.4926 340.727 80.7767C341.406 80.0609 342.424 80.0609 343.103 80.7767C343.782 81.4926 343.782 82.5663 343.103 83.2822C342.424 83.998 341.293 83.998 340.727 83.2822ZM333.938 76.243C333.259 75.5271 333.259 74.4533 333.938 73.7375C334.617 73.0216 335.636 73.0216 336.314 73.7375C336.993 74.4533 336.993 75.5271 336.314 76.243C335.636 76.9588 334.617 76.9588 333.938 76.243ZM327.149 69.0845C326.471 68.3686 326.471 67.2948 327.149 66.579C327.828 65.8631 328.847 65.8631 329.526 66.579C330.204 67.2948 330.204 68.3686 329.526 69.0845C328.96 69.8003 327.828 69.8003 327.149 69.0845ZM320.361 61.9259C319.682 61.2101 319.682 60.1363 320.361 59.4205C321.039 58.7046 322.058 58.7046 322.737 59.4205C323.416 60.1363 323.416 61.2101 322.737 61.9259C322.171 62.6418 321.039 62.6418 320.361 61.9259ZM313.685 54.7674C313.006 54.0516 313.006 52.9778 313.685 52.262C314.364 51.5461 315.382 51.5461 316.061 52.262C316.74 52.9778 316.74 54.0516 316.061 54.7674C315.382 55.4833 314.251 55.4833 313.685 54.7674ZM354.192 83.4015C353.513 82.6856 353.513 81.6118 354.192 80.896C354.871 80.1801 355.889 80.1801 356.568 80.896C357.247 81.6118 357.247 82.6856 356.568 83.4015C355.889 84.1173 354.871 84.1173 354.192 83.4015ZM347.403 76.243C346.724 75.5271 346.724 74.4533 347.403 73.7375C348.082 73.0216 349.1 73.0216 349.779 73.7375C350.458 74.4533 350.458 75.5271 349.779 76.243C349.1 76.9588 348.082 76.9588 347.403 76.243ZM340.614 69.0845C339.935 68.3686 339.935 67.2948 340.614 66.579C341.293 65.8631 342.311 65.8631 342.99 66.579C343.669 67.2948 343.669 68.3686 342.99 69.0845C342.424 69.8003 341.293 69.8003 340.614 69.0845ZM333.825 62.0453C333.146 61.3294 333.146 60.2556 333.825 59.5398C334.504 58.8239 335.522 58.8239 336.201 59.5398C336.88 60.2556 336.88 61.3294 336.201 62.0453C335.636 62.7611 334.504 62.7611 333.825 62.0453ZM327.149 54.8868C326.471 54.1709 326.471 53.0971 327.149 52.3813C327.828 51.6654 328.847 51.6654 329.526 52.3813C330.204 53.0971 330.204 54.1709 329.526 54.8868C328.847 55.6026 327.828 55.6026 327.149 54.8868ZM320.361 47.7282C319.682 47.0124 319.682 45.9386 320.361 45.2228C321.039 44.5069 322.058 44.5069 322.737 45.2228C323.416 45.9386 323.416 47.0124 322.737 47.7282C322.058 48.4441 321.039 48.4441 320.361 47.7282ZM360.868 76.243C360.189 75.5271 360.189 74.4533 360.868 73.7375C361.547 73.0216 362.565 73.0216 363.244 73.7375C363.923 74.4533 363.923 75.5271 363.244 76.243C362.678 76.9588 361.547 76.9588 360.868 76.243ZM354.079 69.2038C353.4 68.4879 353.4 67.4141 354.079 66.6983C354.758 65.9824 355.776 65.9824 356.455 66.6983C357.134 67.4141 357.134 68.4879 356.455 69.2038C355.889 69.9196 354.758 69.9196 354.079 69.2038ZM347.403 62.0453C346.724 61.3294 346.724 60.2556 347.403 59.5398C348.082 58.8239 349.1 58.8239 349.779 59.5398C350.458 60.2556 350.458 61.3294 349.779 62.0453C349.1 62.7611 347.969 62.7611 347.403 62.0453ZM340.614 54.8868C339.935 54.1709 339.935 53.0971 340.614 52.3813C341.293 51.6654 342.311 51.6654 342.99 52.3813C343.669 53.0971 343.669 54.1709 342.99 54.8868C342.311 55.6026 341.293 55.6026 340.614 54.8868ZM333.825 47.7282C333.146 47.0124 333.146 45.9386 333.825 45.2228C334.504 44.5069 335.522 44.5069 336.201 45.2228C336.88 45.9386 336.88 47.0124 336.201 47.7282C335.636 48.4441 334.504 48.4441 333.825 47.7282ZM327.036 40.6891C326.357 39.9732 326.357 38.8994 327.036 38.1836C327.715 37.4677 328.734 37.4677 329.412 38.1836C330.091 38.8994 330.091 39.9732 329.412 40.6891C328.847 41.4049 327.715 41.4049 327.036 40.6891ZM367.543 69.2038C366.865 68.4879 366.865 67.4141 367.543 66.6983C368.222 65.9824 369.241 65.9824 369.919 66.6983C370.598 67.4141 370.598 68.4879 369.919 69.2038C369.354 69.9196 368.222 69.9196 367.543 69.2038ZM360.868 62.0453C360.189 61.3294 360.189 60.2556 360.868 59.5398C361.547 58.8239 362.565 58.8239 363.244 59.5398C363.923 60.2556 363.923 61.3294 363.244 62.0453C362.565 62.7611 361.547 62.7611 360.868 62.0453ZM354.079 55.0061C353.4 54.2902 353.4 53.2164 354.079 52.5006C354.758 51.7847 355.776 51.7847 356.455 52.5006C357.134 53.2164 357.134 54.2902 356.455 55.0061C355.776 55.7219 354.758 55.7219 354.079 55.0061ZM347.29 47.8476C346.611 47.1317 346.611 46.0579 347.29 45.3421C347.969 44.6262 348.987 44.6262 349.666 45.3421C350.345 46.0579 350.345 47.1317 349.666 47.8476C349.1 48.5634 347.969 48.5634 347.29 47.8476ZM340.501 40.6891C339.822 39.9732 339.822 38.8994 340.501 38.1836C341.18 37.4677 342.198 37.4677 342.877 38.1836C343.556 38.8994 343.556 39.9732 342.877 40.6891C342.311 41.4049 341.18 41.4049 340.501 40.6891ZM333.825 33.5305C333.146 32.8147 333.146 31.7409 333.825 31.0251C334.504 30.3092 335.522 30.3092 336.201 31.0251C336.88 31.7409 336.88 32.8147 336.201 33.5305C335.522 34.2464 334.504 34.2464 333.825 33.5305ZM374.332 62.1646C373.653 61.4487 373.653 60.3749 374.332 59.6591C375.011 58.9432 376.03 58.9432 376.708 59.6591C377.387 60.3749 377.387 61.4487 376.708 62.1646C376.03 62.8804 375.011 62.8804 374.332 62.1646ZM367.543 55.0061C366.865 54.2902 366.865 53.2164 367.543 52.5006C368.222 51.7847 369.241 51.7847 369.919 52.5006C370.598 53.2164 370.598 54.2902 369.919 55.0061C369.354 55.7219 368.222 55.7219 367.543 55.0061ZM360.755 47.8476C360.076 47.1317 360.076 46.0579 360.755 45.3421C361.433 44.6262 362.452 44.6262 363.131 45.3421C363.809 46.0579 363.809 47.1317 363.131 47.8476C362.565 48.5634 361.433 48.5634 360.755 47.8476ZM354.079 40.6891C353.4 39.9732 353.4 38.8994 354.079 38.1836C354.758 37.4677 355.776 37.4677 356.455 38.1836C357.134 38.8994 357.134 39.9732 356.455 40.6891C355.776 41.4049 354.644 41.4049 354.079 40.6891ZM347.29 33.6499C346.611 32.934 346.611 31.8602 347.29 31.1444C347.969 30.4285 348.987 30.4285 349.666 31.1444C350.345 31.8602 350.345 32.934 349.666 33.6499C348.987 34.3657 347.969 34.3657 347.29 33.6499ZM340.501 26.4913C339.822 25.7755 339.822 24.7017 340.501 23.9859C341.18 23.27 342.198 23.27 342.877 23.9859C343.556 24.7017 343.556 25.7755 342.877 26.4913C342.311 27.2072 341.18 27.2072 340.501 26.4913Z" fill="white"/>
</g>
<mask id="mask10_4130_18852" style="mask-type:luminance" maskUnits="userSpaceOnUse" x="-10" y="-9" width="362" height="511">
<path d="M351.363 -8.82056H-9.4668V501.82H351.363V-8.82056Z" fill="white"/>
</mask>
<g mask="url(#mask10_4130_18852)">
<path d="M-0.866531 491.681C-1.54542 490.965 -1.54542 489.892 -0.866531 489.176C-0.187645 488.46 0.8307 488.46 1.50959 489.176C2.18848 489.892 2.18848 490.965 1.50959 491.681C0.8307 492.397 -0.300793 492.397 -0.866531 491.681ZM-7.65543 484.523C-8.33432 483.807 -8.33432 482.733 -7.65543 482.017C-6.97654 481.301 -5.9582 481.301 -5.27931 482.017C-4.60042 482.733 -4.60042 483.807 -5.27931 484.523C-5.9582 485.239 -6.97654 485.239 -7.65543 484.523ZM-14.4443 477.364C-15.1232 476.648 -15.1232 475.575 -14.4443 474.859C-13.7654 474.143 -12.7471 474.143 -12.0682 474.859C-11.3893 475.575 -11.3893 476.648 -12.0682 477.364C-12.6339 478.08 -13.7654 478.08 -14.4443 477.364ZM-21.2332 470.206C-21.9121 469.49 -21.9121 468.416 -21.2332 467.7C-20.5543 466.984 -19.536 466.984 -18.8571 467.7C-18.1782 468.416 -18.1782 469.49 -18.8571 470.206C-19.4228 470.922 -20.5543 470.922 -21.2332 470.206ZM-27.909 463.166C-28.5879 462.451 -28.5879 461.377 -27.909 460.661C-27.2301 459.945 -26.2118 459.945 -25.5329 460.661C-24.854 461.377 -24.854 462.451 -25.5329 463.166C-26.2118 463.882 -27.3432 463.882 -27.909 463.166ZM-34.6979 456.008C-35.3768 455.292 -35.3768 454.218 -34.6979 453.502C-34.019 452.787 -33.0007 452.787 -32.3218 453.502C-31.6429 454.218 -31.6429 455.292 -32.3218 456.008C-33.0007 456.724 -34.019 456.724 -34.6979 456.008ZM5.80921 484.523C5.13032 483.807 5.13032 482.733 5.80921 482.017C6.4881 481.301 7.50644 481.301 8.18533 482.017C8.86422 482.733 8.86422 483.807 8.18533 484.523C7.50644 485.239 6.4881 485.239 5.80921 484.523ZM-0.979687 477.484C-1.65858 476.768 -1.65858 475.694 -0.979687 474.978C-0.3008 474.262 0.717545 474.262 1.39643 474.978C2.07532 475.694 2.07532 476.768 1.39643 477.484C0.830692 478.08 -0.3008 478.08 -0.979687 477.484ZM-7.76859 470.325C-8.44748 469.609 -8.44748 468.535 -7.76859 467.819C-7.08969 467.104 -6.07135 467.104 -5.39246 467.819C-4.71358 468.535 -4.71358 469.609 -5.39246 470.325C-5.95821 471.041 -7.08969 471.041 -7.76859 470.325ZM-14.4443 463.166C-15.1232 462.451 -15.1232 461.377 -14.4443 460.661C-13.7654 459.945 -12.7471 459.945 -12.0682 460.661C-11.3893 461.377 -11.3893 462.451 -12.0682 463.166C-12.7471 463.882 -13.7654 463.882 -14.4443 463.166ZM-21.2332 456.008C-21.9121 455.292 -21.9121 454.218 -21.2332 453.502C-20.5543 452.787 -19.536 452.787 -18.8571 453.502C-18.1782 454.218 -18.1782 455.292 -18.8571 456.008C-19.536 456.724 -20.5543 456.724 -21.2332 456.008ZM-28.0221 448.969C-28.701 448.253 -28.701 447.179 -28.0221 446.463C-27.3432 445.747 -26.3249 445.747 -25.646 446.463C-24.9671 447.179 -24.9671 448.253 -25.646 448.969C-26.2117 449.565 -27.3432 449.565 -28.0221 448.969ZM12.485 477.484C11.8061 476.768 11.8061 475.694 12.485 474.978C13.1638 474.262 14.1822 474.262 14.8611 474.978C15.54 475.694 15.54 476.768 14.8611 477.484C14.2953 478.199 13.1638 478.199 12.485 477.484ZM5.80921 470.325C5.13032 469.609 5.13032 468.535 5.80921 467.819C6.4881 467.104 7.50644 467.104 8.18533 467.819C8.86422 468.535 8.86422 469.609 8.18533 470.325C7.50644 471.041 6.37495 471.041 5.80921 470.325ZM-0.979687 463.166C-1.65858 462.451 -1.65858 461.377 -0.979687 460.661C-0.3008 459.945 0.717545 459.945 1.39643 460.661C2.07532 461.377 2.07532 462.451 1.39643 463.166C0.717545 463.882 -0.3008 463.882 -0.979687 463.166ZM-7.76859 456.127C-8.44748 455.411 -8.44748 454.338 -7.76859 453.622C-7.08969 452.906 -6.07135 452.906 -5.39246 453.622C-4.71358 454.338 -4.71358 455.411 -5.39246 456.127C-5.95821 456.843 -7.08969 456.843 -7.76859 456.127ZM-14.5575 448.969C-15.2364 448.253 -15.2364 447.179 -14.5575 446.463C-13.8786 445.747 -12.8603 445.747 -12.1814 446.463C-11.5025 447.179 -11.5025 448.253 -12.1814 448.969C-12.7471 449.685 -13.8786 449.685 -14.5575 448.969ZM-21.2332 441.81C-21.9121 441.094 -21.9121 440.021 -21.2332 439.305C-20.5543 438.589 -19.536 438.589 -18.8571 439.305C-18.1782 440.021 -18.1782 441.094 -18.8571 441.81C-19.536 442.526 -20.6675 442.526 -21.2332 441.81ZM19.2738 470.444C18.595 469.728 18.595 468.655 19.2738 467.939C19.9527 467.223 20.9711 467.223 21.65 467.939C22.3289 468.655 22.3289 469.728 21.65 470.444C20.9711 471.041 19.9527 471.041 19.2738 470.444ZM12.485 463.286C11.8061 462.57 11.8061 461.496 12.485 460.78C13.1638 460.064 14.1822 460.064 14.8611 460.78C15.54 461.496 15.54 462.57 14.8611 463.286C14.1822 464.002 13.1638 464.002 12.485 463.286ZM5.69605 456.127C5.01716 455.411 5.01716 454.338 5.69605 453.622C6.37494 452.906 7.39328 452.906 8.07217 453.622C8.75106 454.338 8.75106 455.411 8.07217 456.127C7.50643 456.843 6.37494 456.843 5.69605 456.127ZM-1.09284 448.969C-1.77173 448.253 -1.77173 447.179 -1.09284 446.463C-0.413952 445.747 0.604389 445.747 1.28328 446.463C1.96217 447.179 1.96217 448.253 1.28328 448.969C0.717537 449.685 -0.413952 449.685 -1.09284 448.969ZM-7.76859 441.93C-8.44748 441.214 -8.44748 440.14 -7.76859 439.424C-7.08969 438.708 -6.07135 438.708 -5.39246 439.424C-4.71358 440.14 -4.71358 441.214 -5.39246 441.93C-6.07135 442.526 -7.08969 442.526 -7.76859 441.93ZM-14.5575 434.771C-15.2364 434.055 -15.2364 432.981 -14.5575 432.266C-13.8786 431.55 -12.8603 431.55 -12.1814 432.266C-11.5025 432.981 -11.5025 434.055 -12.1814 434.771C-12.8603 435.487 -13.8786 435.487 -14.5575 434.771ZM25.9496 463.286C25.2707 462.57 25.2707 461.496 25.9496 460.78C26.6285 460.064 27.6468 460.064 28.3257 460.78C29.0046 461.496 29.0046 462.57 28.3257 463.286C27.76 464.002 26.6285 464.002 25.9496 463.286ZM19.1607 456.127C18.4818 455.411 18.4818 454.338 19.1607 453.622C19.8396 452.906 20.8579 452.906 21.5368 453.622C22.2157 454.338 22.2157 455.411 21.5368 456.127C20.9711 456.843 19.8396 456.843 19.1607 456.127ZM12.485 449.088C11.8061 448.372 11.8061 447.298 12.485 446.583C13.1638 445.867 14.1822 445.867 14.8611 446.583C15.54 447.298 15.54 448.372 14.8611 449.088C14.1822 449.804 13.0507 449.804 12.485 449.088ZM5.69605 441.93C5.01716 441.214 5.01716 440.14 5.69605 439.424C6.37494 438.708 7.39328 438.708 8.07217 439.424C8.75106 440.14 8.75106 441.214 8.07217 441.93C7.39328 442.645 6.37494 442.645 5.69605 441.93ZM-1.09284 434.771C-1.77173 434.055 -1.77173 432.981 -1.09284 432.266C-0.413952 431.55 0.604389 431.55 1.28328 432.266C1.96217 432.981 1.96217 434.055 1.28328 434.771C0.717537 435.487 -0.413952 435.487 -1.09284 434.771ZM-7.88174 427.613C-8.56063 426.897 -8.56063 425.823 -7.88174 425.107C-7.20285 424.391 -6.18451 424.391 -5.50562 425.107C-4.82673 425.823 -4.82673 426.897 -5.50562 427.613C-6.07136 428.328 -7.20285 428.328 -7.88174 427.613ZM32.6254 456.247C31.9465 455.531 31.9465 454.457 32.6254 453.741C33.3043 453.025 34.3226 453.025 35.0014 453.741C35.6803 454.457 35.6803 455.531 35.0014 456.247C34.4357 456.962 33.3043 456.962 32.6254 456.247ZM25.9496 449.088C25.2707 448.372 25.2707 447.298 25.9496 446.583C26.6285 445.867 27.6468 445.867 28.3257 446.583C29.0046 447.298 29.0046 448.372 28.3257 449.088C27.6468 449.804 26.6285 449.804 25.9496 449.088ZM19.1607 441.93C18.4818 441.214 18.4818 440.14 19.1607 439.424C19.8396 438.708 20.8579 438.708 21.5368 439.424C22.2157 440.14 22.2157 441.214 21.5368 441.93C20.8579 442.645 19.8396 442.645 19.1607 441.93ZM12.3718 434.89C11.6929 434.175 11.6929 433.101 12.3718 432.385C13.0507 431.669 14.069 431.669 14.7479 432.385C15.4268 433.101 15.4268 434.175 14.7479 434.89C14.1822 435.487 13.0507 435.487 12.3718 434.89ZM5.5829 427.732C4.90401 427.016 4.90401 425.942 5.5829 425.226C6.26179 424.511 7.28013 424.511 7.95902 425.226C8.63791 425.942 8.63791 427.016 7.95902 427.732C7.39328 428.448 6.26179 428.448 5.5829 427.732ZM-1.09284 420.573C-1.77173 419.857 -1.77173 418.784 -1.09284 418.068C-0.413952 417.352 0.604389 417.352 1.28328 418.068C1.96217 418.784 1.96217 419.857 1.28328 420.573C0.604389 421.289 -0.413952 421.289 -1.09284 420.573Z" fill="white"/>
</g>
</g>
<defs>
<linearGradient id="paint0_linear_4130_18852" x1="-4.64352" y1="509.016" x2="369.185" y2="6.58167" gradientUnits="userSpaceOnUse">
<stop stop-color="#9A3E97"/>
<stop offset="0.0993819" stop-color="#8E3F97"/>
<stop offset="0.4999" stop-color="#644098"/>
<stop offset="0.8136" stop-color="#4A4299"/>
<stop offset="1" stop-color="#404299"/>
</linearGradient>
<linearGradient id="paint1_linear_4130_18852" x1="381.83" y1="846.637" x2="-87.6028" y2="219.822" gradientUnits="userSpaceOnUse">
<stop stop-color="#B958A1"/>
<stop offset="0.1422" stop-color="#A7519E"/>
<stop offset="0.5236" stop-color="#7D4098"/>
<stop offset="0.8225" stop-color="#633594"/>
<stop offset="1" stop-color="#593192"/>
</linearGradient>
<linearGradient id="paint2_linear_4130_18852" x1="645.35" y1="461.54" x2="190.611" y2="495.266" gradientUnits="userSpaceOnUse">
<stop stop-color="#B958A1"/>
<stop offset="0.1422" stop-color="#A7519E"/>
<stop offset="0.5236" stop-color="#7D4098"/>
<stop offset="0.8225" stop-color="#633594"/>
<stop offset="1" stop-color="#593192"/>
</linearGradient>
<linearGradient id="paint3_linear_4130_18852" x1="584.138" y1="-89.5181" x2="21.9849" y2="55.353" gradientUnits="userSpaceOnUse">
<stop stop-color="#B958A1"/>
<stop offset="0.1422" stop-color="#A7519E"/>
<stop offset="0.5236" stop-color="#7D4098"/>
<stop offset="0.8225" stop-color="#633594"/>
<stop offset="1" stop-color="#593192"/>
</linearGradient>
<linearGradient id="paint4_linear_4130_18852" x1="69.398" y1="193.164" x2="-512.16" y2="232.29" gradientUnits="userSpaceOnUse">
<stop stop-color="#824399"/>
<stop offset="0.3836" stop-color="#62327F"/>
<stop offset="0.7698" stop-color="#48256A"/>
<stop offset="1" stop-color="#3E2062"/>
</linearGradient>
<linearGradient id="paint5_linear_4130_18852" x1="217.177" y1="177.343" x2="530.703" y2="-33.8406" gradientUnits="userSpaceOnUse">
<stop stop-color="#B958A1"/>
<stop offset="0.1354" stop-color="#A854A0"/>
<stop offset="0.5198" stop-color="#7E4A9C"/>
<stop offset="0.8211" stop-color="#64449A"/>
<stop offset="1" stop-color="#5A4299"/>
</linearGradient>
<linearGradient id="paint6_linear_4130_18852" x1="375.903" y1="382.277" x2="10.6481" y2="-105.434" gradientUnits="userSpaceOnUse">
<stop stop-color="#B958A1"/>
<stop offset="0.1422" stop-color="#A7519E"/>
<stop offset="0.5236" stop-color="#7D4098"/>
<stop offset="0.8225" stop-color="#633594"/>
<stop offset="1" stop-color="#593192"/>
</linearGradient>
<linearGradient id="paint7_linear_4130_18852" x1="1.90079" y1="252.617" x2="330.266" y2="1295.92" gradientUnits="userSpaceOnUse">
<stop stop-color="#6B4399"/>
<stop offset="0.2765" stop-color="#5B3786"/>
<stop offset="0.7299" stop-color="#46266C"/>
<stop offset="1" stop-color="#3E2062"/>
</linearGradient>
</defs>
</svg>
