<svg width="18" height="16" viewBox="0 0 18 16" fill="none" xmlns="http://www.w3.org/2000/svg">
<path d="M6.93333 9.03333V16H0.5V10.5C0.5 7.52222 0.855556 5.36667 1.56667 4.03333C2.5 2.25556 3.97778 0.911111 6 0L7.46667 2.33333C6.24444 2.84444 5.34444 3.61111 4.76667 4.63333C4.18889 5.63333 3.86667 7.1 3.8 9.03333H6.93333ZM17.2667 9.03333V16H10.8333V10.5C10.8333 7.52222 11.1889 5.36667 11.9 4.03333C12.8333 2.25556 14.3111 0.911111 16.3333 0L17.8 2.33333C16.5778 2.84444 15.6778 3.61111 15.1 4.63333C14.5222 5.63333 14.2 7.1 14.1333 9.03333H17.2667Z" fill="#23AA26"/>
</svg>
