<svg width="275" height="430" viewBox="0 0 275 430" fill="none" xmlns="http://www.w3.org/2000/svg">
<g clip-path="url(#clip0_6105_17700)">
<g opacity="0.8">
<path d="M217.561 224.943C218.756 221.951 211.683 215.986 196.391 206.766C181.211 197.709 161.972 187.975 138.649 177.706C115.461 167.46 95.4862 159.634 78.6767 154.511C61.6202 149.203 52.4831 148.115 51.3125 150.965C51.1066 151.366 51.1478 151.953 51.4362 152.726C51.7246 153.5 52.3954 154.482 53.3603 155.368C55.0431 156.954 57.4908 158.957 60.8622 161.259C63.9865 163.376 67.8757 165.909 72.6886 168.742C88.2276 178.149 107.467 187.882 130.137 197.898C138.557 201.622 147 205.205 155.331 208.624C156.637 209.132 157.943 209.639 159.249 210.147C170.622 214.508 181.007 218.125 190.244 221.115C195.381 222.841 199.911 224.032 203.812 224.827C207.554 225.741 210.531 226.237 212.902 226.197C214.437 226.163 215.702 226.084 216.45 225.773C217.038 225.581 217.356 225.344 217.561 224.943Z" fill="url(#paint0_linear_6105_17700)"/>
</g>
<path d="M116.35 102.052C117.303 101.34 117.738 100.398 117.926 99.2688C118.115 98.1399 117.873 97.0844 117.338 96.1249C116.667 95.1429 115.767 94.7028 114.684 94.5223C113.602 94.3419 112.584 94.6073 111.654 95.1776C110.725 95.7478 110.266 96.8316 110.078 97.9605C109.89 99.0894 110.131 100.145 110.666 101.104C111.337 102.086 112.237 102.527 113.32 102.707C114.514 103.051 115.532 102.786 116.35 102.052ZM94.7273 90.7606C93.6447 90.5802 92.4916 90.8231 91.2679 91.4893C90.0442 92.1556 89.3382 93.0531 89.1736 94.0409C89.0089 95.0287 89.3855 96.1068 90.3505 96.9928C91.4508 97.9014 92.4863 98.3641 93.4336 98.522C94.5161 98.7024 95.3986 98.4144 96.1928 97.8216C97.1224 97.2514 97.5577 96.3087 97.7223 95.3209C97.9105 94.192 97.6457 93.2776 97.1102 92.3181C96.5747 91.3587 95.6745 90.9185 94.7273 90.7606ZM113.603 114.357C112.791 114.222 112.068 114.391 111.432 114.865C110.797 115.34 110.409 116 110.268 116.847C110.127 117.693 110.303 118.303 110.75 118.958C111.197 119.612 111.827 120.007 112.639 120.143C113.451 120.278 114.039 120.086 114.675 119.612C115.31 119.138 115.675 118.618 115.816 117.772C115.957 116.925 115.804 116.174 115.357 115.519C115.045 114.887 114.415 114.492 113.603 114.357ZM216.225 141.18C215.778 140.525 215.124 140.271 214.424 140.3C213.701 140.469 213.224 140.825 212.836 141.485C212.312 142.123 212.171 142.97 212.301 143.862C212.43 144.754 212.719 145.527 213.278 146.345C213.837 147.163 214.49 147.417 215.19 147.389C215.89 147.361 216.39 146.864 216.69 145.899C217.125 144.956 217.266 144.109 217.137 143.218C216.984 142.467 216.695 141.694 216.225 141.18ZM207.806 150.799C208.283 150.444 208.489 150.043 208.583 149.479C208.677 148.914 208.612 148.468 208.277 147.977C207.941 147.486 207.559 147.277 207.018 147.187C206.476 147.097 206.047 147.17 205.57 147.526C205.094 147.882 204.888 148.282 204.794 148.847C204.7 149.411 204.765 149.857 205.1 150.348C205.435 150.839 205.818 151.048 206.359 151.138C206.9 151.229 207.353 151.014 207.806 150.799ZM69.1494 130.733C69.7493 128.802 70.1669 127.132 70.4021 125.72C71.0372 121.91 70.331 119.472 68.1011 118.665C65.8477 118 63.9651 119.281 62.1592 122.606C57.9532 130.317 58.0132 144.976 62.3159 166.723C66.6185 188.47 70.2559 205.03 73.0691 216.522L90.0773 276.356C92.3194 282.096 96.3262 283.924 102.121 281.699L188.575 237.806C194.217 234.83 200.565 230.957 207.666 225.904C214.766 220.851 221.079 215.522 226.627 209.775C231.515 204.644 236.71 197.678 242.051 188.996C247.393 180.314 251.557 168.68 254.704 153.975C257.85 139.271 257.319 124.099 252.976 108.436C248.768 92.7964 239.142 80.4592 224.256 71.3063C209.37 62.1534 194.273 60.9422 179.1 67.6954C172.646 70.5356 166.933 73.9344 161.692 77.8468C156.314 81.7367 151.061 87.3876 146.067 94.8221C141.437 101.737 138.713 107.23 138.078 111.04C137.725 113.157 137.873 114.777 138.726 115.499C139.308 116.176 140.479 116.661 142.509 117C146.433 117.654 151.781 114.774 158.552 108.361C165.324 101.948 169.354 100.299 170.69 103.132C172.272 106.152 174.573 106.535 177.75 104.164C180.927 101.793 183.15 100.133 184.151 99.1397C185.286 98.1687 188.28 96.0572 193.087 93.0875C198.052 89.9992 202.912 89.2138 207.96 90.6354C220.31 94.1443 228.283 103.885 232.173 119.762C234.151 127.924 233.845 136.43 231.257 145.281C229.34 151.778 226.34 158.095 222.257 164.231C218.151 170.508 216.386 171.084 216.939 166.1C217.491 161.116 217.085 157.712 215.696 156.031C214.308 154.349 213.29 154.614 212.755 156.991C212.355 159.39 211.749 162.189 210.938 165.39C209.761 169.11 208.108 173.185 205.867 177.453C203.626 181.72 200.62 185.57 196.713 188.98C192.789 191.662 188.483 194.135 183.77 196.54C169.61 203.897 158.879 208.2 151.713 209.471C144.547 210.742 136.327 210.822 127.055 209.712C117.918 208.624 109.057 203.376 100.584 194.132C95.4062 188.483 90.7754 182.054 86.7152 174.706C84.9616 170.208 83.6081 166.646 82.79 164.044C81.8837 161.137 81.2246 158.417 80.9478 155.905C80.6415 151.068 80.3235 147.969 80.1528 146.49C79.7172 144.097 78.6875 142.765 77.0636 142.495C76.2517 142.359 75.2339 142.625 73.9867 143.432C72.763 144.098 71.6098 144.341 70.3919 144.138C68.6328 143.845 67.6266 142.372 67.3734 139.719C67.3144 138.404 67.4849 136.547 67.9083 134.007C68.2495 133.629 68.5494 132.663 69.1494 130.733ZM159.438 70.5094C160.208 70.0578 160.597 69.3973 160.738 68.5506C160.879 67.7039 160.726 66.9532 160.167 66.1349C159.72 65.4802 159.09 65.0852 158.278 64.9499C157.466 64.8145 156.743 64.984 155.972 65.4356C155.313 66.051 154.925 66.7114 154.784 67.5581C154.642 68.4048 154.795 69.1555 155.243 69.8102C155.802 70.6285 156.431 71.0236 157.243 71.1589C158.055 71.2942 158.779 71.1248 159.438 70.5094ZM134.685 132.23C134.985 131.264 135.285 130.299 135.291 129.43C135.503 128.16 135.42 126.986 135.179 125.93C134.649 124.102 133.367 123.453 131.084 123.797C128.913 124.306 126.966 125.141 125.195 126.587C123.424 128.032 122.465 129.613 122.183 131.306C121.901 132.999 122.207 134.501 123.101 135.81C124.107 137.283 125.366 138.073 126.855 138.321C127.261 138.389 127.802 138.479 128.232 138.406C129.361 138.304 130.267 137.875 131.22 137.163C132.762 136.26 133.879 134.561 134.685 132.23ZM168.502 116.256C169.137 115.782 169.684 115.003 169.849 114.015C170.149 113.05 170.155 112.181 169.867 111.407C169.578 110.634 168.813 110.217 167.819 110.341C166.801 110.606 165.919 110.894 165.283 111.369C164.648 111.843 164.26 112.503 164.119 113.35C163.977 114.197 164.13 114.947 164.578 115.602C165.025 116.257 165.654 116.652 166.466 116.787C167.143 116.9 167.867 116.73 168.502 116.256ZM78.4021 107.764C79.8788 106.415 80.6788 104.953 80.9375 103.401C81.1963 101.848 80.8667 100.488 79.9723 99.1788C79.0779 97.8695 77.9541 97.102 76.4656 96.8539C74.977 96.6058 73.665 96.9672 72.3943 97.9157C71.1235 98.8642 70.3706 100.044 70.1118 101.596C69.8531 103.148 69.9768 104.91 70.5712 107.184C71.1891 109.318 72.2659 110.367 73.9839 110.074C75.4076 109.876 76.9255 109.114 78.4021 107.764ZM80.463 127.107C79.6687 127.7 79.1217 128.479 78.9335 129.608C78.7688 130.596 78.9866 131.793 79.475 133.034C79.9635 134.276 80.6813 134.976 81.7639 135.156C82.7111 135.314 83.6172 134.885 84.6173 133.891C85.482 132.875 86.0527 131.955 86.2408 130.826C86.4055 129.838 86.1406 128.924 85.6052 127.965C85.0462 127.146 84.3048 126.588 83.2222 126.407C82.1397 126.227 81.2572 126.515 80.463 127.107Z" fill="url(#paint1_linear_6105_17700)"/>
<path d="M97.1026 279.267C96.0201 279.087 94.4433 278.534 93.0662 275.114L76.0345 215.421C73.1742 204.211 69.5604 187.51 65.3695 165.926C60.237 139.98 62.2305 128.854 64.8365 124.067C65.6365 122.605 66.4778 121.73 66.8837 121.798L67.0191 121.821C67.6721 122.075 67.5252 123.79 67.29 125.202C67.0783 126.472 66.6842 128.001 66.1078 129.791C65.2314 132.545 65.0255 132.946 64.9549 133.369C64.4845 136.192 64.267 138.331 64.4142 139.951C64.8501 145.68 68.3861 146.995 69.8747 147.243C71.7692 147.558 73.646 147.146 75.4815 146.147C76.2522 145.695 76.5464 145.599 76.6817 145.622C76.6817 145.622 76.9053 145.949 77.1466 147.004C77.3409 148.342 77.6588 151.441 77.9887 156.137C78.3537 158.954 78.9894 161.815 79.9839 165.027C80.7784 167.77 82.1084 171.472 83.9974 175.993L84.1092 176.157L84.221 176.321C88.393 183.833 93.1121 190.566 98.5371 196.401C107.01 205.645 116.095 211.221 125.432 212.777C125.838 212.845 126.379 212.935 126.785 213.003C136.193 214.136 144.818 214.123 152.278 212.756C159.873 211.411 170.604 207.108 185.218 199.537C189.931 197.132 194.42 194.399 198.344 191.717L198.502 191.599L198.661 191.48C202.75 187.811 206.074 183.724 208.521 179.055C210.786 174.647 212.597 170.453 213.821 166.45C213.615 170.187 214.663 172.247 216.963 172.631C219.669 173.082 221.74 170.671 224.729 166.093C228.994 159.697 232.2 152.98 234.164 146.201C236.823 136.926 237.245 127.715 235.091 118.944C230.96 102.011 222.157 91.4064 208.748 87.5759C207.96 87.2995 207.148 87.1642 206.336 87.0288C201.329 86.1942 196.287 87.2393 191.322 90.3276C184.633 94.5789 182.727 96.0016 181.909 96.7355C181.091 97.4694 179.615 98.8186 175.826 101.523C174.555 102.471 174.014 102.381 173.879 102.359C173.879 102.359 173.631 102.172 173.32 101.54C172.496 99.8075 171.148 98.7127 169.389 98.4195C166.141 97.8782 162.288 100.137 156.334 105.816C148.563 113.223 144.562 113.861 142.938 113.59C141.721 113.387 141.203 113.156 140.932 113.111C140.844 112.806 140.914 112.383 141.079 111.395C141.455 109.137 143.044 104.616 148.585 96.4021C153.374 89.3684 158.333 83.8135 163.392 80.1607C168.452 76.508 174.164 73.1091 180.324 70.3649C188.59 66.6665 196.862 65.4347 204.981 66.7881C210.8 67.758 216.813 70.0656 222.615 73.6433C236.736 82.3786 245.891 94.2023 249.97 108.951C254.136 124.004 254.603 138.73 251.55 152.87C248.61 167.173 244.492 178.525 239.357 186.806C234.198 195.228 229.162 202.076 224.432 207.089C219.043 212.717 212.754 217.905 205.948 222.862C199.006 227.796 192.658 231.67 187.174 234.527L100.856 278.443C99.4737 279.227 98.1852 279.448 97.1026 279.267ZM82.3522 131.628C82.0403 130.996 81.9755 130.55 82.0461 130.127C82.0696 129.986 82.0696 129.986 82.252 129.726C82.4108 129.608 82.5461 129.63 82.6815 129.653C82.8168 129.675 82.8168 129.675 83.0639 129.861C83.1757 130.025 83.1522 130.166 83.1287 130.307C82.9463 130.567 82.7169 131.109 82.3522 131.628ZM127.667 135.121C126.855 134.985 126.361 134.613 125.778 133.936C125.331 133.281 125.154 132.671 125.295 131.825C125.437 130.978 126.007 130.058 127.143 129.087C128.437 127.997 129.931 127.376 131.673 126.941C131.943 126.986 132.079 127.009 132.214 127.031C132.391 127.641 132.408 128.369 132.291 129.075C132.15 129.921 132.032 130.627 131.779 131.31C131.226 132.958 130.497 133.997 129.702 134.59C129.067 135.064 128.773 135.16 128.208 135.211C128.073 135.188 127.802 135.143 127.667 135.121ZM73.6896 106.834C73.5778 106.67 73.6014 106.529 73.5131 106.224C73.0952 104.559 73.0363 103.244 73.2244 102.115C73.3421 101.409 73.7068 100.89 74.1833 100.534C74.8187 100.06 75.2482 99.9867 75.9248 100.099C76.6014 100.212 77.0956 100.585 77.431 101.076C77.8782 101.73 77.943 102.176 77.8254 102.882C77.6842 103.729 77.1371 104.508 76.2959 105.383C75.4546 106.258 74.5486 106.687 73.6896 106.834ZM113.973 99.6249C113.567 99.5573 113.455 99.3936 113.343 99.2299C113.232 99.0662 113.12 98.9026 113.19 98.4792C113.261 98.0559 113.42 97.9373 113.579 97.8188C113.738 97.7002 113.896 97.5817 114.302 97.6493C114.708 97.717 114.82 97.8807 114.932 98.0443C115.044 98.208 115.155 98.3717 115.085 98.795C115.014 99.2184 114.855 99.3369 114.697 99.4555C114.379 99.6926 114.244 99.67 113.973 99.6249ZM93.9748 95.2762C93.5688 95.2086 92.9157 94.9547 92.3097 94.4186C92.3097 94.4186 92.4685 94.3 92.6039 94.3226C93.5099 93.8934 94.0747 93.8425 94.21 93.8651C94.4807 93.9102 94.4807 93.9102 94.5925 94.0739C94.8161 94.4012 94.7925 94.5423 94.769 94.6835C94.7455 94.8246 94.722 94.9657 94.5631 95.0842L94.4043 95.2028C94.1101 95.2988 94.1101 95.2988 93.9748 95.2762Z" fill="url(#paint2_linear_6105_17700)"/>
<g opacity="0.8">
<path d="M206.089 232.023L207.336 231.216L213.82 227.365L216.449 225.773C215.567 226.061 214.414 226.304 212.902 226.197C210.554 226.096 207.577 225.6 203.812 224.827C199.911 224.032 195.539 222.723 190.244 221.115C180.983 218.266 170.622 214.509 159.249 210.147C157.943 209.639 156.637 209.132 155.331 208.624C146.999 205.205 138.533 201.763 130.137 197.898C107.467 187.883 88.2274 178.149 72.6884 168.742C68.0344 165.791 64.1217 163.398 60.8621 161.26C57.4906 158.957 55.043 156.954 53.3602 155.368C52.4187 154.341 51.7244 153.5 51.4361 152.727L52.2541 155.329L54.8553 164.754L79.1319 251.906L87.5537 282.317C80.46 303.18 72.7838 323.366 64.2545 342.829C59.1662 354.164 53.9897 365.194 48.7014 376.06C47.7425 377.641 46.919 379.244 46.119 380.706C49.5493 384.324 53.8268 386.197 58.6806 386.281C59.2335 384.633 59.9217 383.007 60.4982 381.217C64.5038 369.702 68.7801 358.232 73.3271 346.807C81.3857 326.83 90.3916 307.011 100.504 287.231L206.089 232.023ZM5.83364 364.564L4.269 368.944C4.52803 370.728 8.43491 373.99 15.8779 378.566C17.2488 379.52 18.7786 380.355 20.4201 381.354C27.9101 385.648 36.7533 390.168 47.1086 394.794C59.6702 400.369 70.6608 404.522 80.104 407.111C81.2748 407.596 82.3104 408.059 83.2576 408.217C90.4474 410.14 94.4422 410.371 95.0834 409.028L96.7128 405.093C96.0481 406.578 92.0532 406.347 84.7282 404.401C83.6691 404.079 82.7454 403.78 81.551 403.436C72.1314 400.706 61.1408 396.553 48.5791 390.979C38.3592 386.374 29.3571 381.973 21.8436 377.82C20.202 376.821 18.6958 375.845 17.3014 375.032C9.16409 369.615 5.28073 366.212 5.83364 364.564Z" fill="url(#paint3_linear_6105_17700)"/>
<path opacity="0.8" d="M85.4039 394.506C78.4552 390.302 70.1298 386.014 60.0687 381.291C59.4923 383.08 58.804 384.706 58.2511 386.354C53.3973 386.27 49.2552 384.42 45.6895 380.78C46.4895 379.318 47.3131 377.714 48.2719 376.134C39.9642 372.573 32.6214 369.899 26.02 367.784C24.3314 367.067 22.6193 366.492 21.0189 366.08C11.464 363.327 6.41006 362.774 5.72183 364.4L5.563 364.519C5.01009 366.167 8.89345 369.57 17.3484 374.75C18.7193 375.704 20.2491 376.539 21.8907 377.538C29.3807 381.832 38.3827 386.233 48.6262 390.696C61.1878 396.271 72.1784 400.424 81.5981 403.154C82.6336 403.617 83.6926 403.938 84.7752 404.119C92.1003 406.065 96.0952 406.296 96.7599 404.811C97.4246 403.327 94.4179 400.505 88.034 396.25C87.2691 395.832 86.4159 395.11 85.4039 394.506Z" fill="url(#paint4_linear_6105_17700)"/>
</g>
<path d="M108.805 54.4544C110.287 47.9547 109.834 43.4742 107.447 41.0129C105.06 38.5517 102.157 37.5217 99.0482 37.8863C95.3179 38.3239 91.9574 40.8268 89.0862 45.5918C88.8952 45.8251 88.7124 46.1628 88.6331 46.4884C88.4015 46.1993 88.1699 45.9102 87.9465 45.7255C84.2897 41.7263 80.708 40.0378 77.0814 40.4633C73.7575 40.7478 71.1771 42.5265 69.324 45.5906C67.4547 48.4457 67.4523 52.4525 69.5405 57.7954C71.6206 63.0339 75.2224 67.6722 80.4415 71.5935C85.6607 75.5149 89.1388 77.2155 90.7723 76.7076C92.5094 76.1875 95.5835 74.0345 99.9865 70.1441C104.381 66.1493 107.324 60.9542 108.805 54.4544Z" fill="url(#paint5_linear_6105_17700)"/>
<path d="M128.155 18.7815C128.065 18.4554 127.975 18.1294 127.857 17.892C126.249 13.2068 123.946 10.4418 120.917 9.38985C118.175 8.33938 115.538 8.79904 113.06 10.5915C110.638 12.2067 109.327 15.4853 109.246 20.6648C109.192 25.7556 110.547 30.9426 113.426 36.1673C116.304 41.3921 118.52 44.1269 120.074 44.3719C121.629 44.6169 124.723 43.9229 129.561 42.5573C134.341 41.073 138.41 37.8681 141.801 33.1501C145.105 28.4021 146.121 24.5299 145.023 21.5938C143.925 18.6576 141.948 16.6936 139.351 15.7919C136.236 14.7099 132.74 15.461 128.895 18.2526C128.58 18.3398 128.324 18.5456 128.155 18.7815Z" fill="url(#paint6_linear_6105_17700)"/>
<path d="M63.4277 164.225C63.4277 164.225 117.988 199.861 189.933 222.151" stroke="url(#paint7_linear_6105_17700)" stroke-linecap="round" stroke-linejoin="round"/>
<path d="M182.214 228.406C182.214 228.406 174.989 221.69 159.899 232.953C144.809 244.217 133.72 261.513 146.474 255.082C161.836 247.2 192.493 234.326 182.214 228.406Z" fill="url(#paint8_linear_6105_17700)"/>
<path d="M102.178 41.893C96.2239 40.9006 94.6244 50.4964 100.579 51.4888C106.533 52.4813 108.132 42.8855 102.178 41.893Z" fill="white"/>
<path d="M140.318 20.8387C136.394 20.1846 135.335 26.5348 139.26 27.1889C143.161 27.9841 144.243 21.4929 140.318 20.8387Z" fill="white"/>
<path d="M178.748 78.1519C178.683 77.706 178.595 77.4012 178.236 77.0513C177.989 76.8651 177.877 76.7014 177.654 76.3741C177.16 76.0016 176.777 75.7928 176.236 75.7026C175.965 75.6575 175.671 75.7535 175.4 75.7084C174.836 75.7593 174.383 75.9738 173.906 76.3295C173.588 76.5666 173.429 76.6852 173.112 76.9223C172.794 77.1594 172.476 77.3965 172.271 77.7973C172.065 78.1981 171.859 78.5989 171.788 79.0223C171.718 79.4456 171.782 79.8915 171.847 80.3374C171.912 80.7833 172 81.0881 172.359 81.438C172.606 81.6242 172.718 81.7879 172.942 82.1152C173.436 82.4877 173.818 82.6965 174.36 82.7867C174.63 82.8318 174.924 82.7358 175.195 82.7809C175.76 82.73 176.213 82.5155 176.689 82.1598C177.007 81.9227 177.166 81.8041 177.484 81.567C177.801 81.3299 178.119 81.0928 178.325 80.692C178.531 80.2912 178.737 79.8904 178.807 79.467C178.901 78.9026 178.972 78.4792 178.748 78.1519Z" fill="white"/>
<path d="M182.648 72.2755C180.619 71.9371 180.078 75.1828 182.107 75.5211C184.002 75.8369 184.543 72.5913 182.648 72.2755Z" fill="white"/>
<path d="M136.112 28.5497C134.082 28.2113 133.541 31.4569 135.571 31.7953C137.625 31.9925 138.142 28.888 136.112 28.5497Z" fill="white"/>
<path d="M102.238 53.2157C100.208 52.8773 99.6669 56.123 101.697 56.4613C103.591 56.7771 104.132 53.5315 102.238 53.2157Z" fill="white"/>
<path d="M75.2714 98.1778C73.2416 97.8395 72.7006 101.085 74.7304 101.423C76.6249 101.739 77.1659 98.4936 75.2714 98.1778Z" fill="white"/>
<path d="M66.6898 122.129C64.66 121.79 64.119 125.036 66.1488 125.374C68.2022 125.571 68.7197 122.467 66.6898 122.129Z" fill="white"/>
<path d="M130.202 125.754C128.172 125.415 127.631 128.661 129.661 128.999C131.579 129.174 132.097 126.069 130.202 125.754Z" fill="white"/>
<path d="M214.681 177.979C214.569 177.816 214.457 177.652 214.346 177.488C214.234 177.325 214.122 177.161 213.851 177.116L213.445 177.048C213.175 177.003 212.88 177.099 212.586 177.195C212.427 177.314 212.292 177.291 212.269 177.432C212.11 177.551 211.927 177.81 211.745 178.07C211.516 178.612 211.286 179.154 211.192 179.718C211.169 179.859 210.986 180.119 211.098 180.283C211.051 180.565 211.163 180.729 211.139 180.87C211.251 181.033 211.363 181.197 211.475 181.361C211.587 181.524 211.698 181.688 211.969 181.733L212.375 181.801C212.646 181.846 212.94 181.75 213.234 181.654C213.393 181.535 213.528 181.558 213.552 181.417C213.71 181.298 213.893 181.039 214.075 180.779C214.305 180.237 214.534 179.695 214.628 179.131C214.675 178.849 214.834 178.73 214.746 178.425C214.746 178.425 214.793 178.143 214.681 177.979Z" fill="white"/>
<path d="M210.104 183.743C208.074 183.405 207.533 186.65 209.563 186.989C211.593 187.327 212.134 184.081 210.104 183.743Z" fill="white"/>
<path d="M206.476 71.171C206.388 70.8662 206.299 70.5614 206.188 70.3978C206.076 70.2341 205.94 70.2115 205.964 70.0704C205.717 69.8842 205.47 69.698 205.199 69.6528L204.928 69.6077C204.658 69.5626 204.523 69.5401 204.364 69.6586C204.228 69.6361 203.934 69.7321 203.775 69.8506C203.616 69.9692 203.458 70.0877 203.411 70.37C203.252 70.4885 203.205 70.7708 203.181 70.9119C203.158 71.053 203.134 71.1941 203.111 71.3352C203.199 71.64 203.287 71.9448 203.399 72.1085C203.511 72.2721 203.646 72.2947 203.623 72.4358C203.87 72.622 204.117 72.8083 204.387 72.8534L204.658 72.8985C204.929 72.9436 205.064 72.9662 205.223 72.8476C205.358 72.8702 205.652 72.7741 205.811 72.6556C205.97 72.537 206.129 72.4185 206.176 72.1362C206.335 72.0177 206.382 71.7355 206.405 71.5943L206.476 71.171Z" fill="white"/>
<path d="M114.396 95.4171C112.367 95.0787 111.826 98.3244 113.855 98.6627C115.909 98.86 116.426 95.7554 114.396 95.4171Z" fill="white"/>
</g>
<defs>
<linearGradient id="paint0_linear_6105_17700" x1="109.424" y1="226.885" x2="149.237" y2="168.798" gradientUnits="userSpaceOnUse">
<stop stop-color="#D08CD6"/>
<stop offset="1" stop-color="#FFB9FF"/>
</linearGradient>
<linearGradient id="paint1_linear_6105_17700" x1="120.892" y1="278.056" x2="186.819" y2="39.7273" gradientUnits="userSpaceOnUse">
<stop stop-color="#DB332F"/>
<stop offset="0.7357" stop-color="#EA3D6D"/>
<stop offset="1" stop-color="#BC27DA"/>
</linearGradient>
<linearGradient id="paint2_linear_6105_17700" x1="120.895" y1="278.057" x2="186.823" y2="39.7264" gradientUnits="userSpaceOnUse">
<stop stop-color="#DB332F"/>
<stop offset="0.7357" stop-color="#EA3D6D"/>
<stop offset="1" stop-color="#BC27DA"/>
</linearGradient>
<linearGradient id="paint3_linear_6105_17700" x1="53.875" y1="424.757" x2="169.41" y2="99.6169" gradientUnits="userSpaceOnUse">
<stop stop-color="#D08CD6"/>
<stop offset="1" stop-color="#FFB9FF"/>
</linearGradient>
<linearGradient id="paint4_linear_6105_17700" x1="42.659" y1="411.819" x2="57.6661" y2="366.816" gradientUnits="userSpaceOnUse">
<stop stop-color="#D08CD6"/>
<stop offset="1" stop-color="#F361E3"/>
</linearGradient>
<linearGradient id="paint5_linear_6105_17700" x1="83.8781" y1="95.3698" x2="73.0206" y2="39.7766" gradientUnits="userSpaceOnUse">
<stop stop-color="#DB332F"/>
<stop offset="1" stop-color="#BC27DA"/>
</linearGradient>
<linearGradient id="paint6_linear_6105_17700" x1="111.263" y1="62.5188" x2="138.584" y2="18.7635" gradientUnits="userSpaceOnUse">
<stop stop-color="#DB332F"/>
<stop offset="1" stop-color="#BC27DA"/>
</linearGradient>
<linearGradient id="paint7_linear_6105_17700" x1="59.8068" y1="182.03" x2="193.7" y2="204.349" gradientUnits="userSpaceOnUse">
<stop stop-color="white" stop-opacity="0"/>
<stop offset="0.5055" stop-color="white"/>
<stop offset="1" stop-color="white" stop-opacity="0"/>
</linearGradient>
<linearGradient id="paint8_linear_6105_17700" x1="193.528" y1="208.404" x2="148.077" y2="254.243" gradientUnits="userSpaceOnUse">
<stop stop-color="white"/>
<stop offset="1" stop-color="white" stop-opacity="0"/>
</linearGradient>
<clipPath id="clip0_6105_17700">
<rect width="211.819" height="400" fill="white" transform="translate(65.7671) rotate(9.46343)"/>
</clipPath>
</defs>
</svg>
